<svg xmlns="http://www.w3.org/2000/svg" xmlns:xlink="http://www.w3.org/1999/xlink" preserveAspectRatio="xMidYMid meet" version="1.0" viewBox="51.8 149.85 347.66 75" zoomAndPan="magnify"><defs><clipPath id="id1"><path d="M 55.617188 149.847656 L 130.617188 149.847656 L 130.617188 224.847656 L 55.617188 224.847656 Z M 55.617188 149.847656" clip-rule="nonzero"/></clipPath><clipPath id="id2"><path d="M 51.804688 155.210938 L 97 155.210938 L 97 199 L 51.804688 199 Z M 51.804688 155.210938" clip-rule="nonzero"/></clipPath><clipPath id="id3"><path d="M 85 176 L 130.554688 176 L 130.554688 219.710938 L 85 219.710938 Z M 85 176" clip-rule="nonzero"/></clipPath></defs><g clip-path="url(#id1)"><path fill="#dee3f5" fill-opacity="1" fill-rule="nonzero" d="M 93.117188 149.847656 C 72.40625 149.847656 55.617188 166.636719 55.617188 187.347656 C 55.617188 208.058594 72.40625 224.847656 93.117188 224.847656 C 113.828125 224.847656 130.617188 208.058594 130.617188 187.347656 C 130.617188 166.636719 113.828125 149.847656 93.117188 149.847656"/></g><path fill="#005ce6" fill-opacity="1" fill-rule="nonzero" d="M 79.582031 176.691406 C 80.167969 175.679688 80.449219 174.527344 80.449219 173.261719 C 80.449219 172 80.167969 170.859375 79.582031 169.835938 C 79 168.824219 78.214844 168.015625 77.207031 167.449219 C 76.199219 166.878906 75.0625 166.59375 73.804688 166.59375 C 72.542969 166.59375 71.410156 166.878906 70.402344 167.449219 C 69.394531 168.015625 68.609375 168.808594 68.023438 169.835938 C 67.441406 170.859375 67.160156 172 67.160156 173.261719 C 67.160156 174.527344 67.441406 175.664062 68.023438 176.691406 C 68.609375 177.71875 69.394531 178.507812 70.402344 179.078125 C 71.410156 179.648438 72.542969 179.933594 73.804688 179.933594 C 75.0625 179.933594 76.199219 179.648438 77.207031 179.078125 C 78.214844 178.507812 79 177.71875 79.582031 176.691406 Z M 79.582031 176.691406"/><g clip-path="url(#id2)"><path fill="#005ce6" fill-opacity="1" fill-rule="nonzero" d="M 96.746094 175.207031 C 96.746094 164.207031 86.667969 155.25 74.277344 155.25 C 61.882812 155.25 51.804688 164.207031 51.804688 175.207031 C 51.804688 180.34375 53.996094 185.210938 57.980469 188.9375 C 58.371094 189.300781 58.46875 189.902344 58.199219 190.378906 L 54.167969 197.394531 C 53.851562 197.929688 54.386719 198.5625 54.972656 198.355469 L 66.449219 194.167969 C 66.6875 194.089844 66.9375 194.074219 67.175781 194.152344 C 69.457031 194.832031 71.851562 195.179688 74.277344 195.179688 C 86.667969 195.179688 96.746094 186.222656 96.746094 175.207031 Z M 82.71875 186.316406 C 81.882812 186.695312 80.96875 186.882812 79.976562 186.882812 C 78.6875 186.882812 77.488281 186.585938 76.417969 186 C 75.332031 185.414062 74.105469 184.402344 72.71875 182.949219 C 70.96875 182.808594 69.410156 182.300781 68.023438 181.417969 C 66.640625 180.546875 65.570312 179.394531 64.78125 177.988281 C 64.011719 176.566406 63.617188 175 63.617188 173.261719 C 63.617188 171.429688 64.058594 169.753906 64.9375 168.269531 C 65.820312 166.785156 67.035156 165.613281 68.578125 164.777344 C 70.121094 163.941406 71.851562 163.511719 73.789062 163.511719 C 75.710938 163.511719 77.441406 163.941406 79 164.777344 C 80.542969 165.613281 81.757812 166.769531 82.636719 168.253906 C 83.519531 169.738281 83.960938 171.398438 83.960938 173.261719 C 83.960938 174.765625 83.660156 176.140625 83.0625 177.417969 C 82.464844 178.683594 81.644531 179.773438 80.574219 180.675781 C 79.519531 181.574219 78.277344 182.207031 76.875 182.601562 C 77.394531 183.15625 77.914062 183.566406 78.417969 183.820312 C 78.921875 184.070312 79.457031 184.199219 80.039062 184.199219 C 81.285156 184.199219 82.355469 183.691406 83.285156 182.679688 L 84.90625 184.625 C 84.292969 185.382812 83.550781 185.9375 82.71875 186.316406 Z M 82.71875 186.316406"/></g><path fill="#005ce6" fill-opacity="1" fill-rule="nonzero" d="M 104.496094 198.671875 L 111.582031 198.671875 L 108.023438 190.394531 Z M 104.496094 198.671875"/><g clip-path="url(#id3)"><path fill="#005ce6" fill-opacity="1" fill-rule="nonzero" d="M 124.164062 211.503906 C 123.894531 211.03125 123.972656 210.445312 124.382812 210.066406 C 128.367188 206.335938 130.554688 201.46875 130.554688 196.335938 C 130.554688 185.320312 120.476562 176.375 108.085938 176.375 C 104.871094 176.375 101.785156 176.960938 98.890625 178.113281 C 98.605469 180.121094 98.007812 182.066406 97.125 183.929688 C 95.867188 186.585938 94.070312 188.96875 91.789062 191.007812 C 89.976562 192.636719 87.914062 193.980469 85.660156 195.023438 C 85.628906 195.464844 85.613281 195.890625 85.613281 196.335938 C 85.613281 207.347656 95.691406 216.292969 108.085938 216.292969 C 110.511719 216.292969 112.902344 215.945312 115.1875 215.265625 C 115.421875 215.203125 115.675781 215.203125 115.910156 215.28125 L 127.390625 219.46875 C 127.972656 219.675781 128.507812 219.042969 128.195312 218.503906 Z M 114.636719 205.816406 L 112.746094 201.4375 L 103.3125 201.4375 L 101.441406 205.816406 L 97.835938 205.816406 L 106.320312 186.867188 L 109.769531 186.867188 L 118.304688 205.816406 Z M 114.636719 205.816406"/></g><g fill="#f9fbff" fill-opacity="1"><g><g><path d="M 10.59375 -25.703125 L 10.59375 -19.234375 L 21.015625 -19.234375 L 21.015625 -13.234375 L 10.59375 -13.234375 L 10.59375 -6.234375 L 22.375 -6.234375 L 22.375 0 L 2.8125 0 L 2.8125 -31.9375 L 22.375 -31.9375 L 22.375 -25.703125 Z M 10.59375 -25.703125" transform="translate(144.90937, 203.249987)"/></g></g></g><g fill="#f9fbff" fill-opacity="1"><g><g><path d="M 31.390625 0 L 23.609375 0 L 10.59375 -19.6875 L 10.59375 0 L 2.8125 0 L 2.8125 -31.9375 L 10.59375 -31.9375 L 23.609375 -12.140625 L 23.609375 -31.9375 L 31.390625 -31.9375 Z M 31.390625 0" transform="translate(169.51428, 203.249987)"/></g></g></g><g fill="#f9fbff" fill-opacity="1"><g><g><path d="M 17.921875 0.3125 C 14.921875 0.3125 12.164062 -0.378906 9.65625 -1.765625 C 7.15625 -3.160156 5.171875 -5.109375 3.703125 -7.609375 C 2.234375 -10.117188 1.5 -12.9375 1.5 -16.0625 C 1.5 -19.175781 2.234375 -21.976562 3.703125 -24.46875 C 5.171875 -26.957031 7.15625 -28.898438 9.65625 -30.296875 C 12.164062 -31.691406 14.921875 -32.390625 17.921875 -32.390625 C 20.921875 -32.390625 23.671875 -31.691406 26.171875 -30.296875 C 28.671875 -28.898438 30.640625 -26.957031 32.078125 -24.46875 C 33.523438 -21.976562 34.25 -19.175781 34.25 -16.0625 C 34.25 -12.9375 33.519531 -10.117188 32.0625 -7.609375 C 30.613281 -5.109375 28.644531 -3.160156 26.15625 -1.765625 C 23.664062 -0.378906 20.921875 0.3125 17.921875 0.3125 Z M 17.921875 -6.78125 C 20.460938 -6.78125 22.5 -7.628906 24.03125 -9.328125 C 25.5625 -11.023438 26.328125 -13.269531 26.328125 -16.0625 C 26.328125 -18.875 25.5625 -21.117188 24.03125 -22.796875 C 22.5 -24.484375 20.460938 -25.328125 17.921875 -25.328125 C 15.335938 -25.328125 13.28125 -24.492188 11.75 -22.828125 C 10.21875 -21.160156 9.453125 -18.90625 9.453125 -16.0625 C 9.453125 -13.238281 10.21875 -10.984375 11.75 -9.296875 C 13.28125 -7.617188 15.335938 -6.78125 17.921875 -6.78125 Z M 17.921875 -6.78125" transform="translate(203.715564, 203.249987)"/></g></g></g><g fill="#f9fbff" fill-opacity="1"><g><g><path d="M 19.109375 0 L 12.46875 -12.046875 L 10.59375 -12.046875 L 10.59375 0 L 2.8125 0 L 2.8125 -31.9375 L 15.875 -31.9375 C 18.394531 -31.9375 20.539062 -31.492188 22.3125 -30.609375 C 24.082031 -29.734375 25.40625 -28.53125 26.28125 -27 C 27.164062 -25.46875 27.609375 -23.757812 27.609375 -21.875 C 27.609375 -19.75 27.007812 -17.851562 25.8125 -16.1875 C 24.613281 -14.519531 22.847656 -13.335938 20.515625 -12.640625 L 27.875 0 Z M 10.59375 -17.5625 L 15.421875 -17.5625 C 16.847656 -17.5625 17.914062 -17.910156 18.625 -18.609375 C 19.332031 -19.304688 19.6875 -20.289062 19.6875 -21.5625 C 19.6875 -22.769531 19.332031 -23.722656 18.625 -24.421875 C 17.914062 -25.117188 16.847656 -25.46875 15.421875 -25.46875 L 10.59375 -25.46875 Z M 10.59375 -17.5625" transform="translate(239.463186, 203.249987)"/></g></g></g><g fill="#f9fbff" fill-opacity="1"><g><g><path d="M 38.984375 -31.9375 L 38.984375 0 L 31.203125 0 L 31.203125 -19.15625 L 24.0625 0 L 17.78125 0 L 10.59375 -19.1875 L 10.59375 0 L 2.8125 0 L 2.8125 -31.9375 L 12.015625 -31.9375 L 20.96875 -9.828125 L 29.84375 -31.9375 Z M 38.984375 -31.9375" transform="translate(269.116428, 203.249987)"/></g></g></g><g fill="#f9fbff" fill-opacity="1"><g><g><path d="M 17.921875 0.3125 C 14.921875 0.3125 12.164062 -0.378906 9.65625 -1.765625 C 7.15625 -3.160156 5.171875 -5.109375 3.703125 -7.609375 C 2.234375 -10.117188 1.5 -12.9375 1.5 -16.0625 C 1.5 -19.175781 2.234375 -21.976562 3.703125 -24.46875 C 5.171875 -26.957031 7.15625 -28.898438 9.65625 -30.296875 C 12.164062 -31.691406 14.921875 -32.390625 17.921875 -32.390625 C 20.921875 -32.390625 23.671875 -31.691406 26.171875 -30.296875 C 28.671875 -28.898438 30.640625 -26.957031 32.078125 -24.46875 C 33.523438 -21.976562 34.25 -19.175781 34.25 -16.0625 C 34.25 -12.9375 33.519531 -10.117188 32.0625 -7.609375 C 30.613281 -5.109375 28.644531 -3.160156 26.15625 -1.765625 C 23.664062 -0.378906 20.921875 0.3125 17.921875 0.3125 Z M 17.921875 -6.78125 C 20.460938 -6.78125 22.5 -7.628906 24.03125 -9.328125 C 25.5625 -11.023438 26.328125 -13.269531 26.328125 -16.0625 C 26.328125 -18.875 25.5625 -21.117188 24.03125 -22.796875 C 22.5 -24.484375 20.460938 -25.328125 17.921875 -25.328125 C 15.335938 -25.328125 13.28125 -24.492188 11.75 -22.828125 C 10.21875 -21.160156 9.453125 -18.90625 9.453125 -16.0625 C 9.453125 -13.238281 10.21875 -10.984375 11.75 -9.296875 C 13.28125 -7.617188 15.335938 -6.78125 17.921875 -6.78125 Z M 17.921875 -6.78125" transform="translate(310.867459, 203.249987)"/></g></g></g><g fill="#005ce6" fill-opacity="1"><g><g><path d="M 25.578125 5.453125 L 21.46875 -0.046875 C 20.257812 0.191406 19.078125 0.3125 17.921875 0.3125 C 14.921875 0.3125 12.171875 -0.382812 9.671875 -1.78125 C 7.171875 -3.175781 5.179688 -5.125 3.703125 -7.625 C 2.234375 -10.125 1.5 -12.9375 1.5 -16.0625 C 1.5 -19.1875 2.234375 -21.988281 3.703125 -24.46875 C 5.179688 -26.957031 7.171875 -28.898438 9.671875 -30.296875 C 12.171875 -31.691406 14.921875 -32.390625 17.921875 -32.390625 C 20.929688 -32.390625 23.6875 -31.691406 26.1875 -30.296875 C 28.6875 -28.898438 30.65625 -26.957031 32.09375 -24.46875 C 33.539062 -21.988281 34.265625 -19.1875 34.265625 -16.0625 C 34.265625 -13.332031 33.707031 -10.835938 32.59375 -8.578125 C 31.488281 -6.316406 29.953125 -4.441406 27.984375 -2.953125 L 34.984375 5.453125 Z M 9.46875 -16.0625 C 9.46875 -13.238281 10.234375 -10.984375 11.765625 -9.296875 C 13.296875 -7.617188 15.347656 -6.78125 17.921875 -6.78125 C 20.472656 -6.78125 22.515625 -7.628906 24.046875 -9.328125 C 25.578125 -11.023438 26.34375 -13.269531 26.34375 -16.0625 C 26.34375 -18.882812 25.578125 -21.132812 24.046875 -22.8125 C 22.515625 -24.5 20.472656 -25.34375 17.921875 -25.34375 C 15.347656 -25.34375 13.296875 -24.507812 11.765625 -22.84375 C 10.234375 -21.175781 9.46875 -18.914062 9.46875 -16.0625 Z M 9.46875 -16.0625" transform="translate(335.316516, 203.24943)"/></g></g></g><g fill="#005ce6" fill-opacity="1"><g><g><path d="M 22.15625 -16.375 C 24.007812 -15.976562 25.492188 -15.0625 26.609375 -13.625 C 27.734375 -12.1875 28.296875 -10.539062 28.296875 -8.6875 C 28.296875 -6.019531 27.363281 -3.90625 25.5 -2.34375 C 23.632812 -0.78125 21.035156 0 17.703125 0 L 2.828125 0 L 2.828125 -31.9375 L 17.203125 -31.9375 C 20.441406 -31.9375 22.976562 -31.191406 24.8125 -29.703125 C 26.65625 -28.222656 27.578125 -26.207031 27.578125 -23.65625 C 27.578125 -21.78125 27.082031 -20.21875 26.09375 -18.96875 C 25.101562 -17.726562 23.789062 -16.863281 22.15625 -16.375 Z M 10.59375 -19.015625 L 15.703125 -19.015625 C 16.972656 -19.015625 17.945312 -19.296875 18.625 -19.859375 C 19.3125 -20.421875 19.65625 -21.25 19.65625 -22.34375 C 19.65625 -23.4375 19.3125 -24.269531 18.625 -24.84375 C 17.945312 -25.414062 16.972656 -25.703125 15.703125 -25.703125 L 10.59375 -25.703125 Z M 16.328125 -6.28125 C 17.640625 -6.28125 18.648438 -6.570312 19.359375 -7.15625 C 20.066406 -7.75 20.421875 -8.609375 20.421875 -9.734375 C 20.421875 -10.859375 20.050781 -11.738281 19.3125 -12.375 C 18.570312 -13.007812 17.550781 -13.328125 16.25 -13.328125 L 10.59375 -13.328125 L 10.59375 -6.28125 Z M 16.328125 -6.28125" transform="translate(371.164388, 203.24943)"/></g></g></g></svg>