<svg xmlns="http://www.w3.org/2000/svg" xmlns:xlink="http://www.w3.org/1999/xlink" width="500" zoomAndPan="magnify" viewBox="0 0 375 374.999991" height="500" preserveAspectRatio="xMidYMid meet" version="1.0"><defs><clipPath id="id1"><path d="M 48.519531 37.5 L 340.109375 37.5 L 340.109375 329.09375 L 48.519531 329.09375 Z M 48.519531 37.5 " clip-rule="nonzero"/></clipPath><clipPath id="id2"><path d="M 33.707031 58.351562 L 209 58.351562 L 209 227 L 33.707031 227 Z M 33.707031 58.351562 " clip-rule="nonzero"/></clipPath><clipPath id="id3"><path d="M 165 140 L 339.878906 140 L 339.878906 309 L 165 309 Z M 165 140 " clip-rule="nonzero"/></clipPath></defs><rect x="-37.5" width="450" fill="#ffffff" y="-37.499999" height="449.999989" fill-opacity="1"/><rect x="-37.5" width="450" fill="#ffffff" y="-37.499999" height="449.999989" fill-opacity="1"/><rect x="-37.5" width="450" fill="#ffffff" y="-37.499999" height="449.999989" fill-opacity="1"/><rect x="-37.5" width="450" fill="#ffffff" y="-37.499999" height="449.999989" fill-opacity="1"/><g clip-path="url(#id1)"><path fill="#dee3f5" d="M 194.316406 37.5 C 113.792969 37.5 48.519531 102.773438 48.519531 183.296875 C 48.519531 263.816406 113.792969 329.09375 194.316406 329.09375 C 274.835938 329.09375 340.113281 263.816406 340.113281 183.296875 C 340.113281 102.773438 274.835938 37.5 194.316406 37.5 " fill-opacity="1" fill-rule="nonzero"/></g><path fill="#005ce6" d="M 141.703125 141.867188 C 143.96875 137.9375 145.070312 133.453125 145.070312 128.535156 C 145.070312 123.621094 143.96875 119.199219 141.703125 115.203125 C 139.4375 111.273438 136.375 108.140625 132.457031 105.925781 C 128.539062 103.714844 124.128906 102.609375 119.234375 102.609375 C 114.335938 102.609375 109.925781 103.714844 106.007812 105.925781 C 102.089844 108.140625 99.03125 111.210938 96.765625 115.203125 C 94.5 119.199219 93.398438 123.621094 93.398438 128.535156 C 93.398438 133.453125 94.5 137.875 96.765625 141.867188 C 99.03125 145.863281 102.089844 148.933594 106.007812 151.144531 C 109.925781 153.355469 114.335938 154.464844 119.234375 154.464844 C 124.128906 154.464844 128.539062 153.355469 132.457031 151.144531 C 136.375 148.933594 139.4375 145.863281 141.703125 141.867188 Z M 141.703125 141.867188 " fill-opacity="1" fill-rule="nonzero"/><g clip-path="url(#id2)"><path fill="#005ce6" d="M 208.433594 136.09375 C 208.433594 93.332031 169.25 58.496094 121.070312 58.496094 C 72.886719 58.496094 33.707031 93.332031 33.707031 136.09375 C 33.707031 156.0625 42.214844 174.984375 57.703125 189.484375 C 59.234375 190.894531 59.601562 193.230469 58.5625 195.074219 L 42.890625 222.351562 C 41.664062 224.441406 43.746094 226.898438 46.011719 226.101562 L 90.640625 209.820312 C 91.558594 209.511719 92.539062 209.449219 93.457031 209.757812 C 102.335938 212.398438 111.640625 213.75 121.070312 213.75 C 169.25 213.75 208.433594 178.914062 208.433594 136.09375 Z M 153.886719 179.285156 C 150.640625 180.757812 147.089844 181.496094 143.230469 181.496094 C 138.210938 181.496094 133.558594 180.328125 129.394531 178.054688 C 125.171875 175.78125 120.394531 171.851562 115.007812 166.199219 C 108.214844 165.644531 102.152344 163.679688 96.765625 160.238281 C 91.375 156.859375 87.214844 152.375 84.152344 146.90625 C 81.152344 141.378906 79.621094 135.292969 79.621094 128.535156 C 79.621094 121.410156 81.335938 114.898438 84.765625 109.121094 C 88.191406 103.347656 92.90625 98.800781 98.90625 95.542969 C 104.90625 92.289062 111.640625 90.628906 119.171875 90.628906 C 126.640625 90.628906 133.375 92.289062 139.4375 95.542969 C 145.4375 98.800781 150.148438 103.285156 153.578125 109.0625 C 157.007812 114.835938 158.722656 121.285156 158.722656 128.535156 C 158.722656 134.375 157.558594 139.71875 155.230469 144.695312 C 152.90625 149.609375 149.722656 153.847656 145.558594 157.351562 C 141.457031 160.851562 136.621094 163.308594 131.171875 164.847656 C 133.191406 166.996094 135.210938 168.59375 137.171875 169.578125 C 139.128906 170.558594 141.210938 171.050781 143.476562 171.050781 C 148.3125 171.050781 152.476562 169.085938 156.089844 165.152344 L 162.394531 172.710938 C 160.007812 175.660156 157.128906 177.808594 153.886719 179.285156 Z M 153.886719 179.285156 " fill-opacity="1" fill-rule="nonzero"/></g><path fill="#005ce6" d="M 238.554688 227.328125 L 266.105469 227.328125 L 252.269531 195.136719 Z M 238.554688 227.328125 " fill-opacity="1" fill-rule="nonzero"/><g clip-path="url(#id3)"><path fill="#005ce6" d="M 315.023438 277.214844 C 313.980469 275.371094 314.289062 273.097656 315.878906 271.625 C 331.367188 257.125 339.878906 238.203125 339.878906 218.234375 C 339.878906 175.414062 300.695312 140.640625 252.515625 140.640625 C 240.023438 140.640625 228.023438 142.914062 216.761719 147.398438 C 215.65625 155.199219 213.332031 162.757812 209.902344 170.007812 C 205.003906 180.328125 198.027344 189.605469 189.148438 197.53125 C 182.109375 203.859375 174.089844 209.082031 165.332031 213.136719 C 165.210938 214.855469 165.148438 216.515625 165.148438 218.234375 C 165.148438 261.058594 204.332031 295.832031 252.515625 295.832031 C 261.941406 295.832031 271.246094 294.480469 280.125 291.839844 C 281.042969 291.59375 282.023438 291.59375 282.941406 291.898438 L 327.574219 308.179688 C 329.835938 308.980469 331.917969 306.523438 330.695312 304.433594 Z M 277.984375 255.097656 L 270.636719 238.078125 L 233.964844 238.078125 L 226.679688 255.097656 L 212.660156 255.097656 L 245.65625 181.433594 L 259.066406 181.433594 L 292.246094 255.097656 Z M 277.984375 255.097656 " fill-opacity="1" fill-rule="nonzero"/></g></svg>