<svg xmlns="http://www.w3.org/2000/svg" data-name="Layer 1" width="731.077" height="629.614"><path d="m304.106 546.98 7.984-26.004a87.77 87.77 0 0 0-35.084-23.506c13.125 21.744.407 50.108 5.707 74.946a52.794 52.794 0 0 0 28.277 35.978l12.117 15.014a88.466 88.466 0 0 0 6.502-73.787 85.453 85.453 0 0 0-9.894-19.018c-7.2 8.465-15.61 16.378-15.61 16.378z" fill="#f2f2f2"/><path d="m260.2 550.303-4.45-26.836a87.77 87.77 0 0 0-41.885-5.392c21.444 13.608 22.711 44.667 38.532 64.535a52.794 52.794 0 0 0 41.354 19.59l17.541 8.034a88.466 88.466 0 0 0-27.087-68.942 85.453 85.453 0 0 0-17.338-12.609c-2.67 10.788-6.667 21.62-6.667 21.62z" fill="#f2f2f2"/><path fill="#ffb6b6" d="m521.537 616.734-12.3-.001-5.851-47.44 18.153.001-.002 47.44z"/><path d="m524.673 628.656-39.658-.001v-.502a15.437 15.437 0 0 1 15.436-15.436h.001l7.244-5.496 13.516 5.497h3.462z" fill="#2f2e41"/><path fill="#ffb6b6" d="m720.217 571.872-8.386 8.997-38.694-28.065 12.377-13.278 34.703 32.346z"/><path d="m731.077 577.706-27.04 29.01-.367-.342a15.437 15.437 0 0 1-.768-21.816h.001l.919-9.047 13.236-6.14 2.36-2.532zM702.018 545.21l-13 27.19-79.83-52.855-11.613-15.824-38.078-51.882-15.48 24.56-10.77 25.676a28.302 28.302 0 0 0-12.674 20.654l-.493 4.545 6.806 61.183-25.868 7.943-14.857-82.19 4.857-17.81 5-25 25.174-79h67.364l38.637 82.242 2.825 16.758 10.955 12.572z" fill="#2f2e41"/><path d="m562.022 263.148 11.34 8.635 13.676 4.203s5.654 79.528 10.748 84.622.5 5.232 1.523 11.85 3.512 20.183 3.512 20.183c-34.387 18.203-64.032 18.691-87.845-2.609a5.931 5.931 0 0 1 3.236-6.695c4.432-2.351-4.085-13.327-.463-15.162s-1.473-17.755-1.473-17.755l3.342-33.216-2.64-5.31 6.443-32.488 11.18-4.083 4.466-10.76z" fill="#3f3d56"/><path d="M569.126 404.497a9.83 9.83 0 0 1 11.207-10.08l15.982-31.064 8.904 15.82-16.542 27.073a9.884 9.884 0 0 1-19.551-1.75z" fill="#ffb6b6"/><path d="m596.04 396.898 34.279-53.128-.114-.244c-.129-.28-7.891-17.045-15.413-32.4a880.22 880.22 0 0 0-3.428-6.928q-.724-1.446-1.427-2.83c-3.159-6.228-5.919-11.376-7.566-13.82a29.015 29.015 0 0 0-15.375-11.664l-.159-.041-.151.063a14.724 14.724 0 0 0-8.763 16.197 104.296 104.296 0 0 0 19.353 43.755l5.557 7.325-19.312 41.985z" fill="#3f3d56"/><path d="M478.167 193.252a9.83 9.83 0 0 1-2.359 14.888l7.146 34.195-16.879-6.683-4.198-31.447a9.884 9.884 0 0 1 16.29-10.953z" fill="#ffb6b6"/><path d="m462.044 216.103 6.825 62.857.242.118c.2.098 8.847 4.34 19.461 9.39 1.791.853 1.534 4.544 3.406 5.426 1.289.608 4.693-1.597 5.996-.988 11.602 5.426 23.334 10.702 28.01 12.131a29.015 29.015 0 0 0 19.288-.62l.15-.069.077-.144a14.724 14.724 0 0 0-3.392-18.101 104.296 104.296 0 0 0-42.587-21.804l-8.93-2.19-11.435-44.777z" fill="#3f3d56"/><circle cx="549.931" cy="237.156" r="22.431" fill="#ffb6b6"/><path d="M527.661 222.125c1.845-5.366 11.027-9.089 25.914-9.606s18.662 17.026 18.662 17.026c9.938 8.061-10.611 29.645-11.606 28.867l.447-4.055c.74-6.717 3.886-11.957-.114-18.957l-3.841.044-14.882 2.861 5.873-5.17-.166-.257a22.726 22.726 0 0 1-8.016 2.434c-3.157.186-6.608-1.07-8.12-3.847a6.466 6.466 0 0 1-.725-2.46c-4.257 1.7-6.203 6.948-6.203 6.948s.932-8.461 2.777-13.828zM90.373 223.47a12.015 12.015 0 0 0-.98-1.098c.084-.117.17-.245.255-.362zM94.736 313.687c-3.67 6.517-10.997 10.154-18.26 11.935a45.628 45.628 0 0 1-24.821-.48 34.79 34.79 0 0 1-3.04-1.141 26.191 26.191 0 0 0 1.13-3.893 26.702 26.702 0 0 0 .555-5.45 17.207 17.207 0 0 1-3.104 4.276 15.695 15.695 0 0 1-3.253 2.614 31.947 31.947 0 0 1-9.44-8.768c.16-.395.32-.79.47-1.184a42.552 42.552 0 0 0 1.834-6.336 43.324 43.324 0 0 0 .907-8.863 27.851 27.851 0 0 1-5.056 6.954 22.67 22.67 0 0 1-1.941 1.845 25.523 25.523 0 0 1 1.536-19.636c4.223-7.808 12.415-12.448 19.711-17.493 7.306-5.045 14.613-11.872 15.231-20.736.416-5.983-2.357-11.978-1.247-17.866a13.804 13.804 0 0 1 23.444-7.093c-4.138 5.867-8.256 11.936-9.93 18.912-1.707 7.103-.31 15.434 5.29 20.138 1.92 1.62 4.277 2.773 5.76 4.8 1.973 2.687 1.984 6.271 2.304 9.578.64 6.432 2.741 12.618 3.872 18.986 1.141 6.357 1.205 13.258-1.952 18.9z" fill="#2f2e41"/><path fill="#a0616a" d="m19.519 578.195 9.735 7.521 33.644-33.969-14.368-11.101-29.011 37.549z"/><path d="m19.933 570.846 16.098 10.972-5.094 6.593 6.822 21.408a5.204 5.204 0 0 1-8.14 5.7l-18.32-14.157 1.88-8.961-6.271 5.569L0 592.632zM68.908 242.421a23.236 23.236 0 1 0 39.966-16.117l-.112-.111c-.186-.195-.372-.39-.567-.576a.01.01 0 0 1-.01-.01c-.24-.223-.482-.446-.733-.66-4.09-3.587-9.838-7.481-15.703-7.481-12.835 0-22.841 12.12-22.841 24.955z" fill="#2f2e41"/><path d="M201.35 230.488a8.511 8.511 0 0 1-9.217 9.24l-57.539 51.952-9.901-15.639 59.672-46.149a8.557 8.557 0 0 1 16.985.596z" fill="#a0616a"/><path d="M110.003 307.36s2.141 3.955 9.454-2.15c5.854-4.889 33.903-26.108 39.945-34.804a6.686 6.686 0 0 0 7.873-2.285l-16.557-14.5c-4.953.57-4.847 3.898-4.331 5.787l-12.489 5.659-32.25 20.61 6.757 18.853z" fill="#005ce6"/><path fill="#a0616a" d="m78.761 343.789-1.206 5.743-1.024 21.184 45.084 2.478-1.4-32.582-4.37-7.18-37.084 10.357z"/><circle cx="97.868" cy="247.797" r="19.484" fill="#a0616a"/><path d="m63.276 319.665-.12-16.197a25.776 25.776 0 0 1 19.962-25.124l.073-.017 3.853-5.191 15.654 1.566 2.869 5.863 11.342 6.754 4.367 14.039a16.602 16.602 0 0 1 7.174 11.119c1.483 9.47-5.148 18.946-5.937 20.033l-2.032 11.445-44.21 7.801-.36.045z" fill="#005ce6"/><path d="M121.711 244.324a66.428 66.428 0 0 1-7.061 3.893 40.632 40.632 0 0 1-7.701 2.784 26.617 26.617 0 0 0-2.773-4.725 17.184 17.184 0 0 1 .021 5.28 27.507 27.507 0 0 1-13.13-1.078l-3.67-6.154-.277 6.869c-3.04.554-6.069 1.077-9.109 1.621-.181.021-.362.064-.533.096-1.888-8.512.79-17.887 6.741-23.562a21.445 21.445 0 0 1 22.527-4.373c.48.192.97.405 1.44.63a.01.01 0 0 0 .01.01c.278.139.513.47.822.437 13.312-1.483 13.738 8.842 12.693 18.272z" fill="#2f2e41"/><path fill="#a0616a" d="m89.297 553.071 9.75 7.501 33.576-34.037-14.39-11.071-28.936 37.607z"/><path d="m90.58 546.4 16.12 10.94-5.08 6.603 6.865 21.395a5.204 5.204 0 0 1-8.129 5.715l-18.349-14.119 1.863-8.965-6.26 5.582-6.919-5.324z" fill="#2f2e41"/><path d="M57.659 511.53v-.128l4.62-7.963-4.718-10.365-.142-26.63.765-3.999a33.632 33.632 0 0 0-.872-16.158l-.086-16.21c-.166-4.06 6.125-7.632 4.658-11.018-13.866-31.999 14.16-56.41 14.349-56.606l.572-.595 3.108 2.354 2.957.003 39.912 7.273.288.537c1.57 2.945 4.6 13.094 4.78 17.686 1.989 2.303 24.646 28.522 26.66 30.343 13.611 12.316 21.404 32.699 24.838 43.753a17.555 17.555 0 0 1-3.006 16.143l-51.527 56.439-13.866-12.8 27.88-50.805-2.01-5.155a15.843 15.843 0 0 1-9.237-5.366l-5.646-6.7a12.53 12.53 0 0 1-2.86-6.518l-3.423-.412-12.264-12.876-8.508 77.052-2.313 6.087-40.284 47.358-17.066-10.666z" fill="#2f2e41"/><path d="M51.507 180.677a8.511 8.511 0 0 0 2.623 12.784l-12.81 37.922 10.46 40.188 16.866-7.625-10.407-30.312 7.786-44.122a8.557 8.557 0 0 0-14.518-8.835z" fill="#a0616a"/><path d="M66.945 304.683s-3.961 2.127-6.716-6.992c-2.206-7.301-17.216-46.94-17.486-57.526a6.686 6.686 0 0 1-5.321-6.236l21.8-3.016c3.825 3.198 1.908 5.92.439 7.215l7.425 12.577 15.52 33.953-12.77 18.538z" fill="#005ce6"/><path d="M78.007 252.812a39.634 39.634 0 0 1 30.513-26.517c.028-.01.121-.046.242-.102.074-.047.167-.093.26-.14a17.859 17.859 0 0 0-.827-.436.01.01 0 0 1-.01-.01c-.24-.223-.482-.446-.733-.66l-.707.028s-24.825-3.931-28.738 27.837z" fill="#fd6584"/><ellipse cx="624.318" cy="599.483" rx="8.857" ry="10.195" transform="rotate(-56.364 380.925 750.686)" fill="#f2f2f2"/><ellipse cx="569.318" cy="447.483" rx="8.857" ry="10.195" transform="rotate(-56.364 325.925 598.686)" fill="#f2f2f2"/><ellipse cx="799.318" cy="681.483" rx="8.857" ry="10.195" transform="rotate(-56.364 555.925 832.686)" fill="#f2f2f2"/><ellipse cx="334.318" cy="192.483" rx="8.857" ry="10.195" transform="rotate(-56.364 90.926 343.686)" fill="#f2f2f2"/><ellipse cx="551.318" cy="144.483" rx="8.857" ry="10.195" transform="rotate(-56.364 307.926 295.686)" fill="#f2f2f2"/><ellipse cx="448.618" cy="547.197" rx="8.857" ry="10.195" transform="rotate(-56.364 205.225 698.4)" fill="#e6e6e6"/><path d="M670.267 629.614H19.973a1.19 1.19 0 0 1 0-2.381h650.294a1.19 1.19 0 0 1 0 2.381z" fill="#ccc"/><path d="M141.009 234.162a22.24 22.24 0 0 1-22.045-19.83L106.268 96.424a22.23 22.23 0 0 1 19.701-24.456l376.954-40.587a22.23 22.23 0 0 1 24.456 19.7l12.695 117.906a22.231 22.231 0 0 1-19.7 24.456l-.054-.497.053.497-376.954 40.588a22.494 22.494 0 0 1-2.41.13z" fill="#e6e6e6"/><path d="M498.771 36.855a19.852 19.852 0 0 0-2.12.114L133.288 76.094a19.46 19.46 0 0 0-17.264 21.43l6.419 59.615a73.811 73.811 0 0 0 81.29 65.487l255.504-27.511a73.587 73.587 0 0 0 65.287-81.043l-6.443-59.838a19.463 19.463 0 0 0-19.31-17.379z" fill="#fff"/><path d="m422.252 98.897-203.088 21.867a4.444 4.444 0 1 1-.952-8.837L421.301 90.06a4.444 4.444 0 1 1 .951 8.837zM425.173 126.02l-203.089 21.867a4.444 4.444 0 0 1-.951-8.837l203.088-21.868a4.444 4.444 0 0 1 .952 8.838zM248.672 172.461l-23.667 2.548a4.444 4.444 0 0 1-.952-8.837l23.667-2.548a4.444 4.444 0 1 1 .952 8.837z" fill="#005ce6"/><circle cx="133.018" cy="93.4" r="8" fill="#3f3d56"/><circle cx="491.018" cy="53.4" r="8" fill="#3f3d56"/><path d="M382.861 225.636a6.587 6.587 0 0 1-2.236-5.195 87.66 87.66 0 0 0-5.63-34.077 6.587 6.587 0 0 1 .446-5.639 6.439 6.439 0 0 1 4.449-3.13c9.299-5.61 18.831-7.186 28.338-4.68a6.515 6.515 0 0 1 7.163 4.49 144.983 144.983 0 0 1 6.365 38.525 6.514 6.514 0 0 1-5.446 6.576l-28.133 4.648a6.438 6.438 0 0 1-5.316-1.518z" fill="#005ce6"/><path d="m385.36 191.78 23.679-3.911a1.5 1.5 0 1 0-.49-2.96l-23.678 3.912a1.5 1.5 0 0 0 .489 2.96zM387.316 203.62l23.679-3.912a1.5 1.5 0 0 0-.49-2.96l-23.678 3.912a1.5 1.5 0 1 0 .489 2.96zM389.272 215.46l23.679-3.912a1.5 1.5 0 0 0-.49-2.96l-23.678 3.912a1.5 1.5 0 1 0 .489 2.96z" fill="#fff"/></svg>