<svg xmlns="http://www.w3.org/2000/svg" viewBox="0 0 500 500"><path style="fill:#ebebeb" d="M0 382.4h500v.25H0zM416.78 398.49h33.12v.25h-33.12zM322.53 401.21h8.69v.25h-8.69zM396.59 389.21h19.19v.25h-19.19zM52.46 390.89h43.19v.25H52.46zM104.56 390.89h6.33v.25h-6.33zM131.47 395.11h93.68v.25h-93.68zM237 337.8H43.91a5.71 5.71 0 0 1-5.7-5.71V60.66a5.71 5.71 0 0 1 5.7-5.66H237a5.71 5.71 0 0 1 5.71 5.71v271.38a5.71 5.71 0 0 1-5.71 5.71zM43.91 55.2a5.46 5.46 0 0 0-5.45 5.46v271.43a5.46 5.46 0 0 0 5.45 5.46H237a5.47 5.47 0 0 0 5.46-5.46V60.66A5.47 5.47 0 0 0 237 55.2zM453.31 337.8h-193.1a5.72 5.72 0 0 1-5.71-5.71V60.66a5.72 5.72 0 0 1 5.71-5.66h193.1a5.71 5.71 0 0 1 5.69 5.66v271.43a5.71 5.71 0 0 1-5.69 5.71zM260.21 55.2a5.47 5.47 0 0 0-5.46 5.46v271.43a5.47 5.47 0 0 0 5.46 5.46h193.1a5.47 5.47 0 0 0 5.46-5.46V60.66a5.47 5.47 0 0 0-5.46-5.46z"/><path style="fill:#f5f5f5" d="M359.66 169.43h48.03l-.74-6.49h-48.03l.74 6.49zM363.1 199.79h48.03l-.74-6.49h-48.03l.74 6.49zM366.54 230.15h48.03l-.74-6.5H365.8l.74 6.5zM369.97 260.5h48.04l-.74-6.49h-48.03l.73 6.49zM373.41 290.86h48.03l-.73-6.5h-48.03l.73 6.5zM376.85 321.21h48.03l-.73-6.49h-48.03l.73 6.49zM380.29 351.57h48.03l-.73-6.5h-48.03l.73 6.5z"/><path style="fill:#ebebeb" d="M428.52 382.45h7.52L409.7 150.02h-7.52l26.34 232.43zM379.57 382.45h7.53l-26.34-232.43h-7.52l26.33 232.43z"/><path transform="rotate(180 350.435 114.725)" style="fill:#f0f0f0" d="M288.5 111.15h123.86v7.14H288.5z"/><path d="m311.26 91.7-.73-1a1.38 1.38 0 0 0-1.12-.59h-5.08a1.22 1.22 0 0 0-1.06.59l-.6 1a1.23 1.23 0 0 1-1.06.59h-3a1.23 1.23 0 0 0-1.24 1.32l1 17a1.41 1.41 0 0 0 1.38 1.32h24a1.22 1.22 0 0 0 1.23-1.32l-1-17a1.41 1.41 0 0 0-1.38-1.32h-10.22a1.38 1.38 0 0 1-1.12-.59z" style="fill:#e0e0e0"/><path d="M325 93.91h-22a1.85 1.85 0 0 0-1.81 1.65l-1.33 14.7a1.49 1.49 0 0 0 1.52 1.65h22a1.85 1.85 0 0 0 1.81-1.65l1.32-14.7a1.48 1.48 0 0 0-1.51-1.65z" style="fill:#e6e6e6"/><path d="m351.26 91.7-.73-1a1.38 1.38 0 0 0-1.12-.59h-5.08a1.22 1.22 0 0 0-1.06.59l-.6 1a1.23 1.23 0 0 1-1.06.59h-3a1.23 1.23 0 0 0-1.24 1.32l1 17a1.41 1.41 0 0 0 1.38 1.32h24a1.22 1.22 0 0 0 1.23-1.32l-1-17a1.41 1.41 0 0 0-1.38-1.32h-10.22a1.38 1.38 0 0 1-1.12-.59z" style="fill:#e0e0e0"/><path d="M365 93.91h-22a1.85 1.85 0 0 0-1.81 1.65l-1.33 14.7a1.49 1.49 0 0 0 1.52 1.65h22a1.85 1.85 0 0 0 1.81-1.65l1.32-14.7a1.48 1.48 0 0 0-1.51-1.65z" style="fill:#e6e6e6"/><path d="m391.26 91.7-.73-1a1.38 1.38 0 0 0-1.12-.59h-5.08a1.22 1.22 0 0 0-1.06.59l-.6 1a1.23 1.23 0 0 1-1.06.59h-3a1.23 1.23 0 0 0-1.24 1.32l1 17a1.41 1.41 0 0 0 1.38 1.32h24a1.22 1.22 0 0 0 1.23-1.32l-1-17a1.41 1.41 0 0 0-1.38-1.32h-10.22a1.38 1.38 0 0 1-1.12-.59z" style="fill:#e0e0e0"/><path d="M405 93.91h-22a1.85 1.85 0 0 0-1.81 1.65l-1.33 14.7a1.49 1.49 0 0 0 1.52 1.65h22a1.85 1.85 0 0 0 1.81-1.65l1.32-14.7a1.48 1.48 0 0 0-1.51-1.65z" style="fill:#e6e6e6"/><path style="fill:#f5f5f5" d="M68.81 102.42h145.73v92.7H68.81z"/><path style="fill:#e0e0e0" d="M68.81 102.42h145.73v6.28H68.81z"/><path d="M212.38 105.56a1.9 1.9 0 1 1-1.9-1.9 1.9 1.9 0 0 1 1.9 1.9zM206.09 105.56a1.9 1.9 0 1 1-1.9-1.9 1.9 1.9 0 0 1 1.9 1.9zM199.8 105.56a1.9 1.9 0 1 1-1.89-1.9 1.89 1.89 0 0 1 1.89 1.9z" style="fill:#fafafa"/><path d="m95.17 119.59-.9-1.25a1.73 1.73 0 0 0-1.4-.73h-6.32a1.51 1.51 0 0 0-1.31.73l-.75 1.25a1.54 1.54 0 0 1-1.32.73H79.4a1.52 1.52 0 0 0-1.53 1.68l1.22 21.11a1.75 1.75 0 0 0 1.72 1.64h29.9a1.52 1.52 0 0 0 1.53-1.64L111 122a1.75 1.75 0 0 0-1.72-1.64H96.56a1.75 1.75 0 0 1-1.39-.77z" style="fill:#e0e0e0"/><path d="M112.29 122.33H84.9a2.31 2.31 0 0 0-2.26 2L81 142.66a1.85 1.85 0 0 0 1.88 2.05h27.39a2.29 2.29 0 0 0 2.25-2.05l1.65-18.28a1.85 1.85 0 0 0-1.88-2.05z" style="fill:#e6e6e6"/><path d="m140.78 119.59-.9-1.25a1.73 1.73 0 0 0-1.4-.73h-6.32a1.51 1.51 0 0 0-1.31.73l-.75 1.25a1.54 1.54 0 0 1-1.32.73H125a1.52 1.52 0 0 0-1.53 1.64l1.22 21.11a1.75 1.75 0 0 0 1.72 1.64h29.9a1.52 1.52 0 0 0 1.53-1.64L156.63 122a1.75 1.75 0 0 0-1.72-1.64h-12.74a1.75 1.75 0 0 1-1.39-.77z" style="fill:#e0e0e0"/><path d="M157.9 122.33h-27.39a2.3 2.3 0 0 0-2.26 2l-1.64 18.28a1.84 1.84 0 0 0 1.88 2.05h27.39a2.29 2.29 0 0 0 2.25-2.05l1.65-18.28a1.85 1.85 0 0 0-1.88-2z" style="fill:#e6e6e6"/><path d="m186.39 119.59-.9-1.25a1.73 1.73 0 0 0-1.4-.73h-6.32a1.51 1.51 0 0 0-1.31.73l-.76 1.25a1.52 1.52 0 0 1-1.31.73h-3.77a1.52 1.52 0 0 0-1.53 1.64l1.22 21.11a1.75 1.75 0 0 0 1.72 1.64h29.9a1.52 1.52 0 0 0 1.53-1.64L202.24 122a1.75 1.75 0 0 0-1.72-1.64h-12.74a1.73 1.73 0 0 1-1.39-.77z" style="fill:#e0e0e0"/><path d="M203.5 122.33h-27.39a2.3 2.3 0 0 0-2.25 2l-1.64 18.28a1.84 1.84 0 0 0 1.88 2.05h27.39a2.29 2.29 0 0 0 2.25-2.05l1.65-18.28a1.85 1.85 0 0 0-1.89-2z" style="fill:#e6e6e6"/><path d="m95.17 158.21-.9-1.24a1.74 1.74 0 0 0-1.4-.74h-6.32a1.51 1.51 0 0 0-1.31.74l-.75 1.24a1.52 1.52 0 0 1-1.32.73H79.4a1.53 1.53 0 0 0-1.53 1.65l1.22 21.11a1.75 1.75 0 0 0 1.72 1.64h29.9a1.53 1.53 0 0 0 1.53-1.64L111 160.59a1.75 1.75 0 0 0-1.72-1.65H96.56a1.72 1.72 0 0 1-1.39-.73z" style="fill:#e0e0e0"/><path d="M112.29 161H84.9a2.31 2.31 0 0 0-2.26 2L81 181.29a1.85 1.85 0 0 0 1.88 2.05h27.39a2.3 2.3 0 0 0 2.25-2.05l1.65-18.29a1.85 1.85 0 0 0-1.88-2z" style="fill:#e6e6e6"/><path d="m140.78 158.21-.9-1.24a1.74 1.74 0 0 0-1.4-.74h-6.32a1.51 1.51 0 0 0-1.31.74l-.75 1.24a1.52 1.52 0 0 1-1.32.73H125a1.52 1.52 0 0 0-1.53 1.65l1.22 21.11a1.75 1.75 0 0 0 1.72 1.64h29.9a1.53 1.53 0 0 0 1.53-1.64l-1.22-21.11a1.75 1.75 0 0 0-1.72-1.65h-12.73a1.72 1.72 0 0 1-1.39-.73z" style="fill:#e0e0e0"/><path d="M157.9 161h-27.39a2.3 2.3 0 0 0-2.26 2l-1.64 18.28a1.85 1.85 0 0 0 1.88 2.05h27.39a2.3 2.3 0 0 0 2.25-2.05l1.65-18.28a1.85 1.85 0 0 0-1.88-2z" style="fill:#e6e6e6"/><path d="m186.39 158.21-.9-1.24a1.74 1.74 0 0 0-1.4-.74h-6.32a1.51 1.51 0 0 0-1.31.74l-.76 1.24a1.49 1.49 0 0 1-1.31.73h-3.77a1.52 1.52 0 0 0-1.53 1.65l1.22 21.11a1.75 1.75 0 0 0 1.72 1.64h29.9a1.53 1.53 0 0 0 1.53-1.64l-1.22-21.11a1.75 1.75 0 0 0-1.72-1.65h-12.74a1.71 1.71 0 0 1-1.39-.73z" style="fill:#e0e0e0"/><path d="M203.5 161h-27.39a2.3 2.3 0 0 0-2.25 2l-1.64 18.28a1.85 1.85 0 0 0 1.88 2.05h27.39a2.3 2.3 0 0 0 2.25-2.05l1.65-18.28a1.85 1.85 0 0 0-1.89-2z" style="fill:#e6e6e6"/><path d="M92.2 348.72c0-.35 1.19-35.11 6.84-40.61 5.5-5.34 11.81-.2 12.08 0l.56-.68c-.07-.06-7.19-5.88-13.26 0-5.9 5.74-7.06 39.76-7.1 41.21z" style="fill:#e0e0e0"/><path d="M91.71 355.55c.05-.42 3.87-41.73-11.22-59l-.67.58c14.84 17 11.05 58 11 58.37z" style="fill:#e0e0e0"/><path d="m92.27 351.18.89-.06c0-.47-3-47 8.11-57.14l-.6-.65c-11.38 10.46-8.52 55.92-8.4 57.85z" style="fill:#e0e0e0"/><path d="M90.83 351.15h.89c0-1.29-.37-31.41-8.93-36.31a6 6 0 0 0-5.53-.54c-5.18 2.14-7.74 11.34-7.85 11.74l.86.23c0-.09 2.55-9.18 7.33-11.16a5.22 5.22 0 0 1 4.75.49c8.12 4.66 8.48 35.24 8.48 35.55zM94.16 351.17l.89-.05c0-.23-1.29-23.8 5.07-32.11 1.54-2 3.21-3 5-2.84 4.17.29 7.66 6.39 7.7 6.45l.77-.44c-.16-.27-3.77-6.57-8.41-6.9-2.08-.14-4 .93-5.75 3.2-6.58 8.52-5.32 31.71-5.27 32.69z" style="fill:#e0e0e0"/><path d="M92.77 354.38c.17-2.29 4.16-56.1-2.85-65.58l-.72.52c6.82 9.22 2.73 64.44 2.69 65z" style="fill:#e0e0e0"/><path d="M75.35 319.75s4.21 1.55 3 5.21-14.55 9.69-14.55 9.69-5.57-5.11-.46-13.41 11.9-4.11 12.01-1.49zM93.64 312.78s-4.48-.19-4.74 3.67S98.61 331 98.61 331s7.1-2.57 5.58-12.2-9.44-8.39-10.55-6.02zM97.43 294.3s-3-.32-2.75-2.14 11.61-6.5 18.32 1.07c0 0-4.3 7.38-10.51 7.48s-5.06-6.41-5.06-6.41zM91.86 289.89s2.71 1.3 3.47-.37-6.42-11.65-16.11-8.78c0 0-.26 8.54 5 11.9s7.64-2.75 7.64-2.75z" style="fill:#ebebeb"/><path d="M106 318.28s-2.06-1.67.16-2.48 13.14-.58 13.26 10.23c0 0-12.71 2.11-14.29-2s.87-5.75.87-5.75zM80.08 294s2.06-1.66-.16-2.47-13.14-.53-13.25 10.25c0 0 12.71 2.12 14.28-2s-.87-5.78-.87-5.78zM86.8 302.74s.18-2-1.45-1.23-7.32 6.93-1.42 12.75c0 0 7.93-5.87 6.5-8.94s-3.63-2.58-3.63-2.58zM107.84 305.62s-1.23-1.61.58-1.81 9.89 2 8 10c0 0-9.85-.74-10.27-4.1s1.69-4.09 1.69-4.09z" style="fill:#ebebeb"/><path style="fill:#f0f0f0" d="M74.56 381.12h33.8l3.65-37.01H70.92l3.64 37.01z"/><path transform="rotate(180 91.465 344.11)" style="fill:#e6e6e6" d="M69.11 340.03h44.7v8.17h-44.7z"/><g><ellipse cx="250" cy="416.24" rx="193.89" ry="11.32" style="fill:#f5f5f5"/></g><g><path d="M181.53 240.12c-.09 3.68-.76 8.36-3.65 11-3.72 3.35-10 1-12.37-2.86" style="fill:none;stroke:#263238;stroke-linecap:round;stroke-linejoin:round;stroke-width:.706753540165186px"/><path d="m181.33 268.35 9 6.85s2.31.31 2.95 1.15 2.82 6.84 2.34 7.57-5.33 1.75-6.21.73-2-6.48-1.93-7l-11.61-7.57z" style="fill:#eec1bb"/><path d="m187.55 271.82-3.15 5.39s-16.51-10.33-19.21-12c-.6-.36-1.82-2.07-3.26-4.57-5.17-9-13.21-28.06-5.64-31.84 4.14-2.07 6.53 4.51 6.53 4.51s.48 2.09 1.21 5c.29 1.19.62 2.53 1 3.93 1.67 6.54 3.83 14.4 4.86 15.33 1.77 1.75 17.66 14.25 17.66 14.25z" style="fill:#005ce6"/><path d="M161.93 260.67c-5.17-9-13.21-28.06-5.64-31.84 4.14-2.07 6.53 4.51 6.53 4.51s.48 2.09 1.21 5a28.89 28.89 0 0 1 1 3.93c.82 4.73 1.3 12.45-3.1 18.4z" style="opacity:.2;isolation:isolate"/><path d="M138.5 248.37s-5.38 1.84-14.41-2.28c-3.94-1.79-13.48-11.53-13.48-11.53s8.2-12.13 30.85-16.51c0 0 14.88 1.93 26.11 26.17 0 0-11 5.99-29.07 4.15z" style="fill:#005ce6"/><path d="m156.4 262.39 7.14 8.8s2.17.85 2.6 1.82 1.11 7.31.47 7.91-5.59.44-6.21-.77-.42-6.77-.2-7.29l-9.48-10.11z" style="fill:#eec1bb"/><path style="fill:#e4897b" d="m155.48 398.45-6.07 1.07-2.48-8.27-2.27-7.59 6.99-2.44 2.03 9.12 1.8 8.11z"/><path style="opacity:.2;isolation:isolate" d="m153.72 390.52-6.76.9-2.29-7.68 6.99-2.48 2.06 9.26z"/><path style="fill:#e4897b" d="M114.99 401.24h-6.16l-1.01-8.67-.92-7.92 7.32-1.21.41 9.42.36 8.38z"/><path style="opacity:.2;isolation:isolate" d="m114.63 392.94-6.81-.3-.92-7.95 7.32-1.24.41 9.49z"/><path d="M123.34 413.44a10.44 10.44 0 0 0-3.29-1.79s-3.58-3.54-5.3-14.23l-4.68-1.22a4 4 0 0 0-4.26 1.67 2.17 2.17 0 0 0-.3.61A27.36 27.36 0 0 0 105 402a96.9 96.9 0 0 0-.07 11.73h.85l.34-7.36c.12-2.5 2 .43 2.58 3.12s1.71 5.56 7.19 5.69c6.41.08 9.11-.18 7.45-1.74zM164.2 412.72a10.33 10.33 0 0 0-3.29-1.79s-3.57-3.55-5.29-14.23l-4.69-1.22a4 4 0 0 0-4.26 1.66 2.07 2.07 0 0 0-.29.62 25.22 25.22 0 0 0-.5 3.47c-.48 3.62-.07 11.73-.07 11.73h.84l.34-7.36c.13-2.5 2 .43 2.59 3.12s1.71 5.56 7.19 5.69c6.39.13 9.05-.12 7.43-1.69zM154.29 385.71l-10 1.76c-10.07-25.07-17.22-46-22.28-63.35-2.72-9.37-5-17.71-6.62-25.1l.31 27.29v61.47h-9.8c-23.57-112.27-26.45-131.63 2.23-151l3.05-2.78s1 5.12 9.67 10.39c7.26 4.41 16.39 4.7 16.39 4.7l-6.58 6.26 1.33 9.77 11.51 59.49z" style="fill:#263238"/><g style="opacity:.2"><path d="m154.29 385.71-10 1.76c-10.07-25.07-17.22-46-22.28-63.35-2.72-9.37-5-17.71-6.62-25.1l.31 27.29v61.47h-9.8c-23.57-112.27-26.45-131.63 2.23-151l3.05-2.78s1 5.12 9.67 10.39c7.26 4.41 16.39 4.7 16.39 4.7l-6.58 6.26 1.33 9.77 11.51 59.49z" style="fill:#fff"/></g><path d="M122 324.12c-2.72-9.37-4.84-17.71-6.47-25.1a230.59 230.59 0 0 1 1.9-26.17s4.36 33.76 4.57 51.27z" style="opacity:.2;isolation:isolate"/><path d="M111.18 234s8.32 11 27.32 14.37l-3.56 2.95a42.3 42.3 0 0 1-26.81-14.5z"/><path d="M132.52 247.67a1.53 1.53 0 0 0-.87-.84l-3-1.22a1.77 1.77 0 0 0-2.11.51l-1.06 1.5a1.15 1.15 0 0 0-.14 1.09 1.44 1.44 0 0 0 .74.78l.13.06 3 1.22a1.8 1.8 0 0 0 2.11-.52l1.05-1.49a1.18 1.18 0 0 0 .15-1.09zm-3 2.47-3-1.22a.74.74 0 0 1-.42-.41.56.56 0 0 1 .07-.53l1.06-1.49a.84.84 0 0 1 1-.25l3 1.22h.06a.7.7 0 0 1 .36.38.56.56 0 0 1-.07.53l-.16.22a.33.33 0 0 0-.1-.06l-.84-.35a.59.59 0 0 0-.74.2.44.44 0 0 0 .26.63l.83.35-.34.49a.88.88 0 0 1-.92.29z" style="fill:#fff"/><path d="M183.46 215.59a14 14 0 0 1 2.85 11c-.71 5.83-2.55 14.3-1.53 19.59s-1.73 10.48-4.23 10.58c0 0 3.07-2.2 2.94-5.43s-1-8.64-1-8.64-.43 5.46-4 7.53-12.47-1.3-15.32-9.65-7.42-10.63-9.69-14.25-2.15-7 3.36-10.25 21.88-6.36 26.62-.48z" style="fill:#263238"/><path d="m161.06 240.12-2.61-1.38c-2 3.05-9.83 0-9.83 0-3.46-6.12 1.85-14.57 1.85-14.57 1.5 2.77 6.67 2.77 7.77 2.72h.21z" style="fill:#eec1bb"/><path d="m161.06 240.12-2.61-1.38a14.52 14.52 0 0 0-4.93-1.09s-.42-6.32 3.93-10.25a2.87 2.87 0 0 1 .79-.51h.21z" style="opacity:.2;isolation:isolate"/><path d="M178.15 213.56s9.48 4.6 6.51 12.7a13 13 0 0 1-11 8.49z" style="fill:#263238"/><path d="M174.91 216.81c6.72 3.87 6.82 8.72 3.32 15.93-4.37 9-9.83 14.07-17.18 7.38-9.98-9.12 2.68-29.74 13.86-23.31z" style="fill:#eec1bb"/><path d="M174.1 229.86a16.43 16.43 0 0 0 .35 3.92 2.14 2.14 0 0 1-2.21-.26z" style="fill:#d4827d"/><path d="M170.3 227c-.31.56-.86.84-1.23.64s-.43-.82-.12-1.38.85-.85 1.22-.65.43.77.13 1.39z" style="fill:#263238"/><path d="m170 225.51 1.48.18s-1.16.7-1.48-.18zM177.32 230.62c-.3.56-.85.85-1.22.65s-.43-.83-.13-1.39.86-.85 1.23-.64.43.82.12 1.38z" style="fill:#263238"/><path d="m177 229.18 1.48.19s-1.14.69-1.48-.19z" style="fill:#263238"/><path d="M172.9 222.26a4 4 0 0 0-3.5-.66M178 224.79a3.6 3.6 0 0 1 2.36 2.1" style="fill:none;stroke:#263238;stroke-linecap:round;stroke-linejoin:round;stroke-width:.706753540165186px"/><path d="M161 223.92s6.33-3.72 8.3-8.26c0 0 16.47 2.22 9.34 16.13 0 0 8.22-11.27-3.19-18.19s-21.12 6.8-18 15.28c-.01 0-.35-2.63 3.55-4.96z" style="fill:#263238"/><path d="M179.58 213.78s3.88 2.11 4.48 4.5-14.37 5.41-20.66 2.75c0 0-5.57 3.94-6 7.85 0 0-5.32-5.29.67-15.16s18.57-6.87 21.51.06z" style="fill:#263238"/><path d="M161.31 226a3.41 3.41 0 0 0-1.62-4.53c-2.22-1-5.68 2.74-1.08 6.75.66.55 1.5.06 2.7-2.22z" style="fill:#eec1bb"/><path d="M184 218.94s-7.18 6.81-16.51 4.61M167.49 232.11s-.56 2.25 2.13 4.5" style="fill:none;stroke:#263238;stroke-linecap:round;stroke-linejoin:round;stroke-width:.706753540165186px"/><path d="M152.48 248.32a64.72 64.72 0 0 1-14 .05 10.36 10.36 0 0 1-2.75.39 30.64 30.64 0 0 1-.78-5.57c-.27-6.16 1.09-17.1 2.58-19s8.37.9 9.18 6.09c0 0 .94 14 2.19 15.21.72.64 2.31 1.87 3.58 2.83z" style="opacity:.2;isolation:isolate"/><path d="M141.46 218.94c-10.72 1.56-2.24 34.35 0 36.59s15.82 16.2 15.82 16.2l4.34-4.49s-12.46-15.92-13.81-17.92-1.08-25.32-1.08-25.32.27-5.86-5.27-5.06z" style="fill:#005ce6"/></g><g><path style="fill:#005ce6" d="M226.15 122.52h192.7v293.39h-192.7z"/><path style="fill:#fff;opacity:.6000000000000001" d="M226.15 122.52h192.7v293.39h-192.7z"/><path style="opacity:.2;isolation:isolate" d="M344.01 122.52h74.84v293.39h-74.84zM231.79 279.51H337.7v105.91H231.79z"/><path style="opacity:.2;isolation:isolate" d="M310.95 279.51h26.75v105.91h-26.75z"/><path style="opacity:.2;isolation:isolate" d="m231.79 279.51 30.95 30.94H337.7v-30.94H231.79zM231.79 164.63H337.7v105.91H231.79z"/><path style="fill:#005ce6" d="M231.79 164.63h102.89v105.91H231.79z"/><path style="fill:#fff;opacity:.7000000000000001" d="M231.79 164.63h102.89v105.91H231.79z"/><path style="fill:#fff" d="M260.57 177.3h36.79v9.49h-36.79z"/><path d="m313.39 224.41-9.74-12.84h-1.94v8.72h-2.57l3.31 4.12a.27.27 0 0 1-.21.43H274.5a1.61 1.61 0 0 1-1.26-.63l-3-3.92h-11.1l8 10a1.6 1.6 0 0 0 1.24.59h43.72a1.58 1.58 0 0 0 1.58-1.58v-3.95a1.58 1.58 0 0 0-.29-.94z" style="opacity:.1;isolation:isolate"/><rect x="248.7" y="210.92" width="55.19" height="10.68" rx="1.55" style="fill:#005ce6"/><rect x="248.7" y="210.92" width="42.73" height="10.68" rx="1.55" style="fill:#fff;opacity:.2"/><path d="M263.55 183.06a8.69 8.69 0 0 0 4.79-3.88 5.61 5.61 0 0 0-2.41 4.53c1.78.28 2.58-2.44 4.32-2.92l-.6 2.64a3.14 3.14 0 0 0 2.49-.85 5.11 5.11 0 0 0 3.68-1.44 1.36 1.36 0 0 0-1.68-.57l5.65.53a1 1 0 0 0-1.24 1.05 1 1 0 0 0 1.6.53 1 1 0 0 0 .34-.52 1.69 1.69 0 0 1 .16-.51c.2-.28.61-.25.94-.2a39.76 39.76 0 0 0 10.28.26" style="fill:none;stroke:#263238;stroke-linecap:round;stroke-linejoin:round;stroke-width:.5px"/><path style="opacity:.1;isolation:isolate" d="m337.7 330.02 6.31 7.85v78.04h-94.54l-23.32-25.7 111.55-60.19z"/><path style="fill:#005ce6" d="M232.45 134.98h49.19v19.19h-49.19z"/><path style="fill:#fff" d="M232.45 134.98h16.42v19.19h-16.42z"/><path d="M245.73 141.68c-.53 2.92-.84 4.24.11 6.42s.44 2.67-.61 3-9 2.34-9.62-.55.52-2.94 0-5.3-.84-5.15.08-6.5 10.04 2.93 10.04 2.93z" style="fill:#263238"/><path d="M233.37 151.77a11.59 11.59 0 0 1 6.72-1.79 23 23 0 0 1 8.06 1.79v1.41h-14.78z" style="fill:#005ce6"/><path d="M243.14 150.6a3 3 0 0 1-1.81 1.85c-1.38-.3-3.36-2.28-3.36-2.28 1.17-.67.94-2.62.67-3.8a8.87 8.87 0 0 0-.24-.88l1.47-.22 2.17 1.92s0 .15-.08.38a5.86 5.86 0 0 0-.11 2.32 1 1 0 0 0 .12.25 1.51 1.51 0 0 0 1.17.46z" style="fill:#eec1bb"/><path d="M242 150.06a2.46 2.46 0 0 1-.72-.12c-1.39-.43-2.21-2.37-2.59-3.57a7.52 7.52 0 0 1-.24-.88l3.56 2.08a5.86 5.86 0 0 0-.11 2.32 1 1 0 0 0 .1.17z" style="opacity:.2;isolation:isolate"/><path d="M241.62 137.09s3.77-.12 4.17 2.94a4.63 4.63 0 0 1-2.06 4.52z" style="fill:#263238"/><path d="M241.13 138.66c2.78.11 3.61 1.63 3.7 4.5.12 3.58-.77 6.09-4.21 5.19-4.68-1.22-4.1-9.87.51-9.69z" style="fill:#eec1bb"/><path d="M243.05 142.93a5.58 5.58 0 0 0 .76 1.18.77.77 0 0 1-.75.29z" style="fill:#d4827d"/><path d="M241.36 142.64c0 .23-.13.41-.29.41s-.27-.19-.27-.42.13-.41.29-.41.27.19.27.42z" style="fill:#263238"/><path d="m241 142.23.5-.19s-.23.42-.5.19zM244.19 142.63c0 .23-.13.42-.28.41s-.27-.19-.27-.41.13-.41.28-.41.28.19.27.41z" style="fill:#263238"/><path d="m243.86 142.23.5-.19s-.25.41-.5.19zM240.18 141.22a.11.11 0 0 1-.08 0 .13.13 0 0 1 0-.18 1.53 1.53 0 0 1 1.33-.41.12.12 0 0 1 .11.14.14.14 0 0 1-.15.11 1.26 1.26 0 0 0-1.1.33.13.13 0 0 1-.11.01zM244.52 141.08h-.07a1.21 1.21 0 0 0-1-.26.13.13 0 0 1-.16-.08.13.13 0 0 1 .08-.16 1.41 1.41 0 0 1 1.22.29.14.14 0 0 1 0 .18.12.12 0 0 1-.07.03z" style="fill:#263238"/><path d="M237.91 143.22a8.31 8.31 0 0 0 1.26-4s5.59-2 5.65 3.56c0 0 .73-4.94-4-5.23s-5.56 5.66-3.18 7.84c-.04 0-.58-.77.27-2.17z" style="fill:#263238"/><path d="M242.11 136.92s1.58 0 2.16.68-3.65 4.11-6.09 4.31c0 0-1.11 2.18-.58 3.48 0 0-2.56-.79-2.3-4.92a4.38 4.38 0 0 1 6.81-3.55z" style="fill:#263238"/><path d="M238.35 143.82a1.23 1.23 0 0 0-1.27-1.16c-.87.06-1.34 1.81.78 2.32.3.07.49-.22.49-1.16z" style="fill:#eec1bb"/><path d="M239.9 142.16a.13.13 0 0 1-.12-.1.11.11 0 0 1 .09-.15 6.89 6.89 0 0 0 4.38-4.13.13.13 0 0 1 .24.08 7.14 7.14 0 0 1-4.56 4.29zM242.75 145.94a1.81 1.81 0 0 1-1.52-1.17.13.13 0 0 1 .09-.15.13.13 0 0 1 .16.09s.2.74 1.33 1a.13.13 0 0 1 .09.15.12.12 0 0 1-.15.08zM246.34 148.39a.13.13 0 0 1-.12-.09 3 3 0 0 0-.22-.48 4.18 4.18 0 0 1-.29-2.85v-.19c.28-2.23.59-4.76-1.17-6.32a.12.12 0 0 1 0-.17.13.13 0 0 1 .18 0c1.87 1.64 1.54 4.24 1.26 6.53v.19c-.22 1.76 0 2.22.27 2.7a4.28 4.28 0 0 1 .22.52.12.12 0 0 1-.07.16z" style="fill:#263238"/><path d="M266.07 139.93h-13.58a1.2 1.2 0 0 1-1.2-1.2 1.19 1.19 0 0 1 1.2-1.19h13.58a1.19 1.19 0 0 1 1.19 1.19 1.19 1.19 0 0 1-1.19 1.2zM275.47 145.71h-23.24a.94.94 0 0 1-.94-.94.94.94 0 0 1 .94-1h23.24a.94.94 0 0 1 .94 1 .94.94 0 0 1-.94.94zM271.47 149.33h-19.24a.94.94 0 0 1-.94-.94.94.94 0 0 1 .94-.95h19.24a.94.94 0 0 1 .94.95.94.94 0 0 1-.94.94z" style="fill:#fff"/><path d="M329.61 291.11h-56.68l-.58-3.66a1.67 1.67 0 0 0-1.69-1.42H255a2.2 2.2 0 0 0-2 1.42l-1.37 3.66h-12.72a5 5 0 0 0-4.87 4.4l-7.75 71a3.87 3.87 0 0 0 3.91 4.41h90.7a5 5 0 0 0 4.86-4.41l7.75-71a3.86 3.86 0 0 0-3.9-4.4z" style="fill:#005ce6"/><path d="M329.61 291.11h-56.68l-.58-3.66a1.67 1.67 0 0 0-1.69-1.42H255a2.2 2.2 0 0 0-2 1.42l-1.37 3.66h-12.72a5 5 0 0 0-4.87 4.4l-7.75 71a3.87 3.87 0 0 0 3.91 4.41h90.7a5 5 0 0 0 4.86-4.41l7.75-71a3.86 3.86 0 0 0-3.9-4.4z" style="opacity:.4;isolation:isolate"/><path style="fill:#005ce6" d="m226.44 368.2 3.04-73.82h98.06l-4.88 72.2-96.22 1.62z"/><path style="fill:#fff;opacity:.7000000000000001" d="m226.44 368.2 3.04-73.82h98.06l-4.88 72.2-96.22 1.62z"/><path d="M319.64 371.2h-90.71a4.22 4.22 0 0 1-4.35-4.11l.55-66.22a4.28 4.28 0 0 1 4.41-4.11h90.71a4.22 4.22 0 0 1 4.35 4.11l-.54 66.22a4.3 4.3 0 0 1-4.42 4.11z" style="fill:#005ce6"/><path d="M319.64 371.2h-90.71a4.22 4.22 0 0 1-4.35-4.11l.55-66.22a4.28 4.28 0 0 1 4.41-4.11h90.71a4.22 4.22 0 0 1 4.35 4.11l-.54 66.22a4.3 4.3 0 0 1-4.42 4.11z" style="opacity:.25;isolation:isolate"/><path style="opacity:.15;isolation:isolate" d="m283.24 296.76 1.84 67.18h-49.63l-2.88-67.18h50.67z"/><path d="M268.58 288.86H211.9l-1-3.64a1.9 1.9 0 0 0-1.84-1.42h-15.63a1.9 1.9 0 0 0-1.84 1.42l-1 3.64h-12.71a4.38 4.38 0 0 0-4.38 4.38v70.64a4.38 4.38 0 0 0 4.38 4.38h90.7a4.39 4.39 0 0 0 4.39-4.38v-70.64a4.39 4.39 0 0 0-4.39-4.38z" style="fill:#005ce6"/><path d="M268.58 288.86H211.9l-1-3.64a1.9 1.9 0 0 0-1.84-1.42h-15.63a1.9 1.9 0 0 0-1.84 1.42l-1 3.64h-12.71a4.38 4.38 0 0 0-4.38 4.38v70.64a4.38 4.38 0 0 0 4.38 4.38h90.7a4.39 4.39 0 0 0 4.39-4.38v-70.64a4.39 4.39 0 0 0-4.39-4.38z" style="opacity:.15;isolation:isolate"/><path style="fill:#005ce6" d="m173.83 365.56-5.02-73.45h98.06l3 71.83-96.04 1.62z"/><path style="fill:#fff;opacity:.8" d="m173.83 365.56-5.02-73.45h98.06l3 71.83-96.04 1.62z"/><path d="M267.35 368.54h-90.7a4.81 4.81 0 0 1-4.8-4.09l-6.69-65.88a3.77 3.77 0 0 1 4-4.09h90.71a4.79 4.79 0 0 1 4.79 4.09l6.69 65.88a3.77 3.77 0 0 1-4 4.09z" style="fill:#005ce6"/><path style="fill:#005ce6" d="m243.72 344.26 93.98-14.24v51.17l-87.1 16.67-6.88-53.6z"/><path style="fill:#fff;opacity:.5" d="m243.72 344.26 93.98-14.24v51.17l-87.1 16.67-6.88-53.6z"/><path style="fill:#fff;opacity:.7000000000000001" d="m243.72 344.26 1.32 1.45 92.66-14.25v-1.44l-93.98 14.24z"/><path style="opacity:.2;isolation:isolate" d="m259.14 341.93 4.24.96 3.49 51.86-16.27 3.11-6.88-53.6 15.42-2.33z"/><path style="fill:#005ce6" d="M259.14 404.6h-105.9l-6.66-104.33h105.91l6.65 104.33z"/><path style="fill:#fff;opacity:.7000000000000001" d="M259.14 404.6h-105.9l-6.66-104.33h105.91l6.65 104.33z"/><path style="opacity:.2;isolation:isolate" d="M259.14 404.6h-3.01l-6.66-104.33h3.02l6.65 104.33z"/><path style="fill:#fff" d="M213.54 322.11h-36.79l-.59-9.36h36.79l.59 9.36z"/><path d="m231.94 359.16-10.55-12.65h-1.94l.55 8.59h-2.57l3.56 4.06a.25.25 0 0 1-.18.42h-27.74a1.72 1.72 0 0 1-1.3-.62l-3.22-3.86h-11.12l8.66 9.87a1.7 1.7 0 0 0 1.27.59h43.73a1.46 1.46 0 0 0 1.48-1.56l-.25-3.89a1.69 1.69 0 0 0-.38-.95z" style="opacity:.1;isolation:isolate"/><path d="M220.71 356.4h-52.09a1.66 1.66 0 0 1-1.64-1.53l-.48-7.47a1.42 1.42 0 0 1 1.45-1.52H220a1.67 1.67 0 0 1 1.65 1.52l.47 7.47a1.42 1.42 0 0 1-1.41 1.53z" style="fill:#005ce6"/><path d="M208.25 356.4h-39.63a1.66 1.66 0 0 1-1.64-1.53l-.48-7.47a1.42 1.42 0 0 1 1.45-1.52h39.63a1.65 1.65 0 0 1 1.64 1.52l.48 7.47a1.43 1.43 0 0 1-1.45 1.53z" style="fill:#fff;opacity:.2"/><path d="M179.85 317.44a3.52 3.52 0 0 0 3.87-1.17c0 .79-.23 1.81-.18 2.71a8.48 8.48 0 0 0 1.7-2.45c-.74 1.63 1.2 2 2.34 1.46a2.28 2.28 0 0 0 1.33-1.95c0-.26-.11-.58-.37-.63s-.46.17-.59.38c-.46.71-1 2.67.12 2.91s2.42-1.65 2.72-2.42a1.7 1.7 0 0 0-.93 1.66c1.16-.05 2.75.23 2.82-1.33-.1 2.06 1.86 1.36 2.58 0-.23.73.86 1.1 1.62 1.09l10.21-.23" style="fill:none;stroke:#263238;stroke-linecap:round;stroke-linejoin:round;stroke-width:.5px"/></g></svg>