<svg xmlns="http://www.w3.org/2000/svg" version="1.0" viewBox="107.45 75.61 234.2 222.88"><defs><clipPath id="a"><path d="M118.77 75.61h222.878v222.878H118.77zm0 0"/></clipPath><clipPath id="b"><path d="M107.45 91.547H241V220H107.45zm0 0"/></clipPath><clipPath id="c"><path d="M207 154h134.469v129H207zm0 0"/></clipPath></defs><g clip-path="url(#a)"><path fill="#dee3f5" d="M230.207 75.61c-61.543 0-111.437 49.89-111.437 111.437s49.894 111.441 111.437 111.441c61.547 0 111.441-49.894 111.441-111.441 0-61.547-49.894-111.438-111.441-111.438"/></g><path fill="#005ce6" d="M189.996 155.383c1.73-3.004 2.57-6.434 2.57-10.192 0-3.757-.84-7.136-2.57-10.187-1.734-3.008-4.074-5.402-7.066-7.094-2.996-1.691-6.368-2.535-10.11-2.535-3.742 0-7.113.844-10.11 2.535-2.991 1.692-5.331 4.04-7.062 7.094-1.734 3.05-2.574 6.43-2.574 10.187 0 3.758.84 7.141 2.574 10.192 1.73 3.05 4.07 5.398 7.063 7.09 2.996 1.691 6.367 2.535 10.11 2.535 3.742 0 7.113-.844 10.109-2.535 2.992-1.692 5.332-4.04 7.066-7.09zm0 0"/><g clip-path="url(#b)"><path fill="#005ce6" d="M241 150.969c0-32.684-29.95-59.309-66.777-59.309-36.825 0-66.774 26.625-66.774 59.309 0 15.261 6.504 29.726 18.344 40.808 1.168 1.078 1.45 2.864.652 4.274l-11.976 20.847c-.938 1.598.652 3.477 2.386 2.868l34.114-12.446c.699-.234 1.449-.28 2.152-.047a73.993 73.993 0 0 0 21.102 3.051C211.05 210.324 241 183.7 241 150.97zm-41.695 33.011c-2.477 1.13-5.192 1.692-8.14 1.692-3.837 0-7.395-.895-10.575-2.629-3.23-1.738-6.88-4.746-11-9.066-5.192-.422-9.824-1.922-13.942-4.555-4.12-2.582-7.3-6.008-9.64-10.188-2.293-4.226-3.465-8.875-3.465-14.043 0-5.445 1.312-10.425 3.934-14.84 2.617-4.413 6.222-7.886 10.808-10.374 4.586-2.493 9.735-3.758 15.488-3.758 5.711 0 10.856 1.265 15.489 3.758 4.586 2.488 8.191 5.914 10.812 10.328 2.617 4.414 3.93 9.347 3.93 14.886 0 4.461-.89 8.547-2.668 12.352-1.777 3.758-4.211 6.996-7.395 9.672-3.132 2.68-6.832 4.555-10.996 5.73 1.543 1.645 3.09 2.864 4.586 3.618 1.496.75 3.09 1.125 4.82 1.125 3.696 0 6.88-1.5 9.641-4.508l4.82 5.777a17.672 17.672 0 0 1-6.507 5.023zm0 0"/></g><path fill="#005ce6" d="M264.023 220.703h21.059l-10.578-24.605zm0 0"/><g clip-path="url(#c)"><path fill="#005ce6" d="M322.469 258.836c-.793-1.41-.559-3.149.656-4.274 11.84-11.082 18.344-25.546 18.344-40.808 0-32.73-29.95-59.313-66.778-59.313-9.543 0-18.714 1.739-27.328 5.168-.84 5.965-2.617 11.739-5.238 17.282-3.746 7.886-9.078 14.98-15.863 21.039-5.383 4.836-11.512 8.828-18.203 11.925a54.16 54.16 0 0 0-.141 3.899c0 32.73 29.95 59.309 66.773 59.309a74 74 0 0 0 21.106-3.051 3.741 3.741 0 0 1 2.152.047l34.113 12.445c1.731.61 3.325-1.27 2.387-2.867zM294.16 241.93l-5.617-13.008h-28.027l-5.57 13.008H244.23l25.223-56.305H279.7l25.363 56.305zm0 0"/></g></svg>