<svg xmlns="http://www.w3.org/2000/svg" viewBox="0 0 500 500"><path style="fill:#ebebeb" d="M0 382.4h500v.25H0zM428.22 398.49h21.68v.25h-21.68zM310.56 393.31h34.11v.25h-34.11zM396.59 389.21h44.53v.25h-44.53zM161.88 394.25h11.14v.25h-11.14zM114.58 394.25h38.39v.25h-38.39zM66.31 390.03h27.7v.25h-27.7zM237 337.8H43.92a5.71 5.71 0 0 1-5.71-5.71V60.66A5.71 5.71 0 0 1 43.92 55H237a5.71 5.71 0 0 1 5.71 5.71v271.38a5.71 5.71 0 0 1-5.71 5.71zM43.92 55.2a5.47 5.47 0 0 0-5.46 5.46v271.43a5.47 5.47 0 0 0 5.46 5.46H237a5.47 5.47 0 0 0 5.46-5.46V60.66A5.47 5.47 0 0 0 237 55.2zM453.31 337.8h-193.1a5.72 5.72 0 0 1-5.71-5.71V60.66a5.72 5.72 0 0 1 5.71-5.66h193.1a5.71 5.71 0 0 1 5.69 5.66v271.43a5.71 5.71 0 0 1-5.69 5.71zM260.21 55.2a5.47 5.47 0 0 0-5.46 5.46v271.43a5.47 5.47 0 0 0 5.46 5.46h193.1a5.47 5.47 0 0 0 5.46-5.46V60.66a5.47 5.47 0 0 0-5.46-5.46z"/><path d="M390.38 303.86h-1.13c-8 .65-14.54 8.3-15.05 17.73a22 22 0 0 0 .52 6.18 110.87 110.87 0 0 1 2.54 24.77v24.31a3 3 0 0 0 2.73 3.19h53.66v-76.18z" style="fill:#f0f0f0"/><path d="M449.87 322.87c0-10.94-7.88-19.72-17.35-19-8 .65-14.54 8.3-15 17.73a22 22 0 0 0 .52 6.18 110.87 110.87 0 0 1 2.54 24.77v24.31a3 3 0 0 0 2.73 3.19h20.79a3 3 0 0 0 2.72-3.19v-25.71a100.58 100.58 0 0 1 2.52-23.2 22.22 22.22 0 0 0 .53-5.08z" style="fill:#fafafa"/><path style="fill:#f5f5f5" d="M354.67 336.98h56.64v43.1h-56.64z"/><path d="M361.65 238.38h-62.24a12 12 0 0 0-12.13 13.29l8.08 92.6h88.82l-8.08-92.6a14.79 14.79 0 0 0-14.45-13.29z" style="fill:#e6e6e6"/><path d="M369.6 238.38h-56a11.82 11.82 0 0 0-12 13.1l8.1 92.79H392l-8.1-92.79a14.59 14.59 0 0 0-14.3-13.1z" style="fill:#f5f5f5"/><path d="M358.33 335.43h52.94a2.85 2.85 0 0 1 2.85 2.85v4.59a2.85 2.85 0 0 1-2.85 2.85h-52.94a.85.85 0 0 1-.85-.85v-8.58a.85.85 0 0 1 .85-.86z" style="fill:#ebebeb"/><path d="M299.18 380.08h135.29v.18a2.14 2.14 0 0 1-2.14 2.14h-131a2.14 2.14 0 0 1-2.14-2.14v-.18h-.01z" style="fill:#e6e6e6"/><path d="M300 303.86h-1.13c-8 .65-14.54 8.3-15.05 17.73a22 22 0 0 0 .52 6.18 110.87 110.87 0 0 1 2.54 24.77v24.31a3 3 0 0 0 2.73 3.19h65.84v-76.18z" style="fill:#f0f0f0"/><path d="M371.66 322.87c0-10.94-7.88-19.72-17.35-19-8 .65-14.54 8.3-15.05 17.73a22 22 0 0 0 .52 6.18 110.87 110.87 0 0 1 2.54 24.77v24.31a3 3 0 0 0 2.73 3.19h20.79a3 3 0 0 0 2.72-3.19v-25.71a101.13 101.13 0 0 1 2.51-23.2 21.68 21.68 0 0 0 .59-5.08z" style="fill:#fafafa"/><path style="fill:#f0f0f0" d="M389.14 352.17h51.74v30.23h-51.74z"/><rect width="56.64" height="10.28" x="386.7" y="350.61" rx="2.12" style="fill:#e6e6e6"/><path style="fill:#e6e6e6" d="M103.51 247.1h13.2v51.17h-13.2z"/><path style="fill:#f0f0f0" d="M204.37 298.27h-95.68l-6.62-59.89h95.68l6.62 59.89z"/><path style="fill:#f5f5f5" d="M209.12 298.27h-97.13l-6.62-59.89h97.13l6.62 59.89z"/><path style="fill:#fff" d="m115.26 293.55-5.57-50.45h89.54l5.58 50.45h-89.55z"/><path d="m130.31 281.32-.23-2.05c-1.4-12.66 6.5-23.94 16.77-23.94l.23 2c1.4 12.66-6.51 23.94-16.77 23.94zM149.89 281.32l-.23-2.05c-1.4-12.66 6.5-23.94 16.77-23.94l.23 2c1.4 12.66-6.51 23.94-16.77 23.94zM169.47 281.32l-.23-2.05c-1.4-12.66 6.51-23.94 16.77-23.94l.23 2c1.4 12.66-6.51 23.94-16.77 23.94z" style="fill:#f5f5f5"/><path style="fill:#e6e6e6" d="M216.75 298.27h56.69v84.13h-56.69z"/><path style="fill:#f0f0f0" d="M267.73 382.4h5.7v-16.22h-11.68l5.98 16.22z"/><path style="fill:#e6e6e6" d="M57.87 298.27h56.69v84.13H57.87z"/><path style="fill:#f0f0f0" d="M109.58 298.27h163.85v74.18H109.58z"/><path style="fill:#f0f0f0" d="M115.28 382.4h-5.7v-16.22h11.68l-5.98 16.22z"/><path style="fill:#e6e6e6" d="M114.01 302.91h155v29.93h-155z"/><path d="M201.85 312.21h-20.68A32.7 32.7 0 0 1 157.43 302h68.16a32.7 32.7 0 0 1-23.74 10.21z" style="fill:#f0f0f0"/><path style="fill:#e6e6e6" d="M114.01 337.68h155v29.93h-155z"/><path d="M201.85 347h-20.68a32.7 32.7 0 0 1-23.74-10.21h68.16A32.7 32.7 0 0 1 201.85 347z" style="fill:#f0f0f0"/><path style="fill:#e6e6e6" d="M62.78 81.25h364.77v124H62.78z"/><path style="fill:#f0f0f0" d="M64.47 81.25h366.71v124H64.47z"/><path style="fill:#e6e6e6" d="M62.78 205.25h364.77V212H62.78z"/><path style="fill:#f0f0f0" d="M70.52 205.25h366.71V212H70.52z"/><path transform="rotate(90 247.825 143.255)" style="fill:#fafafa" d="M190.91-35.02h113.84v356.54H190.91z"/><path style="fill:#fff" d="m375.04 200.17 8.14-113.84h14.08l-8.14 113.84h-14.08zM95.72 200.17l8.14-113.84h14.08l-8.13 113.84H95.72z"/><path d="M71.91 142.19a.38.38 0 0 1-.39-.39V89.64a.39.39 0 0 1 .39-.39.4.4 0 0 1 .39.39v52.16a.39.39 0 0 1-.39.39z" style="fill:#f0f0f0"/><path style="fill:#fff" d="m392.15 200.17 8.14-113.84h5.48l-8.13 113.84h-5.49z"/><path transform="rotate(90 425.775 143.255)" style="fill:#e6e6e6" d="M368.85 142.93h113.84v.65H368.85z"/><path style="fill:#e0e0e0;opacity:.5" d="M432.38 95.55H67.61l-.47-7.24h364.77l.47 7.24zM432.38 107.45H67.61l-.47-7.24h364.77l.47 7.24zM432.38 119.35H67.61l-.47-7.24h364.77l.47 7.24zM432.38 131.25H67.61l-.47-7.24h364.77l.47 7.24zM432.38 143.15H67.61l-.47-7.24h364.77l.47 7.24zM432.38 155.04H67.61l-.47-7.23h364.77l.47 7.23z"/><g><ellipse cx="250" cy="416.24" rx="193.89" ry="11.32" style="fill:#f5f5f5"/></g><g><path style="fill:#005ce6" d="M153.44 109.26h8.22v1h-8.22zM118.11 109.26h28.22v1h-28.22zM112.58 266.67h201.3a7.47 7.47 0 0 0 7.54-8.28L309.18 121a9.27 9.27 0 0 0-9-8.28H98.87a7.47 7.47 0 0 0-7.54 8.28l12.24 137.35a9.25 9.25 0 0 0 9.01 8.32z"/><path d="M113.23 266.67h201.29a7.46 7.46 0 0 0 7.54-8.28L309.83 121a9.28 9.28 0 0 0-9-8.28H99.51A7.48 7.48 0 0 0 92 121l12.24 137.35a9.27 9.27 0 0 0 8.99 8.32z" style="fill:#005ce6"/><path d="M113.23 266.67h201.29a7.46 7.46 0 0 0 7.54-8.28L309.83 121a9.28 9.28 0 0 0-9-8.28H99.51A7.48 7.48 0 0 0 92 121l12.24 137.35a9.27 9.27 0 0 0 8.99 8.32z" style="opacity:.2"/><path d="M301.18 116.9H99.21c-5.14.42-3.95 8.25 1.24 8.25h201.64c5.19 0 5-7.83-.23-8.25-.23.01-.45 0-.68 0z" style="fill:#005ce6"/><path d="M103.47 123.44a2.64 2.64 0 0 1-2.57-2.35 2.28 2.28 0 0 1 .57-1.73 2.22 2.22 0 0 1 1.66-.72 2.62 2.62 0 0 1 2.56 2.36 2.2 2.2 0 0 1-2.22 2.44zm-.34-3.8a1.24 1.24 0 0 0-.92.39 1.28 1.28 0 0 0-.31 1 1.61 1.61 0 0 0 1.57 1.44 1.24 1.24 0 0 0 .92-.39 1.27 1.27 0 0 0 .31-1 1.62 1.62 0 0 0-1.57-1.44zM109.92 123.44a2.63 2.63 0 0 1-2.56-2.35 2.22 2.22 0 0 1 2.23-2.45 2.64 2.64 0 0 1 2.56 2.36 2.18 2.18 0 0 1-.57 1.72 2.22 2.22 0 0 1-1.66.72zm-.33-3.8a1.22 1.22 0 0 0-.92.39 1.25 1.25 0 0 0-.32 1 1.62 1.62 0 0 0 1.57 1.44 1.22 1.22 0 0 0 .92-.39 1.2 1.2 0 0 0 .31-1 1.61 1.61 0 0 0-1.56-1.44zM116.38 123.44a2.64 2.64 0 0 1-2.57-2.35 2.28 2.28 0 0 1 .57-1.73 2.22 2.22 0 0 1 1.66-.72 2.64 2.64 0 0 1 2.57 2.36 2.26 2.26 0 0 1-.57 1.72 2.22 2.22 0 0 1-1.66.72zm-.34-3.8a1.24 1.24 0 0 0-.92.39 1.28 1.28 0 0 0-.31 1 1.61 1.61 0 0 0 1.57 1.44 1.24 1.24 0 0 0 .92-.39 1.27 1.27 0 0 0 .31-1 1.62 1.62 0 0 0-1.61-1.44z" style="fill:#fafafa"/><path d="M116.36 253H309a2.71 2.71 0 0 0 2.74-3l-10.12-113a3.35 3.35 0 0 0-3.27-3H105.76a2.71 2.71 0 0 0-2.74 3l10.07 113a3.35 3.35 0 0 0 3.27 3z" style="fill:#fff"/><path d="M183.25 342.8c2.68 8.19-1 14.83-9.16 14.83h136.28c8.2 0 11.84-6.64 9.16-14.83z" style="fill:#263238"/><path d="M124.89 142.35c29.21 66.82 6.62 133.65 28.69 200.45 2.69 8.19 12.33 14.83 20.51 14.83s11.84-6.64 9.16-14.83H304.7c-22.08-66.82.51-133.63-28.7-200.45z" style="fill:#005ce6"/><path d="M124.89 142.35c29.21 66.82 6.62 133.65 28.69 200.45 2.69 8.19 12.33 14.83 20.51 14.83s11.84-6.64 9.16-14.83H304.7c-22.08-66.82.51-133.63-28.7-200.45z" style="fill:#fff;opacity:.8"/><path d="M189.33 193h-36.75a199.61 199.61 0 0 0-8.41-36.75h36.75a199.61 199.61 0 0 1 8.41 36.75z" style="fill:#005ce6"/><path d="M288.32 332.58h-82a232.52 232.52 0 0 1-6.67-40.12h82a232.52 232.52 0 0 0 6.67 40.12z" style="fill:#005ce6;opacity:.6000000000000001"/><g style="opacity:.8"><path d="M269.35 160.35h-82q-.63-2-1.32-4.08h82q.69 2.04 1.32 4.08zM272.29 171h-82q-.51-2-1-4.08h82q.49 2.01 1 4.08zM256.14 181.58h-63.55c-.26-1.36-.53-2.72-.82-4.08h63.56q.42 2.04.81 4.08z" style="fill:#005ce6"/></g><g style="opacity:.2"><path d="M277.93 206.26h-82c-.08-.89-.16-1.79-.25-2.69h82c.09.9.17 1.8.25 2.69zM278.49 213.26h-82c-.06-.9-.13-1.8-.2-2.69h82c.07.89.14 1.79.2 2.69zM256.14 220.25h-59.23c0-.9-.09-1.79-.15-2.69H256zM279.23 227.24h-82c0-.89-.07-1.79-.11-2.69h82c.04.9.08 1.8.11 2.69zM279.47 234.24h-82c0-.9-.05-1.8-.08-2.69h82c.03.89.06 1.79.08 2.69zM216.38 241.23h-18.72c0-.9 0-1.79-.07-2.69h18.72c.03.9.05 1.8.07 2.69zM279.81 248.23h-82c0-.9 0-1.8-.05-2.69h82c.02.89.03 1.79.05 2.69zM280 255.22h-82l-.06-2.69h82zM280.13 262.21h-82c0-.89 0-1.79-.07-2.69h82c.02.9.04 1.8.07 2.69zM280.34 269.21h-82l-.09-2.69h82zM280.61 276.2h-82c0-.89-.08-1.79-.11-2.69h82c.03.9.07 1.8.11 2.69zM233.59 283.2H199l-.15-2.69h34.61z" style="fill:#005ce6"/></g></g><g><path d="M368.31 162.92c.9 1.09 1.66 2.07 2.43 3.13s1.52 2.09 2.25 3.16c1.47 2.13 2.86 4.3 4.17 6.55s2.57 4.54 3.68 6.94a61 61 0 0 1 3 7.47l.32 1 .08.24.12.42a6.71 6.71 0 0 1 .21.92 11.22 11.22 0 0 1 .07 3.25 17.64 17.64 0 0 1-1.39 4.84A37.59 37.59 0 0 1 379 208a73.64 73.64 0 0 1-10.61 11.39l-4.06-3.73a136.24 136.24 0 0 0 7.51-12.2 34.33 34.33 0 0 0 2.6-6 8.14 8.14 0 0 0 .41-2.36c0-.27 0-.46-.08-.46s0 .06 0 0l-.08-.19-.33-.77a86.38 86.38 0 0 0-6.62-12.18c-1.26-2-2.6-4-4-5.91s-2.81-3.93-4.14-5.71z" style="fill:#ff8b7b"/><path d="m366.85 214.41-6.7 1.94 5.34 6.25s4.51-2.14 4.05-5.67z" style="fill:#ff8b7b"/><path style="fill:#ff8b7b" d="m355.35 221.72 6.07 4.84 4.07-3.96-5.34-6.25-4.8 5.37z"/><path d="M331.33 130.69c0 .6-.31 1.08-.7 1.08s-.7-.48-.7-1.08.31-1.07.7-1.07.7.48.7 1.07z" style="fill:#263238"/><path d="M331.07 131.77a21.34 21.34 0 0 1-2.83 5.06 3.43 3.43 0 0 0 2.83.54z" style="fill:#a02724"/><path d="M333.43 127.41a.31.31 0 0 1-.2-.07 2.82 2.82 0 0 0-2.48-.45.35.35 0 0 1-.45-.2.36.36 0 0 1 .2-.45 3.45 3.45 0 0 1 3.13.54.34.34 0 0 1 .08.49.35.35 0 0 1-.28.14z" style="fill:#263238"/><path d="M350.45 137.52c-1.05 5.38-2.1 15.23 1.66 18.81 0 0-1.47 5.45-11.46 5.45-11 0-5.24-5.45-5.24-5.45 6-1.43 5.83-5.87 4.79-10.05z" style="fill:#ff8b7b"/><path d="M353.55 158.2c.79-1.72 1.65-3.7-.14-4.32-2-.68-12.77-1.37-16.49-.09a3.85 3.85 0 0 0-2.67 4.78zM388.26 395a2.33 2.33 0 0 1-1.66.77c-.19 0-.43-.18-.52-.63a.79.79 0 0 1 .15-.66c.65-.89 3.1-1.14 3.2-1.15a.16.16 0 0 1 .17.08.17.17 0 0 1 0 .19 8.94 8.94 0 0 1-1.34 1.4zm-1.6-.47-.15.15a.47.47 0 0 0-.09.39c.06.32.21.35.26.36.5.11 1.65-.85 2.37-1.7a5.74 5.74 0 0 0-2.39.82z" style="fill:#005ce6"/><path d="M389.56 393.65h-.07c-.85.18-3-.1-3.42-.82a.57.57 0 0 1 .12-.71 1 1 0 0 1 .71-.31c1.11 0 2.61 1.48 2.67 1.55a.16.16 0 0 1 .05.17.16.16 0 0 1-.06.12zm-3.05-1.31-.06.06c-.16.16-.1.26-.08.3.24.42 1.74.75 2.69.69a4.25 4.25 0 0 0-2.15-1.19.61.61 0 0 0-.4.14zM333.18 409.11c-.94 0-1.85-.13-2.16-.55a.66.66 0 0 1 0-.76.92.92 0 0 1 .56-.41c1.22-.33 3.79 1.13 3.89 1.2a.16.16 0 0 1 .09.18.18.18 0 0 1-.14.14 13.29 13.29 0 0 1-2.24.2zm-1.18-1.42a1.15 1.15 0 0 0-.33 0 .51.51 0 0 0-.34.24c-.13.22-.08.33 0 .39.34.47 2.2.48 3.57.29a7.87 7.87 0 0 0-2.9-.92z" style="fill:#005ce6"/><path d="M335.4 408.91h-.07c-.89-.4-2.65-2-2.51-2.82 0-.2.17-.44.65-.49a1.3 1.3 0 0 1 1 .3c.94.77 1.13 2.75 1.14 2.83a.17.17 0 0 1-.07.16.19.19 0 0 1-.14.02zm-1.79-3h-.11c-.31 0-.33.15-.34.19-.08.5 1.11 1.75 2 2.29a4.08 4.08 0 0 0-1-2.26.94.94 0 0 0-.55-.2z" style="fill:#005ce6"/><path style="fill:#ff8b7b" d="M343.48 408.74h-7.35l-.73-17.01h7.34l.74 17.01zM396.98 391.51l-7.11 1.85-7.87-15.52 7.11-1.86 7.87 15.53z"/><path d="m389.32 392.52 6.29-5.34a.62.62 0 0 1 .8 0l5.33 4a1.07 1.07 0 0 1 0 1.69c-2.23 1.82-3.41 2.6-6.17 4.95-1.71 1.44-6.84 6.4-9.19 8.4s-4.63-.07-3.85-1.1c3.52-4.6 5.81-9.09 6.14-11.51a1.76 1.76 0 0 1 .65-1.09zM336.18 407.89h8a.65.65 0 0 1 .63.5l1.45 6.53a1.07 1.07 0 0 1-1.06 1.3c-2.89 0-7.08-.21-10.71-.21-4.26 0-6.11.23-11.1.23-3 0-3.85-3.05-2.59-3.33 5.74-1.25 8.62-1.39 13.59-4.45a3.41 3.41 0 0 1 1.79-.57z" style="fill:#263238"/><path d="M325.93 172.65c-2.44 4.32-5 8.41-7.74 12.49s-5.64 8-8.82 11.89c-.39.49-.81 1-1.22 1.44l-.61.72-.31.36-.52.54a15 15 0 0 1-4.16 3 33.33 33.33 0 0 1-7.81 2.64 65.24 65.24 0 0 1-15.07 1.27l-.54-5.49a129.33 129.33 0 0 0 13.15-4.14 30.53 30.53 0 0 0 5.52-2.72 6.58 6.58 0 0 0 1.55-1.38l.85-1.16c.33-.46.67-.91 1-1.39 2.65-3.76 5.2-7.7 7.69-11.68s5-8 7.39-12z" style="fill:#ff8b7b"/><path d="M365.87 158c6.89 1.58 14.78 20.35 14.78 20.35l-13.83 9.48a117.16 117.16 0 0 1-9.13-15.53c-4.08-8.6 1.14-15.92 8.18-14.3z" style="fill:#263238"/><path d="m360.94 170 6.54 17.41-.65.45s-2.83-4-5.89-9.33z" style="opacity:.30000000000000004"/><path d="M324.72 158.37s-7.82 8.83-.44 63.5h39.29c.27-6-3.52-35.46 2.3-63.88a102.56 102.56 0 0 0-13.15-1.66 145.27 145.27 0 0 0-16.7 0 73.5 73.5 0 0 0-11.3 2.04z" style="fill:#263238"/><path d="M329.08 174.18a34.86 34.86 0 0 1-7.76 16.82c-.16-3.52-.22-6.68-.21-9.51z" style="opacity:.30000000000000004"/><path d="M332.47 164.33c1 6.95-12.74 24.72-12.74 24.72L306 179.57s3.81-9.79 10.25-16.21c7.3-7.36 15.16-6.6 16.22.97z" style="fill:#263238"/><path d="m279.57 201.49-7.7-.93.21 9.38s6.06.52 9.36-3.7z" style="fill:#ff8b7b"/><path style="fill:#ff8b7b" d="m264.19 202.85 3 7.59 4.89-.5-.21-9.38-7.68 2.29z"/><path style="opacity:.2" d="m335.4 391.73.41 9.56h7.35l-.41-9.56h-7.35zM389.11 375.99l-7.11 1.85 4.36 8.6 6.81-2.45-4.06-8z"/><path d="M351.09 129.44c-.44 7.27-.33 11.56-4 15.29-5.53 5.62-14.51 2.29-16.25-5-1.56-6.54-.57-17.34 6.56-20.23a9.94 9.94 0 0 1 13.69 9.94z" style="fill:#ff8b7b"/><path d="M338 132.83c-3.85-.77-2.45-5.39-1.5-6.75a1.79 1.79 0 0 1-.73-3c-1.61 0-5.68-.28-5.45-5s3.23-4.23 4.34-1.5a6.5 6.5 0 0 1 7.89-4.39c4.17 1 .5 3.16.5 3.16s9.1-1.83 7.83 2.84c3.94.22 9.67 3.86 6.78 7 1.72 3.38 1.45 5.69-.72 6.59-.75 4.06-5.06 11.84-8.34 11.84-2.71-.01-10.42-3.68-10.6-10.79z" style="fill:#263238"/><path d="M341.23 131.42a8.27 8.27 0 0 1-2.57 4.62c-1.78 1.58-3.33.31-3.38-1.85 0-1.95.82-5.13 2.87-5.89s3.44.96 3.08 3.12z" style="fill:#ff8b7b"/><path d="M338.22 221.87S346.56 278 351.13 299c5 23 30.52 84.66 30.52 84.66l12.8-4.12s-18.45-55.6-21.28-78.41c-3.1-24.75-9.6-79.26-9.6-79.26z" style="fill:#005ce6"/><path d="M378.93 381c-.05 0 2.94 4.48 2.94 4.48l14.38-4.74-1.71-4.29z" style="fill:#263238"/><path d="M343.49 241.87c9.64 1.89 8.62 37.84 7.46 56.33-2.78-13.07-6.85-38.22-9.63-56.07a3.29 3.29 0 0 1 2.17-.26z" style="opacity:.30000000000000004"/><path d="M324.28 221.87s-3.48 54.93-2.68 77.33c.83 23.3 11.44 99.6 11.44 99.6h12.44s-2-74.94-1.46-97.82c.61-25 6.09-79.11 6.09-79.11z" style="fill:#005ce6"/><path d="M330.64 393.84c-.05 0 .71 5.17.71 5.17h15.13l.41-4.61z" style="fill:#263238"/></g></svg>