<svg xmlns="http://www.w3.org/2000/svg" viewBox="0 0 500 500"><path style="fill:#ebebeb" d="M416.78 398.49h33.12v.25h-33.12zM322.53 401.21h8.69v.25h-8.69zM396.59 389.21h19.19v.25h-19.19zM52.46 390.89h43.19v.25H52.46zM104.56 390.89h6.33v.25h-6.33zM131.47 395.11h93.68v.25h-93.68zM237 337.8H43.91a5.71 5.71 0 0 1-5.7-5.71V60.66a5.71 5.71 0 0 1 5.7-5.66H237a5.71 5.71 0 0 1 5.71 5.71v271.38a5.71 5.71 0 0 1-5.71 5.71zM43.91 55.2a5.46 5.46 0 0 0-5.45 5.46v271.43a5.46 5.46 0 0 0 5.45 5.46H237a5.47 5.47 0 0 0 5.46-5.46V60.66A5.47 5.47 0 0 0 237 55.2zM453.31 337.8h-193.1a5.72 5.72 0 0 1-5.71-5.71V60.66a5.72 5.72 0 0 1 5.71-5.66h193.1a5.71 5.71 0 0 1 5.69 5.66v271.43a5.71 5.71 0 0 1-5.69 5.71zM260.21 55.2a5.47 5.47 0 0 0-5.46 5.46v271.43a5.47 5.47 0 0 0 5.46 5.46h193.1a5.47 5.47 0 0 0 5.46-5.46V60.66a5.47 5.47 0 0 0-5.46-5.46zM0 382.4h500v.25H0z"/><path style="fill:#e0e0e0" d="M306.35 94.82h128.9v285.02h-128.9z"/><path d="M435.25 92.32v290H459v-290zM283.75 92.32v290h23.74v-290z" style="fill:#e6e6e6"/><path d="M279.71 92.32v290H438.1v-290zm152.69 5v52h-147v-52zm-147 166v-52h147v52zm147 5v52h-147v-52zm-147-62v-52h147v52zm0 171v-52h147v52z" style="fill:#f5f5f5"/><path transform="rotate(180 383.79 129.625)" style="fill:#e6e6e6" d="M381.05 109.45h5.48v40.35h-5.48z"/><path transform="rotate(180 389.27 129.625)" style="fill:#e0e0e0" d="M386.53 109.45h5.48v40.35h-5.48z"/><path transform="rotate(180 375.57 131.045)" style="fill:#e6e6e6" d="M370.09 112.29h10.96v37.52h-10.96z"/><path transform="rotate(180 361.075 129.625)" style="fill:#f0f0f0" d="M357.53 109.45h7.08v40.35h-7.08z"/><path transform="rotate(180 367.355 129.625)" style="fill:#ebebeb" d="M364.61 109.45h5.48v40.35h-5.48z"/><path transform="rotate(180 319.52 129.625)" style="fill:#e6e6e6" d="M315.98 109.45h7.08v40.35h-7.08z"/><path transform="rotate(180 325.8 129.625)" style="fill:#ebebeb" d="M323.06 109.45h5.48v40.35h-5.48z"/><path transform="rotate(180 343.035 129.625)" style="fill:#e6e6e6" d="M339.5 109.45h7.08v40.35h-7.08z"/><path transform="rotate(180 349.315 129.625)" style="fill:#e0e0e0" d="M346.58 109.45h5.48v40.35h-5.48z"/><path transform="rotate(180 310.5 130.105)" style="fill:#ebebeb" d="M305.02 110.41h10.96v39.4h-10.96z"/><path transform="rotate(180 302.285 130.105)" style="fill:#e0e0e0" d="M299.54 110.41h5.48v39.4h-5.48z"/><path transform="rotate(180 335.845 130.105)" style="fill:#e0e0e0" d="M332.19 110.41h7.3v39.4h-7.3z"/><path transform="rotate(180 330.365 130.105)" style="fill:#f0f0f0" d="M328.54 110.41h3.65v39.4h-3.65z"/><path transform="rotate(180 352.055 131.045)" style="fill:#f5f5f5" d="M346.58 112.29h10.96v37.52h-10.96z"/><path transform="rotate(180 411.985 129.625)" style="fill:#ebebeb" d="M408.44 109.45h7.08v40.35h-7.08z"/><path transform="rotate(180 418.265 129.625)" style="fill:#e6e6e6" d="M415.52 109.45H421v40.35h-5.48z"/><path transform="rotate(180 402.965 130.105)" style="fill:#e0e0e0" d="M397.49 110.41h10.96v39.4h-10.96z"/><path transform="rotate(180 394.745 130.105)" style="fill:#ebebeb" d="M392.01 110.41h5.48v39.4h-5.48z"/><path transform="rotate(180 428.305 130.105)" style="fill:#ebebeb" d="M424.65 110.41h7.3v39.4h-7.3z"/><path transform="rotate(180 422.83 130.105)" style="fill:#fafafa" d="M421 110.41h3.65v39.4H421z"/><path style="fill:#e6e6e6" d="M344.97 165.95h5.48v40.35h-5.48z"/><path style="fill:#e0e0e0" d="M339.5 165.95h5.48v40.35h-5.48z"/><path style="fill:#e6e6e6" d="M350.45 168.79h10.96v37.52h-10.96z"/><path style="fill:#f0f0f0" d="M366.89 165.95h7.08v40.35h-7.08z"/><path style="fill:#ebebeb" d="M361.41 165.95h5.48v40.35h-5.48z"/><path style="fill:#e6e6e6" d="M408.44 165.95h7.08v40.35h-7.08z"/><path style="fill:#ebebeb" d="M402.96 165.95h5.48v40.35h-5.48z"/><path style="fill:#e6e6e6" d="M384.93 165.95h7.08v40.35h-7.08z"/><path style="fill:#e0e0e0" d="M379.45 165.95h5.48v40.35h-5.48z"/><path style="fill:#ebebeb" d="M415.52 166.91h10.96v39.4h-10.96z"/><path style="fill:#e0e0e0" d="M426.48 166.91h5.48v39.4h-5.48zM392.01 166.91h7.3v39.4h-7.3z"/><path style="fill:#f0f0f0" d="M399.31 166.91h3.65v39.4h-3.65z"/><path style="fill:#f5f5f5" d="M373.97 168.79h10.96v37.52h-10.96z"/><path style="fill:#ebebeb" d="M315.98 165.95h7.08v40.35h-7.08z"/><path style="fill:#e6e6e6" d="M310.5 165.95h5.48v40.35h-5.48z"/><path style="fill:#e0e0e0" d="M323.06 166.91h10.96v39.4h-10.96z"/><path style="fill:#ebebeb" d="M334.02 166.91h5.48v39.4h-5.48zM299.54 166.91h7.3v39.4h-7.3z"/><path style="fill:#fafafa" d="M306.85 166.91h3.65v39.4h-3.65z"/><path style="fill:#e6e6e6" d="M344.97 223.46h5.48v40.35h-5.48z"/><path style="fill:#e0e0e0" d="M339.5 223.46h5.48v40.35h-5.48z"/><path style="fill:#e6e6e6" d="M350.45 226.29h10.96v37.52h-10.96z"/><path style="fill:#f0f0f0" d="M366.89 223.46h7.08v40.35h-7.08z"/><path style="fill:#ebebeb" d="M361.41 223.46h5.48v40.35h-5.48z"/><path style="fill:#e6e6e6" d="M408.44 223.46h7.08v40.35h-7.08z"/><path style="fill:#ebebeb" d="M402.96 223.46h5.48v40.35h-5.48z"/><path style="fill:#e6e6e6" d="M384.93 223.46h7.08v40.35h-7.08z"/><path style="fill:#e0e0e0" d="M379.45 223.46h5.48v40.35h-5.48z"/><path style="fill:#ebebeb" d="M415.52 224.41h10.96v39.4h-10.96z"/><path style="fill:#e0e0e0" d="M426.48 224.41h5.48v39.4h-5.48zM392.01 224.41h7.3v39.4h-7.3z"/><path style="fill:#f0f0f0" d="M399.31 224.41h3.65v39.4h-3.65z"/><path style="fill:#f5f5f5" d="M373.97 226.29h10.96v37.52h-10.96z"/><path style="fill:#ebebeb" d="M315.98 223.46h7.08v40.35h-7.08z"/><path style="fill:#e6e6e6" d="M310.5 223.46h5.48v40.35h-5.48z"/><path style="fill:#e0e0e0" d="M323.06 224.41h10.96v39.4h-10.96z"/><path style="fill:#ebebeb" d="M334.02 224.41h5.48v39.4h-5.48zM299.54 224.41h7.3v39.4h-7.3z"/><path style="fill:#fafafa" d="M306.85 224.41h3.65v39.4h-3.65z"/><path transform="rotate(180 383.79 301.14)" style="fill:#e6e6e6" d="M381.05 280.96h5.48v40.35h-5.48z"/><path transform="rotate(180 389.27 301.14)" style="fill:#e0e0e0" d="M386.53 280.96h5.48v40.35h-5.48z"/><path transform="rotate(180 375.57 299.72)" style="fill:#e6e6e6" d="M370.09 280.96h10.96v37.52h-10.96z"/><path transform="rotate(180 361.075 301.14)" style="fill:#f0f0f0" d="M357.53 280.96h7.08v40.35h-7.08z"/><path transform="rotate(180 367.355 301.14)" style="fill:#ebebeb" d="M364.61 280.96h5.48v40.35h-5.48z"/><path transform="rotate(180 319.52 301.14)" style="fill:#e6e6e6" d="M315.98 280.96h7.08v40.35h-7.08z"/><path transform="rotate(180 325.8 301.14)" style="fill:#ebebeb" d="M323.06 280.96h5.48v40.35h-5.48z"/><path transform="rotate(180 343.035 301.14)" style="fill:#e6e6e6" d="M339.5 280.96h7.08v40.35h-7.08z"/><path transform="rotate(180 349.315 301.14)" style="fill:#e0e0e0" d="M346.58 280.96h5.48v40.35h-5.48z"/><path transform="rotate(180 310.5 300.66)" style="fill:#ebebeb" d="M305.02 280.96h10.96v39.4h-10.96z"/><path transform="rotate(180 302.285 300.66)" style="fill:#e0e0e0" d="M299.54 280.96h5.48v39.4h-5.48z"/><path transform="rotate(180 335.845 300.66)" style="fill:#e0e0e0" d="M332.19 280.96h7.3v39.4h-7.3z"/><path transform="rotate(180 330.365 300.66)" style="fill:#f0f0f0" d="M328.54 280.96h3.65v39.4h-3.65z"/><path transform="rotate(180 352.055 299.72)" style="fill:#f5f5f5" d="M346.58 280.96h10.96v37.52h-10.96z"/><path transform="rotate(180 411.985 301.14)" style="fill:#ebebeb" d="M408.44 280.96h7.08v40.35h-7.08z"/><path transform="rotate(180 418.265 301.14)" style="fill:#e6e6e6" d="M415.52 280.96H421v40.35h-5.48z"/><path transform="rotate(180 402.965 300.66)" style="fill:#e0e0e0" d="M397.49 280.96h10.96v39.4h-10.96z"/><path transform="rotate(180 394.745 300.66)" style="fill:#ebebeb" d="M392.01 280.96h5.48v39.4h-5.48z"/><path transform="rotate(180 428.305 300.66)" style="fill:#ebebeb" d="M424.65 280.96h7.3v39.4h-7.3z"/><path transform="rotate(180 422.83 300.66)" style="fill:#fafafa" d="M421 280.96h3.65v39.4H421z"/><path style="fill:#e6e6e6" d="M344.97 338.47h5.48v40.35h-5.48z"/><path style="fill:#e0e0e0" d="M339.5 338.47h5.48v40.35h-5.48z"/><path style="fill:#e6e6e6" d="M350.45 338.47h10.96v37.52h-10.96z"/><path style="fill:#f0f0f0" d="M366.89 338.47h7.08v40.35h-7.08z"/><path style="fill:#ebebeb" d="M361.41 338.47h5.48v40.35h-5.48z"/><path style="fill:#e6e6e6" d="M408.44 338.47h7.08v40.35h-7.08z"/><path style="fill:#ebebeb" d="M402.96 338.47h5.48v40.35h-5.48z"/><path style="fill:#e6e6e6" d="M384.93 338.47h7.08v40.35h-7.08z"/><path style="fill:#e0e0e0" d="M379.45 338.47h5.48v40.35h-5.48z"/><path style="fill:#ebebeb" d="M415.52 338.47h10.96v39.4h-10.96z"/><path style="fill:#e0e0e0" d="M426.48 338.47h5.48v39.4h-5.48zM392.01 338.47h7.3v39.4h-7.3z"/><path style="fill:#f0f0f0" d="M399.31 338.47h3.65v39.4h-3.65z"/><path style="fill:#f5f5f5" d="M373.97 338.47h10.96v37.52h-10.96z"/><path style="fill:#ebebeb" d="M315.98 338.47h7.08v40.35h-7.08z"/><path style="fill:#e6e6e6" d="M310.5 338.47h5.48v40.35h-5.48z"/><path style="fill:#e0e0e0" d="M323.06 338.47h10.96v39.4h-10.96z"/><path style="fill:#ebebeb" d="M334.02 338.47h5.48v39.4h-5.48zM299.54 338.47h7.3v39.4h-7.3z"/><path style="fill:#fafafa" d="M306.85 338.47h3.65v39.4h-3.65z"/><path d="M148.13 100.63c.89 4.75 1.48 13.63 1.48 23.82s-.59 19.07-1.48 23.82a3.76 3.76 0 0 1 1.31.87c1.55 1.55 1 4.61 0 5.6s-4.05 1.54-5.59 0c-.33-.33-.37-.92-.77-1.11-3.31-1.64-9.63 1.28-16.45 1.28s-13.14-2.92-16.45-1.28c-1.33.65-2 2.27-3.57 2.27s-2.23-1.62-3.56-2.27c-3.31-1.63-9.63 1.28-16.45 1.28s-13.14-2.91-16.46-1.28c-.39.19-.43.78-.76 1.11-1.54 1.54-4.61 1-5.6 0s-1.54-4.05 0-5.6c.39-.39 1.07-.42 1.32-.87 2.32-4.24-1.49-13.63-1.49-23.82s3.81-19.59 1.49-23.82c-.25-.46-.93-.49-1.32-.87-1.54-1.55-1-4.61 0-5.6s4.06-1.55 5.6 0c.33.33.37.91.76 1.11C73.46 96.91 79.78 94 86.6 94s13.14 2.91 16.45 1.28c1.33-.66 2-2.27 3.56-2.27s2.24 1.61 3.57 2.27c3.31 1.63 9.63-1.28 16.45-1.28s13.14 2.91 16.45 1.28c.4-.2.44-.78.77-1.11 1.54-1.55 4.61-1 5.59 0s1.55 4 0 5.6a4.05 4.05 0 0 1-1.31.86z" style="fill:#e0e0e0"/><path d="M146.32 98.82c.89 4.75 1.49 13.64 1.49 23.82s-.6 19.08-1.49 23.83a3.89 3.89 0 0 1 1.32.87c1.55 1.54 1 4.6 0 5.59s-4 1.55-5.6 0c-.33-.33-.36-.91-.76-1.1-3.31-1.64-9.63 1.27-16.45 1.27s-13.14-2.91-16.45-1.27c-1.33.65-2 2.26-3.57 2.26s-2.24-1.61-3.56-2.26c-3.32-1.64-9.64 1.27-16.46 1.27s-13.14-2.91-16.45-1.27c-.4.19-.43.77-.76 1.1-1.55 1.55-4.61 1-5.6 0s-1.55-4.05 0-5.59c.39-.39 1.07-.42 1.32-.87 2.32-4.24-1.49-13.64-1.49-23.83s3.81-19.58 1.49-23.82c-.25-.45-.93-.48-1.32-.87-1.55-1.54-1-4.61 0-5.59s4.05-1.55 5.6 0c.33.33.36.91.76 1.1 3.31 1.64 9.63-1.27 16.45-1.27s13.14 2.91 16.46 1.27c1.32-.65 2-2.26 3.56-2.26s2.24 1.61 3.57 2.26c3.31 1.64 9.63-1.27 16.45-1.27s13.17 2.91 16.45 1.27c.4-.19.43-.77.76-1.1 1.55-1.55 4.61-1 5.6 0s1.55 4 0 5.59a3.89 3.89 0 0 1-1.32.87z" style="fill:#fafafa"/><path transform="rotate(90 104.81 122.64)" style="fill:#ebebeb" d="M80.97 87.11h47.68v71.06H80.97z"/><path transform="rotate(90 104.81 122.64)" style="fill:#f5f5f5" d="M84.26 92.02h41.1v61.26h-41.1z"/><circle cx="94.61" cy="124.45" r="8.25" transform="rotate(-13.28 94.648 124.466)" style="fill:#e0e0e0"/><path style="fill:#ebebeb" d="m126.66 116.2-14.43 12.06 14.43 4.43V116.2zM84.36 110.4c9.4-5.77 21.06-1.6 28.72 4.95 1.18 1-.52 2.7-1.7 1.7-6.84-5.85-17.38-9.75-25.81-4.58-1.32.81-2.53-1.27-1.21-2.07zM78.08 134.67l4.51-4.41 3.77 4.41-4.14 4.01-4.14-4.01z"/><path d="M75.43 221.22s4.75 20.64 2.9 40.85a255.18 255.18 0 0 1-5.19 31.48s21.58-2.49 47-3.34a293.81 293.81 0 0 1 62.25 4.61l17.31 1.73s-10.68-46.2-1.85-74.3z" style="fill:#fafafa"/><path style="fill:#ebebeb" d="M202.39 228.94 68.8 228.5v-11.15l133.08-2.12.51 13.71z"/><path d="m98.26 217.14-.72-.64L135 174.61a3.35 3.35 0 0 1 4.94-.05l37.56 40.34-.7.66-37.59-40.34a2.44 2.44 0 0 0-1.77-.76 2.41 2.41 0 0 0-1.75.79z" style="fill:#f5f5f5"/><path d="M138.7 175.15a1.18 1.18 0 1 1-1.18-1.17 1.17 1.17 0 0 1 1.18 1.17z" style="fill:#e0e0e0"/><path d="M155.89 243.57a16.17 16.17 0 0 0-4.52 4.73l3.92 3.47a10.53 10.53 0 0 1 1.1-2.84 3.54 3.54 0 0 1 2.42-1.72 3.75 3.75 0 0 1 1.72.23 12.77 12.77 0 0 1 4.27 3c1.58-.2 2.32-2.31 1.64-3.75a5.64 5.64 0 0 0-3.76-2.67 52.35 52.35 0 0 1 4.66-4.76c-.73-1.71-3.12-2.15-4.82-1.4a10.76 10.76 0 0 0-4 3.83c.53-.71-3.31-5-4.1-5.22-2.16-.72-3.74 1.5-4.81 3.06a21.42 21.42 0 0 1 6.28 4.04z" style="fill:#ebebeb"/><path d="m95.17 281.32-.46-.13zm-.44-.12-.49-.12v-.1zM95.93 279.5l-.88-.39c.54-1.23 1.14-2.49 1.78-3.74.3-.58.63-1.19 1-1.82l.84.47q-.53.93-1 1.8l-.43-.22.43.22c-.62 1.18-1.21 2.46-1.74 3.68zM100.75 270.52l-.81-.52zm1.14-1.69-.79-.55a47.45 47.45 0 0 1 2.55-3.29l.37.32-.37-.32c.45-.52.91-1 1.4-1.54l.69.67c-.47.49-.92 1-1.36 1.5-.84.99-1.68 2.07-2.49 3.21zm46.77-7h-.33c-.75 0-1.53 0-2.34-.08v-1c.81 0 1.58.06 2.32.07h.31c.45 0 .93 0 1.42-.06.66-.05 1.33-.14 2-.25l.16.95c-.69.12-1.39.21-2.08.26v-.49.49c-.48.14-.98.15-1.46.15zm-4.76-.2v-1h.1zm-35.2-.27-.61-.75h.07zm31.11-.09c-.67-.08-1.36-.16-2.05-.26l.06-.47-.06.47c-1.37-.18-2.74-.4-4.08-.64l.17-1c1.33.25 2.69.46 4 .65l2 .25zm16.44-.9-.35-.9h.09zm-45.9-.21-.53-.81a19.82 19.82 0 0 1 3.72-1.95 17.46 17.46 0 0 1 2-.64l.23.93a17.44 17.44 0 0 0-1.9.61 19.14 19.14 0 0 0-3.52 1.9zm21.28-.2.17-.94h.08zm26.56-.56-.5-.83a7 7 0 0 0 2.68-2.69 4.87 4.87 0 0 0 .52-1.78l1 .09a6 6 0 0 1-.63 2.13l-.2-.1.2.1a8 8 0 0 1-3.07 3.12zm-30.57-.37-2-.54.13-.47-.13.47-1.75-.52a17.08 17.08 0 0 0-2.17-.52l.16-.95a17.3 17.3 0 0 1 2.29.55l1.73.51 2 .54zm-7.93-1.77v-1h.09zM160.12 250.4l-.04-.09.92-.28-.88.37z" style="fill:#e0e0e0"/><g><ellipse cx="250" cy="415.69" rx="193.89" ry="11.32" style="fill:#f5f5f5"/></g><g><path d="M312.8 184.61c-4.15 4.72-9.62 7.76-14.48 11.58s-9.38 9.07-10.1 15.57c-.77 6.93 2.93 13.49 3.58 20.43 1.2 12.8-9.08 24.7-20.71 26.64s-23.46-4.5-31.3-14.09c-4.12-5.06-7.42-11.17-8.21-17.9-1.35-11.48 4.68-22.78 3.73-34.31-1.07-13-10.66-23.17-20.45-30.69s-20.75-14.09-27.26-25.06c-7.84-13.21-7.51-31.09-.91-45.08s18.78-24.23 32.22-29.89 28.09-7 42.47-6.5c8.79.34 17.68 1.41 25.84 5s15.57 10 19.29 18.67c4.43 10.31 3.16 22 .57 33.33a19.74 19.74 0 0 0 2.56 15.1 76 76 0 0 1 8.36 16.76c4.6 13.46 3.89 30.09-5.2 40.44z" style="fill:#005ce6"/><g style="opacity:.7000000000000001"><path d="M312.8 184.61c-4.15 4.72-9.62 7.76-14.48 11.58s-9.38 9.07-10.1 15.57c-.77 6.93 2.93 13.49 3.58 20.43 1.2 12.8-9.08 24.7-20.71 26.64s-23.46-4.5-31.3-14.09c-4.12-5.06-7.42-11.17-8.21-17.9-1.35-11.48 4.68-22.78 3.73-34.31-1.07-13-10.66-23.17-20.45-30.69s-20.75-14.09-27.26-25.06c-7.84-13.21-7.51-31.09-.91-45.08s18.78-24.23 32.22-29.89 28.09-7 42.47-6.5c8.79.34 17.68 1.41 25.84 5s15.57 10 19.29 18.67c4.43 10.31 3.16 22 .57 33.33a19.74 19.74 0 0 0 2.56 15.1 76 76 0 0 1 8.36 16.76c4.6 13.46 3.89 30.09-5.2 40.44z" style="fill:#fff"/></g><circle cx="213.08" cy="105.2" r="27.16" style="fill:#005ce6"/><g style="opacity:.9"><path d="m216.72 80 3.42 2v3.27s-2.6-.36-3.42-1.77c0 0 .7-.3-1.3-1.5s-1.54-2.6 1.3-2zM214.83 106l-2 1s-.59 1.14-.47 1.1-.44 2.36-.32 2.4-1.14 1.06-1.14 1.06l-.59 1.46v1.69l2.84 3.86 2.08 1.18-1.81 9.92.75.27 9.44-6.92.63-1.7 2.8-1.1 1.49-3.89 1.7-2a8.3 8.3 0 0 0 0-1.93c-.16 0-.91.31-.91.31l-1.42-1.06a18.83 18.83 0 0 0-3.15-.39c-.15.16-.62-1.83-.62-1.83l-2.76-.77-2.87-1.89-2.09.39zM209.47 101.11H211l2.16 1.14 4 1 .19.32-4-.06.74-.47-.59-.37h-1.62l.2-.2-1.67-.85s-1.05-.25-1.08-.13l-.44.05zM212.6 103.58l-.37-.36-.61.03.25.33h.73zM222.15 80h-.47l3.32 2 .53.58 3.31 1.9.65.83.53 1.83 1.77 1.42-.83.59 1.89 2.36h.65l.24-1-1.42-2.95 2 1.1A22.83 22.83 0 0 0 222.15 80zM236 90.87h-.51l-.85-1.12-.91 2.48s.56 2.89.61 3.07-.26.59-.26.59l.26 3.19.65 1.12.5 2.71 2.23 3.07 1.8-2.58.29.63A25.22 25.22 0 0 0 236 90.87zM222.74 82.59h-.59v.72l.59.36h.53v-.54l-.53-.54z" style="fill:#fff"/><path style="fill:#fff" d="m226.34 84.02.88.95.24.79.89.86.35-.53.65.53v-.59l-.47-.71-2.54-1.3zM220.14 90.28a48.09 48.09 0 0 0-5.67 2.48 3.23 3.23 0 0 0-1.29 3l-2.49 1.41.59 2.71-.59.36-.94-2.24a22.84 22.84 0 0 0-4.69-.23c-1.38.23-1.69 3-1.69 3l.83 2.24 1.89.12.23-1.3 2 .12-1.3 2.48 2.36.35.24 1.75 2.36 1.8s.47.59 0 .82-11.69-6.49-12.75-8.14-2.42-6.2-1.36-9.39c.87-2.59 2.47-5 3-6.55a.65.65 0 0 0 0-.13.93.93 0 0 0-.73-1.11c-.41-.12-1.18.35-1.18.35h-1.5l1.56-.89.65-.69.42-.37 1.53-.65-.02-.58a8.56 8.56 0 0 1 2.89-1.09l-1.12.85h1.18l.24 1.34h2.36s-.59-.16.83-.94S214 80 214 80l-1.42 2 3.07 1.73-.35 1.3-2.12-.59v-.71l-1.31-.73-.11 1.38-.48.59-.59-.47-1.69 1.65 3 2.85.47-3.71 4.26.94z"/></g><path d="M305.26 149.89c-1.44-.88-3.34-1.44-4.76-.53s-1.72 3.11-1.74 4.93c-2.49-1.43-6-.11-7.32 2.43a7.53 7.53 0 0 0 1.12 8.05 11.93 11.93 0 0 0 7.47 3.9c2.79.42 4.86-.16 6.43-2.52 1.13-1.69 2.69-2.49 3.89-4 2.95-3.75-1.9-10.31-5.09-12.26z" style="fill:#005ce6"/><path d="M295.48 150.47a1.92 1.92 0 0 0 .5-1c.95 1.87 2.15 3.57 3.25 5.36-.38-.38-4.02-4.09-3.75-4.36z" style="fill:#005ce6"/><path d="M296.81 149.43a12.77 12.77 0 0 1 .57-2.8 6.89 6.89 0 0 1 1.57 2.61 3.45 3.45 0 0 1-.58 2.87c-1.12 1.49-1.6-2.01-1.56-2.68z" style="fill:#005ce6"/><path d="M293.64 157.17a.82.82 0 1 0 .93 1.12.88.88 0 0 0-.83-1.15zM300.07 166.75a.64.64 0 0 0 .41-.07c.21-.14.15-.5-.05-.68a1.61 1.61 0 0 0-.73-.27 5.29 5.29 0 0 1-3.78-3.21 7.62 7.62 0 0 0-.5-1.22c-.52-.89-1.77-1-2 .11-.2.83.82 2 1.31 2.56a8.1 8.1 0 0 0 5.34 2.78z" style="fill:#fff"/><path d="M275.85 76.71A11.69 11.69 0 1 0 287.54 65a11.7 11.7 0 0 0-11.69 11.71zm9.74-8.65a1.66 1.66 0 0 1-1.19 0c.18.82-.62 1.54-1.38 2-1 .54-2.08.76-2.29-.12-.13-.52.27-1.27 1.27-2a2.43 2.43 0 0 1 1.94-.43c-.08-.49.36-1 1-1.26s1.45 0 1.62.48-.25 1.09-.97 1.33zm5.68 4a1.63 1.63 0 0 1-2.76-1.73 1.63 1.63 0 1 1 2.76 1.73zm-5.47 13.35a1.25 1.25 0 1 1 1.25 1.25 1.25 1.25 0 0 1-1.25-1.25zm-.33-4.29a1.43 1.43 0 0 1 1.43-1.43h.1a5.28 5.28 0 0 1 6.83-6 2.12 2.12 0 1 1 3.07 2.63 5.29 5.29 0 0 1-3.25 7.47 1.09 1.09 0 1 1-1.95.18 5.23 5.23 0 0 1-2.31-.79A5.3 5.3 0 0 1 288 82a1.4 1.4 0 0 1-1.11.53 1.43 1.43 0 0 1-1.42-1.41zm-3.14-8.33a1.07 1.07 0 0 1 1.66-1 1.63 1.63 0 1 1 .44 1.19 1.09 1.09 0 0 1-.94.77 1.07 1.07 0 0 1-1.16-.96zm-1.55 9.82a.81.81 0 1 1 .81.81.81.81 0 0 1-.81-.81zm-1.58-9.14a1.07 1.07 0 1 1 1.16 1 1.09 1.09 0 0 1-1.16-1z" style="fill:#005ce6"/><path d="M275.85 76.71A11.69 11.69 0 1 0 287.54 65a11.7 11.7 0 0 0-11.69 11.71zm9.74-8.65a1.66 1.66 0 0 1-1.19 0c.18.82-.62 1.54-1.38 2-1 .54-2.08.76-2.29-.12-.13-.52.27-1.27 1.27-2a2.43 2.43 0 0 1 1.94-.43c-.08-.49.36-1 1-1.26s1.45 0 1.62.48-.25 1.09-.97 1.33zm5.68 4a1.63 1.63 0 0 1-2.76-1.73 1.63 1.63 0 1 1 2.76 1.73zm-5.47 13.35a1.25 1.25 0 1 1 1.25 1.25 1.25 1.25 0 0 1-1.25-1.25zm-.33-4.29a1.43 1.43 0 0 1 1.43-1.43h.1a5.28 5.28 0 0 1 6.83-6 2.12 2.12 0 1 1 3.07 2.63 5.29 5.29 0 0 1-3.25 7.47 1.09 1.09 0 1 1-1.95.18 5.23 5.23 0 0 1-2.31-.79A5.3 5.3 0 0 1 288 82a1.4 1.4 0 0 1-1.11.53 1.43 1.43 0 0 1-1.42-1.41zm-3.14-8.33a1.07 1.07 0 0 1 1.66-1 1.63 1.63 0 1 1 .44 1.19 1.09 1.09 0 0 1-.94.77 1.07 1.07 0 0 1-1.16-.96zm-1.55 9.82a.81.81 0 1 1 .81.81.81.81 0 0 1-.81-.81zm-1.58-9.14a1.07 1.07 0 1 1 1.16 1 1.09 1.09 0 0 1-1.16-1z" style="fill:#005ce6"/><path d="M280.78 82.61a.81.81 0 0 0 1.62 0 .81.81 0 0 0-1.62 0z" style="fill:#e6e6e6"/><path d="M280.67 82.61a.93.93 0 1 1 .92.93.92.92 0 0 1-.92-.93zM285.68 85.41a1.37 1.37 0 1 1 1.37 1.36 1.37 1.37 0 0 1-1.37-1.36zM289 72.69a1.75 1.75 0 0 1-.77-1.09 1.79 1.79 0 0 1 .22-1.32 1.75 1.75 0 1 1 1.87 2.63 1.74 1.74 0 0 1-.39 0 1.82 1.82 0 0 1-.93-.22zM282.63 73.61a1.19 1.19 0 0 1-.42-.81 1.14 1.14 0 0 1 .28-.86 1.16 1.16 0 0 1 .8-.43 1.34 1.34 0 0 1 .6.11 1.74 1.74 0 0 1 3.46.12 1.73 1.73 0 0 1-1.58 1.88 1.71 1.71 0 0 1-1.3-.42 1.18 1.18 0 0 1-1 .68h-.11a1.19 1.19 0 0 1-.73-.27zM279.09 73.48a1.19 1.19 0 0 1 2.37-.21 1.2 1.2 0 0 1-1.09 1.29h-.1a1.19 1.19 0 0 1-1.18-1.08zm.11 0z" style="fill:#005ce6"/><g style="opacity:.1"><path d="M281.25 80.93a.12.12 0 0 0 .07-.15c-.65-1.91-.14-5.74-.14-5.78a.1.1 0 0 0-.1-.13.11.11 0 0 0-.13.1c0 .16-.52 3.93.15 5.89a.11.11 0 0 0 .15.07z" style="fill:#fff"/></g><path d="M279.93 82a.12.12 0 0 0 .09 0 .11.11 0 0 0 0-.16 5.43 5.43 0 0 1-1.87-2.84.12.12 0 1 0-.22.07 5.63 5.63 0 0 0 1.93 2.93.09.09 0 0 0 .07 0zM285 83.64a.12.12 0 0 0 0-.24 6.3 6.3 0 0 1-1.67-.28.12.12 0 0 0-.15.08.12.12 0 0 0 .08.15 7.24 7.24 0 0 0 1.73.29zM280.74 85.67a.11.11 0 0 0 .11-.08l.4-1.47a.12.12 0 0 0-.08-.15.12.12 0 0 0-.14.09l-.4 1.46a.12.12 0 0 0 .08.15zM278.23 83.65a4.37 4.37 0 0 0 1.72-.46.12.12 0 0 0-.1-.21 4.29 4.29 0 0 1-1.64.44.12.12 0 0 0-.11.12.13.13 0 0 0 .13.11zM282.7 81.41a.13.13 0 0 0 .11-.06c.46-1 2.17-4.37 2.18-4.4a.12.12 0 0 0-.05-.16.13.13 0 0 0-.16 0s-1.73 3.41-2.19 4.41a.11.11 0 0 0 .06.15zM284.92 86.74a.11.11 0 0 0 .1-.06.12.12 0 0 0 0-.16 7.18 7.18 0 0 1-2.56-2.58.12.12 0 0 0-.16 0 .13.13 0 0 0 0 .16 7.38 7.38 0 0 0 2.64 2.68z" style="fill:#fff;opacity:.1"/><path d="M281.08 70.48a.8.8 0 0 1-.47-.59c-.15-.62.36-1.42 1.32-2.08a2.78 2.78 0 0 1 1.89-.49 1.5 1.5 0 0 1 1.12-1.21 1.86 1.86 0 0 1 1.09 0 1 1 0 0 1 .68.6c.19.56-.3 1.24-1.09 1.5a1.82 1.82 0 0 1-1.08 0c0 1-1.09 1.67-1.46 1.88a3.68 3.68 0 0 1-1.54.48 1 1 0 0 1-.46-.09zm-.35-.62zM291.48 84.36a1.15 1.15 0 0 1 0-.26 5.29 5.29 0 0 1-2.23-.79A5.18 5.18 0 0 1 288 82.2a1.55 1.55 0 1 1-1.19-2.62 5.93 5.93 0 0 1-.06-.84 5.38 5.38 0 0 1 7-5.16 2.24 2.24 0 1 1 3.25 2.81 5.41 5.41 0 0 1-3.23 7.5 1.27 1.27 0 0 1 .09.47 1.2 1.2 0 1 1-2.39 0z" style="fill:#005ce6"/><path d="M291.48 84.36a1.15 1.15 0 0 1 0-.26 5.29 5.29 0 0 1-2.23-.79A5.18 5.18 0 0 1 288 82.2a1.55 1.55 0 1 1-1.19-2.62 5.93 5.93 0 0 1-.06-.84 5.38 5.38 0 0 1 7-5.16 2.24 2.24 0 1 1 3.25 2.81 5.41 5.41 0 0 1-3.23 7.5 1.27 1.27 0 0 1 .09.47 1.2 1.2 0 1 1-2.39 0z" style="opacity:.1"/><path d="M291.76 79a.65.65 0 0 1-.29-.43.68.68 0 0 1 .53-.81.66.66 0 0 1 .51.1.66.66 0 0 1 .3.43.74.74 0 0 1-.1.52.71.71 0 0 1-.43.29h-.15a.62.62 0 0 1-.37-.1z" style="fill:#fff;opacity:.1"/><g style="opacity:.1"><path d="M280.78 82.54a.81.81 0 1 0 .81-.81.81.81 0 0 0-.81.81z"/><path d="M280.67 82.54a.93.93 0 1 1 .92.93.92.92 0 0 1-.92-.93zM285.68 85.35a1.37 1.37 0 1 1 1.37 1.36 1.37 1.37 0 0 1-1.37-1.36zM289 72.62a1.71 1.71 0 0 1-.77-1.08 1.79 1.79 0 0 1 .22-1.32 1.75 1.75 0 1 1 3 1.86 1.79 1.79 0 0 1-1.09.77 1.78 1.78 0 0 1-1.32-.23zM282.63 73.55a1.22 1.22 0 0 1-.42-.81 1.15 1.15 0 0 1 .28-.87 1.19 1.19 0 0 1 .8-.42 1.21 1.21 0 0 1 .6.11 1.74 1.74 0 1 1 .58 1.58 1.2 1.2 0 0 1-1 .68h-.11a1.18 1.18 0 0 1-.73-.27zM279.09 73.41a1.18 1.18 0 0 1 1.08-1.28 1.18 1.18 0 1 1 .2 2.36h-.1a1.19 1.19 0 0 1-1.18-1.08zm.11 0zM281.08 70.42a.84.84 0 0 1-.47-.59c-.15-.63.36-1.42 1.32-2.08a2.79 2.79 0 0 1 1.89-.5 1.49 1.49 0 0 1 1.12-1.2A1.86 1.86 0 0 1 286 66a.94.94 0 0 1 .68.59c.19.57-.3 1.24-1.09 1.51a1.91 1.91 0 0 1-1.08 0c0 1-1.09 1.67-1.46 1.87a3.54 3.54 0 0 1-1.54.49 1.18 1.18 0 0 1-.43-.04zm-.35-.62z"/></g><path style="fill:#005ce6" d="m262.29 149.84-2.07-8.83 1.17-.28 1.28 5.46 5.27-11.31 20.49 2.87-.17 1.19-19.61-2.75-6.36 13.65z"/><path d="m228 143.37-1.6 1.24 3.19 2.8-1.33 1-3.2-2.81-1.71 1.32 3.75 3.29-1.38 1-5.32-4.67 7.4-5.67 5.19 4.56-1.38 1zM232.63 152.32l4.67 4.1-1.28 1-4.68-4.1zm2.62-2 4.67 4.1-1.29 1-4.67-4.1zM251.07 167.15a3.67 3.67 0 0 1-.64.59l-3.15 2.42-1.53-1.34 3-2.33a2.87 2.87 0 0 0 .4-.37 1 1 0 0 0-.12-1.55 1.85 1.85 0 0 0-2.55.12l-2.92 2.23-1.53-1.34 3-2.33a2.77 2.77 0 0 0 .39-.36 1 1 0 0 0-.11-1.55 1.86 1.86 0 0 0-2.58.12l-2.89 2.22-1.53-1.34 5.69-4.36 1.45 1.27-.6.45a3.17 3.17 0 0 1 2.21.83 2.3 2.3 0 0 1 .86 2.28 3.53 3.53 0 0 1 2.77.9 2.25 2.25 0 0 1 .38 3.44zM250.84 169.23a4 4 0 0 1 5.91-.25 3.25 3.25 0 0 1 1.25 3.42l-1.87-.49a1.6 1.6 0 0 0-.55-1.75 2.11 2.11 0 0 0-3.08.35 1.48 1.48 0 0 0 .19 2.26 2 2 0 0 0 1.92.43l.51 1.69a3.87 3.87 0 0 1-3.63-.94c-1.68-1.43-1.9-3.3-.65-4.72zM260.18 174.33l1.8 1.59-.88.68-3.42-3 .7-.55 3.25.34c.78.07 1.1 0 1.31-.25s.16-.62-.28-1a1.74 1.74 0 0 0-1.33-.44l-.23-1.08a3 3 0 0 1 2.51.84c1 .85 1.16 1.85.55 2.54-.39.45-.82.65-2.29.51z" style="fill:#fff"/><path d="m274.28 197.73-12.84-8.15 27-14.1zm-10.84-8.07 10.56 6.69 11.59-18.25z" style="fill:#005ce6"/><path d="m274.28 197.73-5.69-3.61.25-.42a6.09 6.09 0 0 1 6.84-2.76 6.18 6.18 0 0 1 1.81.83l.4.28zm-4.28-3.92 4 2.54 2.55-4a5.53 5.53 0 0 0-1.1-.45 5.1 5.1 0 0 0-5.45 1.91zM256.81 231.35a6 6 0 0 1-4.44-1.29 11.64 11.64 0 0 1-3-3.67 10.94 10.94 0 0 1-1.48-4.48 5.56 5.56 0 0 1 1.5-4.36 5.78 5.78 0 0 1 4.26-1.42 8.06 8.06 0 0 1 7.2 10.84c-.7 2.03-1.68 4.03-4.04 4.38z" style="fill:#005ce6"/><path d="M261.16 207.57a12.49 12.49 0 0 1 11.52 12.25c0 2.13-.64 4.32 0 6.35.42 1.3 1.33 2.51 1.18 3.86-.2 1.78-2.09 2.78-3.74 3.48a13.72 13.72 0 0 1-4.85 1.37 4.63 4.63 0 0 1-4.27-2.18c-.38-.75-1.77-3.92-2.61-3.9s-3.56 1.85-4.56.3c-.61-.95-1.19-.83-.24-1.44-1.44.13.15 3.21-1.22 2.4-3.85-2.27-5.25-8-5.5-9.93-.43-3.37 1.43-6.74 4.11-8.82a17.42 17.42 0 0 1 10.18-3.74z" style="fill:#005ce6"/><g style="opacity:.9"><path d="M261.16 207.57a12.49 12.49 0 0 1 11.52 12.25c0 2.13-.64 4.32 0 6.35.42 1.3 1.33 2.51 1.18 3.86-.2 1.78-2.09 2.78-3.74 3.48a13.72 13.72 0 0 1-4.85 1.37 4.63 4.63 0 0 1-4.27-2.18c-.38-.75-1.77-3.92-2.61-3.9s-3.56 1.85-4.56.3c-.61-.95-1.19-.83-.24-1.44-1.44.13.15 3.21-1.22 2.4-3.85-2.27-5.25-8-5.5-9.93-.43-3.37 1.43-6.74 4.11-8.82a17.42 17.42 0 0 1 10.18-3.74z" style="fill:#fff"/></g><path d="M261.87 217.58a4.89 4.89 0 0 1-.53 3.94 4.1 4.1 0 0 1-3.21 2.24 3.4 3.4 0 0 1-3.12-2.1 4.41 4.41 0 0 1 .35-3.84c.6-1 2-2.49 3.29-2.63s2.81 1.17 3.22 2.39zM264.09 216.42a4.42 4.42 0 0 0 1.88 3 3.69 3.69 0 0 0 3.44.63 3 3 0 0 0 1.76-2.85 3.91 3.91 0 0 0-1.69-3 4.84 4.84 0 0 0-3.65-.93 3.11 3.11 0 0 0-1.74 3.15zM266.75 221.47a1.88 1.88 0 0 1 .91.8 1.12 1.12 0 0 1-.85 1.43 1.67 1.67 0 0 1-1.63-.74 1.62 1.62 0 0 1-.46 1.13.9.9 0 0 1-1.14.12 1 1 0 0 1-.3-.92 3 3 0 0 1 .4-.93c.23-.41.74-1.78 1.21-1.87s1.49.78 1.86.98zM271.46 225.85c0 .33.33.8.28 1.13a6.76 6.76 0 0 1-1.27.87 38.48 38.48 0 0 1-7.94 2.7 3.66 3.66 0 0 0-1.78-1.92 2 2 0 0 1 2 1.42 29.13 29.13 0 0 0 8.58-3.2c-.11-.6-.41-1.68.57-1.84-.03-.01-.28-.01-.44.84z" style="fill:#005ce6"/><path style="fill:#f0f0f0" d="m263.6 123.71-4.09-1.26-.67-1.83 6.35 1.96-1.59 1.13z"/><path d="M275.19 108.4a8.74 8.74 0 0 1-4.7 5.34 5.68 5.68 0 0 0-3.15 3.48l-.2.63-7.26-2.23.2-.64a5.73 5.73 0 0 0-.64-4.65 8.7 8.7 0 0 1 10.44-12.69 8.77 8.77 0 0 1 5.31 10.76z" style="fill:#005ce6"/><path d="M275.19 108.4a8.74 8.74 0 0 1-4.7 5.34 5.68 5.68 0 0 0-3.15 3.48l-.2.63-7.26-2.23.2-.64a5.73 5.73 0 0 0-.64-4.65 8.7 8.7 0 0 1 10.44-12.69 8.77 8.77 0 0 1 5.31 10.76z" style="fill:#fff;opacity:.9"/><path transform="rotate(-84.4 262.6 111.527)" style="fill:#005ce6" d="M258.03 111.26h9.14v.52h-9.14z"/><path transform="rotate(-61.37 267.218 112.939)" style="fill:#005ce6" d="M262.63 112.68h9.14v.52h-9.14z"/><path style="fill:#005ce6" d="m266.08 111.99-.45-2.13-1.57 1.51-1.22-2.76.48-.21.92 2.07 1.71-1.65.49 2.33 1.92-1.2.28.45-2.56 1.59zM267.21 117.63l-1.38 4.49-7.27-2.21 1.38-4.49 7.27 2.21z"/><path transform="rotate(-73.2 262.113 121.29)" style="fill:#005ce6" d="M261.84 117.5h.52v7.6h-.52z"/><path transform="matrix(.29 -.96 .96 .29 75.86 335.19)" style="fill:#005ce6" d="M263.31 112.73h.52v7.6h-.52z"/><path transform="matrix(.29 -.96 .96 .29 75.86 335.19)" d="M263.31 112.73h.52v7.6h-.52z" style="opacity:.2"/><path transform="rotate(-73.2 262.113 121.29)" d="M261.84 117.5h.52v7.6h-.52z" style="opacity:.2"/></g><g><path transform="rotate(180 138.26 380.945)" style="fill:#005ce6" d="M113.81 374.87h48.91v12.16h-48.91z"/><path transform="rotate(180 138.42 381)" style="fill:#fff;opacity:.6000000000000001;isolation:isolate" d="M113.97 374.92h48.91v12.16h-48.91z"/><path transform="rotate(180 132.575 381)" style="fill:#fff;opacity:.6000000000000001;isolation:isolate" d="M113.81 374.92h37.54v12.16h-37.54z"/><path style="fill:#005ce6;isolation:isolate" d="m114.05 385.48 48.67 1.51-.06-1.23-48.64-.64.03.36zM162.72 379.86l-48.6-2.74v.41l48.6 3.25v-.92z"/><path style="fill:#005ce6;isolation:isolate" d="m162.72 376.18-48.6 1.12v.39l48.6-.58v-.93zM162.85 382.24l-48.6 2.37v-.36l48.6-2.82v.81zM113.93 375.02l48.59.04v.4h-48.59v-.44z"/><path transform="rotate(180 141.77 344.725)" style="fill:#005ce6" d="M117.31 338.65h48.91v12.16h-48.91z"/><path transform="rotate(180 141.925 344.78)" style="fill:#fff;opacity:.6000000000000001;isolation:isolate" d="M117.47 338.7h48.91v12.16h-48.91z"/><path transform="rotate(180 136.085 344.78)" style="fill:#fff;opacity:.6000000000000001;isolation:isolate" d="M117.31 338.7h37.54v12.16h-37.54z"/><path style="fill:#005ce6;isolation:isolate" d="m117.55 349.26 48.67 1.51-.05-1.23-48.64-.64.02.36zM166.22 343.64l-48.59-2.74v.41l48.59 3.25v-.92z"/><path style="fill:#005ce6;isolation:isolate" d="m166.22 339.96-48.59 1.12v.4l48.59-.59v-.93zM166.36 346.02l-48.6 2.37v-.35l48.6-2.83v.81z"/><path transform="rotate(180 141.16 368.615)" style="fill:#005ce6" d="M116.71 362.54h48.91v12.16h-48.91z"/><path transform="rotate(180 141.32 368.67)" style="fill:#fff;opacity:.6000000000000001;isolation:isolate" d="M116.87 362.59h48.91v12.16h-48.91z"/><path style="fill:#fff;opacity:.6000000000000001;isolation:isolate" d="M116.81 362.59h37.54v12.16h-37.54z"/><path style="fill:#005ce6;isolation:isolate" d="m165.41 372.79-48.65.64-.05 1.23 48.67-1.51.03-.36zM117.02 362.69l48.6.05v.4h-48.6v-.45zM116.71 368.45l48.59-3.25v-.41l-48.59 2.74v.92zM165.62 363.85l-48.6 1.12v.4l48.6-.59v-.93zM165.75 369.92l-48.6 2.36v-.35l48.6-2.82v.81z"/><path style="fill:#005ce6" d="m163.92 351.07-48.89.25-.07 11.91h48.96v-12.16z"/><path transform="rotate(180 139.47 357.15)" style="fill:#fff;opacity:.6000000000000001;isolation:isolate" d="M115.01 351.07h48.91v12.16h-48.91z"/><path style="fill:#fff;opacity:.6000000000000001;isolation:isolate" d="M114.96 351.07h37.54v12.16h-37.54z"/><path style="fill:#005ce6;isolation:isolate" d="M153.97 351.32h-38.94v1.24h38.11l.83-1.24zM163.64 356.3l-48.61.45v.36h48.61v-.81zM115.03 361.93l48.61-2.37v.36l-48.61 2.82v-.81zM115.03 357.35l48.61.97v.35l-48.61-.51v-.81z"/><path style="fill:#005ce6" d="M127.81 324.62h48.6v6.12h-48.6z"/><path style="fill:#fff;opacity:.6000000000000001;isolation:isolate" d="M127.81 324.62h48.6v6.12h-48.6z"/><path style="fill:#fff;opacity:.6000000000000001;isolation:isolate" d="M127.81 324.62h38.73v6.12h-38.73z"/><path style="fill:#005ce6;isolation:isolate" d="m176.44 328.96-48.6.24v.18h48.6v-.42zM127.84 326.67l48.6-1.23v.18l-48.6 1.47v-.42z"/><path style="fill:#005ce6;isolation:isolate" d="m127.68 326.34 48.6.5v.18l-48.6-.26v-.42z"/><path style="fill:#005ce6" d="M121.01 321.92h48.6v2.95h-48.6z"/><path style="fill:#fff;opacity:.6000000000000001;isolation:isolate" d="M121.01 321.95h48.6v2.93h-48.6z"/><path style="fill:#fff;opacity:.6000000000000001;isolation:isolate" d="M121.01 321.76h38.73v3.11h-38.73z"/><path style="fill:#005ce6;isolation:isolate" d="m121.04 324.17 48.59-1.24v.19l-48.59 1.47v-.42z"/><path style="fill:#005ce6;isolation:isolate" d="m121.04 322.69 48.59.5v.19l-48.59-.27v-.42z"/><path style="fill:#005ce6" d="M125.54 318.91h48.6v2.95h-48.6z"/><path style="fill:#fff;opacity:.6000000000000001;isolation:isolate" d="M125.54 318.93h48.6v2.93h-48.6z"/><path style="fill:#fff;opacity:.6000000000000001;isolation:isolate" d="M125.54 318.75h38.73v3.11h-38.73z"/><path style="fill:#005ce6;isolation:isolate" d="m125.57 320.24 48.61.59-.01.19-48.62-.36.02-.42zM125.56 319.68l48.6.49v.19l-48.6-.27v-.41z"/><path style="fill:#005ce6" d="M124.52 330.74h48.6v7.89h-48.6z"/><path style="fill:#fff;opacity:.6000000000000001;isolation:isolate" d="M124.52 330.74h48.6v7.89h-48.6z"/><path style="fill:#fff;opacity:.6000000000000001;isolation:isolate" d="M124.52 330.74h37.5v7.89h-37.5z"/><path style="fill:#005ce6;isolation:isolate" d="m172.81 333.19-48.59-.27v-.22h48.59v.49zM124.55 334.34l48.6 1.42v-.21l-48.6-1.69v.48zM173.15 330.75h-45.84l1.01.97h44.83v-.97zM124.72 337.41l48.59-.59v-.2l-48.59.3v.49z"/></g><g><path d="M251.86 305.5c.09 3.33 0 6.44-.16 9.65s-.38 6.38-.69 9.58a111.12 111.12 0 0 1-3.52 19.32l-.8 2.46-.2.61-.05.16-.08.23-.25.66a10.37 10.37 0 0 1-1.22 2.15 12 12 0 0 1-2.82 2.79 17.81 17.81 0 0 1-2.78 1.67 37.89 37.89 0 0 1-10.22 3.12 87.8 87.8 0 0 1-19.43 1l-.34-6.38 4.43-.91c1.49-.3 3-.67 4.42-1 2.93-.7 5.82-1.45 8.56-2.35a33.17 33.17 0 0 0 7.26-3.15 4.15 4.15 0 0 0 1.52-1.39c0-.16-.25.51 0-.54l.49-2a128.09 128.09 0 0 0 2.22-17.45c.22-3 .36-6 .5-9s.18-6.09.22-9z" style="fill:#ffc3bd"/><path d="m212 352.88-7-5.05-2.11 10.65s6.9 3 8.88-.5zM197.9 348.06l-1.33 8.89 6.32 1.53 2.1-10.65-7.09.23z" style="fill:#ffc3bd"/><path d="M256.93 296.61c1.53 8-4.69 26.79-4.69 26.79L232 320.85c3.11-7.12 4.22-17.4 8.14-24.12 3.63-6.03 15.12-8.8 16.79-.12z" style="fill:#005ce6"/><path d="M256.93 296.61c1.53 8-4.69 26.79-4.69 26.79L232 320.85c3.11-7.12 4.22-17.4 8.14-24.12 3.63-6.03 15.12-8.8 16.79-.12z" style="opacity:.5"/><path d="M285.85 290.87a4.85 4.85 0 0 1 4.18 5.44v.13a201.23 201.23 0 0 0-2.09 23.56c-.21 6.63-.13 12.93.09 18.63.48 13.36 1.68 23.47 1.6 26.95L245 369.31c-7.81-35.52-5.26-61.8-3.07-71.38a8.1 8.1 0 0 1 6.11-6.11c1.71-.38 3.76-.79 5.94-1.11.76-.07 1.54-.21 2.32-.3a168.48 168.48 0 0 1 19.33-.44c1.22 0 2.45.11 3.66.19 2.35.2 4.65.46 6.56.71z" style="fill:#005ce6"/><path d="M285.85 290.87a4.85 4.85 0 0 1 4.18 5.44v.13a201.23 201.23 0 0 0-2.09 23.56c-.21 6.63-.13 12.93.09 18.63.48 13.36 1.68 23.47 1.6 26.95L245 369.31c-7.81-35.52-5.26-61.8-3.07-71.38a8.1 8.1 0 0 1 6.11-6.11c1.71-.38 3.76-.79 5.94-1.11.76-.07 1.54-.21 2.32-.3a168.48 168.48 0 0 1 19.33-.44c1.22 0 2.45.11 3.66.19 2.35.2 4.65.46 6.56.71z" style="opacity:.5"/><path d="M273.25 268.3c-1.1 6.23-2.1 17.64 2.33 21.7-9.83 8-15.62 18.49-17.74 16.51-1.12-1-2.72-14.08-1.57-16.13 6.9-1.79 6.62-6.92 5.32-11.73z" style="fill:#ffc3bd"/><path d="m268.51 272.52-6.9 6.12a19 19 0 0 1 .66 3.42c2.65-.43 6.23-3.41 6.45-6.2a9.4 9.4 0 0 0-.21-3.34z" style="opacity:.2;isolation:isolate"/><path d="M250 252.6c-4.11.54-5.75 7.86-1 13.39s6.52-14.12 1-13.39z" style="fill:#263238"/><path d="M270.9 257c1.23 8.34 2.38 13.16-.87 18.26-4.91 7.68-15.88 6.08-19.6-1.73-3.33-7-4.81-19.48 2.57-24.46a11.51 11.51 0 0 1 17.9 7.93z" style="fill:#ffc3bd"/><path d="M263.09 258.29a4.57 4.57 0 0 0 3.83 3.13 7.77 7.77 0 0 1 .61 5.79l3.08.4a4.86 4.86 0 0 1 4.48-4.93q-1.26 5-3 9.91a25.52 25.52 0 0 0 7.45-10.45 14.72 14.72 0 0 0 1.11-6.13 8 8 0 0 0-2.6-5.54 8.65 8.65 0 0 0-7.77-1.27c-4.64 1.28-9.28 3.69-7.19 9.09z" style="fill:#263238"/><path d="M276.6 263.56a8 8 0 0 1-2.79 5.44c-2.15 1.81-4.38.17-4.75-2.47-.34-2.37.38-6.17 3-7s4.72 1.47 4.54 4.03z" style="fill:#ffc3bd"/><path d="M258.9 262c.14.67-.1 1.3-.54 1.39s-.91-.38-1.06-1.05.1-1.29.54-1.38.92.36 1.06 1.04zM251.34 263.59c.14.67-.1 1.29-.54 1.39s-.91-.38-1.05-1.05.1-1.29.53-1.38.9.37 1.06 1.04z" style="fill:#263238"/><path d="M253.8 263.42a24.84 24.84 0 0 1-2 6.41 4 4 0 0 0 3.33-.08z" style="fill:#ed847e"/><path d="M260.73 259a.38.38 0 0 1-.41-.06 3.2 3.2 0 0 0-2.81-.77.41.41 0 0 1-.51-.17v-.08a.39.39 0 0 1 .26-.49 4 4 0 0 1 3.54.94.4.4 0 0 1 .06.56.49.49 0 0 1-.13.07zM258.94 272.14a6.19 6.19 0 0 0 4.06-4 .21.21 0 0 0-.15-.26.23.23 0 0 0-.27.15 5.83 5.83 0 0 1-3.76 3.69.22.22 0 0 0 .12.42zM247.51 261.67a.29.29 0 0 1-.24 0 .4.4 0 0 1-.3-.48 4 4 0 0 1 2.36-2.82.4.4 0 0 1 .51.24.4.4 0 0 1-.23.5 3.2 3.2 0 0 0-1.85 2.21.36.36 0 0 1-.25.35z" style="fill:#263238"/><path d="m194.72 323.49 10.4 33.51s10.28-3.24 14.78-.43a47.72 47.72 0 0 1 7.74 6.13l-7.18-36.47s-9.55-11.23-25.74-2.74z" style="fill:#005ce6"/><path d="m220.46 326.24 7.18 36.47s11.16-12.07 21.39-7l3.47 1.79-4.2-36.5s-13.3-6.74-27.84 5.24z" style="fill:#005ce6"/><path d="m220.46 326.24 7.18 36.47s11.16-12.07 21.39-7l3.47 1.79-4.2-36.5s-13.3-6.74-27.84 5.24z" style="fill:#fff;opacity:.8"/><path d="m194.72 323.49 10.4 33.51s10.28-3.24 14.78-.43a47.72 47.72 0 0 1 7.74 6.13l-7.18-36.47s-9.55-11.23-25.74-2.74z" style="fill:#fff;opacity:.8"/><path d="M227.62 362.35c-8.68-2.81-17.13-5.76-24.06.4-2.57-9.91-6.39-19.36-9.28-29.17-2.32-7.87-2.33-6.49 1.82-8.78 3.59-2 20.36-3.78 23.91 5.42 1.29 3.36 6.99 31.35 7.61 32.13zM255.11 360.82c-5.13-4.49-13.2-4.25-18.53 0-2.28 1.8-5.46 3.06-5.45 2.83l-7.41-34.08-.3.22c1.52-5.14 9.4-7.64 14.39-7.8a22.75 22.75 0 0 1 12.4 4s3.79 24.95 4.9 34.83z" style="fill:#263238"/><path d="M231.13 363.65s-3 .93-4.17-1.52l-7.31-32.78s1.23 2.15 3.76.39l.3-.22 7.41 34.08a.18.18 0 0 1 .01.05z" style="fill:#263238"/><path d="M231.13 363.65s-3 .93-4.17-1.52l-7.31-32.78s1.23 2.15 3.76.39l.3-.22 7.41 34.08a.18.18 0 0 1 .01.05z" style="fill:#fff;opacity:.1"/><path d="M283.63 295.37c-3.75-.55-5.3.79-7.9 5.91-2.4 4.73-3.72 18.36-3.72 18.36-.46 7.46-1.41 6.62 5.65 7.16 4.52.35 10.24 1.3 10.24 1.3s6.94-31.1-4.27-32.73z" style="opacity:.1"/><path d="M294.07 302.43c.08 3.33 0 6.44-.16 9.66s-.38 6.37-.7 9.57A112.16 112.16 0 0 1 289.7 341l-.81 2.45-.2.62v.15l-.09.24-.24.65a10.44 10.44 0 0 1-1.22 2.16 12.65 12.65 0 0 1-2.82 2.79 17.91 17.91 0 0 1-2.79 1.67 38.39 38.39 0 0 1-10.22 3.12 87.76 87.76 0 0 1-19.43 1l-.33-6.37 4.43-.91c1.48-.31 3-.68 4.42-1 2.92-.7 5.81-1.45 8.56-2.36a33.35 33.35 0 0 0 7.26-3.14 4.17 4.17 0 0 0 1.52-1.4c0-.15-.25.52 0-.53l.5-2a129.68 129.68 0 0 0 2.22-17.45c.22-3 .36-6 .5-9s.18-6.08.22-9z" style="fill:#ffc3bd"/><path d="m254.19 349.82-7-5.05-2.12 10.64s6.91 3 8.89-.5z" style="fill:#ffc3bd"/><path style="fill:#ffc3bd" d="m240.11 344.99-1.33 8.89 6.31 1.53 2.11-10.64-7.09.22z"/><path d="M294.27 296.24c4.76 6.57 3.19 28.73 3.19 28.73l-22.09-2.12s-2.29-12.4 1-22.37c3.55-10.82 12.13-12.22 17.9-4.24z" style="fill:#005ce6"/><path d="M294.27 296.24c4.76 6.57 3.19 28.73 3.19 28.73l-22.09-2.12s-2.29-12.4 1-22.37c3.55-10.82 12.13-12.22 17.9-4.24z" style="opacity:.5"/><path d="M246.47 255.53a28.16 28.16 0 0 1-2.34-3.56c2.91.58 3.21-.92 4.4-5 1.36-4.61 6.58-7.57 9.35-8 19.22-3.11 20.31 7.8 20.5 9.58a3.31 3.31 0 0 1-2 3.1 9.77 9.77 0 0 1-3.84.7c-2.79.12-6.94 1.1-9.63.4-10.91-2.86-15.11 2.93-16.44 2.78z" style="fill:#263238"/><path style="fill:#ffc3bd" d="m231.97 398.66 13.03 6.8 6.26 3.27-2.7 6.97-6.19-2.25-15.11-5.5 4.71-9.29z"/><path style="opacity:.2;isolation:isolate" d="m231.97 398.66 13.03 6.8-2.63 7.99-15.11-5.5 4.71-9.29z"/><path style="fill:#ffc3bd" d="m209.99 417.16-13.98 4.54-6.71 2.19-3.09-6.81 5.94-2.84 14.5-6.95 3.34 9.87z"/><path style="opacity:.2;isolation:isolate" d="m209.99 417.16-13.98 4.54-3.86-7.46 14.5-6.95 3.34 9.87z"/><path d="M294.5 378.51a6.44 6.44 0 0 0-1.07-1.87c-4.55-5.42-21.25-5.31-31.4-4.24-4.62.48-10.64 2.81-17.16 6.11a12 12 0 0 0-3.68-3.63c-8.45-4.93-20-6.72-31.31-6.56 16.47-.53 35.07 1 35.07 1l44.41-3.68a35.32 35.32 0 0 1 5.14 12.87z" style="fill:#005ce6"/><path d="M294.5 378.51a6.44 6.44 0 0 0-1.07-1.87c-4.55-5.42-21.25-5.31-31.4-4.24-4.62.48-10.64 2.81-17.16 6.11a12 12 0 0 0-3.68-3.63c-8.45-4.93-20-6.72-31.31-6.56 16.47-.53 35.07 1 35.07 1l44.41-3.68a35.32 35.32 0 0 1 5.14 12.87z" style="opacity:.1"/><path d="M247.32 397c-2.46 3.88-7.06 6-11.62 6.55s-9.17-.25-13.7-1.06l-11.81-2.08-19.25-3.41c-3.62-.65-7.33-1.32-10.55-3.11-10.37-5.76-12.47-12.25-7.09-17a19.13 19.13 0 0 1 6.08-3.43l.26-.11a87.76 87.76 0 0 1 19.08-4.35h.23a102.83 102.83 0 0 1 10.93-.74c11.34-.16 22.86 1.63 31.31 6.56a12 12 0 0 1 3.68 3.63c3.65 5.39 5.3 14.09 2.45 18.55z" style="fill:#005ce6"/><path d="M247.32 397c-2.46 3.88-7.06 6-11.62 6.55s-9.17-.25-13.7-1.06l-11.81-2.08-19.25-3.41c-3.62-.65-7.33-1.32-10.55-3.11-10.37-5.76-12.47-12.25-7.09-17a19.13 19.13 0 0 1 6.08-3.43l.26-.11a87.76 87.76 0 0 1 19.08-4.35h.23a102.83 102.83 0 0 1 10.93-.74c11.34-.16 22.86 1.63 31.31 6.56a12 12 0 0 1 3.68 3.63c3.65 5.39 5.3 14.09 2.45 18.55z" style="opacity:.1"/><path d="M176.36 375s-11.14 5.6-8.66 16.67c0 0 1.8 7.06 22.83 11.25s47.7 9 47.7 9l2.69-8.6s-27.66-23.89-48.59-29a27.8 27.8 0 0 0-15.97.68z" style="fill:#005ce6"/><path style="fill:#005ce6" d="m239.4 415.29-6.78-.13 5.93-16.68 5.36 3.14-4.51 13.67z"/><g style="opacity:.6000000000000001;isolation:isolate"><path style="fill:#fff" d="m239.4 415.29-6.78-.13 5.93-16.68 5.36 3.14-4.51 13.67z"/></g><path d="M247.49 405c.13.57 20.26 6 27.76 3.33C298.72 400 242 381.06 247.49 405z" style="fill:#005ce6"/><path d="M247.49 405c.13.57 20.26 6 27.76 3.33C298.72 400 242 381.06 247.49 405z" style="opacity:.1"/><path d="M293.74 392.06a30.24 30.24 0 0 1-2 4.82c-.15.26-.28.53-.43.78a21.33 21.33 0 0 1-1.2 1.91l-.08.13c-.2.28-.39.54-.6.81-6 7.73-21.7 10.77-25.42 5.77a27 27 0 0 1-3.49-7.62 274.08 274.08 0 0 1-39.35 16.61c-7 2.32-14.39 4.52-21.89 6.32l-4.53-9.51 1.79-1.4c2.5-2 7.46-5.78 13.68-10.26 9.94-7.18 23.12-16.08 34.68-21.94 6.52-3.3 12.54-5.63 17.16-6.11 10.15-1.07 26.85-1.18 31.4 4.24a6.44 6.44 0 0 1 1.07 1.87c1.29 3.4.84 8.64-.79 13.58z" style="fill:#005ce6"/><path style="fill:#005ce6" d="m193.89 410.31 5.05-4.53 7.03 16.24-6.07 1.36-6.01-13.07z"/><g style="opacity:.6000000000000001;isolation:isolate"><path style="fill:#fff" d="m193.89 410.31 5.05-4.53 7.03 16.24-6.07 1.36-6.01-13.07z"/></g><path d="M239.53 421.2a1.61 1.61 0 0 0 1.27.28 4.47 4.47 0 0 0 .64-.25 3.64 3.64 0 0 0 1.42-1.12l.34-.42a14.92 14.92 0 0 0 1.32-2 .17.17 0 0 0-.07-.22.26.26 0 0 0-.28 0c-.1 0-.34.14-.67.28l-.15.06-1 .44c-1.37.67-3 1.61-3.15 2.34a.64.64 0 0 0 .33.61zm.2-.54a.69.69 0 0 1 .2-.35 13.67 13.67 0 0 1 3.17-1.92l.27-.12.38-.15c-.16.26-.32.5-.48.73a8.73 8.73 0 0 1-1.18 1.4 2.89 2.89 0 0 1-1.37.84 1 1 0 0 1-.86-.19.24.24 0 0 1-.13-.24z" style="fill:#005ce6"/><path d="M237.88 417.23c.46.73 2.89 1.07 4.49 1a6.28 6.28 0 0 0 .82-.06.21.21 0 0 0 .1 0s.07-.06.08-.1a.17.17 0 0 0 0-.2 7.21 7.21 0 0 0-3.72-1.88 2.11 2.11 0 0 0-1.38.38c-.58.33-.53.63-.39.86zm.45-.18s-.12-.18.23-.43l.12-.08a1.56 1.56 0 0 1 .91-.19 6.37 6.37 0 0 1 3.07 1.49c-1.52.16-3.99-.26-4.33-.79z" style="fill:#005ce6"/><path d="m244.22 414.56 6.68-6.95a1 1 0 0 1 1.1-.21l8.49 3.66a1.25 1.25 0 0 1 .62 1.89l-.1.12c-8.91 12.3-14 15.71-15.23 16.94-3.6 3.52-6.57.78-5.79-.62 3.52-6.28 3.53-8.56 3.28-11.55a6 6 0 0 1 .95-3.28z" style="fill:#263238"/><path d="M181.07 409.12a1.68 1.68 0 0 0-.65 1.14 3.82 3.82 0 0 0 .05.68 3.61 3.61 0 0 0 .64 1.7c.09.15.19.29.3.44a13.64 13.64 0 0 0 1.49 1.86.16.16 0 0 0 .23 0 .28.28 0 0 0 .1-.27c0-.1 0-.36-.07-.72v-.17c0-.3-.07-.66-.13-1-.22-1.51-.61-3.38-1.27-3.71a.66.66 0 0 0-.69.05zm.46.36a.66.66 0 0 1 .27.3 13.34 13.34 0 0 1 .87 3.61 1.27 1.27 0 0 1 0 .28v.41c-.21-.22-.39-.46-.56-.67a9.93 9.93 0 0 1-1-1.55 2.94 2.94 0 0 1-.38-1.56 1.05 1.05 0 0 1 .44-.77.25.25 0 0 1 .36-.05z" style="fill:#005ce6"/><path d="M185.36 408.76c-.84.22-1.9 2.43-2.35 4a6.56 6.56 0 0 0-.18.79v.05a.17.17 0 0 0 0 .1.26.26 0 0 0 .07.11.18.18 0 0 0 .21 0 7.21 7.21 0 0 0 2.92-3 2.11 2.11 0 0 0 .06-1.44c-.17-.63-.49-.68-.73-.61zm0 .48c.05 0 .21-.05.34.35v.14a1.53 1.53 0 0 1-.09.92 6.37 6.37 0 0 1-2.36 2.48c.44-1.49 1.53-3.73 2.14-3.89z" style="fill:#005ce6"/><path d="m186.38 416.26 3.61 7a1 1 0 0 1-.14 1.11l-7.2 5.4a1.24 1.24 0 0 1-2 0l-.09-.13c-9-12.22-11.12-17.79-11.91-19.37-2.25-4.5 1.25-6.5 2.35-5.33 4.92 5.25 8.7 8.23 11.62 8.9 4.04 1.43 3.48 1.92 3.76 2.42zM249.13 267.85h-.06a4.17 4.17 0 1 1 4.23-4.11 4.17 4.17 0 0 1-4.17 4.11zm0-7.4a3.23 3.23 0 0 0-3.22 3.18 3.23 3.23 0 0 0 3.17 3.28 3.23 3.23 0 0 0 .06-6.46zM258.75 265.56h-.07a4.17 4.17 0 1 1 4.23-4.1 4.16 4.16 0 0 1-4.16 4.1zm0-7.39a3.23 3.23 0 0 0-3.22 3.17 3.23 3.23 0 1 0 3.28-3.17z" style="fill:#263238"/><path d="M252.94 262.19 252 262c0-.15.32-1.53 1.33-1.83a2.06 2.06 0 0 1 2 .83l-.66.66c-.46-.46-.85-.67-1.1-.59s-.57.82-.63 1.12zM262.49 261.2l-.21-.92 9.49-2.25 1.83.4-.2.92-1.63-.36-9.28 2.21z" style="fill:#263238"/></g><g><path d="M307.94 391.08v6.42a.62.62 0 0 0 0 1.23h7.35v-8.91h-7.35a.62.62 0 0 0 0 1.26z" style="fill:#005ce6"/><path d="M307.94 391.08v6.42a.62.62 0 0 0 0 1.23h7.35v-8.91h-7.35a.62.62 0 0 0 0 1.26z" style="fill:#fff;opacity:.30000000000000004"/><path style="fill:#005ce6" d="M307.94 391.09h5.7v6.41h-5.7z"/><path style="fill:#fff;opacity:.6000000000000001" d="M307.94 391.09h5.7v6.41h-5.7z"/><path d="M312.45 390.46h31.49c1.36 0 2.46 1.71 2.46 3.83s-1.1 3.82-2.46 3.82h-31.49z" style="fill:#005ce6"/><path d="M312.45 390.46h31.49c1.36 0 2.46 1.71 2.46 3.83s-1.1 3.82-2.46 3.82h-31.49z" style="fill:#fff;opacity:.9"/><path d="M312.45 398.73c6.47 0 24.67.11 31.15 0 4.43-.08 4.67-8.58.32-8.88-3-.21-6.15 0-9.19 0h-22.28a.62.62 0 0 0 0 1.23h30.12c1.42 0 2.44 0 3 1.69.47 1.45.32 4.41-1.62 4.73a5 5 0 0 1-.67 0h-30.83a.62.62 0 0 0 0 1.23z" style="fill:#005ce6"/><g style="opacity:.2"><path d="M312.45 398.73c6.47 0 24.67.11 31.15 0 4.43-.08 4.67-8.58.32-8.88-3-.21-6.15 0-9.19 0h-22.28a.62.62 0 0 0 0 1.23h30.12c1.42 0 2.44 0 3 1.69.47 1.45.32 4.41-1.62 4.73a5 5 0 0 1-.67 0h-30.83a.62.62 0 0 0 0 1.23z" style="fill:#fff"/></g><path d="M309 399.74v5.95a.57.57 0 0 0 0 1.13h6.8v-8.22H309a.57.57 0 0 0 0 1.14z" style="fill:#005ce6"/><path d="M309 399.74v5.95a.57.57 0 0 0 0 1.13h6.8v-8.22H309a.57.57 0 0 0 0 1.14z" style="fill:#fff;opacity:.30000000000000004"/><path style="fill:#005ce6" d="M309.04 399.75h5.28v5.94h-5.28z"/><path style="fill:#fff;opacity:.6000000000000001" d="M309.04 399.75h5.28v5.94h-5.28z"/><path d="M313.21 399.17h29.16c1.26 0 2.28 1.59 2.28 3.54s-1 3.54-2.28 3.54h-29.16z" style="fill:#005ce6"/><path d="M313.21 399.17h29.16c1.26 0 2.28 1.59 2.28 3.54s-1 3.54-2.28 3.54h-29.16z" style="fill:#fff;opacity:.9"/><path d="M313.21 406.82c6 0 22.85.11 28.85 0 4.1-.07 4.32-7.94.3-8.22-2.81-.19-5.7 0-8.51 0h-20.64a.57.57 0 0 0 0 1.14h27.9c1.31 0 2.25 0 2.76 1.57.44 1.34.3 4.08-1.5 4.38a4.14 4.14 0 0 1-.61 0h-28.55a.57.57 0 0 0 0 1.13z" style="fill:#005ce6"/><path d="M305.65 408.07v7.08a.68.68 0 0 0 0 1.35h8.09v-9.82h-8.09a.68.68 0 0 0 0 1.39z" style="fill:#005ce6"/><path d="M305.65 408.07v7.08a.68.68 0 0 0 0 1.35h8.09v-9.82h-8.09a.68.68 0 0 0 0 1.39z" style="fill:#fff;opacity:.30000000000000004"/><path style="fill:#005ce6" d="M305.65 408.08h6.29v7.07h-6.29z"/><path style="fill:#fff;opacity:.6000000000000001" d="M305.65 408.08h6.29v7.07h-6.29z"/><path d="M310.61 407.4h34.71c1.5 0 2.71 1.88 2.71 4.21s-1.21 4.22-2.71 4.22h-34.71z" style="fill:#005ce6"/><path d="M310.61 407.4h34.71c1.5 0 2.71 1.88 2.71 4.21s-1.21 4.22-2.71 4.22h-34.71z" style="fill:#fff;opacity:.9"/><path d="M310.61 416.5c7.14 0 27.2.13 34.33 0 4.89-.08 5.15-9.45.36-9.78-3.34-.23-6.78 0-10.13 0h-24.56a.68.68 0 0 0 0 1.35h33.2c1.57 0 2.69 0 3.29 1.87.53 1.6.36 4.86-1.78 5.21a4.45 4.45 0 0 1-.73 0h-34a.68.68 0 0 0 0 1.35z" style="fill:#005ce6"/><path d="M310.61 416.5c7.14 0 27.2.13 34.33 0 4.89-.08 5.15-9.45.36-9.78-3.34-.23-6.78 0-10.13 0h-24.56a.68.68 0 0 0 0 1.35h33.2c1.57 0 2.69 0 3.29 1.87.53 1.6.36 4.86-1.78 5.21a4.45 4.45 0 0 1-.73 0h-34a.68.68 0 0 0 0 1.35z" style="opacity:.2"/><path style="fill:#005ce6" d="m92.3 414.91 9.5-14.9 16.52-5.34 23.21 3.63 1.39 13.87-11.51 2.18-9.89-1.5-5.5-2.14-6.34 5.43-8.81 1.53-5.86-.74-2.71-2.02z"/><path style="opacity:.1" d="m92.3 414.91 9.5-14.9 16.52-5.34 23.21 3.63 1.39 13.87-11.51 2.18-9.89-1.5-5.5-2.14-6.34 5.43-8.81 1.53-5.86-.74-2.71-2.02z"/><path style="opacity:.2" d="m121.53 395.17-1.69 17.03-3.82-1.49-4.38 3.75 3.73-18.83 2.95-.96 3.21.5z"/><path d="M91.7 417.29s16.43 6.83 24.83-5c0 0 17.21 8.44 26.39-.1l-1.59-2.6s-4.46 7.3-25.49-.52c0 0-8.94 11.66-23.54 5.86z" style="fill:#005ce6"/><path d="M91.7 417.29s16.43 6.83 24.83-5c0 0 17.21 8.44 26.39-.1l-1.59-2.6s-4.46 7.3-25.49-.52c0 0-8.94 11.66-23.54 5.86z" style="fill:#fff;opacity:.8"/><path style="fill:#005ce6" d="m104.05 402.55 11.91-9.56 16.81-.93 21.5 7.19-1.32 10.85-11.41-.54-9.17-3.02-4.85-2.68-7.09 2.93-8.72-.5-5.45-1.69-2.21-2.05z"/><path style="opacity:.1" d="m104.05 402.55 11.91-9.56 16.81-.93 21.5 7.19-1.32 10.85-11.41-.54-9.17-3.02-4.85-2.68-7.09 2.93-8.72-.5-5.45-1.69-2.21-2.05z"/><path style="opacity:.2" d="m135.75 393.05-4.86 12.67-3.37-1.86-4.9 2.02 7.15-13.66 3-.16 2.98.99z"/><path d="M103 404.24s14.41 8.35 24.69.91c0 0 14.85 9.72 25.24 4.94l-1-2.28s-5.65 4.72-24.27-5.25a23.37 23.37 0 0 1-23.61 0z" style="fill:#005ce6"/><path d="M103 404.24s14.41 8.35 24.69.91c0 0 14.85 9.72 25.24 4.94l-1-2.28s-5.65 4.72-24.27-5.25a23.37 23.37 0 0 1-23.61 0z" style="fill:#fff;opacity:.8"/><path d="m243.51 373.6 52.68 2.24s-.95-6.45-1.64-6.62-9.34-7.63-19.43-4.08c-2.2.76-3.8 1.35-4.94 1.77-1.1-.52-2.64-1.23-4.77-2.19-9.76-4.39-19 2.31-19.72 2.42s-2.18 6.46-2.18 6.46z" style="fill:#005ce6"/><path d="m243.51 373.6 52.68 2.24v-.16c-.16-1-1-6.3-1.62-6.46l-.12-.06c-1.23-.67-9.6-7.44-19.3-4-2.21.77-3.81 1.35-4.95 1.79-1.1-.53-2.64-1.24-4.77-2.2-9.76-4.39-19 2.31-19.71 2.42s-2.21 6.43-2.21 6.43z" style="fill:#fff;opacity:.6000000000000001"/><path d="m237.49 373.35 53.32 2.26s-1-6.53-1.66-6.7-9.49-6.74-19.7-3.15c-2.23.78-5.1 4.05-5.1 4.05s-2.58-3.51-4.74-4.47c-9.87-4.44-19.19 1.35-19.91 1.47s-2.21 6.54-2.21 6.54z" style="fill:#005ce6"/><path d="m237.49 373.35 53.32 2.26s-1-6.53-1.66-6.7-9.49-6.74-19.7-3.15c-2.23.78-5.1 4.05-5.1 4.05s-2.58-3.51-4.74-4.47c-9.87-4.44-19.19 1.35-19.91 1.47s-2.21 6.54-2.21 6.54z" style="fill:#fff;opacity:.8"/><path style="fill:#005ce6" d="m264.04 371.58 1.56 3.14-4.01-.17 2.45-2.97z"/><path d="m264.04 371.58 1.56 3.14-4.01-.17 2.45-2.97z" style="opacity:.30000000000000004"/><path d="M289.22 368.94a12.59 12.59 0 0 1 .76 2.32c.41 2 .83 4.35.83 4.35l5.38.23v-.16c-.16-1-1-6.3-1.62-6.46l-.12-.06z" style="opacity:.1"/><path d="m235.37 375.24 26.12 1.76h.06a2.93 2.93 0 0 1 3.89.16l.05.05 26.94.79 6.8.21-.41-2.35-33.21-1.41a2.93 2.93 0 0 0-4-.17l-25.48-1.12z" style="fill:#263238"/><path d="m292.01 375.48.43 2.43 6.8.21-.42-2.35-6.81-.29z" style="opacity:.30000000000000004"/><path d="M261.78 370.05s-3.9-4.89-8.91-4.22c0 0 3.5-.29 8.91 4.22z" style="fill:#005ce6"/><path d="M261.78 370.05s-3.9-4.89-8.91-4.22c0 0 3.5-.29 8.91 4.22z" style="fill:#fff;opacity:.4"/><path d="M271.46 372.63s5.61-2.75 9.86 0c0-.01-3.05-1.77-9.86 0z" style="fill:#005ce6"/><path d="M271.46 372.63s5.61-2.75 9.86 0c0-.01-3.05-1.77-9.86 0z" style="fill:#fff;opacity:.4"/><path d="M266.34 370.8s4.57-4.26 9.43-2.87c0 0-3.42-.8-9.43 2.87z" style="fill:#005ce6"/><path d="M266.34 370.8s4.57-4.26 9.43-2.87c0 0-3.42-.8-9.43 2.87z" style="fill:#fff;opacity:.4"/><path d="M255.25 369.7s-5.34-3.25-9.82-.9c0 0 3.19-1.48 9.82.9z" style="fill:#005ce6"/><path d="M255.25 369.7s-5.34-3.25-9.82-.9c0 0 3.19-1.48 9.82.9z" style="fill:#fff;opacity:.4"/></g><g><path d="M324.21 369a27.11 27.11 0 0 1-5.19.52 26.68 26.68 0 0 1-19-7.81l-.77.78a27.78 27.78 0 0 0 19.75 8.08 28.35 28.35 0 0 0 5.47-.55 1.29 1.29 0 0 1-.32-.86 1.55 1.55 0 0 1 .06-.16z" style="fill:#005ce6"/><path transform="rotate(-.16 325.345 376.458)" style="fill:#005ce6" d="M322.17 368.13h5.31v15.35h-5.31z"/><path transform="rotate(-.16 325.345 376.458)" d="M322.17 368.13h5.31v15.35h-5.31z" style="opacity:.2"/><path d="M308.69 389.79c0-4 7.2-7.26 16.11-7.29s16.14 3.2 16.15 7.2a60.33 60.33 0 0 1-31.86.2z" style="fill:#005ce6"/><path transform="rotate(-45.36 320.695 343.986)" style="fill:#005ce6" d="M293.36 343.43H348v1.1h-54.64z"/><path d="M346.88 342.55a27.74 27.74 0 0 0-8.24-19.74l-.77.78A26.85 26.85 0 0 1 324.21 369a1.55 1.55 0 0 0 0 .21 1.29 1.29 0 0 0 .32.86 28 28 0 0 0 22.39-27.47z" style="fill:#005ce6"/><path d="M335.2 357.8a19.89 19.89 0 1 1-.5-28.13 19.9 19.9 0 0 1 .5 28.13z" style="fill:#005ce6"/><path d="m328.4 351.24-.64-.62c4.58-4.75 8.3-13.41 6.55-20.81l.87-.2c1.82 7.7-2.03 16.71-6.78 21.63z" style="fill:#005ce6"/><path d="m307.44 358.33.18-.88c7.45 1.49 16-2.53 20.56-7.27l.65.62c-4.75 4.92-13.62 9.08-21.39 7.53zM314.1 337.42l-.65-.62c4.75-4.92 13.62-9.09 21.39-7.53l-.18.87c-7.45-1.49-15.98 2.54-20.56 7.28z" style="fill:#005ce6"/><path d="M307.1 358c-1.82-7.7 2-16.71 6.78-21.63l.64.62c-4.58 4.74-8.3 13.41-6.55 20.81z" style="fill:#005ce6"/><path transform="rotate(-46 320.978 344.035)" style="fill:#005ce6" d="M301.04 343.57h39.78v.9h-39.78z"/><path transform="rotate(-46 328.33 336.41)" style="fill:#005ce6" d="M327.84 319.56h.9v33.68h-.9z"/><path transform="rotate(-46 320.735 344.28)" style="fill:#005ce6" d="M320.25 324.38h.9v39.77h-.9z"/><path transform="rotate(-46 313.145 352.137)" style="fill:#005ce6" d="M312.66 335.73h.9v32.79h-.9z"/><g style="opacity:.2"><path d="m328.4 351.24-.64-.62c4.58-4.75 8.3-13.41 6.55-20.81l.87-.2c1.82 7.7-2.03 16.71-6.78 21.63z"/><path d="m307.44 358.33.18-.88c7.45 1.49 16-2.53 20.56-7.27l.65.62c-4.75 4.92-13.62 9.08-21.39 7.53zM314.1 337.42l-.65-.62c4.75-4.92 13.62-9.09 21.39-7.53l-.18.87c-7.45-1.49-15.98 2.54-20.56 7.28z"/><path d="M307.1 358c-1.82-7.7 2-16.71 6.78-21.63l.64.62c-4.58 4.74-8.3 13.41-6.55 20.81z"/><path d="m306.794 358.054 27.633-28.616.647.626-27.633 28.615z"/><path d="m315.869 325.057.625-.648 24.228 23.396-.626.648zM306.084 330.805l.625-.648 28.608 27.627-.625.647zM301.006 341.089l.625-.648 23.587 22.778-.625.648z"/></g></g></svg>