<svg xmlns="http://www.w3.org/2000/svg" width="500" viewBox="0 0 375 187.5" height="250" version="1.0"><defs><clipPath id="a"><path d="M109.055 34.379h137.328v107.71H109.055zm0 0"/></clipPath><clipPath id="b"><path d="M99.047 55H110v20H99.047zm0 0"/></clipPath><clipPath id="c"><path d="M99.047 55H111v20H99.047zm0 0"/></clipPath></defs><g clip-path="url(#a)"><path d="M246.379 53.684v-.051c-.621-7.25-5.234-11.844-8.992-14.422-4.352-2.98-10.016-4.836-14.778-4.836h-88.976c-5.832 0-14.492 2.809-19.746 8.172-3.203 3.27-4.782 7.031-4.692 11.176v71.05c0 5.094.903 9.157 2.684 12.079 2.121 3.476 5.406 5.238 9.762 5.238h112.296c4.356 0 7.637-1.762 9.762-5.238 1.781-2.922 2.684-6.985 2.684-12.079l-.004-71.09"/></g><path fill="#e2e6e8" d="M245.484 125.074c0 9.067-2.96 16.418-11.547 16.418H121.641c-8.586 0-11.547-7.351-11.547-16.418V54.008c-.258-12.106 14.957-18.434 23.539-18.434h88.976c8.586 0 21.84 6.328 22.875 18.434v71.066"/><path d="M223.34 38.09h-90.305c-9.726 0-23.133 5.55-22.879 17.387l-.133 1.039.102 1.254c.2-1.551.523-2.7.848-3.993 2.261-9.05 12.515-13.539 20.726-13.539h92.078c11.07 0 20.735 5.785 21.77 17.617v-2.378C244.512 43.64 234.094 38.09 223.34 38.09"/><path d="M223.34 37.914h-90.305c-5.472 0-13.691 1.871-18.847 7.137-2.876 2.937-4.293 6.441-4.208 10.418l-.132 1.023v.035l.101 1.258c.004.09.078.16.172.16h.004c.09 0 .164-.062.176-.152.168-1.313.426-2.328.699-3.406.05-.188.098-.375.145-.567 2.199-8.8 12.007-13.406 20.554-13.406h92.078c12.188 0 20.668 6.852 21.594 17.457a.178.178 0 0 0 .176.164c.004 0 .008 0 .008-.004a.177.177 0 0 0 .172-.176v-2.378c-.489-5.567-3.094-10.153-7.54-13.278-3.93-2.761-9.203-4.285-14.847-4.285zm0 .176c10.754 0 21.172 5.55 22.207 17.387v2.378c-1.035-11.832-10.7-17.617-21.77-17.617H131.7c-8.21 0-18.465 4.489-20.726 13.54-.325 1.292-.649 2.44-.848 3.992l-.102-1.254.133-1.04c-.254-11.835 13.153-17.386 22.88-17.386h90.304"/><path fill="#b3b3b3" d="M234.344 40.547c-.14-.063-.328-.09-.371.016-.036.09.074.136.03.246-.062.152-.28.054-.315.14-.02.055-.153.383-.172.434-.016.043 0 .078.054.101.063.028.582.254.64.282.056.023.09.011.11-.032.059-.125.168-.379.192-.425.039-.086-.184-.18-.117-.332.046-.106.156-.059.19-.145.052-.105-.1-.223-.241-.285M235.578 41.117c-.14-.074-.324-.113-.375-.008-.039.082.07.141.02.243-.07.148-.286.039-.325.125-.027.05-.175.375-.199.421-.02.043-.004.079.051.106.059.031.563.285.621.316.05.028.09.02.11-.023.066-.121.19-.367.218-.414.043-.082-.172-.192-.097-.336.05-.106.16-.05.203-.133.054-.105-.09-.23-.227-.297M236.77 42.191c.058-.101.164-.039.21-.117.063-.101-.074-.238-.207-.312-.132-.082-.316-.133-.37-.032-.048.083.058.145.003.243-.082.144-.289.023-.332.105-.031.05-.199.36-.226.41-.024.04-.008.075.043.106l.601.355c.051.028.086.024.11-.015.07-.118.214-.356.246-.403.047-.078-.16-.199-.078-.34M237.895 42.91c.066-.094.167-.027.218-.101.067-.098-.058-.239-.187-.329-.125-.085-.305-.152-.367-.05-.051.078.046.144-.016.242-.09.137-.29.004-.34.082-.031.047-.219.348-.25.394-.023.04-.012.075.035.106.055.039.524.355.578.394.047.032.086.032.11-.007.082-.114.242-.34.27-.383.054-.074-.145-.211-.051-.348M238.969 43.707c.07-.09.168-.012.226-.086.075-.09-.043-.242-.168-.336-.12-.097-.297-.176-.363-.078-.059.074.04.148-.031.242-.102.13-.29-.02-.344.055l-.277.375c-.028.039-.02.074.027.113l.547.426c.047.039.082.039.113 0 .086-.105.262-.32.297-.36.059-.074-.129-.222-.027-.351M239.977 44.582c.082-.086.171-.004.238-.074.078-.082-.028-.242-.145-.344-.113-.105-.28-.195-.36-.105-.058.07.032.152-.046.238-.11.121-.289-.04-.348.035-.039.043-.27.313-.304.352-.032.039-.024.074.02.113.05.043.468.418.515.465.047.039.082.043.113.008.094-.098.285-.301.324-.34.063-.067-.113-.227-.007-.348M240.89 45.57c.087-.078.169.012.239-.054.086-.078-.008-.243-.117-.356-.106-.11-.27-.21-.352-.129-.066.067.02.153-.066.235-.117.113-.281-.059-.352.007-.039.043-.289.293-.328.332-.031.032-.027.07.012.11.047.05.437.453.484.5.04.043.07.05.11.02l.347-.313c.07-.067-.097-.238.024-.352M241.742 46.578c.09-.074.172.02.242-.039.094-.07.012-.242-.09-.363-.097-.117-.253-.23-.34-.156-.074.062.005.156-.085.23-.125.105-.278-.078-.348-.02-.047.04-.312.27-.355.305-.036.031-.036.07.004.113.039.055.406.48.44.536.036.046.071.054.106.027.11-.082.329-.254.371-.285.079-.059-.07-.25.055-.348M242.54 47.656c.097-.066.163.04.237-.015.102-.067.036-.246-.054-.368-.09-.128-.239-.253-.332-.183-.078.055-.004.152-.102.222-.133.094-.273-.101-.348-.046l-.375.277c-.039.027-.039.066-.007.113.039.055.375.504.398.567.031.05.066.062.106.035l.39-.254c.078-.05-.047-.258.086-.348M243.227 48.832c.101-.059.156.05.238.004.105-.055.058-.246-.028-.375-.082-.133-.218-.27-.316-.207-.078.05-.016.152-.117.215-.137.082-.266-.121-.344-.074l-.328.21c-.043.024-.047.063-.016.11.036.058.352.52.371.586.028.05.063.066.102.043.121-.067.277-.149.32-.172.086-.047-.023-.258.118-.34M243.832 50.012c.106-.051.152.062.238.023.106-.047.078-.242.004-.379-.07-.136-.199-.281-.304-.226-.083.043-.024.152-.13.203-.148.074-.257-.14-.34-.098-.05.028-.265.125-.312.149-.043.023-.047.058-.023.109.031.062.316.543.332.61.023.054.055.07.098.05.125-.055.25-.09.296-.11.086-.038-.007-.261.141-.331M244.246 51.254c.106-.043.145.07.234.039.106-.04.098-.234.032-.375-.063-.145-.176-.297-.285-.25-.086.035-.04.148-.145.191-.152.063-.246-.16-.332-.12-.05.023-.094.054-.14.077-.044.016-.055.051-.032.106.027.062.281.566.293.637.016.054.047.074.09.054.129-.047.07-.023.121-.043.086-.03.008-.261.164-.316M244.887 52.133c-.051-.145-.14-.301-.215-.254-.133.059-.082.168-.16.207-.106.062-.18-.16-.242-.125-.04.023-.114.059-.149.082-.031.016-.039.055-.02.105.02.067.243.559.254.63.012.054.036.074.067.058.094-.047.133-.04.168-.059.062-.03 0-.257.11-.316.077-.04.109.078.171.043.082-.04.063-.23.016-.371M132.793 39.078c-.004-.004-.012-.012-.02-.012-.007-.007-.015-.011-.023-.015-.016-.012-.035-.02-.05-.031-.071-.043-.145-.098-.145-.208 0-.156.144-.156.144-.28h-.004c.004-.157-.207-.22-.382-.22h-.008c-.157 0-.34.047-.383.165a.138.138 0 0 0-.012.054c0 .125.145.125.145.282 0 .082-.04.132-.09.171-.067.051-.149.078-.18.13a.082.082 0 0 0-.015.042l.003.625c0 .063.036.094.106.09h.859c.07 0 .106-.031.106-.094 0-.18 0-.55-.004-.62 0-.032-.02-.06-.047-.079M134.367 39.078c-.039-.031-.101-.058-.152-.094a.215.215 0 0 1-.09-.172c0-.156.145-.156.14-.28h.005c0-.157-.211-.22-.387-.22h-.008c-.18 0-.39.063-.39.22 0 .124.14.124.14.28 0 .083-.04.133-.09.172-.05.036-.11.063-.148.094-.028.024-.047.047-.047.078 0 .07 0 .442-.004.621 0 .063.035.094.11.094h.863c.07 0 .105-.031.105-.094 0-.18-.004-.554-.004-.62 0-.032-.015-.055-.043-.079M135.934 39.078c-.04-.031-.098-.058-.149-.094a.205.205 0 0 1-.09-.172c0-.156.145-.156.14-.28.005-.157-.21-.22-.39-.22-.18 0-.39.063-.39.22 0 .124.14.124.14.28 0 .11-.07.165-.144.208-.016.011-.031.02-.051.03-.05.028-.09.06-.09.106 0 .067-.004.442-.004.621 0 .063.035.094.11.094h.863c.07 0 .105-.031.105-.094v-.62c0-.032-.02-.055-.05-.079M137.504 39.078c-.027-.02-.063-.039-.098-.062-.07-.043-.14-.094-.14-.203 0-.157.14-.157.14-.282 0-.156-.21-.218-.39-.218-.18 0-.391.062-.391.218 0 .125.14.125.14.282 0 .082-.038.132-.09.171-.05.036-.109.063-.148.094-.027.024-.047.047-.047.078l-.003.621c0 .063.035.094.109.094h.863c.07 0 .106-.031.106-.094 0-.18 0-.554-.004-.62 0-.032-.02-.055-.047-.079M139.074 39.078c-.031-.023-.07-.047-.11-.07-.066-.043-.128-.098-.128-.196 0-.156.14-.156.14-.28 0-.157-.21-.22-.39-.22h-.008c-.176 0-.383.063-.383.215v.004c0 .125.14.125.14.282 0 .082-.038.132-.089.171-.05.036-.11.063-.148.094-.028.024-.047.047-.047.078 0 .067-.004.442-.004.621 0 .063.035.094.11.094h.863c.07 0 .105-.031.105-.094 0-.18-.004-.55-.004-.62 0-.032-.02-.055-.047-.079M140.645 39.078c-.04-.031-.098-.058-.149-.094a.205.205 0 0 1-.09-.172c0-.156.14-.156.14-.28 0-.157-.21-.22-.39-.22h-.008c-.175 0-.382.063-.382.22 0 .124.14.124.14.28 0 .122-.09.176-.168.22a.063.063 0 0 1-.027.015c-.05.031-.094.062-.094.11v.62c0 .063.035.094.106.094h.867c.07 0 .105-.031.105-.094 0-.18-.004-.554-.004-.62 0-.032-.02-.055-.046-.079M142.223 39.086l-.004-.004a.452.452 0 0 0-.078-.05c-.078-.048-.16-.102-.157-.22 0-.156.149-.156.149-.277.008-.156-.223-.222-.406-.222-.157 0-.34.046-.383.164-.004.02-.008.035-.008.054 0 .125.14.125.14.282 0 .082-.038.128-.085.167-.051.04-.114.067-.153.098-.031.024-.047.047-.047.078-.004.07-.004.442-.004.621 0 .063.036.094.106.094.055 0 .344 0 .574-.004l.274.008a.143.143 0 0 0 .078-.023c.023-.016.039-.04.039-.079v-.46c.004-.075.004-.13.004-.153a.075.075 0 0 0-.016-.047.125.125 0 0 0-.023-.027M143.785 39.078c-.039-.031-.097-.058-.148-.094a.205.205 0 0 1-.09-.172c0-.156.14-.156.14-.28v-.005c-.003-.152-.214-.215-.39-.215-.18 0-.395.063-.39.22-.005.124.14.124.14.28 0 .086-.043.137-.098.176-.047.035-.105.059-.14.09-.032.024-.051.047-.051.078v.621c0 .063.035.094.105.094h.864c.074 0 .109-.031.109-.094 0-.18-.004-.554-.004-.62 0-.032-.02-.055-.047-.079M145.355 39.078c-.039-.031-.097-.058-.148-.094a.205.205 0 0 1-.09-.172c0-.156.14-.156.14-.28 0-.157-.21-.22-.39-.22h-.008c-.18.004-.386.063-.386.22 0 .124.144.124.144.28 0 .11-.074.165-.144.208-.016.011-.036.02-.051.03-.05.028-.09.06-.09.106 0 .067-.004.442-.004.621 0 .063.035.094.106.094h.863c.074 0 .11-.031.11-.094-.005-.18-.005-.554-.005-.62 0-.032-.02-.055-.047-.079M146.926 39.078c-.028-.02-.063-.039-.098-.062-.07-.043-.14-.094-.14-.203 0-.157.14-.157.14-.282 0-.156-.21-.218-.39-.218-.18 0-.395.062-.395.218h.004c-.004.125.14.125.14.282 0 .082-.039.132-.09.171-.05.036-.109.063-.152.094-.027.024-.043.047-.043.078 0 .07-.004.442-.004.621 0 .063.036.094.106.094h.863c.074 0 .11-.031.11-.094-.004-.18-.004-.554-.004-.62 0-.032-.02-.055-.047-.079M148.496 39.078c-.008-.004-.016-.012-.023-.016-.008-.003-.012-.007-.02-.011l-.055-.031c-.07-.043-.14-.098-.14-.208 0-.156.14-.156.14-.28 0-.009-.003-.02-.003-.032-.028-.133-.22-.188-.387-.188-.18 0-.395.063-.395.22 0 .124.145.124.145.28 0 .083-.043.133-.09.172-.05.036-.113.063-.152.094-.028.024-.043.047-.043.078-.004.07-.004.442-.004.621 0 .063.035.094.105.094h.864c.074 0 .109-.031.105-.094v-.62c0-.032-.02-.06-.047-.079M150.066 39.078c-.039-.031-.097-.058-.148-.094a.205.205 0 0 1-.09-.172c0-.156.14-.156.14-.28 0-.157-.214-.22-.39-.22-.18 0-.394.063-.394.22 0 .124.144.124.144.28 0 .118-.086.172-.16.22-.012.003-.023.011-.035.015-.051.031-.094.062-.094.11v.62c0 .063.035.094.106.094h.863c.074 0 .11-.031.11-.094 0-.18-.005-.554-.005-.62 0-.032-.02-.055-.047-.079M151.637 39.078c-.04-.031-.098-.058-.149-.094a.205.205 0 0 1-.09-.172c0-.156.141-.156.141-.28 0-.157-.215-.22-.39-.22h-.004c-.176 0-.391.063-.391.22h.004c-.004.124.14.124.14.28 0 .083-.043.133-.09.172-.05.036-.113.063-.152.094-.027.024-.047.047-.047.078v.621c0 .063.036.094.106.094.043 0 .238 0 .433-.004.192.004.391.004.43.004.074 0 .11-.031.11-.094-.004-.18-.004-.554-.004-.62 0-.032-.02-.055-.047-.079M153.203 39.078l-.012-.012c-.011-.004-.02-.011-.03-.015a.085.085 0 0 0-.032-.02c-.074-.047-.16-.101-.16-.218 0-.157.14-.157.14-.282 0-.156-.214-.218-.39-.218h-.004c-.168 0-.367.058-.387.199 0 .008-.004.011-.004.02 0 .124.145.124.145.28a.218.218 0 0 1-.094.172c-.05.04-.11.063-.148.094-.028.024-.047.047-.047.078v.621c0 .063.035.094.105.094h.863c.07 0 .11-.031.11-.094-.004-.18-.004-.554-.004-.62 0-.032-.02-.06-.05-.079M154.777 39.078c-.043-.031-.101-.058-.152-.094a.212.212 0 0 1-.086-.172c0-.156.14-.156.14-.28 0-.02-.003-.04-.011-.055-.043-.118-.227-.164-.383-.164-.18 0-.41.066-.406.222.004.121.152.121.152.278 0 .113-.074.167-.148.21a.597.597 0 0 0-.09.059.196.196 0 0 0-.027.031.111.111 0 0 0-.016.047c0 .024.004.082.004.156 0 .168.004.41.004.457 0 .04.015.059.039.075a.11.11 0 0 0 .078.027l.297-.008c.226.004.496.004.547.004.07 0 .11-.031.11-.094-.005-.183-.005-.55-.005-.62 0-.036-.02-.06-.047-.079M156.348 39.078c-.04-.031-.102-.058-.153-.098-.047-.039-.086-.085-.086-.167-.004-.157.141-.157.141-.282 0-.02-.004-.039-.012-.054-.043-.118-.226-.164-.383-.164-.18 0-.41.066-.406.222.004.121.153.121.153.278 0 .113-.079.167-.149.21-.05.032-.098.055-.117.09-.008.016-.016.032-.016.047 0 .024.004.078.004.145 0 .172.004.418.004.468 0 .04.016.059.04.075a.11.11 0 0 0 .077.027l.278-.008c.23.004.515.004.566.004.07 0 .106-.031.106-.094v-.62c0-.032-.02-.055-.047-.079M157.918 39.078a1.074 1.074 0 0 0-.098-.058c-.07-.043-.14-.098-.14-.208 0-.156.14-.156.14-.28h-.004.004c0-.157-.215-.22-.39-.22-.18 0-.395.063-.395.22 0 .124.14.124.14.28 0 .11-.07.16-.136.204-.039.023-.074.043-.098.062-.03.024-.05.047-.05.078 0 .067 0 .442-.004.621 0 .063.039.094.11.094h.862c.07 0 .106-.031.106-.094v-.62c0-.032-.02-.055-.047-.079M159.441 39.047c-.011-.004-.023-.012-.035-.02-.074-.043-.16-.097-.16-.215 0-.156.145-.156.145-.28 0-.157-.211-.22-.387-.22h-.008c-.176 0-.39.063-.39.22 0 .124.14.124.14.28 0 .083-.043.133-.09.172-.05.04-.11.063-.148.094-.028.024-.047.047-.047.078 0 .067 0 .442-.004.621 0 .063.04.094.11.094h.863c.07 0 .105-.031.105-.094v-.62c0-.048-.043-.079-.094-.11M161.059 39.078c-.04-.027-.09-.055-.137-.086-.055-.039-.102-.09-.106-.18 0-.156.145-.156.145-.28 0-.157-.207-.22-.387-.22h-.008c-.175 0-.39.063-.39.22 0 .124.144.124.14.28 0 .11-.07.16-.14.204-.035.023-.07.043-.098.062-.027.024-.047.047-.047.078 0 .07-.004.442-.004.621 0 .063.04.094.11.094H161c.07 0 .105-.031.105-.094v-.62c0-.032-.02-.055-.046-.079M162.629 39.078c-.04-.031-.102-.058-.152-.094a.205.205 0 0 1-.09-.172c0-.156.144-.156.144-.28 0-.153-.207-.216-.383-.22h-.011c-.176 0-.39.063-.39.22 0 .124.144.124.14.28 0 .11-.07.165-.14.208l-.052.03a.344.344 0 0 0-.039.024c-.004 0-.004.004-.004.004-.03.02-.05.047-.05.078v.621c0 .063.03.094.105.094h.863c.07 0 .106-.031.106-.094v-.62c-.004-.032-.02-.055-.047-.079M164.195 39.078c-.007-.008-.015-.012-.027-.02-.004-.003-.008-.003-.016-.007-.015-.012-.035-.02-.05-.031-.07-.043-.145-.098-.145-.208 0-.156.145-.156.145-.28 0-.157-.207-.22-.387-.22h-.008c-.18 0-.39.063-.39.22 0 .124.14.124.14.28 0 .106-.062.157-.133.2-.039.023-.078.043-.105.066-.028.024-.047.047-.047.078v.621c0 .063.031.094.105.094h.864c.07 0 .105-.031.105-.094v-.62c0-.032-.023-.055-.05-.079M165.766 39.078c-.04-.031-.098-.058-.145-.094a.199.199 0 0 1-.094-.172c0-.156.145-.156.145-.28 0-.005-.004-.005-.004-.009-.008-.152-.215-.21-.39-.21-.18 0-.391.062-.391.218 0 .125.14.125.14.282 0 .082-.039.132-.09.171-.05.036-.109.063-.148.094-.027.024-.047.047-.047.078 0 .067 0 .442-.004.621 0 .063.035.094.11.094h.863c.07 0 .105-.031.105-.094 0-.18-.004-.554-.004-.62 0-.032-.019-.055-.046-.079M167.336 39.078c-.031-.027-.078-.05-.121-.078-.063-.04-.117-.094-.117-.188 0-.156.144-.156.144-.28 0-.157-.215-.22-.394-.22h-.004c-.18 0-.387.063-.387.22 0 .124.14.124.14.28 0 .11-.07.16-.14.204-.035.023-.07.043-.098.062-.027.024-.047.047-.047.078 0 .07 0 .442-.003.621 0 .063.035.094.109.094h.863c.07 0 .106-.031.106-.094 0-.18-.004-.554-.004-.62 0-.032-.016-.055-.047-.079M168.906 39.078c-.004 0-.004-.004-.008-.004-.007-.008-.023-.015-.035-.023-.015-.012-.035-.02-.05-.031-.07-.043-.141-.098-.145-.208 0-.156.14-.156.14-.28 0-.157-.21-.22-.39-.22h-.012c-.176.004-.379.067-.379.22 0 .124.141.124.141.28 0 .055-.02.094-.043.13-.055.066-.145.097-.2.136-.023.024-.042.047-.042.078 0 .07-.004.442-.004.621 0 .063.035.094.11.094h.863c.07 0 .105-.031.105-.094v-.62c0-.032-.023-.06-.05-.079M170.477 39.078c-.028-.02-.063-.039-.098-.062-.07-.043-.14-.094-.14-.203 0-.157.14-.157.14-.282 0-.011-.004-.027-.004-.039-.035-.125-.223-.18-.387-.18h-.008c-.16 0-.343.055-.375.176a.202.202 0 0 0-.007.043c0 .125.14.125.14.282 0 .093-.054.148-.117.187-.043.031-.09.05-.121.078-.027.024-.047.047-.047.078 0 .067-.004.442-.004.621 0 .063.035.094.11.094h.863c.07 0 .105-.031.105-.094 0-.18 0-.55-.004-.62 0-.032-.02-.055-.046-.079M172.05 39.078c-.042-.031-.1-.058-.152-.094-.046-.039-.09-.09-.09-.172 0-.156.145-.156.141-.28 0-.157-.21-.22-.39-.22h-.004c-.18 0-.387.063-.387.22 0 .124.14.124.14.28 0 .118-.081.172-.156.215-.015.008-.023.016-.039.02-.05.031-.09.062-.09.11l-.003.62c0 .063.035.094.109.094h.863c.07 0 .106-.031.106-.094 0-.18 0-.554-.004-.62 0-.032-.02-.055-.043-.079M173.625 39.086l-.004-.004c-.02-.02-.05-.035-.082-.055-.074-.043-.156-.101-.152-.215 0-.156.148-.156.148-.277.008-.156-.222-.222-.402-.222-.16 0-.344.046-.387.164a.23.23 0 0 0-.008.054c0 .125.14.125.14.282 0 .082-.038.132-.089.167-.05.04-.11.067-.148.098-.028.024-.047.047-.047.078 0 .07-.004.442-.004.621 0 .063.035.094.105.094.051 0 .336 0 .563-.004l.285.008a.118.118 0 0 0 .078-.027.08.08 0 0 0 .04-.075v-.453c.003-.078.003-.136.003-.16.004-.015-.004-.031-.016-.047a.125.125 0 0 0-.023-.027M175.188 39.078c-.028-.02-.063-.039-.098-.062-.07-.043-.14-.098-.14-.203 0-.157.14-.157.14-.282 0-.156-.211-.218-.39-.218-.18 0-.391.062-.391.218 0 .125.14.125.14.282 0 .082-.043.132-.09.171-.05.036-.109.063-.148.094-.031.024-.047.047-.047.078 0 .07-.004.442-.004.621 0 .063.035.094.106.094h.863c.074 0 .11-.031.11-.094 0-.18-.005-.554-.005-.62 0-.032-.02-.055-.047-.079M176.758 39.078c-.04-.031-.098-.058-.149-.094a.205.205 0 0 1-.09-.172c0-.156.141-.156.141-.28.004-.157-.21-.22-.39-.22-.18 0-.391.063-.391.22 0 .124.14.124.14.28 0 .083-.039.133-.09.172-.05.036-.109.063-.148.094-.031.02-.05.043-.05.078v.621c0 .063.035.094.105.094.043 0 .238 0 .434-.004.195.004.39.004.43.004.073 0 .109-.031.109-.094 0-.18-.004-.554-.004-.62 0-.032-.02-.055-.047-.079M178.328 39.078c-.039-.027-.09-.055-.14-.09-.055-.039-.098-.09-.098-.175 0-.157.14-.157.14-.282 0-.156-.21-.218-.39-.218-.18 0-.395.062-.395.218h.004c-.004.125.14.125.14.282 0 .085-.046.136-.1.175-.048.035-.102.063-.137.09-.032.024-.047.047-.047.078 0 .067-.004.442-.004.621 0 .063.035.094.105.094.043 0 .239 0 .434-.004.195.004.387.004.43.004.074 0 .109-.031.109-.094-.004-.18-.004-.554-.004-.62 0-.032-.02-.055-.047-.079M179.898 39.078c-.039-.031-.097-.058-.148-.094a.205.205 0 0 1-.09-.172c0-.156.14-.156.14-.28 0-.157-.21-.22-.39-.22-.18 0-.394.063-.394.22h.004-.004c0 .124.144.124.144.28 0 .083-.039.133-.094.172-.046.036-.105.063-.144.094-.027.024-.047.047-.047.078 0 .067-.004.442-.004.621 0 .063.035.094.106.094.043 0 .238 0 .433-.004.195.004.39.004.434.004.07 0 .105-.031.105-.094-.004-.183-.004-.55-.004-.62 0-.036-.02-.06-.047-.079M181.469 39.078c-.04-.031-.098-.058-.149-.094a.205.205 0 0 1-.09-.172c0-.156.141-.156.141-.28 0-.157-.215-.22-.39-.22-.18 0-.395.063-.395.22 0 .124.144.124.144.28 0 .106-.07.16-.14.204-.035.023-.074.043-.098.062-.027.024-.047.047-.05.078v.621c0 .063.035.094.105.094h.863c.074 0 .106-.031.106-.094v-.62c0-.032-.02-.055-.047-.079M183.04 39.078c-.04-.031-.102-.058-.153-.098a.199.199 0 0 1-.086-.167c0-.157.14-.157.14-.282 0-.02-.004-.039-.011-.054-.043-.118-.227-.164-.383-.164-.18 0-.41.066-.406.222.004.121.152.121.152.278 0 .113-.078.171-.152.214-.032.02-.063.035-.086.055 0 .004 0 .004-.004.004l-.02.027a.081.081 0 0 0-.02.047c.005.024.005.082.009.16v.453c0 .04.015.059.039.075.02.015.043.027.078.027l.285-.008c.226.004.508.004.558.004.075 0 .106-.031.106-.094v-.62c0-.032-.02-.055-.047-.079M184.563 39.047a.343.343 0 0 0-.04-.024c-.074-.043-.152-.097-.152-.21 0-.157.14-.157.14-.282 0-.156-.21-.218-.386-.218h-.008c-.176 0-.39.062-.39.218 0 .125.144.125.144.282a.218.218 0 0 1-.094.171c-.05.036-.109.063-.148.094-.027.024-.047.047-.047.078v.621c0 .063.035.094.106.094h.863c.07 0 .11-.031.11-.094 0-.18-.005-.554-.005-.62 0-.048-.043-.079-.094-.11M186.18 39.078c-.032-.027-.078-.047-.121-.078-.063-.04-.118-.094-.118-.188 0-.156.141-.156.141-.28 0-.012-.004-.028-.008-.044-.031-.12-.215-.175-.375-.175h-.012c-.16 0-.351.054-.382.18a.139.139 0 0 0-.008.038c0 .125.144.125.144.282-.004.109-.07.16-.14.203-.04.023-.074.043-.098.062-.031.024-.05.047-.05.078v.621c0 .063.035.094.105.094h.863c.07 0 .11-.031.11-.094-.004-.18-.004-.554-.004-.62 0-.032-.02-.055-.047-.079M187.75 39.078c-.05-.039-.14-.07-.195-.137a.197.197 0 0 1-.043-.129c0-.156.14-.156.14-.28 0-.153-.203-.216-.382-.22h-.012c-.176 0-.39.063-.39.22 0 .124.144.124.14.28 0 .11-.07.165-.14.208l-.052.03a.343.343 0 0 0-.039.024l-.004.004c-.03.02-.05.047-.05.078v.621c0 .063.035.094.105.094h.863c.07 0 .11-.031.11-.094-.004-.18-.004-.55-.004-.62 0-.032-.02-.055-.047-.079M189.32 39.078c-.027-.02-.062-.039-.097-.062-.075-.043-.141-.094-.141-.203-.004-.157.14-.157.14-.282 0-.156-.21-.218-.386-.218h-.008c-.18 0-.39.062-.39.218 0 .125.144.125.14.282 0 .093-.05.144-.11.183-.046.031-.093.055-.128.082-.028.024-.047.047-.047.078v.621c0 .063.035.094.105.094h.864c.07 0 .105-.031.105-.094v-.62c0-.032-.02-.055-.047-.079M190.89 39.078c-.038-.031-.1-.058-.148-.094a.205.205 0 0 1-.09-.172c-.004-.156.141-.156.141-.28 0-.157-.215-.22-.39-.22-.176 0-.383.06-.391.211 0 .004-.004.004-.004.008 0 .125.14.125.14.282 0 .082-.039.132-.09.171-.046.036-.109.063-.148.094-.027.024-.047.047-.047.078 0 .067 0 .442-.004.621 0 .063.04.094.11.094h.863c.07 0 .106-.031.106-.094v-.62c0-.032-.02-.055-.047-.079M192.457 39.078c-.027-.023-.066-.043-.105-.066-.067-.043-.13-.094-.133-.2 0-.156.144-.156.144-.28 0-.157-.215-.22-.39-.22h-.012c-.176 0-.383.063-.383.22 0 .124.14.124.14.28 0 .11-.07.165-.14.208l-.05.03c-.008.005-.012.005-.02.009-.008.007-.016.011-.024.02-.03.023-.05.046-.05.077v.621c-.004.063.035.094.105.094h.863c.07 0 .106-.031.106-.094v-.62c0-.032-.02-.055-.051-.079M194.027 39.078l-.004-.004c-.011-.008-.027-.015-.039-.023-.015-.012-.035-.02-.05-.031-.07-.043-.141-.098-.145-.208 0-.156.145-.156.14-.28.005-.157-.21-.22-.386-.22h-.016c-.175.004-.379.067-.379.22 0 .124.141.124.141.28 0 .083-.039.133-.086.172-.05.036-.113.063-.152.094-.028.024-.047.047-.047.078 0 .07 0 .442-.004.621 0 .063.04.094.11.094h.863c.07 0 .105-.031.105-.094v-.62c0-.032-.02-.06-.05-.079M195.598 39.078c-.024-.02-.059-.039-.094-.062-.074-.043-.145-.094-.145-.203 0-.157.145-.157.145-.282 0-.156-.215-.218-.395-.218h-.007c-.176 0-.383.062-.383.218 0 .125.14.125.14.282 0 .09-.047.14-.101.18-.047.03-.102.058-.137.085-.027.024-.047.047-.047.078 0 .067-.004.442-.004.621 0 .063.035.094.11.094h.863c.07 0 .105-.031.105-.094v-.62c-.003-.032-.02-.055-.05-.079M197.172 39.078c-.04-.031-.098-.055-.149-.094-.05-.039-.093-.09-.093-.172 0-.156.144-.156.144-.28 0-.157-.215-.22-.39-.22h-.008c-.176 0-.387.063-.387.22 0 .124.14.124.14.28 0 .118-.081.172-.16.22-.011.003-.023.011-.03.015-.052.031-.094.062-.094.11v.62c0 .063.03.094.105.094h.863c.07 0 .106-.031.106-.094v-.62c0-.032-.02-.055-.047-.079M200.227 39.023c-.075-.043-.149-.097-.149-.21 0-.157.149-.157.152-.278.004-.156-.226-.222-.41-.222-.156 0-.336.046-.379.164a.125.125 0 0 0-.011.054c0 .125.14.125.14.282 0 .082-.039.128-.086.167-.05.04-.113.067-.152.098-.027.024-.047.047-.047.078 0 .07 0 .442-.004.621 0 .063.035.094.11.094.05 0 .336 0 .562-.004l.281.008a.118.118 0 0 0 .078-.027.08.08 0 0 0 .04-.075v-.468c.003-.067.003-.121.003-.145a.104.104 0 0 0-.011-.047c-.024-.035-.067-.058-.117-.09M198.738 39.078c-.027-.02-.062-.039-.097-.062-.07-.043-.141-.094-.141-.203 0-.157.145-.157.145-.282h-.004.004c0-.156-.215-.218-.395-.218-.176 0-.39.062-.39.218 0 .125.14.125.14.282 0 .109-.07.164-.14.207-.036.02-.07.039-.098.058-.028.024-.047.047-.047.078 0 .07 0 .442-.004.621 0 .063.035.094.105.094h.868c.07 0 .105-.031.105-.094 0-.18-.004-.554-.004-.62 0-.032-.02-.055-.047-.079M201.797 39.023c-.074-.043-.149-.097-.149-.21 0-.157.149-.157.153-.278.004-.156-.227-.222-.41-.222-.157 0-.336.046-.38.164a.125.125 0 0 0-.011.054c0 .125.14.125.14.282 0 .082-.038.132-.09.171-.046.036-.109.063-.148.094-.027.02-.047.043-.047.078l-.003.621c0 .063.039.094.109.094.047 0 .316 0 .543-.004l.3.008a.11.11 0 0 0 .079-.027.08.08 0 0 0 .039-.075v-.457c.004-.074.004-.132.008-.156 0-.015-.008-.031-.016-.047-.023-.035-.07-.058-.117-.09M203.45 39.078c-.036-.031-.095-.055-.145-.094-.051-.039-.094-.09-.094-.172 0-.156.14-.156.14-.28 0-.009 0-.012-.003-.02-.016-.14-.215-.2-.387-.2-.18 0-.39.063-.39.22 0 .124.14.124.14.28 0 .118-.086.172-.164.22-.012.003-.02.011-.031.019l-.028.015-.015.012c-.028.02-.047.047-.047.078 0 .067-.004.442-.004.621 0 .063.035.094.11.094h.862c.07 0 .106-.031.106-.094v-.62c-.004-.032-.02-.055-.05-.079M205.023 39.078c-.043-.031-.101-.058-.152-.094-.047-.039-.09-.09-.09-.172 0-.156.14-.156.14-.28 0-.157-.21-.22-.39-.22-.18 0-.39.063-.39.22 0 .124.14.124.14.28 0 .083-.039.133-.09.172-.05.036-.109.063-.148.094-.027.024-.047.047-.047.078 0 .067-.004.442-.004.621 0 .063.035.094.106.094.043 0 .238 0 .433-.004.196.004.39.004.434.004.07 0 .105-.031.105-.094v-.62c-.004-.032-.02-.055-.047-.079M206.547 39.047c-.012-.004-.024-.012-.035-.016-.075-.047-.16-.101-.16-.218 0-.157.14-.157.14-.282 0-.156-.21-.218-.39-.218-.18 0-.391.062-.391.218 0 .125.14.125.14.282 0 .082-.038.132-.09.171-.05.036-.109.063-.148.094-.027.024-.047.047-.047.078-.004.067-.004.442-.004.621 0 .063.036.094.106.094h.867c.07 0 .106-.031.106-.094 0-.18-.004-.554-.004-.62 0-.048-.04-.079-.09-.11M208.164 39.078c-.043-.031-.101-.058-.152-.094a.205.205 0 0 1-.09-.172c0-.156.14-.156.14-.28 0-.157-.21-.22-.39-.22-.168 0-.363.055-.387.188-.004.012-.004.023-.004.031 0 .125.14.125.14.282 0 .109-.073.164-.144.207-.015.011-.035.02-.05.03-.008.005-.012.009-.02.013-.008.003-.016.011-.023.015-.028.02-.047.047-.047.078 0 .067-.004.442-.004.621 0 .063.035.094.105.094h.864c.074 0 .109-.031.109-.094 0-.18-.004-.55-.004-.62 0-.032-.02-.055-.043-.079M209.734 39.078c-.043-.031-.101-.058-.152-.094a.205.205 0 0 1-.09-.172c0-.156.14-.156.14-.28.005-.157-.21-.22-.39-.22-.18 0-.39.063-.39.22 0 .124.14.124.14.28 0 .11-.07.16-.14.204-.036.023-.07.043-.098.062-.027.024-.05.047-.05.078v.621c0 .063.034.094.105.094h.863c.074 0 .11-.031.11-.094 0-.18-.005-.55-.005-.62 0-.032-.02-.055-.043-.079M211.258 39.05c-.02-.01-.035-.019-.051-.03-.074-.043-.144-.098-.144-.208 0-.156.14-.156.14-.28 0-.157-.207-.216-.383-.22h-.007c-.18 0-.395.063-.395.22h.004-.004c0 .124.144.124.144.28 0 .083-.042.133-.09.172-.05.036-.113.063-.148.094-.031.024-.047.047-.047.078 0 .067-.004.442-.004.621 0 .063.036.094.106.094h.863c.074 0 .11-.031.11-.094-.004-.18-.004-.554-.004-.62 0-.048-.043-.079-.09-.106M212.871 39.078c-.039-.031-.094-.055-.14-.09-.055-.039-.098-.09-.098-.175 0-.157.14-.157.14-.282 0-.156-.21-.218-.39-.218-.18 0-.39.062-.39.214v.004c-.005.125.14.125.14.282 0 .082-.043.132-.094.171-.047.036-.105.063-.144.094-.028.024-.047.047-.047.078 0 .067-.004.442-.004.621 0 .063.035.094.105.094h.864c.074 0 .109-.031.109-.094-.004-.18-.004-.554-.004-.62 0-.032-.02-.055-.047-.079M214.441 39.078c-.039-.031-.101-.058-.152-.098-.047-.039-.086-.085-.086-.167 0-.157.14-.157.14-.282a.138.138 0 0 0-.011-.054c-.039-.118-.227-.164-.383-.164-.18 0-.41.066-.402.222 0 .121.148.121.148.278 0 .117-.082.171-.156.218a.3.3 0 0 0-.078.051c-.004.004-.004.004-.008.004a.17.17 0 0 1-.023.027c-.008.016-.016.032-.012.047 0 .024 0 .078.004.153v.46c0 .04.016.063.039.079.02.011.043.023.078.023l.274-.008c.23.004.519.004.57.004.074 0 .105-.031.105-.094v-.62c0-.032-.02-.055-.047-.079M215.965 39.047a.224.224 0 0 1-.028-.016c-.078-.043-.164-.097-.164-.218 0-.157.141-.157.141-.282 0-.156-.207-.218-.383-.218h-.008c-.18 0-.394.062-.394.218 0 .125.144.125.144.282 0 .082-.043.132-.09.171-.05.036-.109.063-.148.094-.031.024-.047.047-.05.078v.621c0 .063.035.094.105.094h.863c.07 0 .11-.031.106-.094v-.62c0-.048-.04-.079-.094-.11M217.582 39.078c-.039-.031-.098-.058-.148-.094a.218.218 0 0 1-.094-.172c0-.156.144-.156.144-.28v-.005c0-.152-.21-.215-.382-.215h-.012c-.176 0-.39.063-.39.22 0 .124.144.124.144.28-.004.098-.063.153-.13.196-.038.023-.081.047-.112.07-.028.024-.047.047-.047.078v.621c0 .063.035.094.105.094h.863c.07 0 .11-.031.11-.094 0-.18-.004-.554-.004-.62 0-.032-.02-.055-.047-.079M219.152 39.078c-.039-.031-.101-.058-.148-.094a.205.205 0 0 1-.09-.172c0-.156.14-.156.14-.28 0-.157-.214-.22-.39-.22h-.004c-.176 0-.39.063-.39.22 0 .124.144.124.144.28-.004.11-.07.16-.144.204-.036.023-.07.043-.094.062-.031.024-.051.047-.051.078v.621c0 .063.035.094.105.094h.864c.07 0 .11-.031.11-.094-.005-.18-.005-.554-.005-.62 0-.032-.02-.055-.047-.079M220.676 39.05l-.051-.03c-.07-.043-.14-.098-.14-.208 0-.156.14-.156.14-.28 0-.157-.215-.22-.39-.22h-.005c-.175 0-.39.063-.39.22 0 .124.144.124.14.28 0 .083-.039.133-.09.172-.046.036-.109.063-.148.094-.027.024-.047.047-.047.078v.621c0 .063.035.094.106.094h.863c.07 0 .11-.031.106-.094v-.62c0-.048-.043-.079-.094-.106M222.293 39.078c-.04-.031-.102-.058-.148-.094a.205.205 0 0 1-.09-.172c0-.156.14-.156.14-.28 0-.157-.215-.22-.39-.22h-.008c-.18 0-.387.063-.387.22 0 .124.145.124.14.28 0 .083-.038.133-.085.172-.05.036-.113.063-.153.094-.027.024-.046.047-.046.078v.621c0 .063.035.094.105.094h.863c.07 0 .106-.031.106-.094v-.62c0-.032-.02-.055-.047-.079M225.21 38.852c.013-.157.161-.149.169-.27.016-.156-.219-.234-.402-.242-.184-.008-.403.047-.407.203-.004.125.14.129.137.285-.008.215-.293.207-.297.332 0 .078-.008.55-.012.625 0 .059.036.094.102.094.04 0 .23.008.418.016.184.011.355.023.394.023.067.008.102-.023.106-.086l.055-.617c.011-.13-.274-.149-.262-.363M226.785 38.969c.016-.157.16-.137.172-.262.02-.156-.195-.242-.375-.258-.184-.015-.406.024-.418.18-.008.125.133.137.121.293-.015.215-.3.191-.312.316-.004.078-.036.551-.043.621-.004.063.027.098.097.102.078.008.75.066.828.078.067.012.106-.016.114-.078l.066-.617c.016-.125-.27-.16-.25-.375M228.36 39.176c.023-.156.167-.133.187-.254.023-.156-.184-.254-.367-.281-.18-.028-.407.004-.426.16-.016.125.129.144.105.297-.027.215-.308.175-.328.3a26.56 26.56 0 0 1-.078.618c-.008.062.024.097.094.105.078.008.742.113.82.125.07.012.11-.012.117-.074.032-.18.09-.547.102-.613.023-.125-.262-.168-.227-.383M229.918 39.465c.031-.153.172-.121.2-.242.034-.149-.169-.262-.348-.297-.18-.04-.407-.02-.434.133-.024.12.117.152.09.304-.043.211-.324.157-.344.278-.016.078-.102.543-.113.613-.012.062.015.098.086.113.078.016.73.149.808.172.067.016.11-.008.121-.066.043-.18.125-.543.137-.61.027-.12-.25-.183-.203-.398M231.344 39.3c-.176-.046-.406-.042-.446.11-.027.117.114.156.075.305-.055.21-.332.14-.364.262-.02.074-.132.535-.148.605-.016.059.012.098.078.117.082.016.723.196.797.219.066.02.11 0 .125-.059.055-.175.156-.53.176-.597.035-.121-.239-.203-.18-.41.043-.153.184-.114.215-.23.043-.153-.149-.27-.328-.321M232.895 39.777c-.176-.058-.407-.07-.454.078-.035.118.102.165.055.313-.07.207-.34.117-.379.238-.023.07-.164.524-.187.59-.02.063.004.102.07.125.078.02.707.238.781.27.063.023.106.004.13-.055.062-.168.19-.52.214-.582.043-.117-.227-.215-.156-.422.05-.145.191-.098.234-.215.05-.144-.137-.277-.308-.34M121.676 40.809c-.047-.11.066-.157.031-.246-.043-.106-.23-.079-.371-.016-.14.062-.293.18-.246.285.039.086.148.04.195.145.067.152-.156.246-.117.332l.187.425c.02.043.06.055.11.032.062-.028.582-.254.64-.282.055-.023.075-.058.06-.101-.024-.051-.153-.38-.173-.434-.035-.086-.254.012-.316-.14M120.781 41.477c-.039-.086-.254.023-.324-.125-.05-.102.059-.16.016-.243-.047-.105-.23-.066-.371.008-.137.067-.282.192-.227.297.043.082.152.027.203.133.074.144-.14.254-.098.336l.215.414c.024.043.059.05.114.023.058-.03.562-.285.62-.316.051-.027.071-.063.048-.106-.02-.046-.172-.37-.196-.421M119.605 42.078c-.043-.082-.25.04-.332-.105-.058-.098.047-.16.004-.243-.054-.101-.238-.05-.37.032-.134.074-.27.21-.212.312.051.078.157.016.211.117.086.141-.12.262-.074.34.027.047.172.285.242.403.028.039.063.043.114.015l.601-.355c.05-.032.063-.067.04-.106-.024-.05-.196-.36-.224-.41M118.473 42.754c-.047-.078-.246.055-.336-.082-.067-.098.035-.164-.016-.242-.062-.102-.242-.035-.371.05-.125.09-.254.23-.184.329.051.074.153.007.22.101.089.137-.106.274-.056.348.032.043.192.27.27.383.027.039.066.039.113.007.055-.039.52-.355.578-.394.047-.031.059-.066.036-.106-.032-.046-.223-.347-.254-.394M117.39 43.504c-.054-.074-.245.074-.343-.055-.07-.094.023-.168-.031-.242-.07-.098-.243-.02-.368.078-.12.094-.238.246-.164.336.059.074.157-.004.227.086.102.129-.086.277-.027.352.03.039.207.254.296.359.028.039.067.039.11 0l.55-.426c.047-.039.055-.074.028-.113a88.727 88.727 0 0 0-.277-.375M116.363 44.332c-.062-.074-.238.086-.347-.035-.079-.086.011-.168-.047-.238-.078-.09-.246 0-.364.105-.113.102-.218.262-.14.344.062.07.156-.012.234.074.11.121-.066.281-.004.348.035.039.227.242.325.34.03.035.066.03.109-.008.05-.047.469-.422.52-.465.042-.04.046-.074.019-.113-.035-.04-.266-.309-.305-.352M115.434 45.273c-.067-.066-.23.106-.352-.007-.082-.082.004-.168-.062-.235-.082-.082-.247.02-.356.13-.105.112-.203.276-.113.355.066.066.152-.024.238.054.117.114-.047.285.023.352.04.035.247.223.348.312.035.032.07.024.11-.02.046-.046.437-.448.484-.5.039-.038.043-.077.008-.109-.04-.039-.29-.289-.328-.332M114.559 46.23c-.07-.058-.227.125-.352.02-.09-.074-.012-.168-.082-.23-.09-.075-.242.039-.344.156-.097.12-.18.293-.09.363.075.059.153-.035.243.04.125.097-.02.288.058.347l.367.285c.04.027.075.02.106-.027.039-.055.402-.48.445-.536.035-.043.04-.082.004-.113a24.637 24.637 0 0 1-.355-.305M113.734 47.266c-.074-.055-.214.14-.347.047-.094-.07-.024-.168-.098-.223-.094-.07-.242.055-.332.183-.094.122-.16.301-.059.368.079.054.145-.051.243.015.129.09.007.297.086.348l.39.254c.04.027.074.015.102-.035.027-.063.363-.512.402-.567.031-.047.031-.086-.008-.113a86.99 86.99 0 0 1-.379-.277M113.02 48.395c-.082-.047-.207.156-.348.074-.098-.063-.035-.164-.113-.215-.102-.063-.239.074-.317.207-.086.129-.133.32-.027.375.082.047.137-.063.238-.004.14.082.031.293.113.34.047.023.204.105.325.172.039.023.074.008.101-.043.016-.067.336-.528.371-.586.032-.047.024-.086-.015-.11l-.328-.21M112.254 49.5c-.078-.043-.192.172-.336.098-.106-.051-.047-.16-.133-.203-.105-.055-.23.09-.3.23-.075.137-.102.328.003.375.086.04.133-.074.239-.023.148.07.054.293.14.332.047.02.172.054.297.109.043.02.074.004.098-.05.011-.067.3-.548.328-.606.027-.055.02-.09-.024-.11-.046-.027-.257-.125-.312-.152M111.809 50.703c-.09-.039-.18.184-.332.121-.11-.043-.063-.156-.149-.191-.105-.047-.223.105-.281.25-.067.14-.078.336.031.375.086.035.129-.082.234-.04.157.06.079.286.165.317.046.02-.008-.004.117.047.043.016.078-.004.094-.059.011-.07.265-.574.292-.636.024-.055.012-.09-.03-.106-.052-.023-.09-.058-.141-.078M111.305 51.945c-.063-.035-.137.184-.246.125-.079-.043-.024-.152-.157-.21-.078-.044-.168.109-.215.253-.05.145-.066.336.016.375.063.032.094-.086.172-.043.11.055.047.285.11.317.035.015.074.011.163.054.036.016.082.008.098-.046.008-.07.203-.575.227-.637.015-.055.007-.09-.02-.106a2.805 2.805 0 0 0-.148-.082M223.715 38.984a.205.205 0 0 1-.09-.172c-.004-.156.14-.156.14-.28 0-.02-.003-.036-.007-.055-.043-.118-.227-.164-.383-.164h-.008c-.18 0-.387.062-.387.218 0 .125.141.125.141.282 0 .109-.07.164-.14.207l-.055.03c-.008.005-.012.009-.02.013-.008.003-.015.011-.023.015-.028.024-.047.047-.047.078v.621c0 .063.035.094.105.094H223.801c.07.004.105-.027.105-.09 0-.183.004-.554.004-.625a.082.082 0 0 0-.015-.043c-.032-.05-.114-.078-.18-.129M130.973 38.828c-.004-.156.14-.16.136-.285-.004-.156-.222-.211-.406-.203-.187.008-.418.086-.406.242.012.121.16.113.168.27.012.214-.274.234-.262.363.008.066.04.437.055.617.008.063.043.094.11.086.038 0 .21-.012.394-.023.187-.008.375-.016.418-.016.066 0 .101-.035.101-.094-.004-.074-.011-.547-.015-.625 0-.125-.286-.117-.293-.332M129.39 38.922c-.011-.156.133-.168.126-.293-.012-.156-.235-.195-.418-.18-.184.016-.395.102-.38.258.012.125.157.105.173.262.02.215-.262.25-.25.375.011.066.05.433.07.617.008.062.043.09.113.078.078-.012.746-.07.828-.078.067-.004.102-.04.098-.102-.008-.07-.04-.543-.047-.62-.008-.126-.293-.102-.312-.317M127.82 39.098c-.023-.153.118-.172.106-.297-.024-.156-.246-.188-.43-.16-.18.027-.387.125-.363.28.02.122.164.099.187.255.035.215-.25.258-.23.383.015.066.074.433.101.613.012.062.051.086.118.074.082-.012.742-.117.824-.125.066-.008.097-.043.09-.105-.008-.07-.067-.54-.078-.618-.016-.125-.297-.086-.325-.3M126.254 39.363c-.031-.152.113-.183.09-.304-.028-.153-.254-.172-.438-.133-.18.035-.379.148-.347.297.027.12.168.09.203.242.043.215-.235.277-.207.398.015.067.097.43.14.61.012.058.051.082.118.066.078-.023.734-.156.812-.172.07-.015.098-.05.086-.113l-.113-.613c-.024-.121-.301-.067-.344-.278M124.707 39.715c-.039-.149.102-.188.07-.305-.035-.152-.265-.156-.441-.11-.18.052-.375.169-.332.321.035.117.176.078.215.23.058.208-.215.29-.18.41l.176.598c.02.059.058.078.125.059.078-.023.719-.203.8-.219.067-.02.09-.058.075-.117-.016-.07-.13-.531-.149-.605-.027-.122-.304-.051-.359-.262M123.184 40.168c-.047-.148.09-.195.05-.313-.046-.148-.273-.136-.449-.078-.172.063-.36.196-.308.34.043.117.18.07.23.215.074.207-.195.305-.152.422l.215.582c.02.059.062.078.128.055.075-.032.704-.25.782-.27.062-.023.09-.062.07-.125-.023-.066-.164-.52-.188-.59-.039-.12-.308-.031-.378-.238"/><path d="M234.148 141.793H121.426c-5.375 0-9.746-4.371-9.746-9.742V55.344c0-5.375 4.37-9.742 9.746-9.742h112.722c5.372 0 9.747 4.367 9.747 9.742v76.707c0 5.37-4.375 9.742-9.747 9.742"/><path fill="#f1f1f2" d="M121.426 46.2c-5.043 0-9.149 4.1-9.149 9.144v76.707c0 5.043 4.106 9.14 9.149 9.14h112.722c5.043 0 9.145-4.097 9.145-9.14V55.344c0-5.043-4.102-9.145-9.145-9.145H121.426"/><path d="M121.426 45.766c-5.543 0-9.5 4.285-9.5 9.578v76.707c0 5.043 4.457 9.734 9.5 9.734h112.722c5.043 0 9.465-4.691 9.465-9.734V55.344c0-5.043-4.078-9.524-9.12-9.524zm112.722.882c4.797 0 8.696 3.899 8.696 8.696v76.707c0 4.793-3.899 8.691-8.696 8.691H121.426c-4.797 0-8.696-3.898-8.696-8.691V55.344c0-4.797 3.899-8.696 8.696-8.696h112.722"/><path d="M242.844 74.465H112.73V68.71h130.114v5.754"/><path fill="#272727" d="M114.258 67.285h-1.528v-.488h1.528zm2.199 0h-1.527v-.488h1.527zm2.2 0h-1.528v-.488h1.527zm2.202 0h-1.527v-.488h1.527zm2.2 0h-1.528v-.488h1.528zm2.203 0h-1.532v-.488h1.532zm2.199 0h-1.527v-.488h1.527zm2.2 0h-1.528v-.488h1.527zm2.202 0h-1.527v-.488h1.527zm2.2 0h-1.528v-.488h1.528zm2.199 0h-1.528v-.488h1.528zm2.203 0h-1.528v-.488h1.528zm2.2 0h-1.528v-.488h1.527zm2.198 0h-1.527v-.488h1.527zm2.203 0h-1.527v-.488h1.527zm2.2 0h-1.528v-.488h1.528zm2.203 0h-1.531v-.488h1.53zm2.199 0h-1.527v-.488h1.527zm2.2 0h-1.528v-.488h1.527zm2.202 0h-1.527v-.488h1.527zm2.2 0h-1.528v-.488h1.528zm2.199 0h-1.528v-.488h1.528zm2.203 0h-1.527v-.488h1.527zm2.2 0h-1.528v-.488h1.527zm2.198 0h-1.527v-.488h1.527zm2.203 0h-1.527v-.488h1.527zm2.2 0h-1.528v-.488h1.528zm2.203 0h-1.531v-.488h1.53zm2.199 0h-1.527v-.488h1.527zm2.203 0h-1.531v-.488h1.531zm2.2 0h-1.532v-.488h1.531zm2.199 0h-1.528v-.488h1.528zm2.199 0h-1.528v-.488h1.528zm2.203 0h-1.527v-.488h1.527zm2.2 0h-1.528v-.488h1.527zm2.198 0h-1.527v-.488h1.527zm2.203 0h-1.527v-.488h1.527zm2.2 0h-1.528v-.488h1.528zm2.203 0h-1.531v-.488h1.53zm2.199 0h-1.527v-.488h1.527zm2.203 0h-1.531v-.488h1.531zm2.2 0h-1.528v-.488h1.527zm2.199 0h-1.528v-.488h1.528zm2.203 0h-1.532v-.488h1.532zm2.199 0h-1.527v-.488h1.527zm2.2 0h-1.528v-.488h1.527zm2.198 0h-1.527v-.488h1.527zm2.203 0h-1.527v-.488h1.528zm2.2 0h-1.528v-.488h1.528zm2.203 0h-1.531v-.488h1.53zm2.2 0h-1.528v-.488h1.527zm2.198 0h-1.527v-.488h1.527zm2.203 0h-1.527v-.488h1.527zm2.2 0h-1.528v-.488h1.528zm2.203 0h-1.531v-.488h1.53zm2.199 0h-1.527v-.488h1.527zm2.2 0h-1.528v-.488h1.527zm2.202 0h-1.53v-.488h1.53zm2.2 0h-1.528v-.488h1.528zm.949 0h-.278v-.488h.278v.488M113.008 76.379h-.278v-.488h.278zm2.199 0h-1.527v-.488h1.527zm2.203 0h-1.531v-.488h1.531zm2.2 0h-1.532v-.488h1.531zm2.199 0h-1.528v-.488h1.528zm2.199 0h-1.528v-.488h1.528zm2.203 0h-1.527v-.488h1.527zm2.2 0h-1.528v-.488h1.527zm2.198 0h-1.527v-.488h1.527zm2.203 0h-1.527v-.488h1.528zm2.2 0h-1.528v-.488h1.528zm2.203 0h-1.531v-.488h1.53zm2.2 0h-1.528v-.488h1.527zm2.198 0h-1.527v-.488h1.527zm2.203 0h-1.527v-.488h1.527zm2.2 0h-1.528v-.488h1.528zm2.203 0h-1.531v-.488h1.53zm2.199 0h-1.527v-.488h1.527zm2.2 0h-1.528v-.488h1.527zm2.198 0h-1.527v-.488h1.527zm2.204 0h-1.528v-.488h1.528zm2.199 0h-1.528v-.488h1.528zm2.199 0h-1.527v-.488h1.527zm2.203 0h-1.527v-.488h1.527zm2.203 0h-1.531v-.488h1.531zm2.2 0h-1.532v-.488h1.531zm2.199 0h-1.528v-.488h1.528zm2.203 0h-1.531v-.488h1.53zm2.199 0h-1.527v-.488h1.527zm2.2 0h-1.528v-.488h1.527zm2.202 0h-1.53v-.488h1.53zm2.2 0h-1.528v-.488h1.528zm2.199 0h-1.528v-.488h1.528zm2.203 0h-1.531v-.488h1.53zm2.2 0H186.3v-.488h1.527zm2.198 0H188.5v-.488h1.527zm2.203 0h-1.53v-.488h1.53zm2.2 0h-1.528v-.488h1.528zm2.203 0h-1.531v-.488h1.53zm2.199 0h-1.527v-.488h1.527zm2.2 0h-1.528v-.488h1.527zm2.202 0h-1.53v-.488h1.53zm2.2 0h-1.528v-.488h1.528zm2.199 0h-1.528v-.488h1.528zm2.203 0h-1.531v-.488h1.53zm2.2 0h-1.528v-.488h1.527zm2.198 0h-1.527v-.488h1.527zm2.203 0h-1.53v-.488h1.53zm2.2 0h-1.528v-.488h1.528zm2.203 0h-1.531v-.488h1.53zm2.2 0h-1.528v-.488h1.527zm2.198 0h-1.527v-.488h1.527zm2.203 0h-1.527v-.488h1.527zm2.2 0h-1.528v-.488h1.528zm2.199 0h-1.528v-.488h1.528zm2.203 0h-1.531v-.488h1.531zm2.2 0h-1.528v-.488h1.527zm2.198 0h-1.527v-.488h1.527zm2.204 0h-1.532v-.488h1.532zm2.199 0h-1.528v-.488h1.528v.488"/><path fill="#b3b3b3" d="M110.445 53.074c.086-.476.184-.98.266-1.43 0-.05-.332-.07-.469-.218-.133-.098-.285-.016-.332.117-.762-.121-1.344.16-1.672.793-.5.953-.554 1.965-.246 3.004.11.363.63.45.719.379.09-.067.133-.242.176-.45.054-.238.113-.468-.282-.496-.14-.007-.19-.128-.203-.27-.035-.366-.078-.741.004-1.108.153-.715.383-1.028 1.125-1.157.086-.011.156-.035.246-.011-.191 1.003-.547 2.882-.664 3.449-.05.242.035.422.258.445.082.008.152.059.238.074.496.11.668.117.813-.39.148-.504.39-1.535.516-2.078.19-.696-.493-.653-.493-.653" fill-rule="evenodd"/><path fill="#b3b3b3" d="M114.305 73.043c0 .078-.035.117-.114.117l-.91-.004c-.078 0-.117-.039-.117-.117v-.777c0-.157.305-.157.3-.43 0-.195-.151-.195-.151-.348 0-.195.226-.273.417-.273.192 0 .418.082.418.277 0 .157-.152.153-.148.348 0 .273.305.273.305.43v.777M115.98 73.043c0 .078-.039.117-.113.117l-.914-.004c-.074 0-.113-.039-.113-.117v-.777c0-.157.3-.153.3-.43 0-.191-.152-.195-.152-.348 0-.195.227-.273.418-.273.188 0 .418.082.418.277 0 .153-.152.153-.152.348.004.273.305.273.308.43v.777M117.656 73.043c0 .078-.039.117-.113.117l-.914-.004c-.074 0-.113-.039-.113-.117v-.777c-.004-.157.3-.157.3-.43 0-.191-.152-.195-.152-.348 0-.195.227-.273.418-.273.188 0 .418.082.418.277 0 .153-.152.153-.152.348.004.273.304.273.308.43v.777M119.332 73.043c0 .078-.039.117-.117.117l-.91-.004c-.075 0-.114-.039-.114-.117l-.004-.777c0-.157.305-.157.305-.43 0-.191-.152-.195-.152-.352 0-.19.226-.27.418-.27.187 0 .414.083.418.278 0 .157-.153.153-.153.348 0 .273.305.273.305.43.004.086.004.55.004.777M121.004 73.043c0 .078-.035.117-.113.117l-.91-.004c-.075 0-.114-.039-.114-.117l-.004-.777c0-.157.305-.157.305-.43-.004-.191-.152-.195-.152-.348 0-.195.226-.273.414-.273.191 0 .418.082.418.277 0 .153-.149.153-.149.348 0 .273.305.273.305.43v.777M122.68 73.043c0 .078-.035.117-.114.117l-.91-.004c-.078 0-.113-.039-.113-.117l-.004-.777c0-.157.305-.157.3-.43 0-.191-.151-.195-.151-.348 0-.195.23-.273.417-.273.192 0 .418.082.418.277 0 .153-.152.153-.152.348.004.273.309.273.309.43v.777M124.355 73.043c0 .078-.039.117-.113.117l-.91-.004c-.078 0-.113-.039-.113-.117-.004-.09-.004-.68-.004-.777 0-.157.3-.157.3-.43 0-.191-.152-.195-.152-.352 0-.19.227-.27.418-.27.192 0 .418.083.418.278 0 .153-.152.153-.152.348.004.273.308.273.308.43v.777M126.031 73.043c0 .078-.039.117-.113.117l-.91-.004c-.078 0-.117-.039-.117-.117v-.777c-.004-.157.3-.157.3-.43 0-.191-.152-.195-.152-.352 0-.19.227-.27.418-.27.191 0 .418.083.418.278 0 .157-.152.153-.152.348 0 .273.304.273.304.43 0 .086.004.55.004.777M127.707 73.043c0 .078-.039.117-.113.117l-.914-.004c-.075 0-.114-.039-.114-.117l-.004-.777c0-.157.305-.157.305-.43 0-.191-.152-.191-.152-.348 0-.195.226-.273.418-.273.187.004.418.082.418.277 0 .157-.153.153-.153.348 0 .273.305.273.305.43 0 .086.004.55.004.777M129.383 73.043c0 .078-.04.117-.113.117l-.915-.004c-.074 0-.113-.039-.113-.117l-.004-.777c0-.157.305-.157.305-.43 0-.195-.152-.195-.152-.348-.004-.195.226-.273.414-.273.191.004.422.082.422.277 0 .157-.153.153-.153.348 0 .273.305.273.305.43 0 .086.004.55.004.777M131.059 73.043c0 .078-.04.117-.118.117l-.91-.004c-.078 0-.113-.039-.113-.117l-.004-.777c0-.157.305-.157.305-.43-.004-.195-.156-.195-.156-.348 0-.195.23-.273.417-.273.192.004.418.082.418.277 0 .157-.148.153-.148.348 0 .273.305.273.305.43 0 .086 0 .55.004.777M132.73 73.043c0 .078-.035.117-.113.117l-.91-.004c-.078 0-.113-.039-.117-.117v-.777c0-.157.3-.157.3-.426 0-.2-.152-.2-.152-.352 0-.195.227-.273.418-.273.192 0 .418.082.418.277 0 .157-.152.153-.152.348.004.273.308.273.308.43v.777M134.406 73.043c0 .078-.039.117-.113.117l-.914-.004c-.074 0-.113-.039-.113-.117l-.004-.777c0-.157.304-.157.304-.426 0-.195-.152-.195-.152-.352 0-.195.227-.273.418-.273.188.004.418.082.418.277 0 .157-.152.153-.152.348 0 .273.304.273.304.43 0 .086.004.55.004.777M136.082 73.043c0 .078-.039.117-.113.117l-.914-.004c-.075 0-.114-.039-.114-.117l-.004-.777c0-.157.305-.157.305-.43 0-.191-.152-.195-.152-.348 0-.195.226-.273.418-.273.187 0 .418.082.418.277 0 .153-.153.157-.153.348 0 .273.305.273.305.43 0 .086.004.55.004.777M137.758 73.043c0 .078-.04.117-.113.117l-.915-.004c-.074 0-.113-.039-.113-.117l-.004-.777c0-.157.305-.157.305-.43 0-.191-.152-.195-.152-.348-.004-.195.226-.273.414-.273.191 0 .418.082.422.277 0 .157-.153.153-.153.348 0 .273.305.273.305.43 0 .086.004.55.004.777M139.434 73.043c0 .078-.04.117-.118.117l-.91-.004c-.078 0-.113-.039-.113-.117-.004-.09-.004-.68-.004-.777 0-.157.305-.157.305-.43 0-.191-.156-.195-.156-.348 0-.195.23-.273.417-.273.192 0 .418.082.418.277.004.153-.148.153-.148.348 0 .273.305.273.305.43 0 .086.004.55.004.777M141.105 73.043c0 .078-.035.117-.113.117l-.91-.004c-.078 0-.113-.039-.117-.117v-.777c0-.157.305-.157.3-.43 0-.195-.152-.195-.152-.352 0-.19.227-.27.418-.27.192 0 .418.083.418.278 0 .157-.152.153-.148.348 0 .273.3.273.3.43.004.086.004.55.004.777M142.781 73.043c0 .078-.035.117-.113.117l-.914-.004c-.074 0-.113-.039-.113-.117v-.777c0-.157.3-.157.3-.43 0-.191-.152-.195-.152-.348 0-.195.227-.273.418-.273.188 0 .418.082.418.277 0 .157-.152.153-.148.348 0 .273.3.273.3.43 0 .086.004.55.004.777M144.457 73.043c0 .078-.039.117-.113.117l-.914-.004c-.075 0-.114-.039-.114-.117v-.777c0-.157.301-.153.301-.43 0-.191-.152-.195-.152-.352 0-.19.226-.27.414-.27.191 0 .422.083.422.278 0 .153-.153.153-.153.348 0 .273.305.273.305.43 0 .086.004.55.004.777M146.11 73.05c-.005.075-.04.114-.114.11-.043 0-.23-.004-.434-.004h-.453c-.078 0-.113-.043-.113-.12-.004-.09-.004-.68-.004-.778 0-.156.301-.153.301-.426 0-.195-.152-.195-.152-.352 0-.195.226-.27.418-.27.195 0 .437.083.433.278-.004.157-.16.153-.164.348 0 .273.305.277.3.437-.003.086-.015.551-.019.778M147.805 73.043c.004.078-.035.117-.114.117l-.91-.004c-.078 0-.113-.039-.113-.117-.004-.09-.004-.684-.004-.777 0-.157.305-.157.305-.43-.004-.195-.153-.195-.156-.348 0-.195.226-.273.417-.273.192 0 .418.082.418.277 0 .157-.148.153-.148.348 0 .273.305.273.305.43v.777M149.48 73.043c0 .078-.035.117-.113.117l-.91-.004c-.078 0-.117-.039-.117-.117v-.777c0-.157.305-.153.3-.43 0-.191-.152-.195-.152-.348 0-.195.227-.273.418-.273.188 0 .418.082.418.277 0 .153-.152.153-.148.348 0 .273.304.273.304.43v.777M151.156 73.043c0 .078-.039.117-.113.117l-.914-.004c-.074 0-.113-.039-.113-.117v-.777c0-.157.3-.157.3-.43 0-.191-.152-.195-.152-.348 0-.195.227-.273.418-.273.188 0 .418.082.418.277 0 .153-.152.153-.152.348.004.273.304.273.308.43v.777M152.832 73.043c0 .078-.039.117-.113.117l-.914-.004c-.075 0-.114-.039-.114-.117v-.777c-.004-.157.301-.157.301-.43 0-.191-.152-.195-.152-.352 0-.19.226-.27.418-.27.187 0 .418.083.418.278 0 .157-.153.153-.153.348 0 .273.305.273.305.43 0 .086.004.55.004.777M154.508 73.043c0 .078-.04.117-.117.117l-.91-.004c-.079 0-.114-.039-.114-.117 0-.09 0-.68-.004-.777 0-.157.305-.157.305-.43 0-.191-.152-.195-.152-.348-.004-.195.226-.273.414-.273.191 0 .418.082.418.277.004.153-.149.153-.149.348 0 .273.305.273.305.43 0 .086.004.55.004.777M156.18 73.043c0 .078-.035.117-.114.117l-.91-.004c-.078 0-.113-.039-.113-.117l-.004-.777c0-.157.305-.157.3-.43 0-.191-.151-.195-.151-.348 0-.195.23-.273.417-.273.192 0 .418.082.418.277 0 .153-.148.153-.148.348 0 .273.305.273.305.43v.777M157.855 73.043c0 .078-.039.117-.113.117l-.91-.004c-.078 0-.117-.039-.117-.117v-.777c0-.157.305-.157.3-.43 0-.191-.152-.195-.152-.352 0-.19.227-.27.418-.27.192 0 .418.083.418.278 0 .153-.152.153-.148.348 0 .273.304.273.304.43v.777M159.531 73.043c0 .078-.039.117-.113.117l-.914-.004c-.074 0-.113-.039-.113-.117v-.777c0-.157.3-.157.3-.43 0-.191-.152-.195-.152-.352 0-.19.227-.27.418-.27.188 0 .418.083.418.278 0 .157-.152.153-.152.348.004.273.304.273.308.43v.777M161.207 73.043c0 .078-.039.117-.113.117l-.914-.004c-.075 0-.114-.039-.114-.117 0-.09 0-.68-.004-.777 0-.157.305-.157.305-.43 0-.191-.152-.191-.152-.348 0-.195.226-.273.418-.273.187.004.418.082.418.277 0 .157-.153.153-.153.348 0 .273.305.273.305.43.004.086.004.55.004.777M162.883 73.043c0 .078-.04.117-.113.117l-.915-.004c-.074 0-.113-.039-.113-.117l-.004-.777c0-.157.305-.157.305-.43 0-.195-.152-.195-.152-.348 0-.195.226-.273.418-.273.187.004.414.082.414.277.004.157-.149.153-.149.348 0 .273.305.273.305.43 0 .086.004.55.004.777M164.555 73.043c0 .078-.035.117-.114.117l-.91-.004c-.074 0-.113-.039-.113-.117l-.004-.777c0-.157.305-.157.305-.43-.004-.195-.156-.195-.156-.348 0-.195.23-.273.417-.273.192.004.418.082.418.277 0 .157-.148.153-.148.348 0 .273.305.273.305.43v.777M166.23 73.043c0 .078-.035.117-.113.117l-.91-.004c-.078 0-.113-.039-.113-.117l-.004-.777c0-.157.305-.157.3-.426 0-.2-.152-.2-.152-.352 0-.195.23-.273.418-.273.192 0 .418.082.418.277 0 .157-.152.153-.148.348 0 .273.304.273.304.43v.777M167.906 73.043c0 .078-.039.117-.113.117l-.91-.004c-.078 0-.113-.039-.117-.117v-.777c-.004-.157.3-.157.3-.426 0-.195-.152-.195-.152-.352 0-.195.227-.273.418-.273.191.004.418.082.418.277 0 .157-.152.153-.152.348 0 .273.304.273.308.43v.777M169.582 73.043c0 .078-.039.117-.113.117l-.91-.004c-.079 0-.118-.039-.118-.117 0-.09 0-.68-.004-.777 0-.157.305-.157.305-.43 0-.191-.152-.195-.152-.348 0-.195.226-.273.418-.273.187 0 .418.082.418.277 0 .153-.153.157-.153.348 0 .273.305.273.305.43 0 .086.004.55.004.777M171.258 73.043c0 .078-.04.117-.113.117l-.915-.004c-.074 0-.113-.039-.113-.117 0-.09 0-.68-.004-.777 0-.157.305-.157.305-.43 0-.191-.152-.195-.152-.348 0-.195.226-.273.418-.273.187 0 .418.082.418.277 0 .157-.153.153-.153.348 0 .273.305.273.305.43 0 .086.004.55.004.777M172.934 73.043c0 .078-.04.117-.118.117l-.91-.004c-.074 0-.113-.039-.113-.117l-.004-.777c0-.157.305-.157.305-.43 0-.191-.153-.195-.153-.348 0-.195.227-.273.414-.273.192 0 .418.082.422.277 0 .153-.152.153-.152.348 0 .273.305.273.305.43 0 .086.004.55.004.777M174.61 73.043c0 .078-.04.117-.118.117l-.91-.004c-.078 0-.113-.039-.113-.117-.004-.09-.004-.68-.004-.777 0-.157.3-.157.3-.43 0-.195-.148-.195-.152-.352 0-.19.227-.27.418-.27.192 0 .418.083.418.278 0 .157-.148.153-.148.348 0 .273.3.273.304.43 0 .086 0 .55.004.777M176.281 73.043c0 .078-.035.117-.113.117l-.91-.004c-.078 0-.117-.039-.117-.117v-.777c0-.157.3-.157.3-.43 0-.191-.152-.195-.152-.348 0-.195.227-.273.418-.273.191 0 .418.082.418.277 0 .157-.152.153-.152.348.004.273.304.273.304.43.004.086.004.55.004.777M177.957 73.043c0 .078-.039.117-.113.117l-.914-.004c-.075 0-.114-.039-.114-.117l-.004-.777c0-.157.305-.153.305-.43 0-.191-.152-.195-.152-.352 0-.19.226-.27.418-.27.187 0 .418.083.418.278 0 .153-.153.153-.153.348 0 .273.305.273.305.43 0 .086.004.55.004.777M179.61 73.05c-.005.075-.04.114-.114.11-.043 0-.23-.004-.434-.004h-.453c-.078 0-.117-.043-.117-.12v-.778c0-.156.305-.153.301-.426 0-.195-.152-.195-.152-.352 0-.195.226-.27.418-.27.195 0 .441.083.433.278-.004.157-.16.153-.16.348-.004.273.3.277.297.437 0 .086-.016.551-.02.778M181.309 73.043c0 .078-.04.117-.114.117l-.914-.004c-.074 0-.113-.039-.113-.117l-.004-.777c0-.157.305-.157.305-.43 0-.191-.153-.195-.153-.348-.004-.195.227-.273.414-.273.192 0 .418.082.422.277 0 .153-.152.153-.152.348 0 .273.305.273.305.43 0 .086.004.55.004.777M182.98 73.043c0 .078-.035.117-.113.117l-.91-.004c-.078 0-.113-.039-.117-.117v-.777c0-.157.305-.157.3-.43 0-.191-.148-.195-.152-.348 0-.195.227-.273.418-.273.192 0 .418.082.418.277.004.153-.152.153-.148.348 0 .273.304.273.304.43v.777M184.656 73.043c0 .078-.039.117-.113.117l-.914-.004c-.074 0-.113-.039-.113-.117v-.777c0-.157.304-.157.3-.43 0-.191-.152-.195-.152-.352 0-.19.227-.27.418-.27.188 0 .418.083.418.278 0 .153-.152.153-.148.348 0 .273.3.273.3.43 0 .086.004.55.004.777M186.332 73.043c0 .078-.039.117-.113.117l-.914-.004c-.075 0-.114-.039-.114-.117v-.777c0-.157.301-.157.301-.43 0-.191-.152-.195-.152-.352 0-.19.226-.27.418-.27.187 0 .418.083.418.278 0 .157-.153.153-.153.348.004.273.305.273.305.43 0 .086.004.55.004.777M188.008 73.043c0 .078-.04.117-.113.117l-.915-.004c-.074 0-.113-.039-.113-.117 0-.09 0-.68-.004-.777 0-.157.305-.157.305-.43 0-.191-.152-.191-.152-.348-.004-.195.226-.273.414-.273.191.004.418.082.422.277 0 .157-.153.153-.153.348 0 .273.305.273.305.43 0 .086.004.55.004.777M189.68 73.043c0 .078-.035.117-.11.117l-.914-.004c-.074 0-.113-.039-.113-.117l-.004-.777c0-.157.305-.157.305-.43 0-.195-.153-.195-.153-.348-.004-.195.227-.273.414-.273.192.004.418.082.422.277 0 .157-.152.153-.152.348 0 .273.305.273.305.43v.777M191.355 73.043c0 .078-.035.117-.113.117l-.91-.004c-.078 0-.117-.039-.117-.117v-.777c0-.157.305-.157.3-.43 0-.195-.152-.195-.152-.348 0-.195.227-.273.418-.273.192.004.418.082.418.277 0 .157-.152.153-.148.348 0 .273.304.273.304.43v.777M193.031 73.043c0 .078-.035.117-.113.117l-.91-.004c-.078 0-.113-.039-.117-.117v-.777c0-.157.304-.157.3-.426 0-.2-.152-.2-.152-.352 0-.195.227-.273.418-.273.188 0 .418.082.418.277 0 .157-.152.153-.148.348 0 .273.304.273.304.43v.777M194.707 73.043c0 .078-.039.117-.113.117l-.914-.004c-.075 0-.114-.039-.114-.117v-.777c0-.157.301-.157.301-.426 0-.195-.152-.195-.152-.352 0-.195.226-.273.418-.273.187.004.418.082.418.277 0 .157-.153.153-.153.348.004.273.305.273.309.43v.777M196.383 73.043c0 .078-.04.117-.113.117l-.915-.004c-.074 0-.113-.039-.113-.117v-.777c-.004-.157.301-.157.301-.43 0-.191-.152-.195-.152-.348-.004-.195.226-.273.414-.273.191 0 .422.082.422.277 0 .153-.153.157-.153.348 0 .273.305.273.305.43 0 .086.004.55.004.777M198.059 73.043c0 .078-.04.117-.118.117l-.91-.004c-.074 0-.113-.039-.113-.117l-.004-.777c0-.157.305-.157.305-.43 0-.191-.153-.195-.156-.348 0-.195.23-.273.417-.273.192 0 .418.082.418.277.004.157-.148.153-.148.348 0 .273.305.273.305.43 0 .086 0 .55.004.777M199.73 73.043c0 .078-.035.117-.113.117l-.91-.004c-.078 0-.117-.039-.117-.117v-.777c0-.157.305-.157.3-.43 0-.191-.152-.195-.152-.348 0-.195.227-.273.418-.273.192 0 .418.082.418.277 0 .153-.152.153-.148.348 0 .273.304.273.304.43v.777M201.406 73.043c0 .078-.039.117-.113.117l-.91-.004c-.078 0-.117-.039-.117-.117v-.777c0-.157.304-.157.3-.43 0-.195-.152-.195-.152-.352 0-.19.227-.27.418-.27.191 0 .418.083.418.278 0 .157-.152.153-.148.348 0 .273.304.273.304.43v.777M203.082 73.043c0 .078-.039.117-.113.117l-.914-.004c-.075 0-.114-.039-.114-.117v-.777c0-.157.301-.157.301-.43 0-.191-.152-.195-.152-.348 0-.195.226-.273.418-.273.187 0 .418.082.418.277 0 .157-.153.153-.153.348 0 .273.305.273.309.43v.777M204.758 73.043c0 .078-.04.117-.113.117l-.915-.004c-.074 0-.113-.039-.113-.117 0-.09 0-.68-.004-.777 0-.157.305-.153.305-.43 0-.191-.152-.195-.152-.352 0-.19.226-.27.418-.27.187 0 .418.083.418.278 0 .153-.153.153-.153.348 0 .273.305.273.305.43.004.086.004.55.004.777M208.082 73.05c0 .075-.035.114-.11.11-.042 0-.23-.004-.433-.004h-.457c-.074 0-.113-.043-.113-.12v-.778c0-.156.3-.153.3-.426 0-.195-.152-.195-.152-.352 0-.195.227-.27.418-.27.192 0 .438.083.434.278-.004.157-.16.153-.164.348 0 .273.304.277.3.437-.003.086-.015.551-.023.778M206.43 73.043c0 .078-.035.117-.114.117l-.91-.004c-.074 0-.113-.039-.113-.117 0-.09 0-.68-.004-.777 0-.157.305-.153.305-.43-.004-.191-.153-.195-.153-.352 0-.19.227-.27.414-.27.192 0 .418.083.418.278.004.153-.148.153-.148.348 0 .273.305.273.305.43v.777M209.758 73.05c0 .075-.04.114-.11.11-.043 0-.23-.004-.433-.004h-.457c-.074 0-.113-.043-.113-.12v-.778c0-.156.3-.153.3-.426 0-.195-.152-.195-.152-.352 0-.195.227-.27.414-.27.195 0 .441.083.438.278-.004.157-.16.153-.165.348 0 .273.305.277.301.437-.004.086-.015.551-.023.778M211.457 73.043c0 .078-.039.117-.113.117l-.91-.004c-.079 0-.118-.039-.118-.117 0-.09 0-.68-.004-.777 0-.157.305-.157.305-.43 0-.191-.152-.195-.152-.348 0-.195.226-.273.418-.273.191 0 .418.082.418.277 0 .153-.153.153-.153.348 0 .273.305.273.309.43v.777M213.133 73.043c0 .078-.04.117-.113.117l-.915-.004c-.074 0-.113-.039-.113-.117l-.004-.777c0-.157.305-.157.305-.43 0-.191-.152-.195-.152-.348 0-.195.226-.273.418-.273.187 0 .418.082.418.277 0 .153-.153.153-.153.348 0 .273.305.273.305.43 0 .086.004.55.004.777M214.809 73.043c0 .078-.04.117-.114.117l-.914-.004c-.074 0-.113-.039-.113-.117l-.004-.777c0-.157.305-.157.305-.43 0-.191-.153-.195-.153-.352-.004-.19.227-.27.418-.27.188 0 .418.083.418.278 0 .153-.152.153-.152.348 0 .273.305.273.305.43 0 .086.004.55.004.777M216.484 73.043c0 .078-.039.117-.117.117l-.91-.004c-.078 0-.113-.039-.113-.117l-.004-.777c0-.157.305-.157.305-.43 0-.191-.153-.191-.153-.348-.004-.195.227-.273.414-.273.192.004.418.082.422.277 0 .157-.152.153-.152.348 0 .273.304.273.304.43 0 .086.004.55.004.777M218.156 73.043c0 .078-.035.117-.113.117l-.91-.004c-.078 0-.117-.039-.117-.117v-.777c0-.157.3-.157.3-.43 0-.195-.152-.195-.152-.348 0-.195.227-.273.418-.273.188.004.418.082.418.277 0 .157-.152.153-.152.348.004.273.304.273.308.43v.777M219.832 73.043c0 .078-.035.117-.113.117l-.91-.004c-.079 0-.118-.039-.118-.117v-.777c0-.157.301-.157.301-.43 0-.195-.152-.195-.152-.348 0-.195.226-.273.418-.273.187.004.418.082.418.277 0 .157-.153.153-.153.348 0 .273.305.273.305.43 0 .086.004.55.004.777M221.508 73.043c0 .078-.04.117-.113.117l-.915-.004c-.074 0-.113-.039-.113-.117l-.004-.777c0-.157.305-.157.305-.426 0-.2-.152-.2-.152-.352 0-.195.226-.273.418-.273.187 0 .418.082.418.277 0 .157-.153.153-.153.348 0 .273.305.273.305.43 0 .086.004.55.004.777M223.184 73.043c0 .078-.04.117-.114.117l-.914-.004c-.078 0-.113-.039-.113-.117l-.004-.777c0-.157.305-.157.305-.426 0-.195-.153-.195-.153-.352-.004-.195.223-.273.414-.273.192.004.418.082.418.277.004.157-.148.153-.148.348 0 .273.305.273.305.43 0 .086.004.55.004.777M224.86 73.043c0 .078-.04.117-.114.117l-.914-.004c-.074 0-.113-.039-.113-.117-.004-.09-.004-.68-.004-.777 0-.157.305-.157.305-.43 0-.191-.153-.195-.157-.348 0-.195.23-.273.418-.273.192 0 .418.082.422.277 0 .153-.152.157-.152.348 0 .273.304.273.304.43 0 .086.004.55.004.777M226.531 73.043c0 .078-.039.117-.113.117l-.91-.004c-.078 0-.117-.039-.117-.117v-.777c0-.157.304-.157.3-.43 0-.191-.152-.195-.152-.348 0-.195.227-.273.418-.273.191 0 .418.082.418.277 0 .157-.152.153-.148.348 0 .273.3.273.304.43v.777M228.207 73.043c0 .078-.039.117-.113.117l-.914-.004c-.075 0-.114-.039-.114-.117v-.777c0-.157.305-.157.301-.43 0-.191-.152-.195-.152-.348 0-.195.226-.273.418-.273.187 0 .418.082.418.277 0 .153-.153.153-.153.348.004.273.305.273.305.43 0 .086.004.55.004.777M229.883 73.043c0 .078-.04.117-.113.117l-.915-.004c-.074 0-.113-.039-.113-.117v-.777c0-.157.301-.157.301-.43 0-.195-.152-.195-.152-.352 0-.19.226-.27.418-.27.187 0 .414.083.418.278 0 .157-.153.153-.153.348 0 .273.305.273.305.43 0 .086.004.55.004.777M231.559 73.043c0 .078-.04.117-.114.117l-.914-.004c-.074 0-.113-.039-.117-.117v-.777c0-.157.305-.157.305-.43 0-.191-.156-.195-.156-.348 0-.195.23-.273.417-.273.192 0 .418.082.422.277 0 .157-.152.153-.152.348 0 .273.305.273.305.43 0 .086 0 .55.004.777M233.23 73.043c.004.078-.035.117-.113.117l-.91-.004c-.078 0-.113-.039-.113-.117-.004-.09-.004-.68-.004-.777 0-.157.305-.153.305-.43-.004-.191-.157-.195-.157-.352 0-.19.227-.27.418-.27.192 0 .418.083.418.278.004.153-.148.153-.148.348 0 .273.304.273.304.43v.777M234.883 73.05c0 .075-.04.114-.11.11-.043 0-.23-.004-.433-.004h-.457c-.074 0-.113-.043-.113-.12l-.004-.778c0-.156.304-.153.304-.426 0-.195-.152-.195-.152-.352 0-.195.227-.27.418-.27.191 0 .437.083.434.278-.004.157-.165.153-.165.348 0 .273.305.277.301.437-.004.086-.015.551-.023.778M236.582 73.043c0 .078-.039.117-.113.117l-.91-.004c-.079 0-.118-.039-.118-.117v-.777c0-.157.301-.157.301-.426 0-.2-.152-.2-.152-.352 0-.195.226-.273.418-.273.187 0 .418.082.418.277 0 .157-.153.153-.149.348 0 .273.305.273.305.43v.777M238.258 73.043c0 .078-.04.117-.113.117l-.915-.004c-.074 0-.113-.039-.113-.117v-.777c0-.157.301-.157.301-.426 0-.195-.152-.195-.152-.352 0-.195.226-.273.414-.273.191.004.422.082.422.277 0 .157-.153.153-.153.348 0 .273.305.273.305.43 0 .086.004.55.004.777M239.934 73.043c0 .078-.04.117-.114.117l-.914-.004c-.074 0-.113-.039-.113-.117l-.004-.777c0-.157.305-.157.305-.43 0-.191-.153-.195-.156-.348 0-.195.23-.273.417-.273.192 0 .418.082.418.277 0 .153-.148.157-.148.348 0 .273.305.273.305.43 0 .086.004.55.004.777M241.605 73.043c.004.078-.035.117-.113.117l-.91-.004c-.078 0-.113-.039-.113-.117l-.004-.777c0-.157.305-.157.305-.43-.004-.191-.157-.195-.157-.348 0-.195.23-.273.418-.273.192 0 .418.082.418.277.004.157-.148.153-.148.348 0 .273.304.273.304.43v.777"/><path fill="#b3b3b3" d="M241.297 70.133c0-.078.039-.117.113-.117l.914.004c.074 0 .113.039.113.117v.777c0 .156-.304.156-.3.426 0 .195.152.195.152.351 0 .196-.226.274-.418.274-.187-.004-.418-.078-.418-.274 0-.156.152-.156.149-.351 0-.274-.305-.274-.305-.43v-.777M239.621 70.133c0-.078.04-.117.113-.117l.914.004c.075 0 .114.039.114.117v.777c.004.156-.301.156-.301.426 0 .195.152.195.152.351 0 .196-.226.274-.418.274-.187-.004-.418-.078-.418-.278 0-.152.153-.152.153-.347-.004-.274-.305-.274-.305-.43-.004-.086-.004-.55-.004-.777M237.945 70.133c0-.078.04-.117.114-.117l.914.004c.074 0 .113.039.113.117l.004.777c0 .156-.305.156-.305.426 0 .195.153.195.153.351 0 .196-.227.274-.418.274-.188-.004-.415-.078-.418-.274 0-.156.152-.156.152-.351 0-.274-.305-.274-.305-.43 0-.086-.004-.55-.004-.777M236.273 70.133c0-.078.036-.117.114-.117l.91.004c.074 0 .113.039.113.117l.004.777c0 .156-.305.156-.305.426.004.195.157.195.157.351 0 .196-.23.274-.418.274-.192-.004-.418-.082-.418-.274 0-.156.148-.156.148-.351 0-.274-.305-.274-.305-.43v-.777M234.598 70.133c0-.078.039-.117.113-.117l.91.004c.078 0 .113.039.113.117l.004.777c0 .156-.304.156-.304.426.004.195.156.195.156.351 0 .196-.23.274-.418.274-.192-.004-.418-.078-.418-.274 0-.156.152-.156.148-.351 0-.274-.304-.274-.304-.43v-.777M232.922 70.133c0-.078.039-.117.113-.117l.91.004c.078 0 .118.039.118.117v.777c0 .156-.301.156-.301.426 0 .195.152.195.152.351 0 .196-.226.274-.418.274-.191-.004-.418-.078-.418-.274 0-.156.152-.156.152-.351-.003-.274-.308-.274-.308-.43v-.777M231.246 70.133c0-.078.04-.117.113-.117l.914.004c.075 0 .114.039.114.117 0 .09 0 .683.004.777 0 .156-.305.156-.305.426 0 .195.152.195.152.351 0 .196-.226.274-.418.274-.187-.004-.418-.078-.418-.274 0-.156.153-.156.153-.351-.004-.274-.305-.274-.305-.43 0-.086-.004-.55-.004-.777M229.57 70.133c0-.078.04-.117.114-.117l.914.004c.074 0 .113.039.113.117l.004.777c0 .156-.305.156-.305.426 0 .195.153.195.153.351 0 .196-.227.274-.418.274-.188-.004-.418-.082-.418-.274 0-.156.152-.156.152-.351 0-.274-.305-.274-.305-.43 0-.086-.004-.55-.004-.777M227.895 70.133c0-.078.039-.117.117-.117l.91.004c.074 0 .113.039.113.117l.004.777c0 .156-.305.156-.305.426 0 .195.153.195.153.351.004.196-.227.274-.414.274-.192-.004-.422-.082-.422-.278 0-.152.152-.152.152-.347 0-.274-.305-.274-.305-.43l-.003-.777M226.223 70.133c0-.078.035-.117.113-.117l.91.004c.074 0 .113.039.113.117l.004.777c0 .156-.304.156-.3.426 0 .2.148.2.148.351.004.196-.227.274-.414.274-.192-.004-.418-.082-.418-.278 0-.152.148-.152.148-.347 0-.274-.304-.274-.304-.43v-.777M224.547 70.133c0-.078.035-.117.113-.117l.91.004c.078 0 .118.039.118.117v.777c0 .156-.301.156-.301.426 0 .195.152.195.152.351 0 .196-.226.274-.418.274-.191-.004-.418-.078-.418-.274 0-.156.152-.156.152-.351-.003-.274-.304-.274-.308-.43v-.777M222.871 70.133c0-.078.04-.117.113-.117l.91.004c.079 0 .114.039.118.117v.777c.004.156-.301.156-.301.426 0 .195.152.195.152.351 0 .196-.226.274-.418.274-.187-.004-.418-.078-.418-.274 0-.156.153-.156.153-.351 0-.274-.305-.274-.309-.43v-.777M221.195 70.133c0-.078.04-.117.114-.117l.914.004c.074 0 .113.039.113.117l.004.777c0 .156-.305.156-.305.426 0 .195.153.195.153.351 0 .196-.227.274-.415.274-.191-.004-.421-.082-.421-.278 0-.152.152-.152.152-.347 0-.274-.305-.274-.305-.43 0-.086-.004-.55-.004-.777M219.52 70.133c0-.078.039-.117.113-.117l.914.004c.074 0 .113.039.113.117l.004.777c0 .156-.305.156-.305.426 0 .195.153.195.153.351 0 .196-.227.274-.414.274-.192-.004-.418-.078-.422-.274 0-.156.152-.156.152-.351 0-.274-.305-.274-.305-.43l-.003-.777M217.844 70.133c0-.078.039-.117.113-.117l.914.004c.074 0 .113.039.113.117.004.09.004.683.004.777 0 .156-.304.156-.304.426 0 .195.152.195.156.351 0 .196-.23.274-.418.274-.192-.004-.418-.078-.422-.274 0-.156.152-.156.152-.351 0-.274-.304-.274-.304-.43 0-.086 0-.55-.004-.777M216.172 70.133c0-.078.035-.117.113-.117l.91.004c.078 0 .114.039.118.117v.777c0 .156-.305.156-.301.426 0 .195.152.195.152.351 0 .196-.226.274-.418.274-.191-.004-.418-.078-.418-.274 0-.156.152-.156.149-.351 0-.274-.301-.274-.301-.43-.004-.086-.004-.55-.004-.777M214.496 70.133c0-.078.04-.117.113-.117l.91.004c.079 0 .118.039.118.117v.777c0 .156-.301.156-.301.426 0 .195.152.2.152.351 0 .196-.226.274-.418.274-.187-.004-.418-.078-.418-.274 0-.156.153-.156.153-.351 0-.274-.305-.274-.305-.43 0-.086-.004-.55-.004-.777M212.82 70.133c0-.078.04-.117.114-.117l.914.004c.074 0 .113.039.113.117v.777c0 .156-.3.156-.3.426 0 .195.151.195.151.351 0 .196-.226.274-.414.274-.191-.004-.421-.082-.421-.274 0-.156.152-.156.152-.351 0-.274-.305-.274-.305-.43 0-.086-.004-.55-.004-.777M211.145 70.133c0-.078.039-.117.113-.117l.914.004c.074 0 .113.039.113.117l.004.777c0 .156-.305.156-.305.426 0 .195.153.195.153.351.004.196-.227.274-.414.274-.192-.004-.422-.078-.422-.274 0-.156.152-.156.152-.351 0-.274-.305-.274-.305-.43 0-.086 0-.55-.003-.777M209.492 70.125c.004-.074.04-.113.113-.11.043 0 .23 0 .434.005.203.003.41.003.453.003.078 0 .117.04.117.118v.777c0 .156-.3.152-.3.426 0 .195.152.195.152.351 0 .196-.227.27-.418.27-.191 0-.438-.082-.434-.278.004-.152.16-.152.164-.347 0-.27-.304-.278-.3-.438.004-.086.015-.547.02-.777M207.797 70.133c0-.078.035-.117.113-.117l.91.004c.078 0 .118.039.118.117v.777c0 .156-.305.156-.301.426 0 .195.152.195.152.351 0 .196-.226.274-.418.274-.187-.004-.418-.078-.418-.274 0-.156.149-.156.149-.351 0-.274-.305-.274-.305-.43v-.777M206.121 70.133c0-.078.04-.117.113-.117l.914.004c.075 0 .114.039.114.117v.777c0 .156-.301.156-.301.426 0 .195.152.195.152.351 0 .196-.226.274-.418.274-.187-.004-.418-.078-.418-.278 0-.152.153-.152.153-.347-.004-.274-.305-.274-.305-.43 0-.086-.004-.55-.004-.777M204.445 70.133c0-.078.04-.117.114-.117l.914.004c.074 0 .113.039.113.117v.777c.004.156-.3.156-.3.426 0 .195.151.195.151.351.004.196-.226.274-.414.274-.191-.004-.421-.078-.421-.274 0-.156.152-.156.152-.351 0-.274-.305-.274-.305-.43 0-.086-.004-.55-.004-.777M202.77 70.133c0-.078.039-.117.117-.117l.91.004c.078 0 .113.039.113.117 0 .09 0 .683.004.777 0 .156-.305.156-.305.426.004.195.153.195.153.351.004.196-.227.274-.414.274-.192-.004-.418-.082-.422-.274 0-.156.152-.156.152-.351 0-.274-.305-.274-.305-.43l-.003-.777M201.098 70.133c0-.078.035-.117.113-.117l.91.004c.078 0 .113.039.117.117v.777c0 .156-.304.156-.3.426 0 .195.152.195.152.351 0 .196-.227.274-.418.274-.192-.004-.418-.078-.418-.274-.004-.156.148-.156.148-.351 0-.274-.304-.274-.304-.43v-.777M199.422 70.133c0-.078.035-.117.113-.117l.91.004c.078 0 .118.039.118.117v.777c0 .156-.305.156-.301.426 0 .195.152.195.152.351 0 .196-.226.274-.418.274-.191-.004-.418-.078-.418-.274 0-.156.152-.156.152-.351-.003-.274-.308-.274-.308-.43v-.777M197.746 70.133c0-.078.04-.117.113-.117l.914.004c.075 0 .114.039.114.117v.777c.004.156-.301.156-.301.426 0 .195.152.195.152.351 0 .196-.226.274-.418.274-.187-.004-.418-.078-.418-.274 0-.156.153-.156.153-.351-.004-.274-.309-.274-.309-.43v-.777M196.07 70.133c0-.078.04-.117.114-.117l.914.004c.074 0 .113.039.113.117l.004.777c0 .156-.305.156-.305.426 0 .195.153.195.153.351 0 .196-.227.274-.418.274-.188-.004-.418-.082-.418-.274 0-.156.152-.156.152-.351 0-.274-.305-.274-.305-.43 0-.086-.004-.55-.004-.777M194.395 70.133c.003-.078.039-.117.117-.117l.91.004c.074 0 .113.039.113.117l.004.777c0 .156-.305.156-.305.426.004.195.153.195.153.351 0 .196-.227.274-.414.274-.192-.004-.418-.082-.422-.278 0-.152.152-.152.152-.347 0-.274-.305-.274-.305-.43 0-.086 0-.55-.003-.777M192.723 70.133c0-.078.035-.117.113-.117l.91.004c.078 0 .113.039.113.117l.004.777c0 .156-.304.156-.3.426 0 .2.152.2.152.351 0 .196-.23.274-.418.274-.192-.004-.418-.082-.418-.278 0-.152.148-.152.148-.347 0-.274-.304-.274-.304-.43v-.777M191.047 70.133c0-.078.035-.117.113-.117l.91.004c.078 0 .114.039.114.117.004.09.004.683.004.777 0 .156-.301.156-.301.426 0 .195.152.195.152.351 0 .196-.226.274-.418.274-.191-.004-.418-.078-.418-.274 0-.156.152-.156.152-.351-.003-.274-.304-.274-.308-.43v-.777M189.371 70.133c0-.078.04-.117.113-.117l.91.004c.079 0 .118.039.118.117v.777c0 .156-.301.156-.301.426 0 .195.152.195.152.351 0 .196-.226.274-.418.274-.191-.004-.418-.078-.418-.274 0-.156.153-.156.153-.351 0-.274-.309-.274-.309-.43v-.777M187.695 70.133c0-.078.04-.117.114-.117l.914.004c.074 0 .113.039.113.117l.004.777c0 .156-.305.156-.305.426 0 .195.153.195.153.351 0 .196-.227.274-.418.274-.188-.004-.418-.082-.418-.278 0-.152.152-.152.152-.347 0-.274-.305-.274-.305-.43 0-.086-.004-.55-.004-.777M186.02 70.133c0-.078.039-.117.113-.117l.914.004c.074 0 .113.039.113.117l.004.777c0 .156-.305.156-.305.426 0 .195.153.195.153.351 0 .196-.227.274-.418.274-.188-.004-.418-.078-.418-.274 0-.156.152-.156.152-.351 0-.274-.305-.274-.305-.43l-.003-.777M184.344 70.133c0-.078.039-.117.117-.117l.91.004c.074 0 .113.039.113.117l.004.777c0 .156-.304.156-.304.426 0 .195.152.195.152.351.004.196-.227.274-.414.274-.192-.004-.418-.078-.418-.274 0-.156.148-.156.148-.351 0-.274-.304-.274-.304-.43 0-.086-.004-.55-.004-.777M182.672 70.133c0-.078.035-.117.113-.117l.91.004c.078 0 .114.039.114.117.004.09.004.683.004.777 0 .156-.301.156-.301.426 0 .195.148.195.152.351 0 .196-.226.274-.418.274-.191-.004-.418-.078-.418-.274 0-.156.152-.156.152-.351-.003-.274-.308-.274-.308-.43v-.777M180.996 70.133c0-.078.035-.117.113-.117l.91.004c.079 0 .118.039.118.117v.777c0 .156-.301.156-.301.426 0 .195.152.2.152.351 0 .196-.226.274-.418.274-.191-.004-.418-.078-.418-.274 0-.156.153-.156.153-.351 0-.274-.305-.274-.305-.43 0-.086-.004-.55-.004-.777M179.32 70.133c0-.078.04-.117.114-.117l.914.004c.074 0 .113.039.113.117l.004.777c0 .156-.305.156-.305.426 0 .195.153.195.153.351 0 .196-.227.274-.418.274-.188-.004-.418-.082-.418-.274 0-.156.152-.156.152-.351 0-.274-.305-.274-.305-.43-.004-.086-.004-.55-.004-.777M177.645 70.133c0-.078.039-.117.113-.117l.914.004c.074 0 .113.039.113.117l.004.777c0 .156-.305.156-.305.426 0 .195.153.195.153.351 0 .196-.227.274-.418.274-.188-.004-.418-.078-.418-.274 0-.156.152-.156.152-.351 0-.274-.305-.274-.305-.43l-.003-.777M175.992 70.125c.004-.074.04-.113.113-.11.043 0 .23 0 .434.005.203.003.41.003.457.003.074 0 .113.04.113.118v.777c0 .156-.3.152-.3.426 0 .195.152.195.152.351 0 .196-.227.27-.418.27-.191 0-.441-.082-.434-.278.004-.152.16-.152.164-.347 0-.27-.304-.278-.3-.438.004-.086.015-.547.02-.777M174.297 70.133c0-.078.035-.117.11-.117l.913.004c.075 0 .114.039.118.117v.777c0 .156-.305.156-.305.426.004.195.156.195.156.351 0 .196-.226.274-.418.274-.191-.004-.418-.078-.418-.274-.004-.156.149-.156.149-.351 0-.274-.301-.274-.305-.43v-.777M172.621 70.133c0-.078.035-.117.113-.117l.91.004c.079 0 .114.039.118.117v.777c0 .156-.301.156-.301.426 0 .195.152.195.152.351 0 .196-.226.274-.418.274-.191-.004-.418-.078-.418-.274 0-.156.153-.156.149-.351 0-.274-.301-.274-.305-.43v-.777M170.945 70.133c0-.078.04-.117.114-.117l.914.004c.074 0 .113.039.113.117v.777c0 .156-.3.156-.3.426 0 .195.151.195.151.351 0 .196-.226.274-.417.274-.188-.004-.418-.078-.418-.274 0-.156.152-.156.152-.351 0-.274-.305-.274-.305-.43 0-.086-.004-.55-.004-.777M169.27 70.133c0-.078.039-.117.113-.117l.914.004c.074 0 .113.039.113.117l.004.777c0 .156-.305.156-.305.426 0 .195.153.195.153.351.004.196-.227.274-.418.274-.188-.004-.418-.082-.418-.274 0-.156.152-.156.152-.351 0-.274-.305-.274-.305-.43l-.003-.777M167.598 70.133c0-.078.035-.117.113-.117l.91.004c.074 0 .113.039.113.117l.004.777c0 .156-.304.156-.304.426.004.195.152.195.156.351 0 .196-.23.274-.418.274-.192-.004-.418-.082-.422-.278 0-.152.152-.152.152-.347 0-.274-.304-.274-.304-.43v-.777M165.922 70.133c0-.078.035-.117.113-.117l.91.004c.078 0 .118.039.118.117v.777c0 .156-.305.156-.305.426.004.2.156.2.156.351 0 .196-.226.274-.418.274-.191-.004-.418-.082-.418-.278-.004-.152.149-.152.149-.347 0-.274-.305-.274-.305-.43v-.777M164.246 70.133c0-.078.035-.117.113-.117l.91.004c.079 0 .118.039.118.117v.777c0 .156-.301.156-.301.426 0 .195.152.195.152.351 0 .196-.226.274-.418.274-.187-.004-.418-.078-.418-.274 0-.156.153-.156.153-.351-.004-.274-.309-.274-.309-.43v-.777M162.57 70.133c0-.078.04-.117.114-.117l.914.004c.074 0 .113.039.113.117v.777c0 .156-.305.156-.3.426 0 .195.151.195.151.351 0 .196-.226.274-.417.274-.188-.004-.418-.078-.418-.274 0-.156.152-.156.148-.351 0-.274-.3-.274-.3-.43 0-.086-.005-.55-.005-.777M160.895 70.133c0-.078.039-.117.113-.117l.914.004c.074 0 .113.039.113.117v.777c.004.156-.3.156-.3.426 0 .195.152.195.156.351 0 .196-.23.274-.418.274-.192-.004-.418-.082-.422-.278 0-.152.152-.152.152-.347 0-.274-.305-.274-.305-.43l-.003-.777M159.219 70.133c0-.078.039-.117.117-.117l.91.004c.078 0 .113.039.113.117l.004.777c0 .156-.304.156-.304.426 0 .195.156.195.156.351 0 .196-.23.274-.418.274-.192-.004-.418-.078-.418-.274-.004-.156.148-.156.148-.351 0-.274-.304-.274-.304-.43 0-.086-.004-.55-.004-.777M157.547 70.133c0-.078.035-.117.113-.117l.91.004c.078 0 .118.039.118.117v.777c0 .156-.305.156-.301.426 0 .195.152.195.152.351 0 .196-.226.274-.418.274-.191-.004-.418-.078-.418-.274 0-.156.152-.156.149-.351 0-.274-.305-.274-.305-.43v-.777M155.871 70.133c0-.078.04-.117.113-.117l.914.004c.075 0 .114.039.114.117v.777c0 .156-.305.156-.301.426 0 .195.152.195.152.351 0 .196-.226.274-.418.274-.191-.004-.418-.078-.418-.274 0-.156.153-.156.149-.351 0-.274-.301-.274-.305-.43v-.777M154.195 70.133c0-.078.04-.117.114-.117l.914.004c.074 0 .113.039.113.117v.777c0 .156-.3.156-.3.426 0 .195.151.2.151.351 0 .196-.226.274-.417.274-.188-.004-.418-.078-.418-.274 0-.156.152-.156.152-.351 0-.274-.305-.274-.305-.43-.004-.086-.004-.55-.004-.777M152.52 70.133c0-.078.039-.117.113-.117l.914.004c.074 0 .113.039.113.117 0 .09 0 .683.004.777 0 .156-.305.156-.305.426 0 .195.153.195.153.351 0 .196-.227.274-.418.274-.188-.004-.414-.082-.418-.274 0-.156.152-.156.152-.351 0-.274-.305-.274-.305-.43l-.003-.777M150.848 70.133c-.004-.078.035-.117.113-.117l.91.004c.074 0 .113.039.113.117l.004.777c0 .156-.304.156-.304.426.004.195.156.195.156.351 0 .196-.23.274-.418.274-.192-.004-.418-.078-.418-.274-.004-.156.148-.156.148-.351 0-.274-.304-.274-.304-.43v-.777M147.52 70.125c0-.074.039-.113.109-.11.043 0 .23 0 .434.005.207.003.41.003.457.003.074 0 .113.04.113.118v.777c.004.156-.301.152-.301.426 0 .195.152.195.152.351 0 .196-.226.27-.414.27-.195 0-.441-.082-.437-.278.004-.152.16-.152.164-.347 0-.27-.305-.278-.3-.438.003-.086.015-.547.023-.777M149.172 70.133c0-.078.035-.117.113-.117l.91.004c.078 0 .114.039.114.117l.004.777c0 .156-.305.156-.305.426.004.195.156.195.156.351 0 .196-.23.274-.418.274-.191-.004-.418-.078-.418-.274 0-.156.149-.156.149-.351 0-.274-.305-.274-.305-.43v-.777M145.844 70.125c0-.074.039-.113.11-.11.042 0 .233 0 .433.005.207.003.414.003.457.003.078 0 .113.04.113.118l.004.777c0 .156-.305.152-.305.426 0 .195.153.195.156.351 0 .196-.23.27-.417.27-.196 0-.442-.082-.434-.278 0-.152.16-.152.16-.347.004-.27-.305-.278-.297-.438 0-.086.012-.547.02-.777M144.145 70.133c0-.078.039-.117.113-.117l.914.004c.074 0 .113.039.113.117l.004.777c0 .156-.305.156-.305.426 0 .195.153.195.153.351 0 .196-.227.274-.418.274-.188-.004-.418-.078-.418-.274 0-.156.152-.156.152-.351 0-.274-.305-.274-.305-.43l-.003-.777M142.469 70.133c0-.078.039-.117.113-.117l.914.004c.074 0 .113.039.113.117l.004.777c0 .156-.304.156-.304.426 0 .195.152.195.152.351.004.196-.227.274-.414.274-.192-.004-.422-.078-.422-.274 0-.156.152-.156.152-.351 0-.274-.304-.274-.304-.43 0-.086-.004-.55-.004-.777M140.793 70.133c0-.078.039-.117.117-.117l.91.004c.075 0 .114.039.114.117l.004.777c0 .156-.305.156-.301.426 0 .195.148.195.148.351.004.196-.226.274-.414.274-.191-.004-.418-.078-.418-.274 0-.156.149-.156.149-.351 0-.274-.305-.274-.305-.43 0-.086 0-.55-.004-.777M139.121 70.133c0-.078.035-.117.113-.117l.91.004c.079 0 .114.039.118.117v.777c0 .156-.301.156-.301.426 0 .195.152.195.152.351 0 .196-.226.274-.418.274-.191-.004-.418-.082-.418-.278 0-.152.153-.152.153-.347-.004-.274-.305-.274-.305-.43-.004-.086-.004-.55-.004-.777M137.445 70.133c0-.078.04-.117.114-.117l.91.004c.078 0 .117.039.117.117v.777c.004.156-.3.156-.3.426 0 .2.151.2.151.351 0 .196-.226.274-.417.274-.188-.004-.418-.082-.418-.278 0-.152.152-.152.152-.347 0-.274-.305-.274-.305-.43 0-.086-.004-.55-.004-.777M135.77 70.133c0-.078.039-.117.113-.117l.914.004c.074 0 .113.039.113.117l.004.777c0 .156-.305.156-.305.426 0 .195.153.195.153.351 0 .196-.227.274-.418.274-.188-.004-.418-.078-.418-.274 0-.156.152-.156.152-.351 0-.274-.305-.274-.305-.43l-.003-.777M134.094 70.133c0-.078.039-.117.113-.117l.914.004c.074 0 .113.039.113.117l.004.777c0 .156-.304.156-.304.426 0 .195.152.195.152.351 0 .196-.227.274-.414.274-.192-.004-.422-.078-.422-.274 0-.156.152-.156.152-.351 0-.274-.304-.274-.304-.43 0-.086-.004-.55-.004-.777M132.418 70.133c0-.078.039-.117.117-.117l.91.004c.078 0 .114.039.118.117v.777c0 .156-.305.156-.305.426.004.195.152.195.156.351 0 .196-.226.274-.418.274-.191-.004-.418-.082-.418-.278 0-.152.149-.152.149-.347 0-.274-.305-.274-.305-.43 0-.086 0-.55-.004-.777M130.746 70.133c-.004-.078.035-.117.113-.117l.91.004c.079 0 .114.039.118.117v.777c0 .156-.305.156-.305.426.004.195.156.195.156.351 0 .196-.226.274-.418.274-.191-.004-.418-.078-.418-.274-.004-.156.149-.156.149-.351 0-.274-.305-.274-.305-.43v-.777M129.07 70.133c0-.078.04-.117.114-.117l.914.004c.074 0 .113.039.113.117v.777c0 .156-.3.156-.3.426 0 .195.151.195.151.351 0 .196-.226.274-.417.274-.188-.004-.418-.078-.418-.274 0-.156.152-.156.148-.351 0-.274-.3-.274-.3-.43 0-.086-.005-.55-.005-.777M127.395 70.133c0-.078.039-.117.113-.117l.914.004c.074 0 .113.039.113.117v.777c0 .156-.3.156-.3.426 0 .195.152.195.152.351 0 .196-.227.274-.414.274-.192-.004-.418-.078-.422-.274 0-.156.152-.156.152-.351 0-.274-.305-.274-.305-.43l-.003-.777M125.719 70.133c0-.078.039-.117.113-.117l.914.004c.074 0 .113.039.113.117l.004.777c0 .156-.304.156-.304.426 0 .195.152.2.152.351.004.196-.227.274-.414.274-.192-.004-.418-.078-.422-.274 0-.156.152-.156.152-.351 0-.274-.304-.274-.304-.43 0-.086-.004-.55-.004-.777M124.047 70.133c0-.078.035-.117.113-.117l.91.004c.078 0 .114.039.118.117v.777c0 .156-.305.156-.305.426.004.195.156.195.156.351 0 .196-.23.274-.418.274-.191-.004-.418-.082-.418-.274 0-.156.149-.156.149-.351 0-.274-.305-.274-.305-.43v-.777M122.371 70.133c0-.078.035-.117.113-.117l.91.004c.079 0 .114.039.118.117v.777c0 .156-.305.156-.301.426 0 .195.152.195.152.351 0 .196-.226.274-.418.274-.191-.004-.418-.078-.418-.274 0-.156.153-.156.149-.351 0-.274-.305-.274-.305-.43v-.777M120.719 70.125c0-.074.039-.113.11-.11.042 0 .234 0 .433.005.207.003.414.003.457.003.074 0 .113.04.113.118l.004.777c0 .156-.305.152-.305.426 0 .195.153.195.153.351.004.196-.227.27-.414.27-.196 0-.442-.082-.434-.278.004-.152.16-.152.16-.347 0-.27-.305-.278-.3-.438.003-.086.015-.547.023-.777M119.02 70.133c0-.078.039-.117.113-.117l.914.004c.074 0 .113.039.113.117v.777c0 .156-.3.156-.3.426 0 .195.152.195.152.351 0 .196-.227.274-.418.274-.188-.004-.418-.078-.418-.274 0-.156.152-.156.152-.351-.004-.274-.305-.274-.305-.43l-.003-.777M117.344 70.133c0-.078.039-.117.113-.117l.914.004c.078 0 .113.039.113.117l.004.777c0 .156-.304.156-.304.426 0 .195.152.195.156.351 0 .196-.23.274-.418.274-.192-.004-.418-.082-.418-.278-.004-.152.148-.152.148-.347 0-.274-.304-.274-.304-.43 0-.086 0-.55-.004-.777M115.672 70.133c0-.078.035-.117.113-.117l.91.004c.078 0 .114.039.114.117l.004.777c0 .156-.305.156-.301.426 0 .195.152.195.152.351 0 .196-.227.274-.418.274-.191-.004-.418-.078-.418-.274 0-.156.149-.156.149-.351 0-.274-.305-.274-.305-.43v-.777M113.996 70.133c0-.078.035-.117.113-.117l.91.004c.079 0 .114.039.114.117.004.09.004.683.004.777 0 .156-.305.156-.301.426 0 .195.152.195.152.351 0 .196-.226.274-.418.274-.191-.004-.418-.078-.418-.274 0-.156.153-.156.149-.351 0-.274-.305-.274-.305-.43v-.777"/><path fill="#b3b3b3" d="M242.707 71.215c-.191-.004-.418.074-.418.27 0 .156.152.156.152.35.004.274-.3.27-.3.427v.781c.004.074.039.113.117.113.05 0 .32.004.554.004v-1.937a.958.958 0 0 0-.105-.008M119.594 71.59c.004.945-.625 1.887-.938 1.883-.312 0-1.261-.598-2.832-.606-.191 0-.316-.125-.316-.312 0-.348-.004-.82-.004-.977 0-.156 0-.629-.004-.973 0-.19.125-.316.316-.316 1.57.008 2.512-.59 2.829-.59.316.004.945.95.949 1.89"/><path d="M118.645 69.457c-.141 0-.305.059-.555.148-.488.176-1.223.442-2.254.442h-.02c-.16 0-.3.055-.402.156a.564.564 0 0 0-.156.402v.973l.004.672v.305c0 .32.238.558.562.558 1.043.004 1.785.274 2.278.453.25.09.414.153.554.153.149 0 .301-.078.453-.235.364-.363.73-1.132.73-1.894-.003-.977-.651-2.133-1.194-2.133zm0 .246c.316 0 .945.945.949 1.887.004.945-.621 1.883-.938 1.883-.312 0-1.261-.598-2.832-.606-.191 0-.316-.125-.316-.312 0-.348-.004-.82-.004-.977 0-.156 0-.629-.004-.973 0-.19.125-.316.313-.316h.023c1.559 0 2.492-.586 2.809-.586"/><path fill="#b3b3b3" d="M109.7 57.129c-.255.121-.747-.055-1.325-.262l-.395-.14-.238-.079c-.64-.218-1.246-.421-1.375-.691-.023-.047-.047-.129.008-.266.3-.879 1.398-1.304 2.336-.984.937.32 1.477 1.305 1.18 2.176-.055.168-.137.222-.192.246zm-.813-3.047c-1.278-.434-2.758.254-3.176 1.473a.8.8 0 0 0 .004.636c.222.48.922.715 1.805 1.012l.27.09.437.156c.773.274 1.378.492 1.832.274.203-.098.351-.278.437-.535.418-1.22-.336-2.672-1.61-3.106"/><g clip-path="url(#b)"><path fill="#e2e6e8" d="M102.164 73.809c-.875-.313-2.086-.72-2.496-1.653-.219-.488-.242-1.191-.016-1.789.004 0 5.813-12.988 5.813-12.988s.77-1.106 1.058-1.754c.38.164 1.602.547 1.602.547l.012.004s.68.234 1.543.508c-.211.785-.153 2.058-.153 2.058l-3.207 13.863c-.18.618-.62 1.157-1.09 1.418-.89.493-2.105.09-2.988-.187l-.078-.027"/></g><g clip-path="url(#c)"><path d="M102.164 73.813v-.004zm7.102-16.887c-.72-.23-1.243-.41-1.25-.414a38.96 38.96 0 0 1-1.317-.438c-.32.602-.816 1.328-.922 1.48l-5.789 12.942c-.187.48-.183 1.09.004 1.516.34.765 1.426 1.152 2.219 1.433l.215.075c.8.25 1.898.597 2.629.19.41-.226.777-.706.918-1.187l3.199-13.812c-.008-.219-.031-1.074.094-1.785zm-3.864 17.41c-1 .555-2.265.156-3.191-.137l-.16-.054h-.004l-.074-.028c-.918-.324-2.172-.77-2.633-1.816-.262-.598-.27-1.406-.012-2.078l5.813-12.989c.007-.02.02-.039.03-.058.009-.012.755-1.086 1.024-1.696a.359.359 0 0 1 .47-.183c.358.152 1.554.531 1.589.543.004 0 .676.234 1.535.504.184.058.285.25.234.433-.191.72-.136 1.938-.136 1.95 0 .035-.004.066-.008.097l-3.215 13.88a2.564 2.564 0 0 1-.238.566c-.246.449-.617.84-1.024 1.066"/></g><path fill="#b3b3b3" d="M116.41 73.379c-.25.121-.75-.059-1.324-.262l-.39-.14-.243-.079c-.64-.218-1.246-.421-1.375-.691-.023-.047-.047-.129.008-.266.297-.879 1.402-1.304 2.34-.984.933.316 1.476 1.305 1.176 2.176-.059.168-.137.222-.192.246zm-.812-3.047c-1.274-.434-2.758.254-3.176 1.473a.81.81 0 0 0 .004.64c.222.477.922.711 1.804 1.008l.27.09.438.156c.773.274 1.378.492 1.832.278.203-.102.351-.282.44-.54.415-1.218-.339-2.671-1.612-3.105"/><path d="M116.207 73.176c-.23 0-.621-.14-1.035-.29l-.399-.14-.242-.078c-.488-.168-1.148-.39-1.234-.566 0-.004-.004-.024.016-.07.195-.563.78-.938 1.468-.938.192 0 .383.031.563.094.394.132.722.406.918.765.191.356.23.746.11 1.102-.02.062-.044.093-.06.101-.019.008-.046.02-.105.02zm-1.406-3.219c-1.18 0-2.254.727-2.61 1.77-.109.277-.105.562.016.82.266.574 1.008.82 1.945 1.137l.27.093.433.153c.57.203 1.063.379 1.489.379.199 0 .375-.04.531-.114.262-.125.453-.355.566-.68.457-1.34-.367-2.937-1.765-3.413a2.653 2.653 0 0 0-.875-.145zm1.406 3.461a.46.46 0 0 0 .203-.04c.055-.023.133-.077.192-.245.3-.871-.243-1.86-1.176-2.176-.211-.07-.43-.105-.645-.105-.746 0-1.465.406-1.695 1.09-.055.136-.031.218-.008.265.129.27.734.473 1.375.691l.238.079.395.14c.45.16.848.301 1.121.301m-1.406-3.215c.265 0 .535.04.797.129 1.273.434 2.027 1.887 1.613 3.106-.09.257-.238.437-.441.539-.13.058-.27.085-.426.085-.387 0-.856-.167-1.406-.363l-.438-.156-.27-.09c-.882-.297-1.582-.531-1.804-1.008a.81.81 0 0 1-.004-.64c.332-.97 1.34-1.602 2.379-1.602"/><path fill="#e2e6e8" d="M108.875 90.059c-.871-.313-2.082-.72-2.496-1.653-.219-.492-.242-1.191-.012-1.789l5.809-12.988s.77-1.106 1.058-1.754c.38.16 1.602.547 1.602.547l.016.004s.675.234 1.543.508c-.211.78-.153 2.058-.153 2.058l-3.21 13.863c-.18.618-.622 1.16-1.09 1.418-.891.493-2.102.09-2.989-.187l-.078-.027"/><path d="M108.875 90.063v-.004zm7.102-16.887c-.72-.23-1.247-.41-1.25-.414-.04-.012-.809-.254-1.317-.438a15.711 15.711 0 0 1-.922 1.48L106.7 86.747c-.187.48-.183 1.09.008 1.516.336.765 1.422 1.152 2.215 1.433l.215.075c.8.25 1.898.597 2.633.19.406-.226.773-.71.914-1.183l3.195-13.816c-.004-.219-.024-1.074.098-1.785zm-3.864 17.41c-1 .555-2.265.156-3.191-.137l-.16-.05c-.004 0-.004-.004-.004-.004l-.074-.024c-.914-.328-2.168-.773-2.633-1.82-.262-.594-.27-1.406-.012-2.078l5.813-12.989c.007-.02.02-.039.03-.058.009-.012.755-1.086 1.024-1.696a.36.36 0 0 1 .469-.183c.36.152 1.555.531 1.59.543.004 0 .676.234 1.535.504a.36.36 0 0 1 .238.433c-.195.72-.14 1.938-.14 1.95a.394.394 0 0 1-.012.097l-3.211 13.883a2.827 2.827 0 0 1-.238.563c-.246.449-.617.84-1.024 1.066"/><path fill="#b3b3b3" d="M119.469 71.438a.301.301 0 0 0-.317-.317l-3.21-.008c-.188-.004-.313.121-.313.313v.312c.004.188.129.317.316.317l3.211.011c.188 0 .313-.125.313-.312v-.317"/><path d="M115.941 70.867a.554.554 0 0 0-.398.156.564.564 0 0 0-.156.403v.312c0 .325.238.559.558.563l3.211.008a.57.57 0 0 0 .403-.157.58.58 0 0 0 .156-.402l-.004-.316a.544.544 0 0 0-.559-.559l-1.597-.004-1.61-.004zm0 .246 3.211.008c.188 0 .317.129.317.317v.316a.297.297 0 0 1-.313.312l-3.21-.011c-.188 0-.313-.13-.317-.317v-.312c0-.188.125-.313.312-.313"/></svg>