<svg xmlns="http://www.w3.org/2000/svg" version="1.0" viewBox="51.8 149.85 347.66 75"><defs><clipPath id="a"><path d="M55.617 149.848h75v75h-75zm0 0"/></clipPath><clipPath id="b"><path d="M51.805 155.21H97V199H51.805zm0 0"/></clipPath><clipPath id="c"><path d="M85 176h45.555v43.71H85zm0 0"/></clipPath></defs><g clip-path="url(#a)"><path fill="#dee3f5" d="M93.117 149.848c-20.71 0-37.5 16.789-37.5 37.5 0 20.71 16.79 37.5 37.5 37.5 20.711 0 37.5-16.79 37.5-37.5 0-20.711-16.789-37.5-37.5-37.5"/></g><path fill="#005ce6" d="M79.582 176.691c.586-1.011.867-2.164.867-3.43 0-1.261-.281-2.402-.867-3.425-.582-1.012-1.367-1.82-2.375-2.387-1.008-.57-2.144-.855-3.402-.855-1.262 0-2.395.285-3.403.855-1.007.567-1.793 1.36-2.379 2.387-.582 1.023-.863 2.164-.863 3.426 0 1.265.281 2.402.863 3.43a6.207 6.207 0 0 0 2.38 2.386c1.007.57 2.14.856 3.402.856 1.257 0 2.394-.286 3.402-.856a6.171 6.171 0 0 0 2.375-2.387zm0 0"/><g clip-path="url(#b)"><path fill="#005ce6" d="M96.746 175.207c0-11-10.078-19.957-22.469-19.957-12.394 0-22.472 8.957-22.472 19.957 0 5.137 2.191 10.004 6.175 13.73.391.364.489.965.22 1.442l-4.032 7.016c-.316.535.219 1.167.805.96l11.476-4.187c.239-.078.489-.094.727-.016a24.882 24.882 0 0 0 7.101 1.028c12.391 0 22.47-8.957 22.47-19.973zm-14.027 11.11c-.836.378-1.75.566-2.742.566-1.29 0-2.489-.297-3.559-.883-1.086-.586-2.313-1.598-3.7-3.05-1.75-.141-3.308-.65-4.695-1.532a9.441 9.441 0 0 1-3.242-3.43c-.77-1.422-1.164-2.988-1.164-4.726 0-1.832.442-3.508 1.32-4.992a9.345 9.345 0 0 1 3.641-3.493c1.543-.836 3.274-1.265 5.211-1.265 1.922 0 3.652.43 5.211 1.265 1.543.836 2.758 1.993 3.637 3.477.883 1.484 1.324 3.144 1.324 5.008 0 1.504-.3 2.879-.898 4.156a9.508 9.508 0 0 1-2.489 3.258c-1.054.898-2.297 1.531-3.699 1.926.52.554 1.04.964 1.543 1.218.504.25 1.039.38 1.621.38 1.246 0 2.316-.509 3.246-1.52l1.621 1.945a5.958 5.958 0 0 1-2.187 1.691zm0 0"/></g><path fill="#005ce6" d="M104.496 198.672h7.086l-3.559-8.277zm0 0"/><g clip-path="url(#c)"><path fill="#005ce6" d="M124.164 211.504a1.156 1.156 0 0 1 .219-1.438c3.984-3.73 6.172-8.597 6.172-13.73 0-11.016-10.078-19.961-22.47-19.961-3.214 0-6.3.586-9.194 1.738a20.178 20.178 0 0 1-1.766 5.817c-1.258 2.656-3.055 5.039-5.336 7.078a24.585 24.585 0 0 1-6.129 4.015c-.031.442-.047.868-.047 1.313 0 11.012 10.078 19.957 22.473 19.957 2.426 0 4.816-.348 7.102-1.027.234-.063.488-.063.722.015l11.48 4.188c.583.207 1.118-.426.805-.965zm-9.527-5.688-1.89-4.379h-9.434l-1.872 4.38h-3.605l8.484-18.95h3.45l8.535 18.95zm0 0"/></g><path d="M155.503 177.547v6.469h10.422v6h-10.422v7h11.781v6.234h-19.562v-31.938h19.562v6.235zM200.905 203.25h-7.781l-13.016-19.688v19.688h-7.781v-31.938h7.781l13.016 19.797v-19.797h7.78zM221.637 203.562c-3 0-5.757-.69-8.265-2.078-2.5-1.394-4.485-3.343-5.953-5.843-1.47-2.508-2.203-5.329-2.203-8.454 0-3.113.734-5.914 2.203-8.406 1.468-2.488 3.453-4.43 5.953-5.828 2.508-1.394 5.265-2.094 8.265-2.094 3 0 5.75.7 8.25 2.094a15.364 15.364 0 0 1 5.907 5.828c1.445 2.492 2.172 5.293 2.172 8.406 0 3.125-.73 5.946-2.188 8.454-1.45 2.5-3.418 4.449-5.906 5.843-2.492 1.387-5.235 2.078-8.235 2.078zm0-7.093c2.54 0 4.579-.848 6.11-2.547 1.531-1.695 2.297-3.942 2.297-6.735 0-2.812-.766-5.054-2.297-6.734-1.531-1.687-3.57-2.531-6.11-2.531-2.585 0-4.64.836-6.171 2.5-1.532 1.668-2.297 3.922-2.297 6.765 0 2.825.765 5.079 2.297 6.766 1.53 1.68 3.586 2.516 6.171 2.516zM258.573 203.25l-6.641-12.047h-1.875v12.047h-7.781v-31.938h13.062c2.52 0 4.664.446 6.438 1.329 1.77.875 3.093 2.078 3.968 3.609.883 1.531 1.329 3.242 1.329 5.125 0 2.125-.602 4.023-1.797 5.687-1.2 1.668-2.965 2.852-5.297 3.547l7.36 12.641zm-8.516-17.563h4.828c1.426 0 2.492-.347 3.203-1.046.707-.696 1.063-1.68 1.063-2.954 0-1.207-.356-2.16-1.063-2.859-.71-.695-1.777-1.047-3.203-1.047h-4.828zM308.1 171.312v31.938h-7.78v-19.156l-7.141 19.156h-6.281l-7.188-19.188v19.188h-7.781v-31.938h9.203l8.953 22.11 8.875-22.11zM328.79 203.562c-3 0-5.758-.69-8.266-2.078-2.5-1.394-4.485-3.343-5.953-5.843-1.47-2.508-2.204-5.329-2.204-8.454 0-3.113.735-5.914 2.204-8.406 1.468-2.488 3.453-4.43 5.953-5.828 2.508-1.394 5.265-2.094 8.265-2.094 3 0 5.75.7 8.25 2.094a15.364 15.364 0 0 1 5.907 5.828c1.445 2.492 2.171 5.293 2.171 8.406 0 3.125-.73 5.946-2.187 8.454-1.45 2.5-3.418 4.449-5.906 5.843-2.492 1.387-5.235 2.078-8.235 2.078zm0-7.093c2.538 0 4.577-.848 6.109-2.547 1.531-1.695 2.297-3.942 2.297-6.735 0-2.812-.766-5.054-2.297-6.734-1.532-1.687-3.57-2.531-6.11-2.531-2.586 0-4.64.836-6.172 2.5-1.53 1.668-2.296 3.922-2.296 6.765 0 2.825.765 5.079 2.296 6.766 1.532 1.68 3.586 2.516 6.172 2.516zm0 0" fill="#1b1c1e"/><path d="m360.895 208.703-4.11-5.5c-1.21.238-2.39.359-3.547.359-3 0-5.75-.695-8.25-2.094-2.5-1.394-4.492-3.344-5.968-5.844-1.47-2.5-2.203-5.312-2.203-8.437 0-3.125.734-5.926 2.203-8.406 1.476-2.489 3.468-4.43 5.968-5.828 2.5-1.395 5.25-2.094 8.25-2.094 3.008 0 5.766.699 8.266 2.094a15.364 15.364 0 0 1 5.906 5.828c1.446 2.48 2.172 5.28 2.172 8.406 0 2.73-.558 5.226-1.672 7.484-1.105 2.262-2.64 4.137-4.61 5.625l7 8.407zm-16.11-21.516c0 2.824.766 5.078 2.297 6.766 1.531 1.68 3.582 2.515 6.156 2.515 2.551 0 4.594-.847 6.125-2.547 1.532-1.695 2.297-3.941 2.297-6.734 0-2.82-.765-5.07-2.297-6.75-1.53-1.688-3.574-2.531-6.125-2.531-2.574 0-4.625.836-6.156 2.5-1.531 1.668-2.297 3.93-2.297 6.78zM393.32 186.874c1.852.399 3.337 1.313 4.454 2.75 1.125 1.438 1.687 3.086 1.687 4.938 0 2.668-.933 4.781-2.797 6.344-1.867 1.562-4.464 2.343-7.796 2.343h-14.875v-31.937h14.375c3.238 0 5.773.746 7.609 2.234 1.844 1.48 2.766 3.496 2.766 6.047 0 1.875-.497 3.438-1.485 4.688-.992 1.242-2.305 2.105-3.937 2.593zm-11.562-2.64h5.11c1.269 0 2.242-.281 2.921-.844.688-.562 1.032-1.39 1.032-2.484s-.344-1.926-1.032-2.5c-.68-.57-1.652-.86-2.921-.86h-5.11zm5.735 12.734c1.312 0 2.32-.289 3.03-.875.708-.594 1.063-1.453 1.063-2.578 0-1.125-.37-2.004-1.11-2.64-.741-.633-1.76-.954-3.062-.954h-5.656v7.047zm0 0" fill="#005ce6"/></svg>