<svg xmlns="http://www.w3.org/2000/svg" viewBox="0 0 500 500"><path style="fill:#ebebeb" d="M0 382.4h500v.25H0zM416.78 398.49h33.12v.25h-33.12zM322.53 401.21h8.69v.25h-8.69zM396.59 389.21h19.19v.25h-19.19zM52.46 390.89h43.19v.25H52.46zM104.56 390.89h6.33v.25h-6.33zM131.47 395.11h93.68v.25h-93.68zM237 337.8H43.91a5.71 5.71 0 0 1-5.7-5.71V60.66a5.71 5.71 0 0 1 5.7-5.66H237a5.71 5.71 0 0 1 5.71 5.71v271.38a5.71 5.71 0 0 1-5.71 5.71zM43.91 55.2a5.46 5.46 0 0 0-5.45 5.46v271.43a5.46 5.46 0 0 0 5.45 5.46H237a5.47 5.47 0 0 0 5.46-5.46V60.66A5.47 5.47 0 0 0 237 55.2zM453.31 337.8h-193.1a5.72 5.72 0 0 1-5.71-5.71V60.66a5.72 5.72 0 0 1 5.71-5.66h193.1a5.71 5.71 0 0 1 5.69 5.66v271.43a5.71 5.71 0 0 1-5.69 5.71zM260.21 55.2a5.47 5.47 0 0 0-5.46 5.46v271.43a5.47 5.47 0 0 0 5.46 5.46h193.1a5.47 5.47 0 0 0 5.46-5.46V60.66a5.47 5.47 0 0 0-5.46-5.46z"/><path style="fill:#ebebeb" d="M89.28 133.05h107.03v110.59H89.28z"/><path style="fill:#f0f0f0" d="M93.02 133.05h107.03v110.59H93.02z"/><path style="fill:#e0e0e0" d="M95.72 135.67h101.5v105.4H95.72z"/><path style="fill:#f5f5f5" d="M95.72 135.67h98.96v105.4H95.72z"/><path style="fill:#ebebeb" d="M144.21 135.67h2.01v105.4h-2.01z"/><path style="fill:#fff" d="m132.64 135.67-28.2 105.39h-2.71l28.2-105.39h2.71z"/><path style="fill:#f0f0f0" d="M145.36 134.04h1.72v109.05h-1.72z"/><path style="fill:#fff" d="m122.4 135.67-26.68 99.74v-54.82l12.01-44.92h14.67zM194.68 145.23v10.12l-22.94 85.71h-2.71l25.65-95.83zM194.68 165.66v54.83l-5.51 20.57H174.5l20.18-75.4z"/><path d="M183.63 374.25H206l-11.74-95.63a8.53 8.53 0 0 0-8.23-7.33H88.54l14.28 103z" style="fill:#f5f5f5"/><path d="M112.79 374.25H90.46l-11.74-95.63a6.34 6.34 0 0 1 6.43-7.33h7.67a8.53 8.53 0 0 1 8.23 7.33z" style="fill:#f0f0f0"/><path d="m121 374.14-4-46.26a4.42 4.42 0 0 0-3.84-4l-1.66-.21a5.93 5.93 0 0 1-5.15-5.35l-.73-8.43a5.91 5.91 0 0 1 5.89-6.43H74.16a5.91 5.91 0 0 0-5.89 6.43l.74 8.43a5.91 5.91 0 0 0 5.14 5.35l1.66.21a4.42 4.42 0 0 1 3.84 4l4 46.26a6.54 6.54 0 0 0 6.51 6h37.33a6.54 6.54 0 0 1-6.49-6zM223.75 316.3a14.06 14.06 0 0 1 14-12.83h-32.5a14.06 14.06 0 0 0-14 12.83L188 353h32.5z" style="fill:#e6e6e6"/><path d="M252.19 303.47h-14.43a14.06 14.06 0 0 0-14 12.83l-3.22 36.7h-77.4l-3.21-36.67a14.05 14.05 0 0 0-14-12.83h-14.44a5.91 5.91 0 0 0-5.89 6.43l.73 8.43a5.93 5.93 0 0 0 5.15 5.35l1.66.21a4.42 4.42 0 0 1 3.84 4l4 46.26a6.54 6.54 0 0 0 6.51 6h108.66a6.54 6.54 0 0 0 6.51-6l4.05-46.26a4.41 4.41 0 0 1 3.83-4l1.66-.21a5.92 5.92 0 0 0 5.15-5.35l.74-8.43a5.92 5.92 0 0 0-5.9-6.46z" style="fill:#f0f0f0"/><path transform="rotate(-180 359.915 284.7)" style="fill:#f0f0f0" d="M284.58 189.3h150.67v190.8H284.58z"/><path transform="rotate(-180 359.915 216.655)" style="fill:#e0e0e0" d="M289.9 196.25h140.02v40.8H289.9z"/><path transform="rotate(180 425.95 219.955)" style="fill:#ebebeb" d="M421.97 202.86h7.95v34.19h-7.95z"/><path transform="rotate(180 387.49 219.955)" style="fill:#ebebeb" d="M383.51 202.86h7.95v34.19h-7.95z"/><path transform="rotate(-170.22 340.867 219.524)" style="fill:#ebebeb" d="M336.89 202.43h7.95v34.19h-7.95z"/><path transform="rotate(180 416.095 222.21)" style="fill:#ebebeb" d="M412.12 207.37h7.95v29.69h-7.95z"/><path transform="rotate(180 397.81 222.21)" style="fill:#ebebeb" d="M393.83 207.37h7.95v29.69h-7.95z"/><path transform="rotate(180 351.665 222.21)" style="fill:#ebebeb" d="M347.69 207.37h7.95v29.69h-7.95z"/><path transform="rotate(-167.47 373.734 221.694)" style="fill:#ebebeb" d="M369.75 206.86h7.95v29.69h-7.95z"/><path transform="rotate(180 407.225 219.11)" style="fill:#ebebeb" d="M405.24 201.16h3.98v35.89h-3.98z"/><path transform="rotate(-180 359.91 219.115)" style="fill:#ebebeb" d="M357.93 201.16h3.98v35.89h-3.98z"/><path style="fill:#e0e0e0" d="M289.9 243.51h140.02v40.8H289.9z"/><path style="fill:#ebebeb" d="M289.9 250.12h7.95v34.19h-7.95zM328.37 250.12h7.95v34.19h-7.95z"/><path transform="rotate(-9.7 378.7 266.455)" style="fill:#ebebeb" d="M374.99 249.69h7.95v34.19h-7.95z"/><path style="fill:#ebebeb" d="M299.76 254.63h7.95v29.69h-7.95zM318.04 254.63h7.95v29.69h-7.95zM364.19 254.63h7.95v29.69h-7.95z"/><path transform="rotate(-12.53 346.047 268.918)" style="fill:#ebebeb" d="M342.13 254.12h7.95v29.69h-7.95z"/><path style="fill:#ebebeb" d="M310.62 248.42h3.98v35.89h-3.98zM357.93 248.42h3.98v35.89h-3.98z"/><path transform="rotate(180 425.95 267.215)" style="fill:#ebebeb" d="M421.97 250.12h7.95v34.19h-7.95z"/><path transform="rotate(180 416.095 269.47)" style="fill:#ebebeb" d="M412.12 254.63h7.95v29.69h-7.95z"/><path transform="rotate(180 397.81 269.47)" style="fill:#ebebeb" d="M393.83 254.63h7.95v29.69h-7.95z"/><path transform="rotate(180 407.225 266.37)" style="fill:#ebebeb" d="M405.24 248.42h3.98v35.89h-3.98z"/><path transform="rotate(-180 359.915 311.175)" style="fill:#e0e0e0" d="M289.9 290.77h140.02v40.8H289.9z"/><path transform="rotate(180 345.58 314.475)" style="fill:#ebebeb" d="M341.6 297.38h7.95v34.19h-7.95z"/><path transform="rotate(-170.22 298.96 314.045)" style="fill:#ebebeb" d="M294.98 296.95h7.95v34.19h-7.95z"/><path transform="rotate(180 374.185 316.73)" style="fill:#ebebeb" d="M370.21 301.89h7.95v29.69h-7.95z"/><path transform="rotate(180 355.905 316.73)" style="fill:#ebebeb" d="M351.93 301.89h7.95v29.69h-7.95z"/><path transform="rotate(180 309.755 316.73)" style="fill:#ebebeb" d="M305.78 301.89h7.95v29.69h-7.95z"/><path transform="rotate(-167.47 331.828 316.216)" style="fill:#ebebeb" d="M327.84 301.38h7.95v29.69h-7.95z"/><path transform="rotate(180 365.32 313.63)" style="fill:#ebebeb" d="M363.33 295.68h3.98v35.89h-3.98z"/><path transform="rotate(180 318.01 313.63)" style="fill:#ebebeb" d="M316.02 295.68H320v35.89h-3.98z"/><path transform="rotate(-170.22 390.47 314.043)" style="fill:#ebebeb" d="M386.49 296.95h7.95v34.19h-7.95z"/><path transform="rotate(180 401.265 316.73)" style="fill:#ebebeb" d="M397.29 301.89h7.95v29.69h-7.95z"/><path transform="rotate(-167.47 423.337 316.209)" style="fill:#ebebeb" d="M419.35 301.38h7.95v29.69h-7.95z"/><path transform="rotate(180 409.52 313.63)" style="fill:#ebebeb" d="M407.53 295.68h3.98v35.89h-3.98z"/><path d="M412.12 189.3v-2.83h-4.59a53.72 53.72 0 0 0 1.69-26.89s.06 11.74-4.48 11.82c-6.93.13-7.45-11.82-7.45-11.82s-1.67 17.1 4.55 26.89h-4.75v2.83z" style="fill:#e0e0e0"/><path d="M399.22 167.42a4 4 0 1 0 4-4 4 4 0 0 0-4 4zM381.35 189.3v-1.65l-4.85-2.26 2.43-2.36-6-21.3V175s.83 0 .83 1.91-2.75 1.47-2.75-.11.9-1.8.9-1.8v-13.84l-5.52 21.08 2.48 3.15-5 2.26v1.65zM351.66 189.3v-1.31l-4.46-1.02v-19.55l-3.83-5.36-3.27 4.2v8.97l-1.69-2.35-2.37-.9-1.69 3.7 3.61 11.29-3.61 1.02v1.31h17.31zM322.02 189.9l-5.48-27.84h-16.78l3.98 15.79-5.88 11.45 24.16.6z" style="fill:#e0e0e0"/><circle cx="366.15" cy="118.03" r="23.55" transform="rotate(-13.28 366.217 118.031)" style="fill:#e0e0e0"/><circle cx="366.15" cy="118.03" r="20.03" transform="rotate(-9.22 366.017 118.013)" style="fill:#f0f0f0"/><path style="fill:#f0f0f0" d="M367.09 104.29v14l9.28-5.25"/><path d="M367.09 119.29a1 1 0 0 1-.5-.13 1 1 0 0 1-.5-.87v-14a1 1 0 0 1 2 0v12.29l7.79-4.41a1 1 0 1 1 1 1.74l-9.28 5.25a1 1 0 0 1-.51.13z" style="fill:#e0e0e0"/><g><ellipse cx="250" cy="416.24" rx="193.89" ry="11.32" style="fill:#f5f5f5"/></g><g><path d="M101 380.92a.4.4 0 0 1-.35-.44c0-.07.06-.84.12-2.17.11-2 .27-6.15.21-11.72a1.91 1.91 0 0 0 0-.24c-.08-6.22-.41-12.34-1-18.21-.54-5.47-1.31-10.78-2.29-15.78a126.45 126.45 0 0 0-3.19-12.76c-.19-.62-.39-1.23-.59-1.85s-.34-1-.52-1.51a120.08 120.08 0 0 1-3.33-11.29c-.36-1.49-.68-2.95-1-4.35a95.19 95.19 0 0 1-1.81-16.07c-.06-2.13 0-4.25.09-6.3a60.7 60.7 0 0 1 .69-6.45c0-.15 0-.29.07-.42v-.2a.46.46 0 0 1 .11-.27.4.4 0 0 1 .56 0 .43.43 0 0 1 .11.39v.21c0 .14 0 .29-.07.44a58.83 58.83 0 0 0-.68 6.35c-.12 2-.15 4.14-.09 6.24a93.68 93.68 0 0 0 1.8 15.94c.26 1.39.58 2.84.94 4.31.59 2.46 1.29 5 2.09 7.53.35 1.15.76 2.39 1.22 3.69.18.51.35 1 .52 1.52s.4 1.24.59 1.86a126.24 126.24 0 0 1 3.21 12.85c1 5 1.76 10.37 2.3 15.87.59 5.88.92 12 1 18.26v.28c.06 5.57-.11 9.75-.21 11.74-.06 1.35-.11 2.16-.12 2.23a.41.41 0 0 1-.38.32z" style="fill:#005ce6"/><path d="M88.52 271.25a12.13 12.13 0 0 1 2.18-1.67 11.66 11.66 0 0 1 2.74-1.17" style="fill:#005ce6"/><path d="M88.52 271.64a.29.29 0 0 1-.16 0 .38.38 0 0 1-.2-.51.25.25 0 0 1 .08-.12 11.89 11.89 0 0 1 2.24-1.72 12.37 12.37 0 0 1 2.89-1.29.39.39 0 0 1 .48.27.4.4 0 0 1-.27.49 11.17 11.17 0 0 0-2.66 1.14 12.25 12.25 0 0 0-2.1 1.6.41.41 0 0 1-.3.14zM87.74 278.59a.35.35 0 0 1-.25-.09l-2.65-2.2a.39.39 0 0 1 .5-.6l2.66 2.2a.39.39 0 0 1 0 .55.38.38 0 0 1-.26.14zM92.5 312.79a.42.42 0 0 1-.39-.41 10.76 10.76 0 0 1 2-4.89 10.31 10.31 0 0 1 1.59-1.72.39.39 0 0 1 .51.6 9.6 9.6 0 0 0-1.47 1.63 9.7 9.7 0 0 0-1.35 2.54 9.2 9.2 0 0 0-.5 1.92.37.37 0 0 1-.37.38zM94.85 319.86a.4.4 0 0 1-.36-.24 6.63 6.63 0 0 0-3.93-3.55.41.41 0 0 1-.25-.5.4.4 0 0 1 .5-.25 7.45 7.45 0 0 1 4.4 4 .39.39 0 0 1-.2.52.29.29 0 0 1-.16.02zM100.86 355c-.9-1-1.72-4.89-2.16-7-.11-.5-.19-.93-.27-1.24" style="fill:#005ce6"/><path d="M100.86 355.34a.39.39 0 0 1-.3-.13c-.89-1-1.63-4.22-2.25-7.16-.1-.5-.19-.92-.26-1.23a.4.4 0 0 1 .77-.18c.07.31.16.74.27 1.24.4 1.91 1.23 5.89 2.06 6.8a.4.4 0 0 1 0 .56.37.37 0 0 1-.29.1zM90.41 305.23a.39.39 0 0 1-.39-.36C90 304.23 89 289 97.35 283a.4.4 0 0 1 .55.08.39.39 0 0 1-.09.55c-8 5.82-7 21.07-7 21.22a.39.39 0 0 1-.37.42z" style="fill:#005ce6"/><path d="M91.11 338.28c-1 3.68 7.16 10.25 7.16 10.25s10.3-1.75 11.26-5.43-1.92-9.5-7-10.83-10.46 2.33-11.42 6.01zM80.5 294.61c1.16 3.81 8.69 6.23 8.69 6.23s4.9-6.21 3.74-10-5.45-7.88-8.88-6.83-4.71 6.79-3.55 10.6zM100.57 306.1a10.1 10.1 0 0 1-3.1 1.94 3.37 3.37 0 0 1-3.43-.65c-1.05-1.11-.86-2.89-.29-4.3 1.12-2.8 5.5-7.64 9.08-6.47 5.17 1.71-.07 7.7-2.26 9.48zM90.47 313.54c.7.79 1.46 1.81 1.13 2.82a2.12 2.12 0 0 1-2.29 1.25 6.34 6.34 0 0 1-2.57-1.12c-1.84-1.17-5.64-3.62-3.4-6.17s5.66 1.54 7.13 3.22zM104 278.08a1.85 1.85 0 0 1 1.74 1.29c.19.88-.51 1.7-1.2 2.28-1.73 1.45-6.92 5.39-8.27 1.87-1.33-3.33 5.31-5.59 7.73-5.44zM93.57 266.76c1.11.05 2.19-.39 3.3-.37s2.38.86 2.18 1.95-1.41 1.4-2.43 1.51a20.43 20.43 0 0 1-5.24-.13 1.65 1.65 0 0 1-1.08-.49c-.48-.64.19-1.56 1-1.83a10.38 10.38 0 0 0 2.29-.65zM83.1 274.83c-1.1.08-2.2-.34-3.31-.3s-2.36.91-2.14 2 1.45 1.37 2.47 1.46a19.91 19.91 0 0 0 5.23-.25 1.62 1.62 0 0 0 1.08-.51c.46-.65-.23-1.55-1-1.8a11 11 0 0 1-2.31-.6zM88.21 272.72a.4.4 0 0 1-.36-.42c.15-2.16-.08-4.23-.49-4.35a.4.4 0 1 1 .22-.76c1.25.36 1.15 3.73 1 5.16a.39.39 0 0 1-.37.37z" style="fill:#005ce6"/><path d="M88.94 267.65a9.51 9.51 0 0 0-2.9-3.92c-1.37-.91-3.51-.89-4.42.48-1 1.54.16 3.75 1.86 4.47s3.63.4 5.44.06v-.81zM102.23 394.2h-.07a.4.4 0 0 1-.32-.46c2.64-14.1 10.66-20.25 10.75-20.31a.39.39 0 1 1 .47.63c-.08.06-7.86 6.05-10.44 19.82a.4.4 0 0 1-.39.32z" style="fill:#005ce6"/><path d="M110.52 376.36a.39.39 0 0 1-.14-.76 8.72 8.72 0 0 1 4.15-.15.4.4 0 0 1-.13.78 8 8 0 0 0-3.74.11.34.34 0 0 1-.14.02zM108.74 378.57a.39.39 0 0 1-.39-.38 17.17 17.17 0 0 1 2.7-9.74.39.39 0 0 1 .55-.1.4.4 0 0 1 .1.55 16.64 16.64 0 0 0-2.56 9.25.4.4 0 0 1-.38.42zM105.92 383.18a.39.39 0 0 1-.27-.11.4.4 0 0 1 0-.56 5.56 5.56 0 0 1 5.45-1.33.4.4 0 0 1 .26.49.39.39 0 0 1-.49.26 4.86 4.86 0 0 0-4.66 1.13.38.38 0 0 1-.29.12zM104.48 386.37a.4.4 0 0 1-.36-.22 13.1 13.1 0 0 1-.84-6.68.4.4 0 0 1 .79.1 12.51 12.51 0 0 0 .76 6.24.39.39 0 0 1-.35.56z" style="fill:#005ce6"/><path d="M103 389.56c0 .06-.29.36.84.44 2.78.18 7.68.12 9.46-2.24 2.53-3.36-3.53-3.2-3-5.08s7.1-.17 8.3-2.84-3.54-2.26-3.36-3.64 5.21.54 6.77-2.29-2.75-1.4-2.08-2.57 6-6 3.78-7.13-7.31 3.87-9 4.38-2.24-4.56-4.44-2.93-.5 9.32-3.09 10.2c-1.94.66-1-2.05-3.36-2-3.23.05-3.99 10.74-.82 15.7z" style="fill:#005ce6"/><g style="opacity:.30000000000000004"><path d="M103 389.56c0 .06-.29.36.84.44 2.78.18 7.68.12 9.46-2.24 2.53-3.36-3.53-3.2-3-5.08s7.1-.17 8.3-2.84-3.54-2.26-3.36-3.64 5.21.54 6.77-2.29-2.75-1.4-2.08-2.57 6-6 3.78-7.13-7.31 3.87-9 4.38-2.24-4.56-4.44-2.93-.5 9.32-3.09 10.2c-1.94.66-1-2.05-3.36-2-3.23.05-3.99 10.74-.82 15.7z" style="fill:#fff"/></g><path d="M101.93 394.55a.39.39 0 0 1-.38-.3 43.1 43.1 0 0 0-11.26-19.17.4.4 0 1 1 .53-.59 44 44 0 0 1 11.49 19.56.39.39 0 0 1-.28.48z" style="fill:#005ce6"/><path d="M95.05 380.76h-.14a10.73 10.73 0 0 0-4.31-.65.39.39 0 1 1 0-.78 11.6 11.6 0 0 1 4.63.69.39.39 0 0 1-.11.77zm.11-.77h.09zm0 0zM96.63 382.68a.39.39 0 0 1-.38-.41 14.56 14.56 0 0 0-2.25-8.12.39.39 0 1 1 .64-.45 15 15 0 0 1 2.36 8.61.39.39 0 0 1-.37.37zM98.28 385.26a.4.4 0 0 1-.27-.11 4.34 4.34 0 0 0-4.08-.82.39.39 0 0 1-.49-.26.4.4 0 0 1 .26-.49 5.11 5.11 0 0 1 4.85 1 .39.39 0 0 1-.27.68zM100.42 389.53a.33.33 0 0 1-.17 0 .39.39 0 0 1-.19-.52 11.08 11.08 0 0 0 .66-5.5.4.4 0 0 1 .35-.44.39.39 0 0 1 .44.34 11.5 11.5 0 0 1-.74 5.93.37.37 0 0 1-.35.19z" style="fill:#005ce6"/><path d="M101.71 392.55c-2.14.14-5.89-1.69-7.42-3.57s2.62-.86 2.13-2.39-5.51-.16-6.54-2.33 2.65-1.82 2.45-2.95-4-.73-5.29-3 2.07-1.12 1.51-2.08-4.92-4.87-3.21-5.8 5.81 3.17 7.14 3.59 1.51-2.55 3.27-1.21.76 7.56 2.81 8.29c1.52.54.76-2.26 2.51-1.62 3.07 1.09 1.51 13.02.64 13.07z" style="fill:#005ce6"/><g style="opacity:.2"><path d="M101.71 392.55c-2.14.14-5.89-1.69-7.42-3.57s2.62-.86 2.13-2.39-5.51-.16-6.54-2.33 2.65-1.82 2.45-2.95-4-.73-5.29-3 2.07-1.12 1.51-2.08-4.92-4.87-3.21-5.8 5.81 3.17 7.14 3.59 1.51-2.55 3.27-1.21.76 7.56 2.81 8.29c1.52.54.76-2.26 2.51-1.62 3.07 1.09 1.51 13.02.64 13.07z" style="fill:#fff"/></g><path d="M118.84 396.72c0 10.39 4.59 18.82-18.82 18.82-20.8 0-18.81-8.43-18.81-18.82s8.42-13.34 18.81-13.34 18.82 2.94 18.82 13.34z" style="fill:#263238"/><path style="fill:#263238" d="M79.22 383.18h41.66v10.31H79.22z"/><path style="fill:#fff;opacity:.2;isolation:isolate" d="M79.22 383.18h41.66v10.31H79.22z"/></g><g><path d="M272.28 412.43a12.36 12.36 0 0 1-1 5.44h-43v-1h.87V408h-.87v-1h43a12.7 12.7 0 0 1 1 5.43z" style="fill:#263238"/><path d="M272.28 412.43a12.36 12.36 0 0 1-1 5.44h-43v-1h.87V408h-.87v-1h43a12.7 12.7 0 0 1 1 5.43z" style="fill:#fff;opacity:.2;isolation:isolate"/><path d="M249.28 412.43a12.36 12.36 0 0 1-1 5.44h-20v-1h.87V408h-.87v-1h20a12.7 12.7 0 0 1 1 5.43z" style="opacity:.2;isolation:isolate"/><path d="M247.16 412.43a10.06 10.06 0 0 1-.81 4.42h-17.19V408h17.19a10.35 10.35 0 0 1 .81 4.43z" style="fill:#fff;opacity:.8;isolation:isolate"/><path d="M265.28 412.43a12.36 12.36 0 0 1-1 5.44h-8a12.36 12.36 0 0 0 1-5.44 12.7 12.7 0 0 0-1-5.45h8a12.7 12.7 0 0 1 1 5.45z" style="fill:#fff;opacity:.6000000000000001;isolation:isolate"/><path d="M276.11 401.54a12.36 12.36 0 0 1-1 5.44h-43v-1h.89v-8.85h-.87v-1h43a12.7 12.7 0 0 1 .98 5.41z" style="fill:#005ce6"/><path d="M253.11 401.54a12.36 12.36 0 0 1-1 5.44h-20v-1h.89v-8.85h-.87v-1h20a12.7 12.7 0 0 1 .98 5.41z" style="opacity:.2;isolation:isolate"/><path d="M251 401.54a10.06 10.06 0 0 1-.81 4.42H233v-8.85h17.19a10.35 10.35 0 0 1 .81 4.43z" style="fill:#fff;opacity:.8;isolation:isolate"/><path d="M269.11 401.54a12.36 12.36 0 0 1-1 5.44h-8a12.36 12.36 0 0 0 1-5.44 12.7 12.7 0 0 0-1-5.45h8a12.7 12.7 0 0 1 1 5.45z" style="opacity:.2;isolation:isolate"/></g><g><path d="M336.55 181v148.19a2.72 2.72 0 0 1-2.72 2.72H119.06a2.72 2.72 0 0 1-2.72-2.72V181a2.72 2.72 0 0 1 2.72-2.72h214.77a2.72 2.72 0 0 1 2.72 2.72z" style="fill:#005ce6"/><path d="M336.55 187.47v141.72a2.72 2.72 0 0 1-2.72 2.72H119.06a2.72 2.72 0 0 1-2.72-2.72V187.47z" style="fill:#fff;opacity:.4;isolation:isolate"/><path d="M336.55 323.16v6a2.72 2.72 0 0 1-2.72 2.72H119.06a2.72 2.72 0 0 1-2.72-2.72v-6z" style="opacity:.2;isolation:isolate"/><circle cx="331.1" cy="183.11" r="1.88" style="fill:#fff;opacity:.4;isolation:isolate"/><circle cx="323.98" cy="183.11" r="1.88" style="fill:#fff;opacity:.4;isolation:isolate"/><path d="M318.74 183.11a1.88 1.88 0 1 1-1.88-1.88 1.88 1.88 0 0 1 1.88 1.88z" style="fill:#fff;opacity:.4;isolation:isolate"/><g style="opacity:.5;isolation:isolate"><path d="M144.29 202.36v6.07h-.71l-3.64-4.52v4.52h-.86v-6.07h.71l3.64 4.53v-4.53zM150.12 206.41h-3.72a1.55 1.55 0 0 0 1.66 1.35 1.74 1.74 0 0 0 1.33-.56l.46.54a2.33 2.33 0 0 1-1.82.74 2.3 2.3 0 0 1-2.47-2.35 2.25 2.25 0 0 1 2.31-2.34 2.22 2.22 0 0 1 2.27 2.37 2.29 2.29 0 0 1-.02.25zm-3.72-.6h2.94a1.48 1.48 0 0 0-2.94 0zM158.16 203.84l-1.72 4.59h-.8l-1.32-3.43-1.32 3.43h-.8l-1.7-4.59h.79l1.33 3.66 1.39-3.66h.7l1.36 3.67 1.37-3.67zM165.46 206.41h-3.73a1.55 1.55 0 0 0 1.66 1.35 1.74 1.74 0 0 0 1.33-.56l.46.54a2.33 2.33 0 0 1-1.81.74 2.3 2.3 0 0 1-2.47-2.35 2.25 2.25 0 0 1 2.3-2.34 2.22 2.22 0 0 1 2.27 2.37 2.18 2.18 0 0 1-.01.25zm-3.73-.6h3a1.49 1.49 0 0 0-3 0zM171 205.79v2.64h-.83v-2.55c0-.9-.45-1.34-1.24-1.34a1.36 1.36 0 0 0-1.45 1.53v2.36h-.84v-4.59h.8v.69a2 2 0 0 1 1.66-.74 1.78 1.78 0 0 1 1.9 2zM175.11 208.16a1.55 1.55 0 0 1-1 .32 1.31 1.31 0 0 1-1.45-1.44v-2.52h-.78v-.68h.78v-1h.83v1h1.32v.68h-1.32V207a.68.68 0 0 0 .72.77 1.06 1.06 0 0 0 .65-.22zM178.58 203.79v.81h-.19a1.38 1.38 0 0 0-1.45 1.55v2.29h-.83v-4.59h.8v.77a1.75 1.75 0 0 1 1.67-.83zM179.46 202.42a.54.54 0 0 1 .56-.55.54.54 0 1 1-.56.55zm.14 1.42h.84v4.59h-.84zM186.15 206.41h-3.72a1.55 1.55 0 0 0 1.66 1.35 1.74 1.74 0 0 0 1.33-.56l.46.54a2.33 2.33 0 0 1-1.81.74 2.3 2.3 0 0 1-2.47-2.35 2.24 2.24 0 0 1 2.3-2.34 2.22 2.22 0 0 1 2.27 2.37 2.29 2.29 0 0 1-.02.25zm-3.72-.6h2.94a1.48 1.48 0 0 0-2.94 0zM186.74 208l.35-.66a3 3 0 0 0 1.61.47c.77 0 1.09-.23 1.09-.62 0-1-2.9-.14-2.9-2 0-.82.74-1.38 1.91-1.38a3.37 3.37 0 0 1 1.68.42l-.36.66a2.35 2.35 0 0 0-1.32-.36c-.73 0-1.09.26-1.09.63 0 1.08 2.91.2 2.91 2 0 .84-.76 1.36-2 1.36a3.35 3.35 0 0 1-1.88-.52z"/></g><path d="M135 205.89a3.9 3.9 0 1 1-3.89-3.89 3.89 3.89 0 0 1 3.89 3.89z" style="opacity:.2;isolation:isolate"/><path d="M131.06 208.16a.5.5 0 0 1-.5-.5v-3.54a.5.5 0 0 1 .5-.5.5.5 0 0 1 .5.5v3.54a.5.5 0 0 1-.5.5z" style="fill:#fff"/><path d="M132.83 206.39h-3.54a.5.5 0 1 1 0-1h3.54a.5.5 0 1 1 0 1z" style="fill:#fff"/><rect width="49.44" height="32.09" x="274.3" y="225.33" rx="2.96" style="opacity:.2;isolation:isolate"/><path d="M312.86 233.75h-4.67a1.47 1.47 0 0 1-1.36-.91l-1-2.34a1.46 1.46 0 0 0-1.35-.91h-11a1.47 1.47 0 0 0-1.35.91l-1 2.34a1.47 1.47 0 0 1-1.35.91h-4.68a2.67 2.67 0 0 0-2.67 2.67v13.45a2.68 2.68 0 0 0 2.67 2.67h27.69a2.67 2.67 0 0 0 2.67-2.67v-13.45a2.66 2.66 0 0 0-2.6-2.67zm-13.84 14a4.48 4.48 0 1 1 4.47-4.47 4.48 4.48 0 0 1-4.49 4.49z" style="fill:#fff"/><g style="opacity:.5;isolation:isolate"><path d="M292.9 220.36h.4v2.79h-.4zM297.6 221.93v1.22h-.39V222c0-.42-.2-.62-.54-.62a.61.61 0 0 0-.64.7v1.09h-.38V222c0-.42-.2-.62-.55-.62a.62.62 0 0 0-.64.7v1.09h-.38V221h.37v.31a.84.84 0 0 1 .73-.33.76.76 0 0 1 .73.39 1 1 0 0 1 .82-.39.81.81 0 0 1 .87.95zM300 221.87v1.28h-.37v-.28a.75.75 0 0 1-.69.31c-.48 0-.79-.26-.79-.63s.22-.62.86-.62h.6v-.07c0-.33-.18-.51-.56-.51a1.09 1.09 0 0 0-.68.22l-.16-.28a1.4 1.4 0 0 1 .88-.27c.57-.02.91.27.91.85zm-.39.64v-.3H299c-.38 0-.49.15-.49.33s.18.34.47.34a.61.61 0 0 0 .62-.37zM302.74 221v1.83a1 1 0 0 1-1.1 1.08 1.54 1.54 0 0 1-1-.31l.18-.3a1.31 1.31 0 0 0 .82.28c.5 0 .73-.23.73-.71v-.17a1 1 0 0 1-.77.33 1 1 0 1 1 0-2 1 1 0 0 1 .79.34V221zm-.38 1a.68.68 0 0 0-.72-.69.69.69 0 1 0 0 1.38.68.68 0 0 0 .72-.69zM305.38 222.22h-1.72a.72.72 0 0 0 .77.62.79.79 0 0 0 .61-.25l.21.24a1 1 0 0 1-.83.35 1.06 1.06 0 0 1-1.14-1.09 1 1 0 0 1 1.06-1.07 1 1 0 0 1 1.05 1.09s-.01.08-.01.11zm-1.72-.27H305a.68.68 0 0 0-1.36 0z"/></g><rect width="139.57" height="11.47" x="127.16" y="225.33" rx="2.77" style="fill:#fff"/><g style="opacity:.5;isolation:isolate"><path d="M129.52 220.7h-1v-.34h2.31v.34h-1v2.45h-.4zM131.14 220.38a.26.26 0 1 1 .26.25.25.25 0 0 1-.26-.25zm.07.66h.38v2.11h-.38zM133.52 223a.75.75 0 0 1-.47.15.61.61 0 0 1-.67-.67v-1.16H132V221h.36v-.47h.39v.47h.6v.31h-.6v1.15c0 .23.11.35.33.35a.45.45 0 0 0 .3-.1zM135.12 223a.73.73 0 0 1-.46.15.61.61 0 0 1-.67-.67v-1.16h-.36V221h.37v-.47h.38v.47h.62v.31h-.61v1.15a.31.31 0 0 0 .33.35.45.45 0 0 0 .3-.1zM135.59 220.19h.41v3h-.38zM138.61 222.22h-1.72a.72.72 0 0 0 .77.62.81.81 0 0 0 .61-.25l.21.24a1 1 0 0 1-.84.35 1.06 1.06 0 0 1-1.13-1.09 1 1 0 0 1 1.06-1.07 1 1 0 0 1 1.05 1.09s-.01.08-.01.11zm-1.72-.27h1.36a.68.68 0 0 0-1.36 0z"/></g><rect width="139.57" height="11.47" x="127.16" y="245.95" rx="2.77" style="fill:#fff"/><g style="opacity:.5;isolation:isolate"><path d="M128.74 242.37a1.41 1.41 0 0 1 1.48-1.43 1.39 1.39 0 0 1 1.07.44l-.26.25a1 1 0 0 0-.79-.33 1.08 1.08 0 1 0 .79 1.81l.26.25a1.39 1.39 0 0 1-1.07.44 1.41 1.41 0 0 1-1.48-1.43zM133.46 242.49v1.28h-.37v-.28a.78.78 0 0 1-.69.3c-.48 0-.79-.25-.79-.62s.22-.62.85-.62h.61v-.07c0-.33-.19-.52-.57-.52a1.08 1.08 0 0 0-.67.23l-.16-.29a1.46 1.46 0 0 1 .88-.27c.58 0 .91.28.91.86zm-.39.63v-.29h-.59c-.38 0-.49.15-.49.33s.18.34.47.34a.6.6 0 0 0 .61-.38zM135.36 243.65a.72.72 0 0 1-.46.14.6.6 0 0 1-.67-.66V242h-.36v-.32h.36v-.46h.38v.46h.61v.32h-.61v1.15a.31.31 0 0 0 .33.35.51.51 0 0 0 .3-.1zM137.66 242.84h-1.72a.72.72 0 0 0 .77.62.77.77 0 0 0 .61-.26l.21.25a1.15 1.15 0 0 1-2-.74 1 1 0 0 1 1.06-1.08 1 1 0 0 1 1 1.09s.07.08.07.12zm-1.72-.28h1.36a.66.66 0 0 0-.68-.6.65.65 0 0 0-.68.6zM140.23 241.65v1.83a1 1 0 0 1-1.1 1.09 1.55 1.55 0 0 1-1-.32l.18-.29a1.28 1.28 0 0 0 .82.27c.5 0 .72-.23.72-.71v-.17a.93.93 0 0 1-.76.33 1 1 0 1 1 0-2.05 1 1 0 0 1 .78.35v-.33zm-.38 1a.73.73 0 0 0-1.46 0 .73.73 0 0 0 1.46 0zM140.77 242.71a1.1 1.1 0 1 1 1.1 1.08 1.05 1.05 0 0 1-1.1-1.08zm1.81 0a.69.69 0 0 0-.71-.74.7.7 0 0 0-.72.74.71.71 0 0 0 .72.75.7.7 0 0 0 .71-.75zM144.64 241.63v.37h-.09a.63.63 0 0 0-.67.71v1.06h-.38v-2.12h.37v.35a.8.8 0 0 1 .77-.37zM145 241a.26.26 0 0 1 .26-.26.25.25 0 0 1 .26.25.24.24 0 0 1-.26.25.25.25 0 0 1-.26-.24zm.07.65h.39v2.12h-.39zM148.14 242.84h-1.72a.71.71 0 0 0 .76.62.79.79 0 0 0 .62-.26l.21.25a1.08 1.08 0 0 1-.84.34 1.06 1.06 0 0 1-1.14-1.08 1 1 0 0 1 1.07-1.08 1 1 0 0 1 1 1.09zm-1.72-.28h1.36a.66.66 0 0 0-.68-.6.65.65 0 0 0-.68.6zM148.41 243.55l.16-.31a1.35 1.35 0 0 0 .74.22c.36 0 .51-.11.51-.29 0-.47-1.34-.06-1.34-.9 0-.38.34-.64.88-.64a1.51 1.51 0 0 1 .77.19l-.16.31a1.07 1.07 0 0 0-.61-.17c-.34 0-.5.12-.5.29 0 .5 1.34.09 1.34.92 0 .38-.35.62-.92.62a1.52 1.52 0 0 1-.87-.24z"/></g><rect width="196.57" height="27.47" x="127.16" y="268.68" rx="2.77" style="fill:#fff"/><g style="opacity:.5;isolation:isolate"><path d="M129 263.71h1.18a1.4 1.4 0 1 1 0 2.8H129zm1.15 2.45a1.05 1.05 0 1 0 0-2.1h-.75v2.1zM134.12 265.58h-1.71a.71.71 0 0 0 .76.62.79.79 0 0 0 .61-.26l.22.25a1.1 1.1 0 0 1-.84.34 1.06 1.06 0 0 1-1.14-1.08 1 1 0 0 1 1.07-1.08 1 1 0 0 1 1 1.09.53.53 0 0 1 .03.12zm-1.71-.28h1.35a.65.65 0 0 0-.67-.61.66.66 0 0 0-.68.61zM135.86 266.38a.75.75 0 0 1-.47.15.6.6 0 0 1-.67-.66v-1.17h-.36v-.31h.36v-.47h.38v.47h.61v.31h-.61v1.15a.32.32 0 0 0 .34.36.51.51 0 0 0 .3-.1zM138 265.23v1.28h-.36v-.28a.8.8 0 0 1-.7.3c-.48 0-.78-.25-.78-.62s.22-.62.85-.62h.61v-.08c0-.32-.19-.51-.57-.51a1.06 1.06 0 0 0-.67.23l-.16-.29a1.37 1.37 0 0 1 .87-.27c.58 0 .91.28.91.86zm-.38.63v-.3H137c-.38 0-.48.15-.48.33s.17.35.46.35a.64.64 0 0 0 .64-.38zM138.65 263.73a.26.26 0 1 1 .25.25.25.25 0 0 1-.25-.25zm.06.66h.39v2.12h-.39zM139.83 263.54h.38v3h-.38zM140.68 266.28l.16-.3a1.32 1.32 0 0 0 .74.22c.36 0 .5-.11.5-.29 0-.47-1.33-.06-1.33-.91 0-.38.34-.63.88-.63a1.54 1.54 0 0 1 .77.19l-.16.3a1.17 1.17 0 0 0-.62-.16c-.33 0-.5.12-.5.29 0 .5 1.35.09 1.35.91 0 .39-.35.63-.92.63a1.5 1.5 0 0 1-.87-.25z"/></g><path style="opacity:.2;isolation:isolate" d="M116.34 187.47h220.21v8.91H116.34z"/><rect width="34.37" height="10.29" x="289.78" y="305.12" rx="2.45" style="fill:#005ce6"/><path d="m299.21 311.89.22-.47a2.2 2.2 0 0 0 1.39.49c.73 0 1-.28 1-.65 0-1-2.55-.38-2.55-1.94 0-.65.51-1.2 1.61-1.2a2.57 2.57 0 0 1 1.35.37l-.2.48a2.19 2.19 0 0 0-1.15-.34c-.71 0-1 .3-1 .67 0 1 2.55.38 2.55 1.92 0 .64-.52 1.2-1.63 1.2a2.52 2.52 0 0 1-1.59-.53zM306 311.32h-2.23l-.46 1.05h-.62l1.9-4.2h.59l1.91 4.2h-.63zm-.21-.48-.91-2.06-.9 2.06zM311.14 308.17l-1.84 4.2h-.6l-1.84-4.2h.64l1.52 3.45 1.52-3.45zM314.72 311.85v.52h-3v-4.2h3v.52h-2.37V310h2.11v.51h-2.11v1.36z" style="fill:#fff"/><rect width="44.37" height="10.29" x="241.37" y="305.12" rx="2.45" style="opacity:.4;isolation:isolate"/><path d="M249.77 308.17h1.77a2.11 2.11 0 1 1 0 4.2h-1.77zm1.73 3.68a1.58 1.58 0 1 0 0-3.16h-1.13v3.16zM254.72 308.17h.6v4.2h-.6zM256.2 311.89l.22-.47a2.18 2.18 0 0 0 1.39.49c.72 0 1-.28 1-.65 0-1-2.54-.38-2.54-1.94 0-.65.51-1.2 1.61-1.2a2.57 2.57 0 0 1 1.35.37l-.2.48a2.21 2.21 0 0 0-1.15-.34c-.71 0-1 .3-1 .67 0 1 2.54.38 2.54 1.92 0 .64-.51 1.2-1.62 1.2a2.52 2.52 0 0 1-1.6-.53zM260 310.27a2.13 2.13 0 0 1 2.22-2.15 2.1 2.1 0 0 1 1.6.66l-.39.37a1.56 1.56 0 0 0-1.18-.49 1.61 1.61 0 1 0 1.18 2.72l.39.38a2.1 2.1 0 0 1-1.6.66 2.13 2.13 0 0 1-2.22-2.15zM267.22 311.32H265l-.46 1.05h-.62l1.9-4.2h.59l1.91 4.2h-.63zm-.21-.48-.9-2.06-.91 2.06zM271.74 312.37l-.9-1.29h-1.3v1.28h-.6v-4.2h1.63c1.1 0 1.76.55 1.76 1.46a1.33 1.33 0 0 1-.93 1.33l1 1.41zm0-2.74c0-.6-.41-.94-1.17-.94h-1v1.89h1c.75 0 1.16-.35 1.16-.95zM273.3 308.17h1.77a2.11 2.11 0 1 1 0 4.2h-1.77zm1.73 3.68a1.58 1.58 0 1 0 0-3.16h-1.13v3.16zM124.3 192.33h-4a.5.5 0 0 1 0-1h4a.5.5 0 0 1 0 1z" style="fill:#fff"/><path d="M121.48 194a.51.51 0 0 1-.36-.15l-1.62-1.62a.5.5 0 0 1 0-.7l1.62-1.63a.51.51 0 0 1 .71 0 .5.5 0 0 1 0 .71l-1.27 1.27 1.27 1.27a.48.48 0 0 1 0 .7.5.5 0 0 1-.35.15zM332.48 190.33h-4.25a.5.5 0 0 1 0-1h4.25a.5.5 0 0 1 0 1zM332.48 192.33h-4.25a.5.5 0 0 1 0-1h4.25a.5.5 0 0 1 0 1zM332.48 194.33h-4.25a.5.5 0 0 1 0-1h4.25a.5.5 0 0 1 0 1z" style="fill:#fff"/></g><g><circle cx="393.91" cy="259.22" r="14.2" transform="rotate(-76.72 393.888 259.22)" style="fill:#005ce6"/><path style="fill:#005ce6" d="m385.83 266.22-4.21 11.07 9.36-7.45-5.15-3.62z"/><path d="M399.25 259.72h-10.69a.51.51 0 0 1-.5-.5.5.5 0 0 1 .5-.5h10.69a.5.5 0 0 1 .5.5.51.51 0 0 1-.5.5z" style="fill:#fff"/><path d="M393.91 265.06a.5.5 0 0 1-.5-.5v-10.68a.5.5 0 0 1 .5-.5.5.5 0 0 1 .5.5v10.68a.51.51 0 0 1-.5.5z" style="fill:#fff"/></g><g><path d="M374.44 282.62s-13.9-11.14-22 6.38c-4.58 9.89-.91 30.76 8.12 37.83s27.81-8.83 27.81-8.83 4.15-20.16-2.19-28.64c-8.12-10.84-11.74-6.74-11.74-6.74z" style="fill:#263238"/><path d="M355 325.62a.24.24 0 0 1-.22-.14c-.1-.19-9.36-19.49-4.78-34 1.34-4.21 3.66-7.12 6.92-8.63 5.89-2.74 12.87.09 12.94.12a.24.24 0 0 1 .13.33.25.25 0 0 1-.32.13c-.07 0-6.86-2.78-12.55-.13-3.12 1.46-5.35 4.26-6.64 8.33-4.52 14.28 4.65 33.4 4.74 33.59a.25.25 0 0 1-.11.34.22.22 0 0 1-.11.06z" style="fill:#263238"/><path d="M355.39 333.11s-2.46 22.15-3.26 24.79-12.08 16.74-12.08 16.74l3.2 1.66s12-12.33 13.91-16 4.76-22.76 4.76-22.76z" style="fill:#ebb376"/><path d="m366.42 342.86-.62-.1-8.8-1.44-4.69-.76s.41-13.45 5.34-17.3l4.74 4.39z" style="fill:#005ce6"/><path d="m365.8 342.76-8.8-1.44c-.69-6.14 2.36-12.67 2.36-12.67 3.93 2.65 6.12 9.04 6.44 14.11z" style="opacity:.2;isolation:isolate"/><path d="m374 362.88-7.47 11.83c-14.83-3.45-62.36-10.7-68.19 5.6-7.26 20.27 45.17 36.42 74.18 37.41s52.29-15.52 33.95-57.82z" style="fill:#263238"/><path d="m374 362.88-7.47 11.83c-14.83-3.45-62.36-10.7-68.19 5.6-7.26 20.27 45.17 36.42 74.18 37.41s52.29-15.52 33.95-57.82z" style="opacity:.2;isolation:isolate"/><path d="M305 407.78a2.63 2.63 0 0 1-.91-1.31 1 1 0 0 1 .35-.93.59.59 0 0 1 .58-.17c1 .29 1.93 3.08 2 3.4a.14.14 0 0 1-.05.18.18.18 0 0 1-.21 0 10.57 10.57 0 0 1-1.76-1.17zm.16-1.92a.71.71 0 0 0-.22-.13.2.2 0 0 0-.23.07.62.62 0 0 0-.25.63 4.19 4.19 0 0 0 2.07 2 8.17 8.17 0 0 0-1.42-2.57z" style="fill:#263238"/><path d="M306.69 409v-.08c-.34-.86-.43-3.12.27-3.62a.62.62 0 0 1 .78.08 1.06 1.06 0 0 1 .46.7c.22 1.14-1.12 2.83-1.21 2.91a.17.17 0 0 1-.18.05.18.18 0 0 1-.12-.04zm.85-3.28-.07-.05c-.2-.14-.29-.08-.33-.05-.41.28-.48 1.87-.26 2.83a3.92 3.92 0 0 0 .89-2.32.73.73 0 0 0-.23-.41zM358.72 415.61a2.63 2.63 0 0 1 .16 1.59 1 1 0 0 1-.76.65.63.63 0 0 1-.59-.13c-.7-.73-.19-3.64-.12-4a.16.16 0 0 1 .13-.14.19.19 0 0 1 .19.1 11 11 0 0 1 .99 1.93zm-1.07 1.61a.71.71 0 0 0 .13.22.22.22 0 0 0 .23.05.64.64 0 0 0 .53-.44 4.14 4.14 0 0 0-.85-2.74 8.13 8.13 0 0 0-.04 2.91z" style="fill:#263238"/><path style="fill:#ebb376" d="m338.74 399.04 11.94 4.25 5.73 2.04-1.47 6.27-5.55-1.18-13.56-2.89 2.91-8.49z"/><path d="m353.38 411.9 1-7.4a.74.74 0 0 1 .86-.63l3.65.61s5 .46 5.95 1.74c2.89 3.72 1.09 20.15-.84 20.73-.7.21-1.45-.76-1.75-1.42-1-2.12-2.69-7.66-3.52-9.41-1-2.05-3.64-3.06-4.84-3.42a.72.72 0 0 1-.51-.8z" style="fill:#005ce6"/><path d="M357.77 413.74v.08c-.12.92-1.14 2.94-2 3a.62.62 0 0 1-.64-.43 1.11 1.11 0 0 1-.07-.84c.36-1.11 2.35-1.94 2.47-2a.15.15 0 0 1 .18 0 .18.18 0 0 1 .06.19zm-2.34 2.45v.08c.11.23.21.21.26.21.5-.05 1.33-1.4 1.61-2.35-.57.27-1.69.9-1.91 1.59a.75.75 0 0 0 0 .47z" style="fill:#263238"/><path style="opacity:.2;isolation:isolate" d="m338.74 399.04 11.94 4.25-1.29 7.13-13.56-2.89 2.91-8.49z"/><path style="fill:#005ce6" d="m347.27 411.49-3.43.25 2.3-11.81 3.89 2.15-2.76 9.41z"/><path style="fill:#fff;opacity:.6000000000000001;isolation:isolate" d="m347.27 411.49-3.43.25 2.3-11.81 3.89 2.15-2.76 9.41z"/><path d="m397.07 365.6-17.88 19.82s-19.77-.44-43.77 11.29c0 0-25.75-10.63-28.12-19.47-3.1-11.58 59.22-2.53 59.22-2.53z" style="opacity:.2;isolation:isolate"/><path d="M313.21 379.6v2.94c0 .75.89 1.06 1.63 1.06h58.71c.75 0 1.66-.31 1.66-1.06v-2.94z" style="fill:#263238"/><path d="M313.21 379.6v2.94c0 .75.89 1.06 1.63 1.06h58.71c.75 0 1.66-.31 1.66-1.06v-2.94z" style="fill:#fff;opacity:.4;isolation:isolate"/><path d="M313.21 379.6v2.94c0 .75.89 1.06 1.63 1.06h38.72c.75 0 1.65-.31 1.65-1.06v-2.94z" style="opacity:.2;isolation:isolate"/><path d="m303.39 349.1 7 31.7a2.39 2.39 0 0 0 2.27 1.8h38.18a1.53 1.53 0 0 0 1.43-2l-7-31.46a2.16 2.16 0 0 0-2.27-1.54h-38.17c-1.03 0-1.67.46-1.44 1.5z" style="fill:#263238"/><path d="m303.39 349.1 7 31.7a2.39 2.39 0 0 0 2.27 1.8h36.88a1.55 1.55 0 0 0 1.45-2l-7-31.46a2.17 2.17 0 0 0-2.27-1.55h-36.89c-1.03.01-1.67.47-1.44 1.51z" style="fill:#fff;opacity:.4;isolation:isolate"/><path d="M322.21 365.21c0 2.71 2.91 4.92 5 4.92s3.4-2.21 2.79-4.92-2.73-4.83-4.82-4.91c.61 2.71-.69 4.91-2.82 4.91a1 1 0 0 1-.15 0z" style="opacity:.2;isolation:isolate"/><path style="fill:#ebb376" d="m330.45 412.62-12.5 2.05-6 .99-1.76-6.2 5.44-1.65 13.26-4.04 1.56 8.85z"/><path d="m311.42 408.45 2.7 7a.74.74 0 0 1-.44 1l-3.49 1.24s-4.57 2-6.05 1.36c-4.33-1.86-10.71-17.11-9.3-18.55.51-.52 1.63 0 2.22.4 1.87 1.38 6.05 5.39 7.63 6.52 1.85 1.33 4.67.92 5.89.65a.73.73 0 0 1 .84.38z" style="fill:#005ce6"/><path style="opacity:.2;isolation:isolate" d="m330.45 412.62-12.5 2.05-2.32-6.86 13.26-4.04 1.56 8.85z"/><path d="M317.78 406.51s51-28.65 68.56-27.84 20.13 16.33 12.87 26-20.66 12.07-20.66 12.07 9.13-12.89 7.81-16.52-6.48 1.43-6.48 1.43-32.07 10.35-60.12 12.77z" style="fill:#263238"/><path style="fill:#005ce6" d="m316.96 405.73 2.88-1.94 3.71 11.38h-4.45l-2.14-9.44z"/><path style="fill:#fff;opacity:.6000000000000001;isolation:isolate" d="m316.96 405.73 2.88-1.94 3.71 11.38h-4.45l-2.14-9.44z"/><path d="m406.46 359.9-32.47 3s-5.09-10.54-9-14.65-7.36-25-7.36-25a69.34 69.34 0 0 1 8.14-3.32 80.68 80.68 0 0 1 24.84-4.18h.18c2.42 0 3.82.12 3.82.12a6.9 6.9 0 0 1 2.31 2.63c3.48 6 6.25 20 7.89 30.05 1.07 6.5 1.65 11.35 1.65 11.35z" style="fill:#005ce6"/><path d="M404.82 348.56c-7.16-3.28-16.93-8.83-16.42-14.46.55-6.18 5.56-12.4 8.53-15.59 3.48 6 6.25 20 7.89 30.05z" style="opacity:.2;isolation:isolate"/><path d="M386.05 344.46c1.64 4.71-.55 9.23-4.88 10.08s-9.17-2.27-10.8-7 .54-9.23 4.88-10.09 9.17 2.3 10.8 7.01z" style="fill:#fff;opacity:.4;isolation:isolate"/><path style="fill:#005ce6" d="m372.1 353.21 2.04-16.87 13.45 14.57-15.49 2.3z"/><path d="M390.8 315.76a24.51 24.51 0 0 1-5.59 10.93 13.94 13.94 0 0 1-2 1.77 12.85 12.85 0 0 1-6.89 2.42c-4.47.27-6.86-1.68-8.26-4.12a17.47 17.47 0 0 1-1.63-4.38c-.23-.91-.41-1.76-.6-2.44l1.57-.51c.79-.25 1.56-.48 2.33-.7a82.61 82.61 0 0 1 15.2-2.73l2.1-.14c1.36-.07 2.56-.1 3.59-.11z" style="fill:#ebb376"/><path d="M371.34 317.88c-.06 2-1.21 2.51-1.21 2.51a4.11 4.11 0 0 0 4.45 4.73c6.37-.65 8.38-8.32 8.38-8.32-4.63-1.84-5.68-7-5.87-10a17 17 0 0 1 0-2.39l-8.66 5.46a30.32 30.32 0 0 1 1.93 3.79 10.8 10.8 0 0 1 .98 4.22z" style="fill:#ebb376"/><path d="M369 309.2a31.37 31.37 0 0 1 1.54 4 10.8 10.8 0 0 1 .54 4.3c4.87.38 6.8-10.38 6.8-10.38l.05-.06a16.26 16.26 0 0 1 .24-2.37z" style="opacity:.2;isolation:isolate"/><path d="M361.9 287.56c-8.38 2.55-9.71 7.86-7.69 16.68 2.52 11 7.25 18 17 12.46 13.29-7.47 4.6-33.38-9.31-29.14z" style="fill:#ebb376"/><path d="M359.48 302.12a18.63 18.63 0 0 1-1.37 4.22 2.39 2.39 0 0 0 2.49.27z" style="fill:#d58745"/><path d="M364.4 299.87c.2.69.73 1.15 1.19 1s.68-.79.48-1.49-.72-1.15-1.18-1-.68.8-.49 1.49z" style="fill:#263238"/><path d="m365.09 298.36-1.67-.17s1.1 1.06 1.67.17zM355.75 302.14c.19.69.72 1.15 1.18 1s.68-.8.49-1.49-.73-1.15-1.19-1-.68.79-.48 1.49z" style="fill:#263238"/><path d="m356.43 300.63-1.67-.17s1.11 1.05 1.67.17zM366.74 294.58a.36.36 0 0 1-.2-.06 4.24 4.24 0 0 0-3.67-.13.36.36 0 1 1-.3-.66 4.9 4.9 0 0 1 4.37.19.36.36 0 0 1 .1.5.34.34 0 0 1-.3.16zM353.4 297.63a.32.32 0 0 1-.23-.08.35.35 0 0 1-.05-.51 4.43 4.43 0 0 1 3.43-1.84.36.36 0 0 1 .34.38.38.38 0 0 1-.38.35 3.65 3.65 0 0 0-2.83 1.57.37.37 0 0 1-.28.13z" style="fill:#263238"/><path d="M375.36 298.88s-6-5.68-7-11.18c0 0-18.67-1.72-14.35 15.38 0 0-6.19-14.46 8.11-19.19s20.66 16.36 15.14 24.91c-.04 0 1.83-6.35-1.9-9.92z" style="fill:#263238"/><path d="M374.53 301.07a3.83 3.83 0 0 1 2.93-4.56c2.68-.51 5.55 4.44-.52 7.69-.87.47-1.67-.28-2.41-3.13z" style="fill:#ebb376"/><path d="M362.53 310.39a.37.37 0 0 1 0-.73 3.85 3.85 0 0 0 3.93-3.3.36.36 0 0 1 .4-.31.37.37 0 0 1 .32.4 4.65 4.65 0 0 1-4.63 3.94zM387.55 307.82a.24.24 0 0 1-.24-.2c0-.05-.93-4.63-9.75-7.2-9.17-2.67-9.8-13.67-9.8-13.78a.25.25 0 0 1 .24-.26.25.25 0 0 1 .26.24c0 .11.62 10.76 9.44 13.32 9.15 2.67 10.07 7.39 10.1 7.59a.26.26 0 0 1-.2.29z" style="fill:#263238"/><path d="M390.8 326.82s-1.06 21.37-2.86 26.16-20.69 22.49-20.69 22.49-5.27-1.18-6.14-.83-5.9 5-5.9 5h14.53l1.27-2.25s19.54-14.47 21.69-17.93c1.59-2.55 6.7-28.51 6.7-28.51z" style="fill:#ebb376"/><path d="M394.62 315.88c13.15 3.23 7 23 7 23l-13.68-3.35s0-21.29 6.68-19.65z" style="fill:#005ce6"/><path d="M385.21 326.69a13.94 13.94 0 0 1-2 1.77 21.78 21.78 0 0 1 1.72-12.46l2.1-.14a25.23 25.23 0 0 0-1.82 10.83zM369.68 318.73a23.8 23.8 0 0 0-1.67 8 17.47 17.47 0 0 1-1.63-4.38 21.72 21.72 0 0 1 1-2.95c.76-.22 1.53-.4 2.3-.67z" style="fill:#263238"/><path d="M385.21 326.69a13.94 13.94 0 0 1-2 1.77 21.78 21.78 0 0 1 1.72-12.46l2.1-.14a25.23 25.23 0 0 0-1.82 10.83zM369.68 318.73a23.8 23.8 0 0 0-1.67 8 17.47 17.47 0 0 1-1.63-4.38 21.72 21.72 0 0 1 1-2.95c.76-.22 1.53-.4 2.3-.67z" style="fill:#fff;opacity:.4;isolation:isolate"/></g></svg>