<svg xmlns="http://www.w3.org/2000/svg" version="1.0" viewBox="133.22 149.85 181.86 75"><defs><clipPath id="a"><path d="M137.031 149.848h75v75h-75zm0 0"/></clipPath><clipPath id="b"><path d="M133.219 155.21H179V199h-45.781zm0 0"/></clipPath><clipPath id="c"><path d="M167 176h44.969v43.71H167zm0 0"/></clipPath></defs><g clip-path="url(#a)"><path fill="#dee3f5" d="M174.531 149.848c-20.71 0-37.5 16.789-37.5 37.5 0 20.71 16.79 37.5 37.5 37.5 20.711 0 37.5-16.79 37.5-37.5 0-20.711-16.789-37.5-37.5-37.5"/></g><path fill="#005ce6" d="M160.996 176.691c.586-1.011.867-2.164.867-3.43 0-1.261-.281-2.402-.867-3.425-.582-1.012-1.367-1.82-2.375-2.387-1.008-.57-2.144-.855-3.402-.855s-2.395.285-3.403.855a6.145 6.145 0 0 0-2.375 2.387c-.586 1.023-.867 2.164-.867 3.426 0 1.265.281 2.402.867 3.43a6.171 6.171 0 0 0 2.375 2.386c1.008.57 2.145.856 3.403.856s2.394-.286 3.402-.856a6.171 6.171 0 0 0 2.375-2.387zm0 0"/><g clip-path="url(#b)"><path fill="#005ce6" d="M178.16 175.207c0-11-10.078-19.957-22.469-19.957-12.394 0-22.472 8.957-22.472 19.957 0 5.137 2.191 10.004 6.176 13.73.39.364.488.965.218 1.442l-4.031 7.016c-.316.535.223 1.167.805.96l11.476-4.187c.239-.078.489-.094.727-.016a24.882 24.882 0 0 0 7.101 1.028c12.391 0 22.47-8.957 22.47-19.973zm-14.027 11.11c-.836.378-1.75.566-2.742.566-1.29 0-2.489-.297-3.559-.883-1.086-.586-2.312-1.598-3.7-3.05-1.75-.141-3.308-.65-4.69-1.532a9.42 9.42 0 0 1-3.247-3.43c-.77-1.422-1.164-2.988-1.164-4.726 0-1.832.442-3.508 1.32-4.992a9.345 9.345 0 0 1 3.641-3.493c1.543-.836 3.274-1.265 5.211-1.265 1.922 0 3.652.43 5.211 1.265 1.543.836 2.758 1.993 3.64 3.477.88 1.484 1.321 3.144 1.321 5.008 0 1.504-.297 2.879-.898 4.156a9.46 9.46 0 0 1-2.489 3.258c-1.054.898-2.297 1.531-3.699 1.926.52.554 1.04.964 1.543 1.218.504.25 1.04.38 1.621.38 1.246 0 2.317-.509 3.246-1.52l1.621 1.945a5.958 5.958 0 0 1-2.187 1.691zm0 0"/></g><path fill="#005ce6" d="M185.91 198.672h7.086l-3.559-8.277zm0 0"/><g clip-path="url(#c)"><path fill="#005ce6" d="M205.578 211.504a1.156 1.156 0 0 1 .219-1.438c3.984-3.73 6.172-8.597 6.172-13.73 0-11.016-10.078-19.961-22.469-19.961-3.21 0-6.3.586-9.195 1.738a20.178 20.178 0 0 1-1.766 5.817c-1.258 2.656-3.055 5.039-5.336 7.078a24.585 24.585 0 0 1-6.129 4.015c-.031.442-.047.868-.047 1.313 0 11.012 10.078 19.957 22.473 19.957 2.426 0 4.816-.348 7.102-1.027.234-.063.488-.063.722.015l11.48 4.188c.583.207 1.118-.426.805-.965zm-9.527-5.688-1.89-4.379h-9.434l-1.872 4.38h-3.605l8.484-18.95h3.45l8.535 18.95zm0 0"/></g><path d="M236.917 177.547v6.469h10.422v6h-10.422v7H248.7v6.234h-19.563v-31.938H248.7v6.235zm0 0" fill="#1b1c1e"/><path d="m276.517 208.703-4.11-5.5c-1.21.238-2.39.359-3.546.359-3 0-5.75-.695-8.25-2.094-2.5-1.394-4.492-3.344-5.969-5.844-1.469-2.5-2.203-5.312-2.203-8.437 0-3.125.734-5.926 2.203-8.406 1.477-2.489 3.469-4.43 5.969-5.828 2.5-1.395 5.25-2.094 8.25-2.094 3.008 0 5.765.7 8.265 2.094a15.364 15.364 0 0 1 5.907 5.828c1.445 2.48 2.172 5.281 2.172 8.406 0 2.73-.559 5.227-1.672 7.484-1.106 2.262-2.64 4.137-4.61 5.625l7 8.407zm-16.11-21.516c0 2.824.766 5.078 2.298 6.766 1.53 1.68 3.582 2.515 6.156 2.515 2.55 0 4.594-.847 6.125-2.547 1.531-1.695 2.297-3.941 2.297-6.734 0-2.82-.766-5.07-2.297-6.75-1.531-1.688-3.574-2.531-6.125-2.531-2.574 0-4.625.836-6.156 2.5-1.532 1.668-2.297 3.93-2.297 6.781zM308.943 186.874c1.852.399 3.336 1.313 4.453 2.75 1.125 1.438 1.688 3.086 1.688 4.938 0 2.668-.934 4.781-2.797 6.344-1.867 1.562-4.465 2.343-7.797 2.343h-14.875v-31.937h14.375c3.238 0 5.773.746 7.61 2.234 1.843 1.48 2.765 3.496 2.765 6.047 0 1.875-.496 3.438-1.484 4.688-.993 1.242-2.305 2.105-3.938 2.593zm-11.562-2.64h5.109c1.27 0 2.242-.281 2.922-.844.687-.562 1.031-1.39 1.031-2.484s-.344-1.926-1.031-2.5c-.68-.57-1.653-.86-2.922-.86h-5.11zm5.734 12.734c1.312 0 2.32-.289 3.031-.875.707-.594 1.063-1.453 1.063-2.578 0-1.125-.371-2.004-1.11-2.64-.742-.633-1.761-.954-3.062-.954h-5.656v7.047zm0 0" fill="#005ce6"/></svg>