<svg xmlns="http://www.w3.org/2000/svg" xmlns:xlink="http://www.w3.org/1999/xlink" zoomAndPan="magnify" preserveAspectRatio="xMidYMid meet" version="1.0" viewBox="133.22 149.85 181.86 75"><defs><g/><clipPath id="id1"><path d="M 137.03125 149.847656 L 212.03125 149.847656 L 212.03125 224.847656 L 137.03125 224.847656 Z M 137.03125 149.847656 " clip-rule="nonzero"/></clipPath><clipPath id="id2"><path d="M 133.21875 155.210938 L 179 155.210938 L 179 199 L 133.21875 199 Z M 133.21875 155.210938 " clip-rule="nonzero"/></clipPath><clipPath id="id3"><path d="M 167 176 L 211.96875 176 L 211.96875 219.710938 L 167 219.710938 Z M 167 176 " clip-rule="nonzero"/></clipPath></defs><g clip-path="url(#id1)"><path fill="#dee3f5" d="M 174.53125 149.847656 C 153.820312 149.847656 137.03125 166.636719 137.03125 187.347656 C 137.03125 208.058594 153.820312 224.847656 174.53125 224.847656 C 195.242188 224.847656 212.03125 208.058594 212.03125 187.347656 C 212.03125 166.636719 195.242188 149.847656 174.53125 149.847656 " fill-opacity="1" fill-rule="nonzero"/></g><path fill="#005ce6" d="M 160.996094 176.691406 C 161.582031 175.679688 161.863281 174.527344 161.863281 173.261719 C 161.863281 172 161.582031 170.859375 160.996094 169.835938 C 160.414062 168.824219 159.628906 168.015625 158.621094 167.449219 C 157.613281 166.878906 156.476562 166.59375 155.21875 166.59375 C 153.960938 166.59375 152.824219 166.878906 151.816406 167.449219 C 150.808594 168.015625 150.023438 168.808594 149.441406 169.835938 C 148.855469 170.859375 148.574219 172 148.574219 173.261719 C 148.574219 174.527344 148.855469 175.664062 149.441406 176.691406 C 150.023438 177.71875 150.808594 178.507812 151.816406 179.078125 C 152.824219 179.648438 153.960938 179.933594 155.21875 179.933594 C 156.476562 179.933594 157.613281 179.648438 158.621094 179.078125 C 159.628906 178.507812 160.414062 177.71875 160.996094 176.691406 Z M 160.996094 176.691406 " fill-opacity="1" fill-rule="nonzero"/><g clip-path="url(#id2)"><path fill="#005ce6" d="M 178.160156 175.207031 C 178.160156 164.207031 168.082031 155.25 155.691406 155.25 C 143.296875 155.25 133.21875 164.207031 133.21875 175.207031 C 133.21875 180.34375 135.410156 185.210938 139.394531 188.9375 C 139.785156 189.300781 139.882812 189.902344 139.613281 190.378906 L 135.582031 197.394531 C 135.265625 197.929688 135.804688 198.5625 136.386719 198.355469 L 147.863281 194.167969 C 148.101562 194.089844 148.351562 194.074219 148.589844 194.152344 C 150.871094 194.832031 153.265625 195.179688 155.691406 195.179688 C 168.082031 195.179688 178.160156 186.222656 178.160156 175.207031 Z M 164.132812 186.316406 C 163.296875 186.695312 162.382812 186.882812 161.390625 186.882812 C 160.101562 186.882812 158.902344 186.585938 157.832031 186 C 156.746094 185.414062 155.519531 184.402344 154.132812 182.949219 C 152.382812 182.808594 150.824219 182.300781 149.441406 181.417969 C 148.054688 180.546875 146.984375 179.394531 146.195312 177.988281 C 145.425781 176.566406 145.03125 175 145.03125 173.261719 C 145.03125 171.429688 145.472656 169.753906 146.351562 168.269531 C 147.234375 166.785156 148.449219 165.613281 149.992188 164.777344 C 151.535156 163.941406 153.265625 163.511719 155.203125 163.511719 C 157.125 163.511719 158.855469 163.941406 160.414062 164.777344 C 161.957031 165.613281 163.171875 166.769531 164.054688 168.253906 C 164.933594 169.738281 165.375 171.398438 165.375 173.261719 C 165.375 174.765625 165.078125 176.140625 164.476562 177.417969 C 163.878906 178.683594 163.0625 179.773438 161.988281 180.675781 C 160.933594 181.574219 159.691406 182.207031 158.289062 182.601562 C 158.808594 183.15625 159.328125 183.566406 159.832031 183.820312 C 160.335938 184.070312 160.871094 184.199219 161.453125 184.199219 C 162.699219 184.199219 163.769531 183.691406 164.699219 182.679688 L 166.320312 184.625 C 165.707031 185.382812 164.964844 185.9375 164.132812 186.316406 Z M 164.132812 186.316406 " fill-opacity="1" fill-rule="nonzero"/></g><path fill="#005ce6" d="M 185.910156 198.671875 L 192.996094 198.671875 L 189.4375 190.394531 Z M 185.910156 198.671875 " fill-opacity="1" fill-rule="nonzero"/><g clip-path="url(#id3)"><path fill="#005ce6" d="M 205.578125 211.503906 C 205.308594 211.03125 205.386719 210.445312 205.796875 210.066406 C 209.78125 206.335938 211.96875 201.46875 211.96875 196.335938 C 211.96875 185.320312 201.890625 176.375 189.5 176.375 C 186.289062 176.375 183.199219 176.960938 180.304688 178.113281 C 180.019531 180.121094 179.421875 182.066406 178.539062 183.929688 C 177.28125 186.585938 175.484375 188.96875 173.203125 191.007812 C 171.390625 192.636719 169.328125 193.980469 167.074219 195.023438 C 167.042969 195.464844 167.027344 195.890625 167.027344 196.335938 C 167.027344 207.347656 177.105469 216.292969 189.5 216.292969 C 191.925781 216.292969 194.316406 215.945312 196.601562 215.265625 C 196.835938 215.203125 197.089844 215.203125 197.324219 215.28125 L 208.804688 219.46875 C 209.386719 219.675781 209.921875 219.042969 209.609375 218.503906 Z M 196.050781 205.816406 L 194.160156 201.4375 L 184.726562 201.4375 L 182.855469 205.816406 L 179.25 205.816406 L 187.734375 186.867188 L 191.183594 186.867188 L 199.71875 205.816406 Z M 196.050781 205.816406 " fill-opacity="1" fill-rule="nonzero"/></g><g fill="#1b1c1e" fill-opacity="1"><g transform="translate(226.323711, 203.249987)"><g><path d="M 10.59375 -25.703125 L 10.59375 -19.234375 L 21.015625 -19.234375 L 21.015625 -13.234375 L 10.59375 -13.234375 L 10.59375 -6.234375 L 22.375 -6.234375 L 22.375 0 L 2.8125 0 L 2.8125 -31.9375 L 22.375 -31.9375 L 22.375 -25.703125 Z M 10.59375 -25.703125 "/></g></g></g><g fill="#005ce6" fill-opacity="1"><g transform="translate(250.938944, 203.249459)"><g><path d="M 25.578125 5.453125 L 21.46875 -0.046875 C 20.257812 0.191406 19.078125 0.3125 17.921875 0.3125 C 14.921875 0.3125 12.171875 -0.382812 9.671875 -1.78125 C 7.171875 -3.175781 5.179688 -5.125 3.703125 -7.625 C 2.234375 -10.125 1.5 -12.9375 1.5 -16.0625 C 1.5 -19.1875 2.234375 -21.988281 3.703125 -24.46875 C 5.179688 -26.957031 7.171875 -28.898438 9.671875 -30.296875 C 12.171875 -31.691406 14.921875 -32.390625 17.921875 -32.390625 C 20.929688 -32.390625 23.6875 -31.691406 26.1875 -30.296875 C 28.6875 -28.898438 30.65625 -26.957031 32.09375 -24.46875 C 33.539062 -21.988281 34.265625 -19.1875 34.265625 -16.0625 C 34.265625 -13.332031 33.707031 -10.835938 32.59375 -8.578125 C 31.488281 -6.316406 29.953125 -4.441406 27.984375 -2.953125 L 34.984375 5.453125 Z M 9.46875 -16.0625 C 9.46875 -13.238281 10.234375 -10.984375 11.765625 -9.296875 C 13.296875 -7.617188 15.347656 -6.78125 17.921875 -6.78125 C 20.472656 -6.78125 22.515625 -7.628906 24.046875 -9.328125 C 25.578125 -11.023438 26.34375 -13.269531 26.34375 -16.0625 C 26.34375 -18.882812 25.578125 -21.132812 24.046875 -22.8125 C 22.515625 -24.5 20.472656 -25.34375 17.921875 -25.34375 C 15.347656 -25.34375 13.296875 -24.507812 11.765625 -22.84375 C 10.234375 -21.175781 9.46875 -18.914062 9.46875 -16.0625 Z M 9.46875 -16.0625 "/></g></g></g><g fill="#005ce6" fill-opacity="1"><g transform="translate(286.786816, 203.249459)"><g><path d="M 22.15625 -16.375 C 24.007812 -15.976562 25.492188 -15.0625 26.609375 -13.625 C 27.734375 -12.1875 28.296875 -10.539062 28.296875 -8.6875 C 28.296875 -6.019531 27.363281 -3.90625 25.5 -2.34375 C 23.632812 -0.78125 21.035156 0 17.703125 0 L 2.828125 0 L 2.828125 -31.9375 L 17.203125 -31.9375 C 20.441406 -31.9375 22.976562 -31.191406 24.8125 -29.703125 C 26.65625 -28.222656 27.578125 -26.207031 27.578125 -23.65625 C 27.578125 -21.78125 27.082031 -20.21875 26.09375 -18.96875 C 25.101562 -17.726562 23.789062 -16.863281 22.15625 -16.375 Z M 10.59375 -19.015625 L 15.703125 -19.015625 C 16.972656 -19.015625 17.945312 -19.296875 18.625 -19.859375 C 19.3125 -20.421875 19.65625 -21.25 19.65625 -22.34375 C 19.65625 -23.4375 19.3125 -24.269531 18.625 -24.84375 C 17.945312 -25.414062 16.972656 -25.703125 15.703125 -25.703125 L 10.59375 -25.703125 Z M 16.328125 -6.28125 C 17.640625 -6.28125 18.648438 -6.570312 19.359375 -7.15625 C 20.066406 -7.75 20.421875 -8.609375 20.421875 -9.734375 C 20.421875 -10.859375 20.050781 -11.738281 19.3125 -12.375 C 18.570312 -13.007812 17.550781 -13.328125 16.25 -13.328125 L 10.59375 -13.328125 L 10.59375 -6.28125 Z M 16.328125 -6.28125 "/></g></g></g></svg>