<svg xmlns="http://www.w3.org/2000/svg" xmlns:xlink="http://www.w3.org/1999/xlink" width="500" zoomAndPan="magnify" viewBox="0 0 375 187.499995" height="250" preserveAspectRatio="xMidYMid meet" version="1.0"><defs><clipPath id="id1"><path d="M 112.699219 56.101562 L 262.300781 56.101562 L 262.300781 130.902344 L 112.699219 130.902344 Z M 112.699219 56.101562 " clip-rule="nonzero"/></clipPath><clipPath id="id2"><path d="M 127 56.101562 L 262.300781 56.101562 L 262.300781 130.902344 L 127 130.902344 Z M 127 56.101562 " clip-rule="nonzero"/></clipPath></defs><g clip-path="url(#id1)"><path fill="#e3e8f6" d="M 112.699219 56.101562 L 112.699219 83.527344 C 118.207031 83.527344 122.671875 87.992188 122.671875 93.5 C 122.671875 99.007812 118.207031 103.472656 112.699219 103.472656 L 112.699219 130.902344 L 262.300781 130.902344 L 262.300781 103.472656 C 256.792969 103.472656 252.328125 99.007812 252.328125 93.5 C 252.328125 87.992188 256.792969 83.527344 262.300781 83.527344 L 262.300781 56.101562 Z M 112.699219 56.101562 " fill-opacity="1" fill-rule="nonzero"/></g><g clip-path="url(#id2)"><path fill="#f8f7fe" d="M 262.300781 103.472656 C 256.792969 103.472656 252.328125 99.007812 252.328125 93.5 C 252.328125 87.992188 256.792969 83.527344 262.300781 83.527344 L 262.300781 56.101562 L 128.128906 56.101562 C 127.828125 58.554688 127.660156 61.050781 127.660156 63.582031 C 127.660156 100.761719 161.148438 130.902344 202.460938 130.902344 L 262.300781 130.902344 Z M 262.300781 103.472656 " fill-opacity="1" fill-rule="nonzero"/></g><path fill="#d24034" d="M 135.140625 95.992188 L 165.058594 95.992188 L 165.058594 115.941406 L 135.140625 115.941406 Z M 135.140625 95.992188 " fill-opacity="1" fill-rule="nonzero"/><path fill="#d65146" d="M 165.058594 95.992188 L 135.140625 95.992188 L 135.140625 99.734375 C 135.140625 108.683594 142.953125 115.941406 152.59375 115.941406 L 165.058594 115.941406 Z M 165.058594 95.992188 " fill-opacity="1" fill-rule="nonzero"/><path fill="#ffffff" d="M 249.832031 63.582031 L 254.820312 63.582031 L 254.820312 68.566406 L 249.832031 68.566406 Z M 249.832031 63.582031 " fill-opacity="1" fill-rule="nonzero"/><path fill="#ffffff" d="M 249.832031 118.433594 L 254.820312 118.433594 L 254.820312 123.421875 L 249.832031 123.421875 Z M 249.832031 118.433594 " fill-opacity="1" fill-rule="nonzero"/><path fill="#ffffff" d="M 120.179688 63.582031 L 125.167969 63.582031 L 125.167969 68.566406 L 120.179688 68.566406 Z M 120.179688 63.582031 " fill-opacity="1" fill-rule="nonzero"/><path fill="#ffffff" d="M 120.179688 118.433594 L 125.167969 118.433594 L 125.167969 123.421875 L 120.179688 123.421875 Z M 120.179688 118.433594 " fill-opacity="1" fill-rule="nonzero"/><path fill="#aa2b24" d="M 132.644531 86.019531 L 167.554688 86.019531 L 167.554688 95.992188 L 132.644531 95.992188 Z M 132.644531 86.019531 " fill-opacity="1" fill-rule="nonzero"/><path fill="#eecc61" d="M 142.621094 71.058594 L 135.140625 76.046875 L 145.113281 86.019531 L 150.101562 86.019531 Z M 142.621094 71.058594 " fill-opacity="1" fill-rule="nonzero"/><path fill="#f3a845" d="M 142.621094 86.019531 L 157.578125 86.019531 L 157.578125 95.992188 L 142.621094 95.992188 Z M 142.621094 86.019531 " fill-opacity="1" fill-rule="nonzero"/><path fill="#eecc61" d="M 157.578125 71.058594 L 150.101562 86.019531 L 155.085938 86.019531 L 165.058594 76.046875 Z M 157.578125 71.058594 " fill-opacity="1" fill-rule="nonzero"/><path fill="#eecc61" d="M 145.113281 95.992188 L 155.085938 95.992188 L 155.085938 115.941406 L 145.113281 115.941406 Z M 145.113281 95.992188 " fill-opacity="1" fill-rule="nonzero"/><path fill="#ffffff" d="M 177.527344 66.074219 L 242.355469 66.074219 L 242.355469 120.925781 L 177.527344 120.925781 Z M 177.527344 66.074219 " fill-opacity="1" fill-rule="nonzero"/><path fill="#e3e8f6" d="M 202.785156 89.777344 L 212.761719 72.324219 L 217.089844 74.796875 L 207.117188 92.25 Z M 202.785156 89.777344 " fill-opacity="1" fill-rule="nonzero"/><path fill="#e3e8f6" d="M 199.964844 76.046875 L 204.953125 76.046875 L 204.953125 81.035156 L 199.964844 81.035156 Z M 199.964844 76.046875 " fill-opacity="1" fill-rule="nonzero"/><path fill="#e3e8f6" d="M 214.925781 83.527344 L 219.914062 83.527344 L 219.914062 88.515625 L 214.925781 88.515625 Z M 214.925781 83.527344 " fill-opacity="1" fill-rule="nonzero"/><path fill="#e3e8f6" d="M 185.007812 108.460938 L 224.898438 108.460938 L 224.898438 113.449219 L 185.007812 113.449219 Z M 185.007812 108.460938 " fill-opacity="1" fill-rule="nonzero"/><path fill="#e3e8f6" d="M 185.007812 98.488281 L 234.875 98.488281 L 234.875 103.472656 L 185.007812 103.472656 Z M 185.007812 98.488281 " fill-opacity="1" fill-rule="nonzero"/><path fill="#e3e8f6" d="M 234.832031 108.460938 C 234.542969 108.464844 229.890625 108.460938 229.890625 108.460938 L 229.882812 113.449219 L 234.875 113.449219 Z M 234.832031 108.460938 " fill-opacity="1" fill-rule="nonzero"/></svg>