<svg xmlns="http://www.w3.org/2000/svg" width="500" viewBox="0 0 375 187.5" height="250" version="1.0"><defs><clipPath id="a"><path d="M112.7 56.102h149.6v74.8H112.7zm0 0"/></clipPath><clipPath id="b"><path d="M127 56.102h135.3v74.8H127zm0 0"/></clipPath></defs><g clip-path="url(#a)"><path fill="#e3e8f6" d="M112.7 56.102v27.425c5.507 0 9.972 4.465 9.972 9.973 0 5.508-4.465 9.973-9.973 9.973v27.43h149.602v-27.43c-5.508 0-9.973-4.465-9.973-9.973 0-5.508 4.465-9.973 9.973-9.973V56.102zm0 0"/></g><g clip-path="url(#b)"><path fill="#f8f7fe" d="M262.3 103.473c-5.507 0-9.972-4.465-9.972-9.973 0-5.508 4.465-9.973 9.973-9.973V56.102H128.129c-.3 2.453-.469 4.949-.469 7.48 0 37.18 33.488 67.32 74.8 67.32h59.84zm0 0"/></g><path fill="#d24034" d="M135.14 95.992h29.919v19.95H135.14zm0 0"/><path fill="#d65146" d="M165.059 95.992H135.14v3.742c0 8.95 7.812 16.207 17.453 16.207h12.465zm0 0"/><path fill="#fff" d="M249.832 63.582h4.988v4.984h-4.988zM249.832 118.434h4.988v4.988h-4.988zM120.18 63.582h4.988v4.984h-4.988zM120.18 118.434h4.988v4.988h-4.988zm0 0"/><path fill="#aa2b24" d="M132.645 86.02h34.91v9.972h-34.91zm0 0"/><path fill="#eecc61" d="m142.621 71.059-7.48 4.988 9.972 9.973h4.989zm0 0"/><path fill="#f3a845" d="M142.621 86.02h14.957v9.972h-14.957zm0 0"/><path fill="#eecc61" d="m157.578 71.059-7.476 14.96h4.984l9.973-9.972zM145.113 95.992h9.973v19.95h-9.973zm0 0"/><path fill="#fff" d="M177.527 66.074h64.828v54.852h-64.828zm0 0"/><path fill="#e3e8f6" d="m202.785 89.777 9.977-17.453 4.328 2.473-9.973 17.453zM199.965 76.047h4.988v4.988h-4.988zM214.926 83.527h4.988v4.989h-4.988zM185.008 108.46h39.89v4.99h-39.89zM185.008 98.488h49.867v4.985h-49.867zM234.832 108.46c-.289.005-4.941 0-4.941 0l-.008 4.99h4.992zm0 0"/></svg>